<svg width="150" height="37" viewBox="0 0 150 37" fill="none" xmlns="http://www.w3.org/2000/svg">
<g clip-path="url(#clip0_1002_23856)">
<path d="M36.3288 0H24.2188V12.11H36.3288V0Z" fill="#FC0D1B"/>
<path d="M24.2194 12.1094H12.1094V24.2194H24.2194V12.1094Z" fill="#FC0D1B"/>
<path d="M12.11 24.2188H0V36.3288H12.11V24.2188Z" fill="#FC0D1B"/>
<path d="M145.272 36.3281H147.322V28.2981H150.002V26.3631H142.617V28.2981H145.272V36.3281ZM141.217 36.3281V26.3631H139.182V32.8631L134.072 26.3631H132.317V36.3281H134.352V29.8281L139.462 36.3281H141.217ZM124.342 36.3281H130.547V34.3931H126.377V32.2881H129.702V30.3481H126.377V28.2981H130.547V26.3631H124.342V36.3281ZM111.932 36.3281H113.967V30.2381L116.352 34.1131H117.702L120.072 30.2531V36.3331H122.107V26.3631H120.252L117.007 31.6131L113.777 26.3631H111.922L111.932 36.3281ZM108.467 29.7181C108.467 30.5481 107.862 31.1631 106.922 31.1631H105.672V28.2731H106.922C107.862 28.2731 108.467 28.8881 108.467 29.7181ZM110.447 29.7181C110.447 27.8231 108.972 26.3631 106.952 26.3631H103.637V36.3281H105.672V33.0731H106.947C108.972 33.0731 110.447 31.6131 110.447 29.7181ZM96.8569 36.4981C99.7069 36.4981 102.007 34.1981 102.007 31.3481C102.007 28.4981 99.7069 26.1981 96.8569 26.1981C94.0069 26.1981 91.7069 28.4981 91.7069 31.3481C91.7069 34.1981 94.0069 36.4981 96.8569 36.4981ZM96.8569 34.5331C95.1169 34.5331 93.7569 33.0881 93.7569 31.3481C93.7569 29.6081 95.1169 28.1631 96.8569 28.1631C98.5969 28.1631 99.9619 29.6081 99.9619 31.3481C99.9619 33.0881 98.5969 34.5331 96.8569 34.5331ZM85.0369 36.3281H91.3369V34.3931H87.0669V26.3631H85.0319L85.0369 36.3281ZM77.0669 36.3281H83.2719V34.3931H79.1019V32.2881H82.4269V30.3481H79.1019V28.2981H83.2719V26.3631H77.0669V36.3281ZM69.9919 36.3281H71.8019L75.9269 26.3631H73.6819L70.9019 33.2831L68.0819 26.3631H65.8769L69.9919 36.3281ZM58.9719 36.3281H65.1769V34.3931H61.0069V32.2881H64.3319V30.3481H61.0069V28.2981H65.1769V26.3631H58.9719V36.3281ZM50.9569 34.4631V28.2281H52.2069C54.0469 28.2281 55.2819 29.6181 55.2819 31.3431C55.2819 33.0681 54.0469 34.4581 52.2069 34.4581L50.9569 34.4631ZM48.9219 36.3281H52.2069C55.0719 36.3281 57.3319 34.1231 57.3319 31.3431C57.3319 28.5631 55.0719 26.3581 52.2069 26.3581H48.9219V36.3281ZM105.352 22.0931V12.1231H103.317V18.6231L98.2069 12.1231H96.4519V22.0881H98.4869V15.5881L103.597 22.0881H105.352V22.0931ZM92.1969 22.0931H94.2319V12.1231H92.1969V22.0931ZM85.0269 16.1531V13.9931H86.5719C87.3419 13.9931 87.8469 14.3881 87.8469 15.0731C87.8469 15.7481 87.3419 16.1531 86.5719 16.1531H85.0269ZM82.9919 22.0931H85.0269V17.8981H85.5169L88.9419 22.0931H91.3969L87.8169 17.6731C89.1519 17.2681 89.8669 16.4231 89.8669 15.0781C89.8669 13.4231 88.6619 12.1281 86.8069 12.1281H82.9869L82.9919 22.0931ZM75.0169 22.0931H81.2219V20.1581H77.0519V18.0481H80.3769V16.1131H77.0519V14.0631H81.2219V12.1281H75.0169V22.0931ZM67.9419 22.0931H69.7519L73.8769 12.1281H71.6319L68.8519 19.0481L66.0319 12.1281H63.8269L67.9419 22.0931ZM56.9219 22.0931H63.1269V20.1581H58.9569V18.0481H62.2819V16.1131H58.9569V14.0631H63.1269V12.1281H56.9219V22.0931ZM51.8269 22.2581C53.8769 22.2581 55.3069 21.0381 55.3069 19.2531C55.3219 17.7381 54.3969 16.8381 52.9319 16.2931L52.1319 15.9981C51.0669 15.6181 50.6019 15.3531 50.6019 14.7481C50.6019 14.1581 51.2469 13.8631 51.9369 13.8631C52.6119 13.8631 53.2419 14.1431 53.7069 14.7181L55.0669 13.3281C54.1819 12.3731 53.1419 11.9531 51.9069 11.9531C49.9569 11.9531 48.5369 13.0781 48.5369 14.9431C48.5369 16.3031 49.3769 17.2331 50.9919 17.7931L51.8319 18.0881C52.8269 18.4231 53.2369 18.8181 53.2369 19.3781C53.2369 19.9531 52.6869 20.3481 51.8919 20.3481C51.0619 20.3481 50.2369 19.9131 49.7419 19.1681L48.1719 20.4731C48.8919 21.5831 50.2419 22.2581 51.8269 22.2581Z" fill="#363636"/>
</g>
<defs>
<clipPath id="clip0_1002_23856">
<rect width="150" height="36.5" fill="white"/>
</clipPath>
</defs>
</svg>
