<svg width="15" height="22" viewBox="0 0 15 22" fill="none" xmlns="http://www.w3.org/2000/svg">
<path d="M13.5 6.27414C13.5 7.02384 13.1367 8.16616 12.5283 9.51939C11.9297 10.8509 11.1276 12.3155 10.3196 13.682C9.51259 15.0469 8.70484 16.3054 8.09845 17.2232C7.86509 17.5765 7.66175 17.8789 7.5 18.1172C7.33825 17.8789 7.13491 17.5765 6.90155 17.2232C6.29516 16.3054 5.48741 15.0469 4.6804 13.682C3.8724 12.3155 3.07026 10.8509 2.47166 9.51939C1.8633 8.16616 1.5 7.02384 1.5 6.27414C1.5 3.10169 4.16948 0.5 7.5 0.5C10.8305 0.5 13.5 3.10169 13.5 6.27414Z" stroke="white"/>
<circle cx="7.5" cy="6.5" r="3" stroke="white"/>
<path d="M5 16C2.65105 16.3918 1 17.319 1 18.4004C1 19.8361 3.91015 21 7.5 21C11.0899 21 14 19.8361 14 18.4004C14 17.319 12.349 16.3918 10 16" stroke="white"/>
</svg>
