<svg width="17" height="12" viewBox="0 0 17 12" fill="none" xmlns="http://www.w3.org/2000/svg">
<path d="M0.944669 0H15.6248C16.1471 0.00539811 16.5682 0.42915 16.5695 0.951417V11.0405C16.5709 11.2335 16.5128 11.4211 16.4049 11.5803C16.386 11.6316 16.3549 11.6775 16.3158 11.7152C16.2888 11.7409 16.2591 11.7611 16.2267 11.7773C16.0567 11.9204 15.8408 12 15.6181 12H0.944669C0.425101 11.9946 0.00539811 11.5749 0 11.0553V0.951417C0.00134953 0.42915 0.422402 0.00539811 0.944669 0ZM0.904184 10.6397L5.86775 5.48178L0.904184 1.28745V10.6397ZM6.61539 6.12551L1.31174 11.2618H15.2119L10.1444 6.12551L8.65992 7.36842C8.52497 7.48043 8.32929 7.48043 8.19433 7.36842L6.61539 6.12551ZM10.8799 5.47233L15.6653 10.6815V1.24157L10.8799 5.47233ZM1.37112 0.730094L8.41296 6.43725L15.1444 0.730094H1.37112Z" fill="#9B9B9B"/>
</svg>
