<svg width="16" height="22" viewBox="0 0 16 22" fill="none" xmlns="http://www.w3.org/2000/svg">
<path d="M16 8.01375C16 3.59107 12.4151 0 8 0C3.58491 0 0 3.59107 0 8.01375C0 11.6426 6.67924 17.6151 6.67924 17.6151C4.79245 17.7285 1.62264 18.1821 1.62264 19.7698C1.62264 21.9244 7.35849 22 8.03773 22C8.71698 22 14.4528 21.9244 14.4528 19.7698C14.4528 18.1443 11.2453 17.7285 9.35849 17.6151C9.35849 17.6151 16 11.6804 16 8.01375ZM10.6038 8.01375C10.6038 9.45017 9.43396 10.622 8 10.622C6.56604 10.622 5.39623 9.45017 5.39623 8.01375C5.39623 6.57732 6.56604 5.4055 8 5.4055C9.43396 5.4055 10.6038 6.57732 10.6038 8.01375ZM13.0943 19.7698C12.717 20.1478 10.8679 20.7148 8 20.7148C5.16981 20.7148 3.32075 20.1478 2.90566 19.7698C3.24528 19.4296 4.79245 18.9381 7.13207 18.8625L7.54717 19.9588C7.62264 20.1478 7.77358 20.2612 8 20.2612C8.18868 20.2612 8.37736 20.1478 8.45283 19.9588L8.83019 18.8625C11.2075 18.9381 12.717 19.4296 13.0943 19.7698Z" fill="white"/>
</svg>
