<svg width="102" height="26" viewBox="0 0 102 26" fill="none" xmlns="http://www.w3.org/2000/svg">
<path d="M97.2719 25.3281H99.3219V17.2981H102.002V15.3631H94.6169V17.2981H97.2719V25.3281ZM93.2169 25.3281V15.3631H91.1819V21.8631L86.0719 15.3631H84.3169V25.3281H86.3519V18.8281L91.4619 25.3281H93.2169ZM76.3419 25.3281H82.5469V23.3931H78.3769V21.2881H81.7019V19.3481H78.3769V17.2981H82.5469V15.3631H76.3419V25.3281ZM63.9319 25.3281H65.9669V19.2381L68.3519 23.1131H69.7019L72.0719 19.2531V25.3331H74.1069V15.3631H72.2519L69.0069 20.6131L65.7769 15.3631H63.9219L63.9319 25.3281ZM60.4669 18.7181C60.4669 19.5481 59.8619 20.1631 58.9219 20.1631H57.6719V17.2731H58.9219C59.8619 17.2731 60.4669 17.8881 60.4669 18.7181ZM62.4469 18.7181C62.4469 16.8231 60.9719 15.3631 58.9519 15.3631H55.6369V25.3281H57.6719V22.0731H58.9469C60.9719 22.0731 62.4469 20.6131 62.4469 18.7181ZM48.8569 25.4981C51.7069 25.4981 54.0069 23.1981 54.0069 20.3481C54.0069 17.4981 51.7069 15.1981 48.8569 15.1981C46.0069 15.1981 43.7069 17.4981 43.7069 20.3481C43.7069 23.1981 46.0069 25.4981 48.8569 25.4981ZM48.8569 23.5331C47.1169 23.5331 45.7569 22.0881 45.7569 20.3481C45.7569 18.6081 47.1169 17.1631 48.8569 17.1631C50.5969 17.1631 51.9619 18.6081 51.9619 20.3481C51.9619 22.0881 50.5969 23.5331 48.8569 23.5331ZM37.0369 25.3281H43.3369V23.3931H39.0669V15.3631H37.0319L37.0369 25.3281ZM29.0669 25.3281H35.2719V23.3931H31.1019V21.2881H34.4269V19.3481H31.1019V17.2981H35.2719V15.3631H29.0669V25.3281ZM21.9919 25.3281H23.8019L27.9269 15.3631H25.6819L22.9019 22.2831L20.0819 15.3631H17.8769L21.9919 25.3281ZM10.9719 25.3281H17.1769V23.3931H13.0069V21.2881H16.3319V19.3481H13.0069V17.2981H17.1769V15.3631H10.9719V25.3281ZM2.95688 23.4631V17.2281H4.20688C6.04688 17.2281 7.28188 18.6181 7.28188 20.3431C7.28188 22.0681 6.04688 23.4581 4.20688 23.4581L2.95688 23.4631ZM0.921875 25.3281H4.20688C7.07188 25.3281 9.33188 23.1231 9.33188 20.3431C9.33188 17.5631 7.07188 15.3581 4.20688 15.3581H0.921875V25.3281ZM57.3519 11.0931V1.12313H55.3169V7.62313L50.2069 1.12313H48.4519V11.0881H50.4869V4.58813L55.5969 11.0881H57.3519V11.0931ZM44.1969 11.0931H46.2319V1.12313H44.1969V11.0931ZM37.0269 5.15313V2.99312H38.5719C39.3419 2.99312 39.8469 3.38812 39.8469 4.07312C39.8469 4.74812 39.3419 5.15313 38.5719 5.15313H37.0269ZM34.9919 11.0931H37.0269V6.89812H37.5169L40.9419 11.0931H43.3969L39.8169 6.67312C41.1519 6.26812 41.8669 5.42313 41.8669 4.07812C41.8669 2.42313 40.6619 1.12813 38.8069 1.12813H34.9869L34.9919 11.0931ZM27.0169 11.0931H33.2219V9.15812H29.0519V7.04812H32.3769V5.11312H29.0519V3.06312H33.2219V1.12813H27.0169V11.0931ZM19.9419 11.0931H21.7519L25.8769 1.12813H23.6319L20.8519 8.04812L18.0319 1.12813H15.8269L19.9419 11.0931ZM8.92188 11.0931H15.1269V9.15812H10.9569V7.04812H14.2819V5.11312H10.9569V3.06312H15.1269V1.12813H8.92188V11.0931ZM3.82688 11.2581C5.87688 11.2581 7.30688 10.0381 7.30688 8.25312C7.32188 6.73812 6.39688 5.83813 4.93188 5.29313L4.13188 4.99813C3.06688 4.61812 2.60188 4.35313 2.60188 3.74813C2.60188 3.15813 3.24688 2.86312 3.93688 2.86312C4.61188 2.86312 5.24188 3.14313 5.70688 3.71813L7.06688 2.32812C6.18188 1.37313 5.14188 0.953125 3.90688 0.953125C1.95688 0.953125 0.536877 2.07812 0.536877 3.94312C0.536877 5.30312 1.37688 6.23313 2.99188 6.79313L3.83188 7.08813C4.82688 7.42313 5.23688 7.81812 5.23688 8.37812C5.23688 8.95312 4.68688 9.34813 3.89188 9.34813C3.06188 9.34813 2.23688 8.91313 1.74188 8.16813L0.171875 9.47313C0.891875 10.5831 2.24188 11.2581 3.82688 11.2581Z" fill="white"/>
</svg>
