<svg width="16" height="16" viewBox="0 0 16 16" fill="none" xmlns="http://www.w3.org/2000/svg">
<path fill-rule="evenodd" clip-rule="evenodd" d="M8.97675 0H7.23256C7.07752 0 7 0.0592593 7 0.177778V7H0.186047C0.0620155 7 0 7.07407 0 7.22222V8.88889C0 9.03704 0.0620155 9.11111 0.186047 9.11111H7V15.8222C7 15.9407 7.07752 16 7.23256 16H8.97675C9.13178 16 9.2093 15.9407 9.2093 15.8222V9.11111H15.814C15.938 9.11111 16 9.03704 16 8.88889V7.22222C16 7.07407 15.938 7 15.814 7H9.2093V0.177778C9.2093 0.0592593 9.13178 0 8.97675 0Z" fill="#363636"/>
</svg>
