<svg width="23" height="23" viewBox="0 0 23 23" fill="none" xmlns="http://www.w3.org/2000/svg">
<path d="M9.1741 0C4.10136 0 0 4.00734 0 8.96378C0 13.9202 4.10136 17.9276 9.1741 17.9276C10.9819 17.9276 12.6657 17.4108 14.0849 16.5303L20.7119 23L23 20.7643L16.4702 14.3842C17.6466 12.8762 18.3482 11.0044 18.3482 8.96378C18.3482 4.00734 14.2468 0 9.1741 0ZM9.1741 2.10912C13.0596 2.10912 16.1896 5.16735 16.1896 8.96378C16.1896 12.7602 13.0596 15.8184 9.1741 15.8184C5.2886 15.8184 2.15861 12.7602 2.15861 8.96378C2.15861 5.16735 5.2886 2.10912 9.1741 2.10912Z" fill="white"/>
</svg>
