<svg width="36" height="30" viewBox="0 0 36 30" fill="none" xmlns="http://www.w3.org/2000/svg">
<g clip-path="url(#clip0_707_8940)">
<path fill-rule="evenodd" clip-rule="evenodd" d="M27.3689 29.4534C27.8454 29.7959 28.4708 29.8703 29.0218 29.6768C29.5727 29.4683 29.9748 28.9918 30.0939 28.4259C31.3894 22.3356 34.5313 6.93865 35.7077 1.4142C35.797 0.997262 35.6481 0.565431 35.3205 0.282508C34.9929 -0.00041565 34.5462 -0.0748692 34.1442 0.0740379C27.8901 2.3821 8.66615 9.60409 0.803853 12.5078C0.31246 12.6865 -0.0151357 13.1779 -0.000245004 13.699C0.0146457 14.2202 0.372023 14.6818 0.878307 14.8307C4.40741 15.888 9.02353 17.3473 9.02353 17.3473C9.02353 17.3473 11.1827 23.8843 12.3144 27.2049C12.4633 27.6218 12.776 27.9494 13.2078 28.0686C13.6396 28.1877 14.1013 28.0686 14.414 27.7559C16.2306 26.0434 19.0301 23.4078 19.0301 23.4078C19.0301 23.4078 24.361 27.3091 27.3689 29.4534ZM10.9742 16.5283L13.4758 24.7777L14.0268 19.5511C14.0268 19.5511 23.6909 10.84 29.2004 5.86652C29.3642 5.71762 29.3791 5.47937 29.2451 5.30068C29.1111 5.13688 28.8728 5.09221 28.6793 5.21133C22.306 9.29139 10.9742 16.5283 10.9742 16.5283Z" fill="#363636"/>
</g>
<defs>
<clipPath id="clip0_707_8940">
<rect width="35.7377" height="29.7814" fill="white"/>
</clipPath>
</defs>
</svg>
