<svg width="20" height="17" viewBox="0 0 20 17" fill="none" xmlns="http://www.w3.org/2000/svg">
<path fill-rule="evenodd" clip-rule="evenodd" d="M15.3165 16.4832C15.5831 16.6748 15.9331 16.7165 16.2415 16.6082C16.5498 16.4915 16.7748 16.2248 16.8415 15.9082C17.5665 12.4998 19.3248 3.88316 19.9831 0.791492C20.0331 0.558159 19.9498 0.316492 19.7665 0.158159C19.5831 -0.000174376 19.3331 -0.041841 19.1081 0.0414923C15.6081 1.33316 4.84978 5.37483 0.449785 6.99983C0.174785 7.09983 -0.00854884 7.37483 -0.000215506 7.66649C0.00811783 7.95816 0.208118 8.21649 0.491451 8.29983C2.46645 8.89149 5.04978 9.70816 5.04978 9.70816C5.04978 9.70816 6.25812 13.3665 6.89145 15.2248C6.97478 15.4582 7.14978 15.6415 7.39145 15.7082C7.63312 15.7748 7.89145 15.7082 8.06645 15.5332C9.08312 14.5748 10.6498 13.0998 10.6498 13.0998C10.6498 13.0998 13.6331 15.2832 15.3165 16.4832ZM6.14145 9.24983L7.54145 13.8665L7.84978 10.9415C7.84978 10.9415 13.2581 6.06649 16.3415 3.28316C16.4331 3.19983 16.4415 3.06649 16.3665 2.96649C16.2915 2.87483 16.1581 2.84983 16.0498 2.91649C12.4831 5.19983 6.14145 9.24983 6.14145 9.24983Z" fill="white"/>
</svg>
