<?xml version="1.0" standalone="no"?>
<!DOCTYPE svg PUBLIC "-//W3C//DTD SVG 1.1//EN" "http://www.w3.org/Graphics/SVG/1.1/DTD/svg11.dtd" >
<svg xmlns="http://www.w3.org/2000/svg" xmlns:xlink="http://www.w3.org/1999/xlink" version="1.1">
<metadata>
Created by FontForge 20170731 at Mon Apr 19 13:29:19 2021
 By Aleksey,,,
Copyright (c) 2014-2019 by Gayane Bagdasaryan, Vyacheslav Kirilenko. All rights reserved.
</metadata>
<defs>
<font id="Formular" horiz-adv-x="1753" >
  <font-face 
    font-family="Formular"
    font-weight="400"
    font-stretch="normal"
    units-per-em="2048"
    panose-1="2 0 0 0 0 0 0 0 0 0"
    ascent="1638"
    descent="-410"
    x-height="1032"
    cap-height="1462"
    bbox="-274 -451 2859 1987"
    underline-thickness="102"
    underline-position="-307"
    unicode-range="U+000D-FB02"
  />
<missing-glyph horiz-adv-x="1081" 
d="M119 0v1462h844v-1462h-844zM258 129h565v1204h-565v-1204z" />
    <glyph glyph-name="fi" unicode="fi" horiz-adv-x="1320" 
d="M719 881h-287v-881h-174v881h-203v151h203v135q0 171 82 246.5t258 75.5h137v-156h-127q-94 0 -135 -40.5t-41 -133.5v-127h287v-151zM1161 1284h-200v205h200v-205zM1147 1032v-1032h-174v1032h174z" />
    <glyph glyph-name="fl" unicode="fl" horiz-adv-x="1310" 
d="M719 881h-287v-881h-174v881h-203v151h203v135q0 171 82 246.5t258 75.5h137v-156h-127q-94 0 -135 -40.5t-41 -133.5v-127h287v-151zM969 1489h174v-1489h-174v1489z" />
    <glyph glyph-name=".notdef" horiz-adv-x="1081" 
d="M119 0v1462h844v-1462h-844zM258 129h565v1204h-565v-1204z" />
    <glyph glyph-name=".null" horiz-adv-x="0" 
 />
    <glyph glyph-name="nonmarkingreturn" horiz-adv-x="682" 
 />
    <glyph glyph-name="NULL" horiz-adv-x="0" 
 />
    <glyph glyph-name="NULL" horiz-adv-x="0" 
 />
    <glyph glyph-name="CR" unicode="&#xd;" horiz-adv-x="569" 
 />
    <glyph glyph-name="space" unicode=" " horiz-adv-x="569" 
 />
    <glyph glyph-name="exclam" unicode="!" horiz-adv-x="643" 
d="M229 1462h185v-604l-35 -471h-117l-33 471v604zM428 0h-213v238h213v-238z" />
    <glyph glyph-name="quotedbl" unicode="&#x22;" horiz-adv-x="811" 
d="M160 942v520h166v-520h-166zM485 942v520h166v-520h-166z" />
    <glyph glyph-name="numbersign" unicode="#" horiz-adv-x="1226" 
d="M154 1036h231l72 398h145l-72 -398h279l72 398h145l-72 -398h203v-139h-227l-62 -360h207v-140h-231l-72 -397h-147l71 397h-276l-72 -397h-147l71 397h-204v140h229l63 360h-206v139zM506 897l-62 -360h277l63 360h-278z" />
    <glyph glyph-name="dollar" unicode="$" horiz-adv-x="1290" 
d="M578 1634h122v-176q187 -17 299.5 -119t133.5 -264h-172q-50 201 -261 223v-479l99 -18q83 -17 147.5 -46t116 -75t79 -116t27.5 -161q0 -79 -29.5 -151t-85.5 -131.5t-147.5 -98.5t-206.5 -47v-176h-122v178q-210 17 -336 132t-144 292h178q37 -233 302 -264v531l-56 10
q-81 13 -147 41.5t-116.5 74t-78.5 112.5t-28 151q0 161 113 273.5t313 129.5v174zM750 641l-50 8v-514q130 11 209.5 82.5t79.5 181.5q0 104 -64 164t-175 78zM561 846l17 -4v456q-107 -12 -176.5 -75.5t-69.5 -159.5q0 -92 64.5 -144.5t164.5 -72.5z" />
    <glyph glyph-name="percent" unicode="%" horiz-adv-x="1802" 
d="M547 0h-158l868 1434h156zM428 1462q158 0 244 -109.5t86 -277.5t-86 -277.5t-244 -109.5t-244 109.5t-86 277.5t86 277.5t244 109.5zM428 817q93 0 140.5 71t47.5 187t-47.5 187t-140.5 71t-140.5 -71t-47.5 -187t47.5 -187t140.5 -71zM1372 748q106 0 182 -53
t112 -139.5t36 -195.5q0 -168 -86 -277.5t-244 -109.5t-244 109.5t-86 277.5q0 109 36 195.5t112 139.5t182 53zM1372 102q93 0 141 71t48 187t-48 187t-141 71t-140.5 -71t-47.5 -187t47.5 -187t140.5 -71z" />
    <glyph glyph-name="ampersand" unicode="&#x26;" horiz-adv-x="1472" 
d="M1106 676h172q-26 -220 -148 -395l273 -281h-221l-138 141h-40q-182 -168 -412 -168q-209 0 -341 108.5t-132 299.5q0 119 58 215.5t147 153.5l59 38v41l-41 48q-58 66 -85.5 128.5t-27.5 139.5q0 140 95 228.5t249 88.5q159 0 262 -85.5t103 -227.5q0 -93 -50.5 -167.5
t-152.5 -145.5l-84 -60l363 -375q74 127 92 275zM590 133q190 0 325 141l-399 416l-72 -47q-153 -98 -153 -260q0 -116 85.5 -183t213.5 -67zM494 940l57 -61l84 61q69 49 102 97.5t33 109.5q0 76 -55.5 121t-136.5 45q-82 0 -131.5 -43t-49.5 -125q0 -100 97 -205z" />
    <glyph glyph-name="quotesingle" unicode="'" horiz-adv-x="485" 
d="M160 942v520h166v-520h-166z" />
    <glyph glyph-name="parenleft" unicode="(" horiz-adv-x="602" 
d="M262 639q0 -148 27 -285t76.5 -252.5t103 -206.5t123.5 -184h-168q-147 174 -236.5 407.5t-89.5 520.5q0 519 312 915h168q-68 -92 -119.5 -182.5t-98.5 -204t-72.5 -248t-25.5 -280.5z" />
    <glyph glyph-name="parenright" unicode=")" horiz-adv-x="602" 
d="M340 639q0 146 -25 280.5t-72 248t-98.5 204t-119.5 182.5h168q311 -394 311 -915q0 -287 -89.5 -520.5t-236.5 -407.5h-168q70 93 123.5 184t103 206.5t76.5 252.5t27 285z" />
    <glyph glyph-name="asterisk" unicode="*" horiz-adv-x="972" 
d="M418 1462h137l-10 -346l327 119l43 -133l-331 -98l211 -273l-113 -84l-197 285l-194 -285l-113 84l211 273l-330 98l43 133l326 -119z" />
    <glyph glyph-name="plus" unicode="+" horiz-adv-x="1398" 
d="M774 1102v-445h447v-149h-447v-445h-149v445h-447v149h447v445h149z" />
    <glyph glyph-name="comma" unicode="," horiz-adv-x="528" 
d="M256 0h-98v238h213v-273l-115 -201h-115l115 201v35z" />
    <glyph glyph-name="hyphen" unicode="-" horiz-adv-x="759" 
d="M659 492h-559v153h559v-153z" />
    <glyph glyph-name="period" unicode="." horiz-adv-x="528" 
d="M371 0h-213v238h213v-238z" />
    <glyph glyph-name="slash" unicode="/" horiz-adv-x="831" 
d="M162 -289h-164l618 1843h158z" />
    <glyph glyph-name="zero" unicode="0" horiz-adv-x="1280" 
d="M639 1462q116 0 211 -44.5t166.5 -133.5t111 -233.5t39.5 -333.5t-39.5 -333t-111 -233t-166.5 -133.5t-211 -44.5t-210.5 44.5t-166 133.5t-110.5 233t-39 333t39 333.5t110.5 233.5t166 133.5t210.5 44.5zM639 133q175 0 261.5 154.5t86.5 429.5q0 276 -86.5 431
t-261.5 155q-117 0 -195 -73t-114.5 -202.5t-36.5 -310.5q0 -275 86.5 -429.5t259.5 -154.5z" />
    <glyph glyph-name="one" unicode="1" horiz-adv-x="1032" 
d="M121 0v160h340v1085h-37l-305 -203v189l303 203h219v-1274h313v-160h-833z" />
    <glyph glyph-name="two" unicode="2" horiz-adv-x="1181" 
d="M287 1038h-181q6 105 45.5 187t104.5 133t148 77.5t180 26.5q215 0 340 -116.5t125 -319.5q0 -68 -18.5 -131t-47 -114.5t-80 -109.5t-101 -103.5t-126.5 -110.5l-303 -256v-41h712v-160h-974v201l421 350q130 108 196 176t103 141.5t37 157.5q0 133 -77.5 205t-210.5 72
q-125 0 -202.5 -66.5t-90.5 -198.5z" />
    <glyph glyph-name="three" unicode="3" horiz-adv-x="1165" 
d="M162 1434h837v-197l-354 -315v-39q187 -5 304.5 -120.5t117.5 -316.5q0 -219 -141 -346t-365 -127q-215 0 -352.5 121t-149.5 307h181q12 -122 101 -195t220 -73q149 0 237.5 83.5t88.5 229.5q0 143 -84 224.5t-240 81.5q-71 0 -125 -13v187l346 311v41h-622v156z" />
    <glyph glyph-name="four" unicode="4" horiz-adv-x="1253" 
d="M965 496h196v-160h-196v-336h-177v336h-708v201l637 897h248v-938zM266 496h525v723h-41l-484 -682v-41z" />
    <glyph glyph-name="five" unicode="5" horiz-adv-x="1218" 
d="M647 965q141 0 247.5 -65t161 -173t54.5 -242q0 -232 -136 -372t-356 -140q-228 0 -357 119t-142 309h178q17 -132 98.5 -200t214.5 -68q144 0 232 93t88 251q0 149 -85.5 242.5t-228.5 93.5q-192 0 -284 -135h-180l63 756h819v-156h-674l-32 -416h41q55 50 120 76.5
t158 26.5z" />
    <glyph glyph-name="six" unicode="6" horiz-adv-x="1214" 
d="M666 934q198 0 329 -132t131 -335q0 -102 -33.5 -192t-95 -157t-154 -106t-204.5 -39q-118 0 -211.5 38.5t-165.5 120t-110.5 219.5t-38.5 327q0 167 33 307t98 248t170.5 168.5t242.5 60.5q178 0 291 -94.5t139 -247.5h-178q-27 92 -88 137.5t-164 45.5
q-170 0 -266 -136t-104 -374h41q47 56 133.5 98.5t204.5 42.5zM637 133q136 0 222.5 85.5t86.5 240.5q0 153 -88 235t-225 82q-135 0 -223 -83.5t-88 -231.5q0 -152 90 -240t225 -88z" />
    <glyph glyph-name="seven" unicode="7" horiz-adv-x="1122" 
d="M1014 1237l-621 -1237h-188l622 1237v41h-727v156h914v-197z" />
    <glyph glyph-name="eight" unicode="8" horiz-adv-x="1251" 
d="M918 776v-41q38 -13 75.5 -41t72 -70t56 -103t21.5 -130q0 -181 -142.5 -299.5t-375.5 -118.5t-376 118.5t-143 299.5q0 130 70.5 222.5t155.5 121.5v41q-68 30 -125 110.5t-57 192.5q0 170 132.5 276.5t342.5 106.5t342.5 -106.5t132.5 -276.5q0 -111 -57 -191
t-125 -112zM625 1307q-129 0 -214 -62.5t-85 -173.5t85 -174t214 -63t214 63t85 174t-85 173.5t-214 62.5zM625 133q157 0 248.5 75t91.5 200q0 127 -90.5 198.5t-249.5 71.5t-249.5 -71.5t-90.5 -198.5q0 -125 91.5 -200t248.5 -75z" />
    <glyph glyph-name="nine" unicode="9" horiz-adv-x="1214" 
d="M549 502q-198 0 -329.5 132t-131.5 335q0 137 57 248t169.5 178t260.5 67q94 0 172 -23.5t145 -76t112.5 -133.5t71.5 -200t26 -271q0 -133 -20.5 -249.5t-64 -215t-106.5 -169.5t-153.5 -111t-200.5 -40q-178 0 -291 94.5t-139 247.5h178q27 -92 88 -137t164 -45
q170 0 266.5 136t104.5 374h-41q-47 -56 -133.5 -98.5t-204.5 -42.5zM578 1303q-136 0 -223 -85.5t-87 -240.5q0 -153 88.5 -235.5t225.5 -82.5q135 0 223 83.5t88 232.5q0 152 -90 240t-225 88z" />
    <glyph glyph-name="colon" unicode=":" horiz-adv-x="528" 
d="M371 0h-213v238h213v-238zM371 795h-213v237h213v-237z" />
    <glyph glyph-name="semicolon" unicode=";" horiz-adv-x="528" 
d="M256 0h-98v238h213v-273l-115 -201h-115l115 201v35zM371 795h-213v237h213v-237z" />
    <glyph glyph-name="less" unicode="&#x3c;" horiz-adv-x="1398" 
d="M1221 215v-156l-1043 453v137l1043 453v-156l-801 -346v-41z" />
    <glyph glyph-name="equal" unicode="=" horiz-adv-x="1398" 
d="M1221 453v-150h-1043v150h1043zM1221 860v-149h-1043v149h1043z" />
    <glyph glyph-name="greater" unicode="&#x3e;" horiz-adv-x="1398" 
d="M178 215l801 344v41l-801 346v156l1043 -453v-137l-1043 -453v156z" />
    <glyph glyph-name="question" unicode="?" horiz-adv-x="1120" 
d="M547 1489q200 0 320 -107.5t120 -287.5q0 -60 -13.5 -110.5t-31.5 -85t-56 -74t-66 -62.5t-83 -64q-46 -35 -64 -51t-38 -44t-25.5 -60t-5.5 -82v-74h-176v74q0 88 22.5 149t60.5 101t114 98q65 47 101 81t60.5 86t24.5 118q0 100 -70 171.5t-192 71.5q-131 0 -201.5 -65
t-77.5 -207h-176q7 198 128 311t325 113zM623 0h-213v238h213v-238z" />
    <glyph glyph-name="at" unicode="@" horiz-adv-x="2000" 
d="M1368 -131l51 -107q-240 -151 -540 -151q-237 0 -410 98t-262.5 273.5t-89.5 408.5q0 216 73 405.5t203 327.5t320.5 217.5t414.5 79.5q156 0 294 -48t241 -135.5t163 -220.5t60 -294q0 -126 -34 -242t-95 -206.5t-153 -144.5t-201 -54q-82 0 -127.5 28.5t-69.5 88.5h-37
q-108 -117 -264 -117q-155 0 -242.5 96t-87.5 268q0 134 54 250t156.5 189t232.5 73q79 0 136.5 -30t80.5 -70h37l16 72h146l-86 -521q0 -2 -3 -21.5t-5.5 -44t-2.5 -38.5q0 -56 21 -81t74 -25q54 0 110 34.5t104 97t78.5 163.5t30.5 221q0 268 -172 431t-479 163
q-136 0 -264.5 -42t-235 -121t-186.5 -186t-125 -245.5t-45 -290.5q0 -111 21 -209t69.5 -187t121 -153t183.5 -101.5t250 -37.5q246 0 475 139zM934 209q122 0 201 105.5t79 269.5q0 235 -196 235q-81 0 -146.5 -56t-99 -140.5t-33.5 -176.5q0 -108 48.5 -172.5
t146.5 -64.5z" />
    <glyph glyph-name="A" unicode="A" horiz-adv-x="1406" 
d="M1174 0l-156 449h-635l-154 -449h-188l514 1462h295l516 -1462h-192zM668 1274l-228 -658h521l-228 658h-65z" />
    <glyph glyph-name="B" unicode="B" horiz-adv-x="1435" 
d="M1128 793v-41q93 -43 150 -135.5t57 -204.5q0 -183 -127 -297.5t-368 -114.5h-654v1462h637q222 0 344.5 -105.5t122.5 -264.5q0 -100 -42 -178.5t-120 -120.5zM371 1298v-456h448q285 0 285 233q0 60 -24 104.5t-66 69.5t-91.5 37t-107.5 12h-444zM371 164h456
q66 0 121 13t101.5 41.5t73 81.5t26.5 126q0 68 -25.5 118.5t-70.5 79.5t-101 42.5t-123 13.5h-458v-516z" />
    <glyph glyph-name="C" unicode="C" horiz-adv-x="1470" 
d="M1174 416h194q-46 -202 -196 -322.5t-384 -120.5q-160 0 -289 57.5t-213 159t-128.5 240t-44.5 301.5q0 219 78 389t233 269.5t367 99.5q221 0 368.5 -109.5t192.5 -300.5h-195q-43 121 -130.5 181.5t-235.5 60.5q-99 0 -181.5 -32t-139 -87t-96 -130t-57.5 -161
t-18 -180q0 -120 29.5 -224t87 -187t153.5 -131t219 -48q151 0 250.5 72.5t135.5 202.5z" />
    <glyph glyph-name="D" unicode="D" horiz-adv-x="1521" 
d="M186 1462h547q220 0 373.5 -91.5t228 -254.5t74.5 -385t-74.5 -384.5t-228 -254.5t-373.5 -92h-547v1462zM371 168h362q129 0 225.5 44.5t153 123.5t84 178t27.5 217t-27.5 217t-84 178t-153 123.5t-225.5 44.5h-362v-1126z" />
    <glyph glyph-name="E" unicode="E" horiz-adv-x="1335" 
d="M371 168h866v-168h-1051v1462h1018v-168h-833v-452h671v-168h-671v-506z" />
    <glyph glyph-name="F" unicode="F" horiz-adv-x="1298" 
d="M1208 1294h-837v-475h678v-168h-678v-651h-185v1462h1022v-168z" />
    <glyph glyph-name="G" unicode="G" horiz-adv-x="1523" 
d="M764 776h641v-147q0 -104 -21 -197.5t-68.5 -178.5t-117 -146.5t-174 -97.5t-233.5 -36q-162 0 -292 58.5t-213.5 161t-128 240t-44.5 298.5q0 162 45 300t129.5 240t215 160t292.5 58q227 0 374.5 -105.5t190.5 -293.5h-193q-75 231 -372 231q-125 0 -222 -47.5
t-155.5 -130t-88.5 -187t-30 -225.5q0 -120 29 -224t87.5 -187t155.5 -131t222 -48q110 0 193.5 35.5t132.5 98t73.5 141t24.5 170.5v26h-453v164z" />
    <glyph glyph-name="H" unicode="H" horiz-adv-x="1558" 
d="M1188 1462h184v-1462h-184v668h-817v-668h-185v1462h185v-622h817v622z" />
    <glyph glyph-name="I" unicode="I" horiz-adv-x="581" 
d="M199 1462h184v-1462h-184v1462z" />
    <glyph glyph-name="J" unicode="J" horiz-adv-x="1191" 
d="M549 -27q-205 0 -331.5 121.5t-139.5 345.5h184q12 -150 86.5 -224.5t204.5 -74.5q127 0 199.5 81.5t72.5 242.5v997h185v-995q0 -233 -122 -363.5t-339 -130.5z" />
    <glyph glyph-name="K" unicode="K" horiz-adv-x="1470" 
d="M1120 1462h238l-508 -489l553 -973h-207l-465 817h-41l-319 -313v-504h-185v1462h185v-729z" />
    <glyph glyph-name="L" unicode="L" horiz-adv-x="1275" 
d="M371 174h821v-174h-1006v1462h185v-1288z" />
    <glyph glyph-name="M" unicode="M" horiz-adv-x="1765" 
d="M186 0v1462h301l377 -723h41l371 723h303v-1462h-180v1253h-41l-381 -731h-189l-380 731h-41v-1253h-181z" />
    <glyph glyph-name="N" unicode="N" horiz-adv-x="1568" 
d="M1202 1462h180v-1462h-286l-688 1223h-41v-1223h-181v1462h287l688 -1222h41v1222z" />
    <glyph glyph-name="O" unicode="O" horiz-adv-x="1589" 
d="M795 1489q162 0 293 -59t215 -162.5t129 -240.5t45 -296t-45 -296t-129 -240.5t-215 -162.5t-293 -59q-131 0 -242 38.5t-191.5 107.5t-137 163.5t-84 208t-27.5 240.5t27.5 240.5t84 208t137 163.5t191.5 107.5t242 38.5zM795 141q101 0 184.5 32t140.5 87.5t96 131
t56.5 160.5t17.5 179t-17.5 179t-56.5 160.5t-96 131t-140.5 87.5t-184.5 32t-184.5 -32t-140.5 -87.5t-96 -131t-57 -160.5t-18 -179t18 -179t57 -160.5t96 -131t140.5 -87.5t184.5 -32z" />
    <glyph glyph-name="P" unicode="P" horiz-adv-x="1406" 
d="M186 1462h619q237 0 366 -115t129 -321q0 -208 -128.5 -324t-366.5 -116h-434v-586h-185v1462zM371 750h403q180 0 260 70t80 204t-80 204t-260 70h-403v-548z" />
    <glyph glyph-name="Q" unicode="Q" horiz-adv-x="1609" 
d="M795 1489q162 0 293 -59t215 -162.5t129 -240.5t45 -296q0 -342 -187 -553l199 -315h-189l-131 213q-162 -103 -374 -103q-131 0 -242 38.5t-191.5 107.5t-137 163.5t-84 208t-27.5 240.5t27.5 240.5t84 208t137 163.5t191.5 107.5t242 38.5zM795 141q169 0 282 84
l-258 420h178l191 -303q102 150 102 389q0 94 -17.5 179t-56.5 160.5t-96 131t-140.5 87.5t-184.5 32t-184.5 -32t-140.5 -87.5t-96 -131t-57 -160.5t-18 -179t18 -179t57 -160.5t96 -131t140.5 -87.5t184.5 -32z" />
    <glyph glyph-name="R" unicode="R" horiz-adv-x="1452" 
d="M1315 1036q0 -141 -62.5 -239.5t-181.5 -145.5l254 -651h-195l-239 612q-18 -2 -57 -2h-463v-610h-185v1462h648q231 0 356 -112t125 -314zM1128 1036q0 129 -75 195.5t-246 66.5h-436v-524h436q171 0 246 66.5t75 195.5z" />
    <glyph glyph-name="S" unicode="S" horiz-adv-x="1359" 
d="M590 864l264 -49q181 -37 282 -132.5t101 -274.5q0 -85 -34.5 -161.5t-101 -138.5t-174 -98.5t-241.5 -36.5q-253 0 -411.5 120.5t-176.5 314.5h187q12 -72 49 -125t93 -83.5t122 -44.5t145 -14q156 0 256.5 70t100.5 192q0 196 -256 244l-258 47q-177 33 -277 126.5
t-100 256.5q0 84 34 158.5t97.5 131t162 89.5t220.5 33q224 0 364.5 -107.5t165.5 -287.5h-186q-27 114 -109.5 170.5t-238.5 56.5q-141 0 -232.5 -63.5t-91.5 -176.5q0 -172 244 -217z" />
    <glyph glyph-name="T" unicode="T" horiz-adv-x="1222" 
d="M1184 1462v-164h-479v-1298h-185v1298h-483v164h1147z" />
    <glyph glyph-name="U" unicode="U" horiz-adv-x="1515" 
d="M1149 1462h184v-940q0 -262 -148 -405.5t-427 -143.5t-427.5 143.5t-148.5 405.5v940h185v-938q0 -176 101.5 -279.5t289.5 -103.5t289.5 103.5t101.5 279.5v938z" />
    <glyph glyph-name="V" unicode="V" horiz-adv-x="1366" 
d="M518 0l-477 1462h192l416 -1274h74l416 1274h186l-477 -1462h-330z" />
    <glyph glyph-name="W" unicode="W" horiz-adv-x="1863" 
d="M494 201l297 1261h282l297 -1261h41l252 1261h180l-293 -1462h-305l-295 1262h-41l-295 -1262h-301l-293 1462h181l252 -1261h41z" />
    <glyph glyph-name="X" unicode="X" horiz-adv-x="1325" 
d="M692 860l330 602h195l-388 -706l451 -756h-203l-389 651h-55l-389 -651h-199l451 756l-387 706h198l330 -602h55z" />
    <glyph glyph-name="Y" unicode="Y" horiz-adv-x="1316" 
d="M690 797l391 665h195l-526 -903v-559h-185v559l-526 903h203l391 -665h57z" />
    <glyph glyph-name="Z" unicode="Z" horiz-adv-x="1320" 
d="M1192 1462v-207l-866 -1046v-41h895v-168h-1123v209l869 1044v41h-813v168h1038z" />
    <glyph glyph-name="bracketleft" unicode="[" horiz-adv-x="663" 
d="M545 -289h-387v1843h387v-139h-223v-1565h223v-139z" />
    <glyph glyph-name="backslash" unicode="\" horiz-adv-x="831" 
d="M834 -289h-164l-613 1843h158z" />
    <glyph glyph-name="bracketright" unicode="]" horiz-adv-x="663" 
d="M506 -289h-387v139h223v1565h-223v139h387v-1843z" />
    <glyph glyph-name="asciicircum" unicode="^" horiz-adv-x="1120" 
d="M248 602h-162l412 815h125l409 -815h-160l-297 590h-32z" />
    <glyph glyph-name="underscore" unicode="_" horiz-adv-x="1034" 
d="M1036 -272h-1038v131h1038v-131z" />
    <glyph glyph-name="grave" unicode="`" horiz-adv-x="540" 
d="M301 1192l-221 297h205l176 -297h-160z" />
    <glyph glyph-name="a" unicode="a" horiz-adv-x="1140" 
d="M825 0v111h-41q-49 -63 -133 -100.5t-190 -37.5q-172 0 -272.5 98.5t-100.5 237.5q0 65 22 124t67 109t124 79.5t182 29.5h336v41q0 99 -61.5 157t-190.5 58q-113 0 -173 -37.5t-66 -105.5h-174q7 138 120 216.5t289 78.5q198 0 312 -93t114 -264v-702h-164zM502 125
q130 0 223.5 84t93.5 205v92h-309q-248 0 -248 -193q0 -88 62.5 -138t177.5 -50z" />
    <glyph glyph-name="b" unicode="b" horiz-adv-x="1259" 
d="M168 1489h174v-569h41q107 139 313 139q211 0 335 -152.5t124 -390.5q0 -153 -54 -275.5t-159.5 -195t-245.5 -72.5q-208 0 -319 140h-41v-113h-168v1489zM664 125q151 0 234 107t83 284t-83 284t-234 107q-67 0 -121.5 -21.5t-91.5 -58t-62.5 -86.5t-37 -106.5
t-11.5 -118.5t11.5 -118.5t37 -106.5t62.5 -86.5t91.5 -58t121.5 -21.5z" />
    <glyph glyph-name="c" unicode="c" horiz-adv-x="1132" 
d="M866 307h174q-30 -155 -143.5 -244.5t-290.5 -89.5q-157 0 -272 72.5t-172.5 194.5t-57.5 276q0 240 133.5 391.5t368.5 151.5q179 0 290 -87.5t138 -234.5h-174q-54 170 -254 170q-84 0 -148.5 -31t-102.5 -86t-57 -123t-19 -147q0 -80 19 -149.5t57.5 -125.5t102.5 -88
t148 -32q217 0 260 182z" />
    <glyph glyph-name="d" unicode="d" horiz-adv-x="1259" 
d="M918 1489h174v-1489h-168v113h-41q-111 -140 -320 -140q-140 0 -245.5 72.5t-159.5 195t-54 275.5q0 238 124 390.5t335 152.5q207 0 314 -139h41v569zM596 125q67 0 121.5 21.5t91.5 58t62.5 86.5t37 106.5t11.5 118.5t-11.5 118.5t-37 106.5t-62.5 86.5t-91.5 58
t-121.5 21.5q-151 0 -234 -107t-83 -284t83 -284t234 -107z" />
    <glyph glyph-name="e" unicode="e" horiz-adv-x="1165" 
d="M1063 578v-60h-787q5 -187 89 -290t241 -103q106 0 172 42t90 118h176q-26 -139 -139.5 -225.5t-298.5 -86.5q-157 0 -272 72.5t-172.5 196.5t-57.5 284q0 241 133 387t365 146q111 0 200 -39t144 -106.5t85 -153t32 -182.5zM598 907q-132 0 -212 -69t-99 -174h596
q-8 103 -84 173t-201 70z" />
    <glyph glyph-name="f" unicode="f" horiz-adv-x="800" 
d="M719 881h-287v-881h-174v881h-203v151h203v135q0 171 82 246.5t258 75.5h137v-156h-127q-94 0 -135 -40.5t-41 -133.5v-127h287v-151z" />
    <glyph glyph-name="g" unicode="g" horiz-adv-x="1259" 
d="M924 1032h168v-981q0 -218 -129 -346.5t-353 -128.5q-200 0 -322 81t-145 234h172q22 -88 95.5 -125.5t197.5 -37.5q156 0 233 86t77 245v84h-41q-106 -139 -308 -139q-210 0 -337.5 148t-127.5 378q0 231 127.5 380t337.5 149q208 0 314 -139h41v112zM596 156
q157 0 241.5 108t84.5 266q0 160 -84.5 268.5t-241.5 108.5q-150 0 -233.5 -102t-83.5 -275q0 -170 83.5 -272t233.5 -102z" />
    <glyph glyph-name="h" unicode="h" horiz-adv-x="1236" 
d="M680 1059q192 0 298.5 -110.5t106.5 -299.5v-649h-174v618q0 285 -264 285q-135 0 -220 -101t-85 -241v-561h-174v1489h174v-569h39q40 62 118.5 100.5t180.5 38.5z" />
    <glyph glyph-name="i" unicode="i" horiz-adv-x="520" 
d="M360 1284h-200v205h200v-205zM346 1032v-1032h-174v1032h174z" />
    <glyph glyph-name="j" unicode="j" horiz-adv-x="542" 
d="M383 1284h-201v205h201v-205zM197 -78v1110h174v-1120q0 -171 -82 -246.5t-258 -75.5h-121v156h113q93 0 133.5 41t40.5 135z" />
    <glyph glyph-name="k" unicode="k" horiz-adv-x="1132" 
d="M1106 0h-191l-301 539h-41l-231 -246v-293h-174v1489h174v-977l487 520h205l-315 -340z" />
    <glyph glyph-name="l" unicode="l" horiz-adv-x="509" 
d="M168 1489h174v-1489h-174v1489z" />
    <glyph glyph-name="m" unicode="m" horiz-adv-x="1742" 
d="M1241 1059q175 0 262.5 -103.5t87.5 -289.5v-666h-174v647q0 256 -196 256q-120 0 -187 -83t-67 -220v-600h-174v649q0 254 -197 254q-118 0 -186 -90t-68 -227v-586h-174v1032h168v-100h39q82 127 262 127q183 0 274 -139h41q104 139 289 139z" />
    <glyph glyph-name="n" unicode="n" horiz-adv-x="1236" 
d="M680 1059q192 0 298.5 -110.5t106.5 -299.5v-649h-174v618q0 285 -264 285q-135 0 -220 -101t-85 -241v-561h-174v1032h168v-112h39q43 63 123 101t182 38z" />
    <glyph glyph-name="o" unicode="o" horiz-adv-x="1224" 
d="M612 1059q157 0 273.5 -72.5t175.5 -194.5t59 -276t-59 -276t-175.5 -194.5t-273.5 -72.5q-158 0 -274.5 72.5t-175 194.5t-58.5 276t58.5 276t175 194.5t274.5 72.5zM612 125q109 0 186.5 56.5t112.5 143t35 191.5t-35 191.5t-112.5 143t-186.5 56.5q-83 0 -148 -32
t-104.5 -87.5t-60 -124.5t-20.5 -147t20.5 -147t60 -124.5t104.5 -87.5t148 -32z" />
    <glyph glyph-name="p" unicode="p" horiz-adv-x="1259" 
d="M342 -410h-174v1442h168v-112h41q110 139 319 139q140 0 245.5 -72.5t159.5 -195t54 -275.5q0 -238 -124 -390.5t-335 -152.5q-205 0 -313 140h-41v-523zM664 907q-67 0 -121.5 -21.5t-91.5 -58t-62.5 -86.5t-37 -106.5t-11.5 -118.5t11.5 -118.5t37 -106.5t62.5 -86.5
t91.5 -58t121.5 -21.5q151 0 234 107t83 284t-83 284t-234 107z" />
    <glyph glyph-name="q" unicode="q" horiz-adv-x="1259" 
d="M1092 -410h-174v523h-41q-108 -140 -314 -140q-211 0 -335 152.5t-124 390.5q0 153 54 275.5t159.5 195t245.5 72.5q210 0 320 -139h41v112h168v-1442zM596 907q-151 0 -234 -107t-83 -284t83 -284t234 -107q67 0 121.5 21.5t91.5 58t62.5 86.5t37 106.5t11.5 118.5
t-11.5 118.5t-37 106.5t-62.5 86.5t-91.5 58t-121.5 21.5z" />
    <glyph glyph-name="r" unicode="r" horiz-adv-x="806" 
d="M748 1032v-164h-80q-155 0 -240.5 -91.5t-85.5 -260.5v-516h-174v1032h168v-125h41q43 54 119 89.5t180 35.5h72z" />
    <glyph glyph-name="s" unicode="s" horiz-adv-x="1050" 
d="M459 627l198 -33q306 -50 306 -301q0 -132 -114 -226t-312 -94q-209 0 -323 85.5t-132 238.5h174q13 -85 86 -128.5t186 -43.5q121 0 190.5 41t69.5 123q0 122 -176 149l-202 33q-135 21 -212 91t-77 190q0 134 106.5 220.5t302.5 86.5q177 0 281.5 -79.5t122.5 -215.5
h-172q-10 70 -77.5 106.5t-164.5 36.5q-102 0 -163.5 -37.5t-61.5 -107.5q0 -108 164 -135z" />
    <glyph glyph-name="t" unicode="t" horiz-adv-x="835" 
d="M438 1032h279v-151h-279v-586q0 -76 39.5 -107.5t140.5 -31.5h99v-156h-115q-89 0 -148 11t-104 40t-65.5 82t-20.5 133v615h-209v151h209v311h174v-311z" />
    <glyph glyph-name="u" unicode="u" horiz-adv-x="1230" 
d="M553 -27q-192 0 -296.5 110.5t-104.5 299.5v649h174v-618q0 -285 260 -285q134 0 218.5 101t84.5 241v561h174v-1032h-168v113h-39q-43 -63 -122 -101.5t-181 -38.5z" />
    <glyph glyph-name="v" unicode="v" horiz-adv-x="1103" 
d="M399 0l-354 1032h182l297 -868h60l297 868h178l-354 -1032h-306z" />
    <glyph glyph-name="w" unicode="w" horiz-adv-x="1501" 
d="M881 1012l213 -830h36l187 850h164l-226 -1032h-276l-211 829h-39l-211 -829h-272l-226 1032h164l187 -850h37l213 830h260z" />
    <glyph glyph-name="x" unicode="x" horiz-adv-x="1128" 
d="M596 618l240 414h188l-293 -506l326 -526h-197l-268 434h-60l-268 -434h-192l325 526l-293 506h193l240 -414h59z" />
    <glyph glyph-name="y" unicode="y" horiz-adv-x="1101" 
d="M442 -410h-184l217 500l-430 942h188l308 -676h51l293 676h184z" />
    <glyph glyph-name="z" unicode="z" horiz-adv-x="1054" 
d="M956 0h-858v193l627 649v39h-592v151h817v-190l-624 -649v-41h630v-152z" />
    <glyph glyph-name="braceleft" unicode="{" horiz-adv-x="798" 
d="M356 653v-41q113 -38 113 -215v-344q0 -107 46 -155t136 -48h68v-139h-80q-151 0 -242.5 85t-91.5 241v328q0 101 -27.5 148.5t-101.5 47.5h-29v144h29q74 0 101.5 47.5t27.5 148.5v328q0 156 91.5 240.5t242.5 84.5h80v-139h-68q-90 0 -136 -48t-46 -155v-344
q0 -177 -113 -215z" />
    <glyph glyph-name="bar" unicode="|" horiz-adv-x="514" 
d="M178 -289v1843h158v-1843h-158z" />
    <glyph glyph-name="braceright" unicode="}" horiz-adv-x="798" 
d="M442 612v41q-112 38 -112 215v344q0 107 -46.5 155t-136.5 48h-67v139h80q151 0 242.5 -84.5t91.5 -240.5v-328q0 -101 27.5 -148.5t101.5 -47.5h28v-144h-28q-74 0 -101.5 -47.5t-27.5 -148.5v-328q0 -156 -91.5 -241t-242.5 -85h-80v139h67q90 0 136.5 48t46.5 155v344
q0 177 112 215z" />
    <glyph glyph-name="asciitilde" unicode="~" horiz-adv-x="1372" 
d="M1051 750h143q0 -157 -75.5 -247.5t-194.5 -90.5q-45 0 -97 18t-76.5 31.5t-91.5 52.5q-8 5 -32.5 20t-34 20.5t-30 16.5t-34 15t-32 8t-35.5 4q-71 0 -106.5 -49t-35.5 -137h-141q0 158 74 248t194 90q32 0 62 -5.5t64 -21.5t49.5 -23.5t56.5 -33t47 -29.5
q120 -74 184 -74q70 0 106 49.5t36 137.5z" />
    <glyph glyph-name="uni00A0" unicode="&#xa0;" horiz-adv-x="569" 
 />
    <glyph glyph-name="exclamdown" unicode="&#xa1;" horiz-adv-x="643" 
d="M414 -410h-185v584l33 471h117l35 -471v-584zM428 795h-213v237h213v-237z" />
    <glyph glyph-name="cent" unicode="&#xa2;" horiz-adv-x="1132" 
d="M535 -164v141q-135 16 -233.5 90.5t-148 190t-49.5 258.5t49.5 258.5t148 190t233.5 90.5v141h124v-139q156 -13 253 -98t122 -222h-174q-51 147 -201 166v-776q166 24 207 180h174q-26 -142 -125 -228.5t-256 -103.5v-139h-124zM279 520q0 -96 25.5 -175.5t85 -138.5
t145.5 -75v770q-129 -23 -192.5 -128t-63.5 -253z" />
    <glyph glyph-name="sterling" unicode="&#xa3;" horiz-adv-x="1300" 
d="M436 160h787v-160h-1100v158h39q77 0 111 46.5t34 141.5v238h-184v151h184v285q0 210 114 326t316 116q192 0 302 -108t116 -303h-178q-10 252 -238 252q-128 0 -190 -77.5t-62 -205.5v-285h443v-151h-443v-219q0 -61 -9 -96t-42 -68v-41z" />
    <glyph glyph-name="currency" unicode="&#xa4;" horiz-adv-x="1482" 
d="M1208 14l-139 138q-141 -113 -326 -113t-329 113l-140 -138l-96 97l137 139q-112 143 -112 330q0 185 112 325l-137 139l96 99l140 -137q149 110 329 110t326 -110l139 137l97 -99l-138 -139q113 -141 113 -325q0 -187 -113 -328l138 -141zM743 170q166 0 278 117
t112 293q0 173 -112 289t-278 116q-167 0 -281 -116.5t-114 -288.5q0 -176 114 -293t281 -117z" />
    <glyph glyph-name="yen" unicode="&#xa5;" horiz-adv-x="1255" 
d="M215 618v117h199l-369 699h188l365 -699h57l367 699h188l-370 -699h200v-117h-262l-61 -118v-31h323v-117h-323v-352h-180v352h-322v117h322v31l-62 118h-260z" />
    <glyph glyph-name="brokenbar" unicode="&#xa6;" horiz-adv-x="514" 
d="M178 848v706h158v-706h-158zM178 -289v707h158v-707h-158z" />
    <glyph glyph-name="section" unicode="&#xa7;" horiz-adv-x="1214" 
d="M469 397l305 -92q28 16 45.5 28t46.5 38t44.5 61t15.5 76q0 83 -43 126.5t-140 74.5l-305 94q-33 -12 -65 -35.5t-59 -69.5t-27 -100q0 -82 43 -126t139 -75zM1092 532q0 -98 -55 -176.5t-119 -101.5v-41q96 -84 96 -227q0 -145 -117.5 -243.5t-302.5 -98.5
q-124 0 -220 46t-153.5 138.5t-60.5 220.5h166q5 -121 73.5 -189.5t198.5 -68.5q118 0 183 57.5t65 139.5q0 137 -152 184l-274 82q-163 49 -232 123.5t-69 197.5q0 98 56 177t120 102v41q-96 75 -96 227q0 147 113.5 243.5t299.5 96.5q189 0 307 -105.5t125 -297.5h-165
q-5 120 -73.5 189t-199.5 69q-116 0 -177.5 -57.5t-61.5 -139.5q0 -138 149 -184q6 0 130 -38t147 -46q162 -49 230.5 -124t68.5 -196z" />
    <glyph glyph-name="dieresis" unicode="&#xa8;" horiz-adv-x="706" 
d="M262 1284h-188v205h188v-205zM633 1284h-189v205h189v-205z" />
    <glyph glyph-name="copyright" unicode="&#xa9;" 
d="M1094 606h129q-18 -122 -106 -201t-222 -79q-173 0 -272 114.5t-99 288.5q0 178 99 292t272 114q129 0 215.5 -72.5t103.5 -190.5h-129q-29 148 -190 148q-121 0 -181.5 -81t-60.5 -210q0 -127 60.5 -207t181.5 -80q84 0 134.5 44t64.5 120zM877 1489q155 0 294.5 -60
t240 -161.5t159.5 -241.5t59 -295t-59 -295t-159.5 -241.5t-240 -161.5t-294.5 -60t-294.5 60t-240.5 161t-160 241.5t-59 295.5t59 295.5t160 241.5t240.5 161t294.5 60zM877 88q131 0 248 50t200.5 136t132.5 205t49 252t-49 252t-132.5 205t-200.5 136t-248 50
q-175 0 -320 -85t-228 -233t-83 -325t83 -325t228 -233t320 -85z" />
    <glyph glyph-name="ordfeminine" unicode="&#xaa;" horiz-adv-x="878" 
d="M621 684v84h-19q-39 -45 -102.5 -72.5t-141.5 -27.5q-132 0 -205 74t-73 180q0 49 16 92t49 80t92 58.5t138 21.5h239v36q0 69 -43.5 107.5t-132.5 38.5q-160 0 -172 -115h-137q6 109 90 172.5t215 63.5q146 0 231 -69t85 -200v-524h-129zM385 784q95 0 162 60.5
t67 148.5v74h-211q-87 0 -137.5 -38.5t-50.5 -100.5q0 -66 47.5 -105t122.5 -39z" />
    <glyph glyph-name="guillemotleft" unicode="&#xab;" horiz-adv-x="1155" 
d="M276 602v-41l332 -354h-192l-297 309v129l297 311h192zM705 602v-41l331 -354h-192l-299 309v129l299 311h192z" />
    <glyph glyph-name="logicalnot" unicode="&#xac;" horiz-adv-x="1398" 
d="M1073 221v424h-895v148h1043v-572h-148z" />
    <glyph glyph-name="uni00AD" unicode="&#xad;" horiz-adv-x="755" 
d="M659 492h-559v153h559v-153z" />
    <glyph glyph-name="registered" unicode="&#xae;" 
d="M1204 889q0 -155 -125 -207l133 -342h-135l-123 317h-237v-317h-127v780h354q127 0 193.5 -60t66.5 -171zM1077 889q0 59 -35.5 88t-115.5 29h-209v-234h209q80 0 115.5 29t35.5 88zM877 1489q155 0 294.5 -60t240 -161.5t159.5 -241.5t59 -295t-59 -295t-159.5 -241.5
t-240 -161.5t-294.5 -60t-294.5 60t-240.5 161t-160 241.5t-59 295.5t59 295.5t160 241.5t240.5 161t294.5 60zM877 88q131 0 248 50t200.5 136t132.5 205t49 252t-49 252t-132.5 205t-200.5 136t-248 50q-175 0 -320 -85t-228 -233t-83 -325t83 -325t228 -233t320 -85z" />
    <glyph glyph-name="macron" unicode="&#xaf;" horiz-adv-x="741" 
d="M659 1268h-577v131h577v-131z" />
    <glyph glyph-name="degree" unicode="&#xb0;" horiz-adv-x="966" 
d="M883 1071q0 -173 -115 -289t-287 -116t-286.5 116t-114.5 289t114.5 289.5t286.5 116.5t287 -116.5t115 -289.5zM481 784q118 0 195.5 82.5t77.5 204.5t-77.5 204.5t-195.5 82.5t-195 -82.5t-77 -204.5t77 -204.5t195 -82.5z" />
    <glyph glyph-name="plusminus" unicode="&#xb1;" horiz-adv-x="1396" 
d="M178 0v150h1043v-150h-1043zM625 776v338h149v-338h447v-149h-447v-328h-149v328h-447v149h447z" />
    <glyph glyph-name="twosuperior" unicode="&#xb2;" horiz-adv-x="741" 
d="M285 801h372v-119h-577v145l231 166q48 35 75 56.5t56.5 51.5t42.5 60.5t13 65.5q0 60 -36.5 94.5t-99.5 34.5q-148 0 -151 -142h-133q4 131 83 197t204 66q121 0 193.5 -63t72.5 -181q0 -82 -48 -150t-147 -141l-151 -113v-28z" />
    <glyph glyph-name="threesuperior" unicode="&#xb3;" horiz-adv-x="753" 
d="M469 1196v-29q89 -13 146 -75t57 -162q0 -122 -83 -192t-214 -70q-129 0 -211.5 72.5t-87.5 185.5h131q6 -64 53 -101t115 -37q73 0 118.5 39t45.5 105q0 67 -44 105t-118 38q-49 0 -74 -6v121l156 125v28h-326v119h506v-131z" />
    <glyph glyph-name="acute" unicode="&#xb4;" horiz-adv-x="540" 
d="M461 1489l-223 -297h-158l176 297h205z" />
    <glyph glyph-name="mu" unicode="&#xb5;" horiz-adv-x="1247" 
d="M569 -27q-126 0 -227 56v-439h-174v1442h174v-618q0 -285 260 -285q134 0 218.5 101t84.5 241v561h174v-1032h-168v113h-39q-43 -63 -122 -101.5t-181 -38.5z" />
    <glyph glyph-name="paragraph" unicode="&#xb6;" horiz-adv-x="1341" 
d="M686 -362h-158v1005q-95 0 -174.5 24t-142 72.5t-98 129t-35.5 184.5q0 208 120 308.5t330 100.5h715v-133h-164v-1691h-157v1691h-236v-1691z" />
    <glyph glyph-name="periodcentered" unicode="&#xb7;" horiz-adv-x="528" 
d="M371 541h-213v237h213v-237z" />
    <glyph glyph-name="cedilla" unicode="&#xb8;" horiz-adv-x="536" 
d="M201 47h94l-66 -170h27q24 17 63 17q58 0 99 -45t41 -115q0 -71 -49 -122.5t-146 -51.5q-82 0 -129.5 41.5t-52.5 99.5h111q13 -49 73 -49q35 0 55.5 21.5t20.5 56.5t-20.5 55t-53.5 20q-41 0 -63 -22h-107z" />
    <glyph glyph-name="onesuperior" unicode="&#xb9;" horiz-adv-x="677" 
d="M408 801h190v-119h-518v119h192v504h-28l-164 -93v134l199 116h129v-661z" />
    <glyph glyph-name="ordmasculine" unicode="&#xba;" horiz-adv-x="913" 
d="M457 1477q173 0 275 -115.5t102 -288.5t-102 -289t-275 -116t-275 116t-102 289t102 288.5t275 115.5zM457 788q114 0 177.5 85t63.5 200q0 116 -63 198.5t-178 82.5q-116 0 -179 -82.5t-63 -198.5q0 -74 25.5 -137t82 -105.5t134.5 -42.5z" />
    <glyph glyph-name="guillemotright" unicode="&#xbb;" horiz-adv-x="1155" 
d="M451 561v41l-332 354h192l297 -311v-129l-297 -309h-192zM877 561v41l-332 354h192l299 -311v-129l-299 -309h-192z" />
    <glyph glyph-name="onequarter" unicode="&#xbc;" horiz-adv-x="1771" 
d="M547 0h-158l868 1434h156zM408 801h190v-119h-518v119h192v504h-28l-164 -93v134l199 116h129v-661zM1585 295h107v-119h-107v-176h-133v176h-393v127l354 477h172v-485zM1208 295h246v323h-29l-217 -294v-29z" />
    <glyph glyph-name="onehalf" unicode="&#xbd;" horiz-adv-x="1789" 
d="M547 0h-158l868 1434h156zM408 801h190v-119h-518v119h192v504h-28l-164 -93v134l199 116h129v-661zM1333 119h373v-119h-578v145l232 166q97 69 141.5 119t44.5 115q0 60 -36 94.5t-99 34.5q-148 0 -151 -142h-134q4 131 83 197t204 66q121 0 193.5 -63t72.5 -181
q0 -83 -47.5 -150.5t-146.5 -140.5l-152 -113v-28z" />
    <glyph glyph-name="threequarters" unicode="&#xbe;" horiz-adv-x="1779" 
d="M555 0h-158l869 1434h155zM1593 295h107v-119h-107v-176h-133v176h-393v127l354 477h172v-485zM1217 295h245v323h-28l-217 -294v-29zM467 1196v-29q89 -13 146 -75t57 -162q0 -122 -83 -192t-214 -70q-129 0 -211.5 72.5t-87.5 185.5h131q6 -64 53 -101t115 -37
q73 0 118.5 39t45.5 105q0 67 -44 105t-118 38q-49 0 -74 -6v121l156 125v28h-326v119h506v-131z" />
    <glyph glyph-name="questiondown" unicode="&#xbf;" horiz-adv-x="1110" 
d="M475 1032h213v-237h-213v237zM551 -424q-200 0 -320 107.5t-120 287.5q0 59 13 109.5t31.5 85.5t55.5 73.5t66.5 63t82.5 64.5q56 41 80.5 66t39 66t14.5 105v41h176v-41q0 -88 -22.5 -149t-60.5 -101t-114 -98q-98 -71 -142 -130.5t-44 -154.5q0 -100 70 -171.5
t192 -71.5q131 0 201 64.5t77 207.5h177q-7 -198 -128 -311t-325 -113z" />
    <glyph glyph-name="Agrave" unicode="&#xc0;" horiz-adv-x="1406" 
d="M1174 0l-156 449h-635l-154 -449h-188l514 1462h295l516 -1462h-192zM668 1274l-228 -658h521l-228 658h-65zM621 1571l-222 264h207l176 -264h-161z" />
    <glyph glyph-name="Aacute" unicode="&#xc1;" horiz-adv-x="1406" 
d="M1174 0l-156 449h-635l-154 -449h-188l514 1462h295l516 -1462h-192zM668 1274l-228 -658h521l-228 658h-65zM1004 1835l-224 -264h-159l174 264h209z" />
    <glyph glyph-name="Acircumflex" unicode="&#xc2;" horiz-adv-x="1406" 
d="M1174 0l-156 449h-635l-154 -449h-188l514 1462h295l516 -1462h-192zM668 1274l-228 -658h521l-228 658h-65zM799 1835l219 -264h-172l-125 145h-37l-125 -145h-168l219 264h189z" />
    <glyph glyph-name="Atilde" unicode="&#xc3;" horiz-adv-x="1406" 
d="M1174 0l-156 449h-635l-154 -449h-188l514 1462h295l516 -1462h-192zM668 1274l-228 -658h521l-228 658h-65zM850 1704q78 0 78 137h110q0 -276 -190 -276q-52 0 -90.5 18.5t-83.5 54.5q-5 4 -23 18t-25 18.5t-21.5 13t-27 11.5t-26.5 3q-78 0 -78 -137h-111
q0 276 191 276q37 0 73.5 -14t54.5 -26t54 -40q37 -29 62 -43t53 -14z" />
    <glyph glyph-name="Adieresis" unicode="&#xc4;" horiz-adv-x="1406" 
d="M1174 0l-156 449h-635l-154 -449h-188l514 1462h295l516 -1462h-192zM668 1274l-228 -658h521l-228 658h-65zM614 1630h-188v205h188v-205zM985 1630h-188v205h188v-205z" />
    <glyph glyph-name="Aring" unicode="&#xc5;" horiz-adv-x="1406" 
d="M702 1796q93 0 158.5 -64.5t65.5 -156.5q0 -80 -58 -145l498 -1430h-192l-152 449h-641l-152 -449h-188l494 1430q-56 62 -56 145q0 92 65.5 156.5t157.5 64.5zM659 1274l-223 -658h529l-224 658h-82zM702 1462q47 0 80 33t33 80t-33 80t-80 33t-79.5 -33t-32.5 -80
t32.5 -80t79.5 -33z" />
    <glyph glyph-name="AE" unicode="&#xc6;" horiz-adv-x="2066" 
d="M803 1462h1134v-168h-731v-452h568v-168h-568v-506h762v-168h-946v449h-557l-238 -449h-211zM903 1294l-356 -678h475v678h-119z" />
    <glyph glyph-name="Ccedilla" unicode="&#xc7;" horiz-adv-x="1470" 
d="M1174 416h194q-46 -202 -196 -322.5t-384 -120.5h-12l-37 -96h27q24 17 63 17q58 0 99 -45t41 -115q0 -71 -49 -122.5t-146 -51.5q-82 0 -129.5 41.5t-52.5 99.5h110q13 -49 74 -49q35 0 55.5 21.5t20.5 56.5t-20.5 55t-53.5 20q-41 0 -63 -22h-107l76 197
q-182 24 -312 127t-194.5 262.5t-64.5 361.5q0 219 78 389t233 269.5t367 99.5q221 0 368.5 -109.5t192.5 -300.5h-195q-43 121 -130.5 181.5t-235.5 60.5q-99 0 -181.5 -32t-139 -87t-96 -130t-57.5 -161t-18 -180q0 -120 29.5 -224t87 -187t153.5 -131t219 -48
q151 0 250.5 72.5t135.5 202.5z" />
    <glyph glyph-name="Egrave" unicode="&#xc8;" horiz-adv-x="1335" 
d="M371 168h866v-168h-1051v1462h1018v-168h-833v-452h671v-168h-671v-506zM662 1571l-222 264h207l176 -264h-161z" />
    <glyph glyph-name="Eacute" unicode="&#xc9;" horiz-adv-x="1335" 
d="M371 168h866v-168h-1051v1462h1018v-168h-833v-452h671v-168h-671v-506zM924 1835l-224 -264h-159l174 264h209z" />
    <glyph glyph-name="Ecircumflex" unicode="&#xca;" horiz-adv-x="1335" 
d="M371 168h866v-168h-1051v1462h1018v-168h-833v-452h671v-168h-671v-506zM788 1835l220 -264h-172l-125 145h-37l-125 -145h-168l219 264h188z" />
    <glyph glyph-name="Edieresis" unicode="&#xcb;" horiz-adv-x="1335" 
d="M371 168h866v-168h-1051v1462h1018v-168h-833v-452h671v-168h-671v-506zM594 1630h-188v205h188v-205zM965 1630h-189v205h189v-205z" />
    <glyph glyph-name="Igrave" unicode="&#xcc;" horiz-adv-x="581" 
d="M199 1462h184v-1462h-184v1462zM215 1571l-221 264h207l176 -264h-162z" />
    <glyph glyph-name="Iacute" unicode="&#xcd;" horiz-adv-x="581" 
d="M199 1462h184v-1462h-184v1462zM596 1835l-223 -264h-160l174 264h209z" />
    <glyph glyph-name="Icircumflex" unicode="&#xce;" horiz-adv-x="581" 
d="M199 1462h184v-1462h-184v1462zM389 1835l219 -264h-172l-125 145h-37l-124 -145h-168l219 264h188z" />
    <glyph glyph-name="Idieresis" unicode="&#xcf;" horiz-adv-x="581" 
d="M199 1462h184v-1462h-184v1462zM203 1630h-189v205h189v-205zM573 1630h-188v205h188v-205z" />
    <glyph glyph-name="Eth" unicode="&#xd0;" horiz-adv-x="1572" 
d="M41 680v151h197v631h546q220 0 373.5 -91.5t228 -254.5t74.5 -385t-74.5 -384.5t-228 -254.5t-373.5 -92h-546v680h-197zM422 168h362q129 0 225.5 44.5t153 123.5t84 178t27.5 217t-27.5 217t-84 178t-153 123.5t-225.5 44.5h-362v-463h440v-151h-440v-512z" />
    <glyph glyph-name="Ntilde" unicode="&#xd1;" horiz-adv-x="1568" 
d="M1202 1462h180v-1462h-286l-688 1223h-41v-1223h-181v1462h287l688 -1222h41v1222zM934 1704q78 0 78 137h110q0 -276 -190 -276q-52 0 -90.5 18.5t-83.5 54.5q-5 4 -23 18t-25 18.5t-21.5 13t-27 11.5t-26.5 3q-78 0 -78 -137h-111q0 276 191 276q37 0 73.5 -14
t54.5 -26t54 -40q37 -29 62 -43t53 -14z" />
    <glyph glyph-name="Ograve" unicode="&#xd2;" horiz-adv-x="1589" 
d="M795 1489q162 0 293 -59t215 -162.5t129 -240.5t45 -296t-45 -296t-129 -240.5t-215 -162.5t-293 -59q-131 0 -242 38.5t-191.5 107.5t-137 163.5t-84 208t-27.5 240.5t27.5 240.5t84 208t137 163.5t191.5 107.5t242 38.5zM795 141q101 0 184.5 32t140.5 87.5t96 131
t56.5 160.5t17.5 179t-17.5 179t-56.5 160.5t-96 131t-140.5 87.5t-184.5 32t-184.5 -32t-140.5 -87.5t-96 -131t-57 -160.5t-18 -179t18 -179t57 -160.5t96 -131t140.5 -87.5t184.5 -32zM735 1571l-221 264h207l176 -264h-162z" />
    <glyph glyph-name="Oacute" unicode="&#xd3;" horiz-adv-x="1589" 
d="M795 1489q162 0 293 -59t215 -162.5t129 -240.5t45 -296t-45 -296t-129 -240.5t-215 -162.5t-293 -59q-131 0 -242 38.5t-191.5 107.5t-137 163.5t-84 208t-27.5 240.5t27.5 240.5t84 208t137 163.5t191.5 107.5t242 38.5zM795 141q101 0 184.5 32t140.5 87.5t96 131
t56.5 160.5t17.5 179t-17.5 179t-56.5 160.5t-96 131t-140.5 87.5t-184.5 32t-184.5 -32t-140.5 -87.5t-96 -131t-57 -160.5t-18 -179t18 -179t57 -160.5t96 -131t140.5 -87.5t184.5 -32zM1090 1835l-224 -264h-159l174 264h209z" />
    <glyph glyph-name="Ocircumflex" unicode="&#xd4;" horiz-adv-x="1589" 
d="M795 1489q162 0 293 -59t215 -162.5t129 -240.5t45 -296t-45 -296t-129 -240.5t-215 -162.5t-293 -59q-131 0 -242 38.5t-191.5 107.5t-137 163.5t-84 208t-27.5 240.5t27.5 240.5t84 208t137 163.5t191.5 107.5t242 38.5zM795 141q101 0 184.5 32t140.5 87.5t96 131
t56.5 160.5t17.5 179t-17.5 179t-56.5 160.5t-96 131t-140.5 87.5t-184.5 32t-184.5 -32t-140.5 -87.5t-96 -131t-57 -160.5t-18 -179t18 -179t57 -160.5t96 -131t140.5 -87.5t184.5 -32zM891 1835l219 -264h-172l-125 145h-37l-125 -145h-168l219 264h189z" />
    <glyph glyph-name="Otilde" unicode="&#xd5;" horiz-adv-x="1589" 
d="M795 1489q162 0 293 -59t215 -162.5t129 -240.5t45 -296t-45 -296t-129 -240.5t-215 -162.5t-293 -59q-131 0 -242 38.5t-191.5 107.5t-137 163.5t-84 208t-27.5 240.5t27.5 240.5t84 208t137 163.5t191.5 107.5t242 38.5zM795 141q101 0 184.5 32t140.5 87.5t96 131
t56.5 160.5t17.5 179t-17.5 179t-56.5 160.5t-96 131t-140.5 87.5t-184.5 32t-184.5 -32t-140.5 -87.5t-96 -131t-57 -160.5t-18 -179t18 -179t57 -160.5t96 -131t140.5 -87.5t184.5 -32zM944 1704q78 0 78 137h111q0 -276 -191 -276q-52 0 -90.5 18.5t-83.5 54.5
q-5 4 -23 18t-25 18.5t-21.5 13t-27 11.5t-26.5 3q-78 0 -78 -137h-110q0 276 190 276q37 0 73.5 -14t54.5 -26t54 -40q37 -29 62 -43t53 -14z" />
    <glyph glyph-name="Odieresis" unicode="&#xd6;" horiz-adv-x="1589" 
d="M795 1489q162 0 293 -59t215 -162.5t129 -240.5t45 -296t-45 -296t-129 -240.5t-215 -162.5t-293 -59q-131 0 -242 38.5t-191.5 107.5t-137 163.5t-84 208t-27.5 240.5t27.5 240.5t84 208t137 163.5t191.5 107.5t242 38.5zM795 141q101 0 184.5 32t140.5 87.5t96 131
t56.5 160.5t17.5 179t-17.5 179t-56.5 160.5t-96 131t-140.5 87.5t-184.5 32t-184.5 -32t-140.5 -87.5t-96 -131t-57 -160.5t-18 -179t18 -179t57 -160.5t96 -131t140.5 -87.5t184.5 -32zM702 1630h-188v205h188v-205zM1073 1630h-188v205h188v-205z" />
    <glyph glyph-name="multiply" unicode="&#xd7;" horiz-adv-x="1308" 
d="M551 582l-373 374l103 103l374 -375l373 375l102 -103l-372 -374l372 -375l-102 -103l-373 373l-374 -373l-103 103z" />
    <glyph glyph-name="Oslash" unicode="&#xd8;" horiz-adv-x="1589" 
d="M795 1489q250 0 422 -139l94 112h172l-170 -207q164 -212 164 -524q0 -159 -45 -296t-129 -240.5t-215 -162.5t-293 -59q-253 0 -424 138l-92 -111h-173l170 207q-163 205 -163 524q0 127 27.5 240.5t84 208t137 163.5t191.5 107.5t242 38.5zM795 141q101 0 184.5 32
t140.5 87.5t96 131t56.5 160.5t17.5 179q0 228 -96 379l-711 -862q120 -107 312 -107zM299 731q0 -231 96 -381l711 864q-130 107 -311 107q-101 0 -184.5 -32t-140.5 -87.5t-96 -131t-57 -160.5t-18 -179z" />
    <glyph glyph-name="Ugrave" unicode="&#xd9;" horiz-adv-x="1515" 
d="M1149 1462h184v-940q0 -262 -148 -405.5t-427 -143.5t-427.5 143.5t-148.5 405.5v940h185v-938q0 -176 101.5 -279.5t289.5 -103.5t289.5 103.5t101.5 279.5v938zM717 1571l-221 264h206l177 -264h-162z" />
    <glyph glyph-name="Uacute" unicode="&#xda;" horiz-adv-x="1515" 
d="M1149 1462h184v-940q0 -262 -148 -405.5t-427 -143.5t-427.5 143.5t-148.5 405.5v940h185v-938q0 -176 101.5 -279.5t289.5 -103.5t289.5 103.5t101.5 279.5v938zM1018 1835l-223 -264h-160l174 264h209z" />
    <glyph glyph-name="Ucircumflex" unicode="&#xdb;" horiz-adv-x="1515" 
d="M1149 1462h184v-940q0 -262 -148 -405.5t-427 -143.5t-427.5 143.5t-148.5 405.5v940h185v-938q0 -176 101.5 -279.5t289.5 -103.5t289.5 103.5t101.5 279.5v938zM854 1835l219 -264h-172l-125 145h-37l-125 -145h-168l220 264h188z" />
    <glyph glyph-name="Udieresis" unicode="&#xdc;" horiz-adv-x="1515" 
d="M1149 1462h184v-940q0 -262 -148 -405.5t-427 -143.5t-427.5 143.5t-148.5 405.5v940h185v-938q0 -176 101.5 -279.5t289.5 -103.5t289.5 103.5t101.5 279.5v938zM668 1630h-189v205h189v-205zM1038 1630h-188v205h188v-205z" />
    <glyph glyph-name="Yacute" unicode="&#xdd;" horiz-adv-x="1316" 
d="M690 797l391 665h195l-526 -903v-559h-185v559l-526 903h203l391 -665h57zM948 1835l-223 -264h-160l174 264h209z" />
    <glyph glyph-name="Thorn" unicode="&#xde;" horiz-adv-x="1325" 
d="M371 1151h374q227 0 350.5 -110.5t123.5 -309.5q0 -198 -123.5 -308t-350.5 -110h-374v-313h-185v1462h185v-311zM371 477h348q165 0 239 65.5t74 188.5q0 124 -74 190t-239 66h-348v-510z" />
    <glyph glyph-name="germandbls" unicode="&#xdf;" horiz-adv-x="1202" 
d="M850 823v-39q115 -26 189.5 -121t74.5 -233q0 -206 -126.5 -318t-340.5 -112h-127v152h103q317 0 317 278q0 137 -89.5 213t-260.5 76h-31v149h31q144 0 209 64t65 166q0 110 -67.5 174.5t-184.5 64.5q-270 0 -270 -319v-1018h-174v1032q0 217 114.5 338t331.5 121
q192 0 307 -105t115 -268q0 -110 -49.5 -188t-136.5 -107z" />
    <glyph glyph-name="agrave" unicode="&#xe0;" horiz-adv-x="1140" 
d="M825 0v111h-41q-49 -63 -133 -100.5t-190 -37.5q-172 0 -272.5 98.5t-100.5 237.5q0 65 22 124t67 109t124 79.5t182 29.5h336v41q0 99 -61.5 157t-190.5 58q-113 0 -173 -37.5t-66 -105.5h-174q7 138 120 216.5t289 78.5q198 0 312 -93t114 -264v-702h-164zM502 125
q130 0 223.5 84t93.5 205v92h-309q-248 0 -248 -193q0 -88 62.5 -138t177.5 -50zM532 1192l-221 297h205l176 -297h-160z" />
    <glyph glyph-name="aacute" unicode="&#xe1;" horiz-adv-x="1140" 
d="M825 0v111h-41q-49 -63 -133 -100.5t-190 -37.5q-172 0 -272.5 98.5t-100.5 237.5q0 65 22 124t67 109t124 79.5t182 29.5h336v41q0 99 -61.5 157t-190.5 58q-113 0 -173 -37.5t-66 -105.5h-174q7 138 120 216.5t289 78.5q198 0 312 -93t114 -264v-702h-164zM502 125
q130 0 223.5 84t93.5 205v92h-309q-248 0 -248 -193q0 -88 62.5 -138t177.5 -50zM840 1489l-224 -297h-157l176 297h205z" />
    <glyph glyph-name="acircumflex" unicode="&#xe2;" horiz-adv-x="1140" 
d="M825 0v111h-41q-49 -63 -133 -100.5t-190 -37.5q-172 0 -272.5 98.5t-100.5 237.5q0 65 22 124t67 109t124 79.5t182 29.5h336v41q0 99 -61.5 157t-190.5 58q-113 0 -173 -37.5t-66 -105.5h-174q7 138 120 216.5t289 78.5q198 0 312 -93t114 -264v-702h-164zM502 125
q130 0 223.5 84t93.5 205v92h-309q-248 0 -248 -193q0 -88 62.5 -138t177.5 -50zM674 1489l219 -297h-164l-133 176h-37l-131 -176h-162l221 297h187z" />
    <glyph glyph-name="atilde" unicode="&#xe3;" horiz-adv-x="1140" 
d="M825 0v111h-41q-49 -63 -133 -100.5t-190 -37.5q-172 0 -272.5 98.5t-100.5 237.5q0 65 22 124t67 109t124 79.5t182 29.5h336v41q0 99 -61.5 157t-190.5 58q-113 0 -173 -37.5t-66 -105.5h-174q7 138 120 216.5t289 78.5q198 0 312 -93t114 -264v-702h-164zM502 125
q130 0 223.5 84t93.5 205v92h-309q-248 0 -248 -193q0 -88 62.5 -138t177.5 -50zM723 1341q78 0 78 138h110q0 -277 -190 -277q-36 0 -69 11.5t-54 25t-51 37.5q-5 4 -19.5 15t-20.5 15.5t-18 12.5t-20.5 11t-20.5 6t-24 3q-78 0 -78 -137h-110q0 277 190 277q37 0 73.5 -14
t54.5 -26t54 -40q37 -30 62 -44t53 -14z" />
    <glyph glyph-name="adieresis" unicode="&#xe4;" horiz-adv-x="1140" 
d="M825 0v111h-41q-49 -63 -133 -100.5t-190 -37.5q-172 0 -272.5 98.5t-100.5 237.5q0 65 22 124t67 109t124 79.5t182 29.5h336v41q0 99 -61.5 157t-190.5 58q-113 0 -173 -37.5t-66 -105.5h-174q7 138 120 216.5t289 78.5q198 0 312 -93t114 -264v-702h-164zM502 125
q130 0 223.5 84t93.5 205v92h-309q-248 0 -248 -193q0 -88 62.5 -138t177.5 -50zM481 1284h-188v205h188v-205zM852 1284h-188v205h188v-205z" />
    <glyph glyph-name="aring" unicode="&#xe5;" horiz-adv-x="1140" 
d="M825 0v111h-41q-49 -63 -133 -100.5t-190 -37.5q-172 0 -272.5 98.5t-100.5 237.5q0 65 22 124t67 109t124 79.5t182 29.5h336v41q0 99 -61.5 157t-190.5 58q-113 0 -173 -37.5t-66 -105.5h-174q7 138 120 216.5t289 78.5q198 0 312 -93t114 -264v-702h-164zM502 125
q130 0 223.5 84t93.5 205v92h-309q-248 0 -248 -193q0 -88 62.5 -138t177.5 -50zM348 1407q0 92 65.5 156.5t157.5 64.5q93 0 158.5 -64.5t65.5 -156.5t-65.5 -156.5t-158.5 -64.5q-92 0 -157.5 64.5t-65.5 156.5zM459 1407q0 -47 32.5 -80t79.5 -33t80 33t33 80t-33 80
t-80 33t-79.5 -33t-32.5 -80z" />
    <glyph glyph-name="ae" unicode="&#xe6;" horiz-adv-x="1843" 
d="M1741 506h-770q0 -172 85 -276.5t236 -104.5q207 0 260 160h177q-29 -140 -141 -226t-296 -86q-251 0 -385 201h-41q-59 -87 -162 -144t-235 -57q-178 0 -279.5 98t-101.5 240q0 64 22 122.5t67 108.5t123.5 79.5t180.5 29.5h322v41q0 99 -60.5 157t-183.5 58
q-105 0 -165 -38t-66 -105h-174q12 140 120 217.5t283 77.5q115 0 203.5 -40.5t138.5 -113.5h41q134 154 350 154q86 0 159.5 -26t126.5 -71.5t90.5 -106.5t56 -132t18.5 -148v-69zM803 406v100h-285q-125 0 -190.5 -50t-65.5 -139q0 -91 64 -141.5t174 -50.5q129 0 216 80
t87 201zM1284 907q-128 0 -204.5 -72.5t-98.5 -183.5h582q-13 111 -84.5 183.5t-194.5 72.5z" />
    <glyph glyph-name="ccedilla" unicode="&#xe7;" horiz-adv-x="1132" 
d="M866 307h174q-30 -155 -142.5 -244.5t-289.5 -89.5l-37 -96h27q24 17 64 17q58 0 98.5 -44.5t40.5 -115.5t-49 -122.5t-146 -51.5q-82 0 -129.5 41.5t-52.5 99.5h111q13 -49 73 -49q35 0 55.5 21.5t20.5 56.5t-20.5 55t-53.5 20q-41 0 -63 -22h-107l76 197
q-196 29 -304 176t-108 360q0 240 133.5 391.5t368.5 151.5q179 0 290 -87.5t138 -234.5h-174q-54 170 -254 170q-84 0 -148.5 -31t-102.5 -86t-57 -123t-19 -147q0 -80 19 -149.5t57.5 -125.5t102.5 -88t148 -32q217 0 260 182z" />
    <glyph glyph-name="egrave" unicode="&#xe8;" horiz-adv-x="1165" 
d="M1063 578v-60h-787q5 -187 89 -290t241 -103q106 0 172 42t90 118h176q-26 -139 -139.5 -225.5t-298.5 -86.5q-157 0 -272 72.5t-172.5 196.5t-57.5 284q0 241 133 387t365 146q111 0 200 -39t144 -106.5t85 -153t32 -182.5zM598 907q-132 0 -212 -69t-99 -174h596
q-8 103 -84 173t-201 70zM563 1192l-221 297h205l176 -297h-160z" />
    <glyph glyph-name="eacute" unicode="&#xe9;" horiz-adv-x="1165" 
d="M1063 578v-60h-787q5 -187 89 -290t241 -103q106 0 172 42t90 118h176q-26 -139 -139.5 -225.5t-298.5 -86.5q-157 0 -272 72.5t-172.5 196.5t-57.5 284q0 241 133 387t365 146q111 0 200 -39t144 -106.5t85 -153t32 -182.5zM598 907q-132 0 -212 -69t-99 -174h596
q-8 103 -84 173t-201 70zM883 1489l-224 -297h-157l176 297h205z" />
    <glyph glyph-name="ecircumflex" unicode="&#xea;" horiz-adv-x="1165" 
d="M1063 578v-60h-787q5 -187 89 -290t241 -103q106 0 172 42t90 118h176q-26 -139 -139.5 -225.5t-298.5 -86.5q-157 0 -272 72.5t-172.5 196.5t-57.5 284q0 241 133 387t365 146q111 0 200 -39t144 -106.5t85 -153t32 -182.5zM598 907q-132 0 -212 -69t-99 -174h596
q-8 103 -84 173t-201 70zM700 1489l220 -297h-164l-133 176h-37l-131 -176h-162l221 297h186z" />
    <glyph glyph-name="edieresis" unicode="&#xeb;" horiz-adv-x="1165" 
d="M1063 578v-60h-787q5 -187 89 -290t241 -103q106 0 172 42t90 118h176q-26 -139 -139.5 -225.5t-298.5 -86.5q-157 0 -272 72.5t-172.5 196.5t-57.5 284q0 241 133 387t365 146q111 0 200 -39t144 -106.5t85 -153t32 -182.5zM598 907q-132 0 -212 -69t-99 -174h596
q-8 103 -84 173t-201 70zM504 1284h-189v205h189v-205zM874 1284h-188v205h188v-205z" />
    <glyph glyph-name="igrave" unicode="&#xec;" horiz-adv-x="520" 
d="M346 1032v-1032h-174v1032h174zM186 1192l-221 297h205l176 -297h-160z" />
    <glyph glyph-name="iacute" unicode="&#xed;" horiz-adv-x="520" 
d="M346 1032v-1032h-174v1032h174zM565 1489l-223 -297h-158l176 297h205z" />
    <glyph glyph-name="icircumflex" unicode="&#xee;" horiz-adv-x="520" 
d="M346 1032v-1032h-174v1032h174zM356 1489l219 -297h-163l-133 176h-37l-131 -176h-162l221 297h186z" />
    <glyph glyph-name="idieresis" unicode="&#xef;" horiz-adv-x="520" 
d="M346 1032v-1032h-174v1032h174zM170 1284h-188v205h188v-205zM541 1284h-189v205h189v-205z" />
    <glyph glyph-name="eth" unicode="&#xf0;" horiz-adv-x="1212" 
d="M291 1126v121h336q-108 116 -293 242h219q158 -111 274 -242h250v-121h-157q188 -245 188 -598q0 -118 -31 -218t-92 -176t-158.5 -118.5t-222.5 -42.5q-115 0 -210 40t-158 109.5t-97.5 161.5t-34.5 197q0 140 57.5 254t166 181t247.5 67q79 0 146.5 -24t109.5 -66h46
q-43 116 -146 233h-440zM606 125q84 0 148.5 28.5t103 78t57.5 112t19 135.5t-19 136t-57.5 113.5t-103 79t-148.5 28.5t-149 -29t-104 -79t-59 -113t-20 -136q0 -153 84 -253.5t248 -100.5z" />
    <glyph glyph-name="ntilde" unicode="&#xf1;" horiz-adv-x="1236" 
d="M680 1059q192 0 298.5 -110.5t106.5 -299.5v-649h-174v618q0 285 -264 285q-135 0 -220 -101t-85 -241v-561h-174v1032h168v-112h39q43 63 123 101t182 38zM776 1341q78 0 78 138h111q0 -277 -191 -277q-36 0 -69 11.5t-54 25t-51 37.5q-5 4 -19.5 15t-20.5 15.5
t-18 12.5t-20.5 11t-20.5 6t-24 3q-78 0 -78 -137h-110q0 277 190 277q37 0 73.5 -14t55.5 -26.5t54 -39.5q26 -21 40 -31t34.5 -18.5t39.5 -8.5z" />
    <glyph glyph-name="ograve" unicode="&#xf2;" horiz-adv-x="1224" 
d="M612 1059q157 0 273.5 -72.5t175.5 -194.5t59 -276t-59 -276t-175.5 -194.5t-273.5 -72.5q-158 0 -274.5 72.5t-175 194.5t-58.5 276t58.5 276t175 194.5t274.5 72.5zM612 125q109 0 186.5 56.5t112.5 143t35 191.5t-35 191.5t-112.5 143t-186.5 56.5q-83 0 -148 -32
t-104.5 -87.5t-60 -124.5t-20.5 -147t20.5 -147t60 -124.5t104.5 -87.5t148 -32zM551 1192l-221 297h205l176 -297h-160z" />
    <glyph glyph-name="oacute" unicode="&#xf3;" horiz-adv-x="1224" 
d="M612 1059q157 0 273.5 -72.5t175.5 -194.5t59 -276t-59 -276t-175.5 -194.5t-273.5 -72.5q-158 0 -274.5 72.5t-175 194.5t-58.5 276t58.5 276t175 194.5t274.5 72.5zM612 125q109 0 186.5 56.5t112.5 143t35 191.5t-35 191.5t-112.5 143t-186.5 56.5q-83 0 -148 -32
t-104.5 -87.5t-60 -124.5t-20.5 -147t20.5 -147t60 -124.5t104.5 -87.5t148 -32zM911 1489l-223 -297h-158l177 297h204z" />
    <glyph glyph-name="ocircumflex" unicode="&#xf4;" horiz-adv-x="1224" 
d="M612 1059q157 0 273.5 -72.5t175.5 -194.5t59 -276t-59 -276t-175.5 -194.5t-273.5 -72.5q-158 0 -274.5 72.5t-175 194.5t-58.5 276t58.5 276t175 194.5t274.5 72.5zM612 125q109 0 186.5 56.5t112.5 143t35 191.5t-35 191.5t-112.5 143t-186.5 56.5q-83 0 -148 -32
t-104.5 -87.5t-60 -124.5t-20.5 -147t20.5 -147t60 -124.5t104.5 -87.5t148 -32zM707 1489l219 -297h-164l-133 176h-37l-131 -176h-162l221 297h187z" />
    <glyph glyph-name="otilde" unicode="&#xf5;" horiz-adv-x="1224" 
d="M612 1059q157 0 273.5 -72.5t175.5 -194.5t59 -276t-59 -276t-175.5 -194.5t-273.5 -72.5q-158 0 -274.5 72.5t-175 194.5t-58.5 276t58.5 276t175 194.5t274.5 72.5zM612 125q109 0 186.5 56.5t112.5 143t35 191.5t-35 191.5t-112.5 143t-186.5 56.5q-83 0 -148 -32
t-104.5 -87.5t-60 -124.5t-20.5 -147t20.5 -147t60 -124.5t104.5 -87.5t148 -32zM760 1341q78 0 78 138h110q0 -277 -190 -277q-36 0 -69 11.5t-54 25t-51 37.5q-5 4 -19.5 15t-20.5 15.5t-18 12.5t-20.5 11t-20.5 6t-24 3q-78 0 -78 -137h-111q0 277 191 277q37 0 73.5 -14
t54.5 -26t54 -40q37 -30 62 -44t53 -14z" />
    <glyph glyph-name="odieresis" unicode="&#xf6;" horiz-adv-x="1224" 
d="M612 1059q157 0 273.5 -72.5t175.5 -194.5t59 -276t-59 -276t-175.5 -194.5t-273.5 -72.5q-158 0 -274.5 72.5t-175 194.5t-58.5 276t58.5 276t175 194.5t274.5 72.5zM612 125q109 0 186.5 56.5t112.5 143t35 191.5t-35 191.5t-112.5 143t-186.5 56.5q-83 0 -148 -32
t-104.5 -87.5t-60 -124.5t-20.5 -147t20.5 -147t60 -124.5t104.5 -87.5t148 -32zM522 1284h-188v205h188v-205zM893 1284h-188v205h188v-205z" />
    <glyph glyph-name="divide" unicode="&#xf7;" horiz-adv-x="1400" 
d="M801 51h-205v228h205v-228zM801 887h-205v227h205v-227zM1221 508h-1043v149h1043v-149z" />
    <glyph glyph-name="oslash" unicode="&#xf8;" horiz-adv-x="1230" 
d="M616 1059q175 0 304 -92l55 65h160l-127 -149q116 -146 116 -367q0 -154 -59 -276t-175.5 -194.5t-273.5 -72.5q-179 0 -305 93l-55 -66h-160l127 150q-114 144 -114 366q0 115 34 213.5t97.5 172t160 115.5t215.5 42zM616 125q109 0 186.5 56.5t112.5 143t35 191.5
q0 136 -57 232l-475 -560q82 -63 198 -63zM283 516q0 -137 55 -233l475 559q-81 65 -197 65q-83 0 -148 -32t-104.5 -87.5t-60 -124.5t-20.5 -147z" />
    <glyph glyph-name="ugrave" unicode="&#xf9;" horiz-adv-x="1216" 
d="M553 -27q-192 0 -296.5 110.5t-104.5 299.5v649h174v-618q0 -285 260 -285q134 0 218.5 101t84.5 241v561h174v-1032h-168v113h-39q-43 -63 -122 -101.5t-181 -38.5zM553 1192l-221 297h205l176 -297h-160z" />
    <glyph glyph-name="uacute" unicode="&#xfa;" horiz-adv-x="1230" 
d="M553 -27q-192 0 -296.5 110.5t-104.5 299.5v649h174v-618q0 -285 260 -285q134 0 218.5 101t84.5 241v561h174v-1032h-168v113h-39q-43 -63 -122 -101.5t-181 -38.5zM868 1489l-223 -297h-158l177 297h204z" />
    <glyph glyph-name="ucircumflex" unicode="&#xfb;" horiz-adv-x="1216" 
d="M553 -27q-192 0 -296.5 110.5t-104.5 299.5v649h174v-618q0 -285 260 -285q134 0 218.5 101t84.5 241v561h174v-1032h-168v113h-39q-43 -63 -122 -101.5t-181 -38.5zM700 1489l220 -297h-164l-133 176h-37l-131 -176h-162l221 297h186z" />
    <glyph glyph-name="udieresis" unicode="&#xfc;" horiz-adv-x="1230" 
d="M553 -27q-192 0 -296.5 110.5t-104.5 299.5v649h174v-618q0 -285 260 -285q134 0 218.5 101t84.5 241v561h174v-1032h-168v113h-39q-43 -63 -122 -101.5t-181 -38.5zM514 1284h-188v205h188v-205zM885 1284h-189v205h189v-205z" />
    <glyph glyph-name="yacute" unicode="&#xfd;" horiz-adv-x="1101" 
d="M442 -410h-184l217 500l-430 942h188l308 -676h51l293 676h184zM854 1489l-223 -297h-158l176 297h205z" />
    <glyph glyph-name="thorn" unicode="&#xfe;" horiz-adv-x="1259" 
d="M1155 516q0 -238 -124 -390.5t-335 -152.5q-205 0 -313 140h-41v-523h-174v1899h174v-569h41q107 139 313 139q211 0 335 -152.5t124 -390.5zM981 516q0 177 -83 284t-234 107q-67 0 -121.5 -21.5t-91.5 -58t-62.5 -86.5t-37 -106.5t-11.5 -118.5t11.5 -118.5t37 -106.5
t62.5 -86.5t91.5 -58t121.5 -21.5q151 0 234 107t83 284z" />
    <glyph glyph-name="ydieresis" unicode="&#xff;" horiz-adv-x="1101" 
d="M442 -410h-184l217 500l-430 942h188l308 -676h51l293 676h184zM467 1284h-188v205h188v-205zM838 1284h-189v205h189v-205z" />
    <glyph glyph-name="Amacron" unicode="&#x100;" horiz-adv-x="1409" 
d="M1174 0l-156 449h-635l-154 -449h-188l514 1462h295l516 -1462h-192zM668 1274l-228 -658h521l-228 658h-65zM991 1657h-577v131h577v-131z" />
    <glyph glyph-name="amacron" unicode="&#x101;" horiz-adv-x="1142" 
d="M825 0v111h-41q-49 -63 -133 -100.5t-190 -37.5q-172 0 -272.5 98.5t-100.5 237.5q0 65 22 124t67 109t124 79.5t182 29.5h336v41q0 99 -61.5 157t-190.5 58q-113 0 -173 -37.5t-66 -105.5h-174q7 138 120 216.5t289 78.5q198 0 312 -93t114 -264v-702h-164zM502 125
q130 0 223.5 84t93.5 205v92h-309q-248 0 -248 -193q0 -88 62.5 -138t177.5 -50zM870 1268h-577v131h577v-131z" />
    <glyph glyph-name="Abreve" unicode="&#x102;" horiz-adv-x="1406" 
d="M1174 0l-156 449h-635l-154 -449h-188l514 1462h295l516 -1462h-192zM668 1274l-228 -658h521l-228 658h-65zM858 1835h131q0 -128 -75.5 -197t-211.5 -69q-134 0 -208.5 69t-75.5 197h131q0 -67 39.5 -105t113.5 -38q77 0 116.5 38t39.5 105z" />
    <glyph glyph-name="abreve" unicode="&#x103;" horiz-adv-x="1142" 
d="M825 0v111h-41q-49 -63 -133 -100.5t-190 -37.5q-172 0 -272.5 98.5t-100.5 237.5q0 65 22 124t67 109t124 79.5t182 29.5h336v41q0 99 -61.5 157t-190.5 58q-113 0 -173 -37.5t-66 -105.5h-174q7 138 120 216.5t289 78.5q198 0 312 -93t114 -264v-702h-164zM502 125
q130 0 223.5 84t93.5 205v92h-309q-248 0 -248 -193q0 -88 62.5 -138t177.5 -50zM723 1489h135q0 -141 -74.5 -219t-208.5 -78q-135 0 -209.5 78t-74.5 219h133q0 -80 38 -126t111 -46t111.5 46t38.5 126z" />
    <glyph glyph-name="Aogonek" unicode="&#x104;" horiz-adv-x="1409" 
d="M1174 0l-156 449h-635l-154 -449h-188l514 1462h295l516 -1462q-63 -32 -105 -82t-42 -102q0 -51 39.5 -79t111.5 -28v-119h-43q-119 0 -186.5 51t-67.5 144q0 64 43 123.5t107 91.5h-49zM668 1274l-228 -658h521l-228 658h-65z" />
    <glyph glyph-name="aogonek" unicode="&#x105;" horiz-adv-x="1142" 
d="M825 0v111h-41q-49 -63 -133 -100.5t-190 -37.5q-172 0 -272.5 98.5t-100.5 237.5q0 65 22 124t67 109t124 79.5t182 29.5h336v41q0 99 -61.5 157t-190.5 58q-113 0 -173 -37.5t-66 -105.5h-174q7 138 120 216.5t289 78.5q198 0 312 -93t114 -264v-702q-63 -32 -105 -82
t-42 -102q0 -51 39.5 -79t111.5 -28v-119h-43q-119 0 -186.5 51t-67.5 144q0 61 36.5 120t92.5 95zM502 125q130 0 223.5 84t93.5 205v92h-309q-248 0 -248 -193q0 -88 62.5 -138t177.5 -50z" />
    <glyph glyph-name="Cacute" unicode="&#x106;" horiz-adv-x="1470" 
d="M1174 416h194q-46 -202 -196 -322.5t-384 -120.5q-160 0 -289 57.5t-213 159t-128.5 240t-44.5 301.5q0 219 78 389t233 269.5t367 99.5q221 0 368.5 -109.5t192.5 -300.5h-195q-43 121 -130.5 181.5t-235.5 60.5q-99 0 -181.5 -32t-139 -87t-96 -130t-57.5 -161
t-18 -180q0 -120 29.5 -224t87 -187t153.5 -131t219 -48q151 0 250.5 72.5t135.5 202.5zM1067 1835l-223 -264h-160l174 264h209z" />
    <glyph glyph-name="cacute" unicode="&#x107;" horiz-adv-x="1132" 
d="M866 307h174q-30 -155 -143.5 -244.5t-290.5 -89.5q-157 0 -272 72.5t-172.5 194.5t-57.5 276q0 240 133.5 391.5t368.5 151.5q179 0 290 -87.5t138 -234.5h-174q-54 170 -254 170q-84 0 -148.5 -31t-102.5 -86t-57 -123t-19 -147q0 -80 19 -149.5t57.5 -125.5t102.5 -88
t148 -32q217 0 260 182zM866 1489l-223 -297h-158l177 297h204z" />
    <glyph glyph-name="Ccaron" unicode="&#x10c;" horiz-adv-x="1470" 
d="M1174 416h194q-46 -202 -196 -322.5t-384 -120.5q-160 0 -289 57.5t-213 159t-128.5 240t-44.5 301.5q0 219 78 389t233 269.5t367 99.5q221 0 368.5 -109.5t192.5 -300.5h-195q-43 121 -130.5 181.5t-235.5 60.5q-99 0 -181.5 -32t-139 -87t-96 -130t-57.5 -161
t-18 -180q0 -120 29.5 -224t87 -187t153.5 -131t219 -48q151 0 250.5 72.5t135.5 202.5zM680 1571l-219 264h172l125 -145h37l125 145h167l-219 -264h-188z" />
    <glyph glyph-name="ccaron" unicode="&#x10d;" horiz-adv-x="1132" 
d="M866 307h174q-30 -155 -143.5 -244.5t-290.5 -89.5q-157 0 -272 72.5t-172.5 194.5t-57.5 276q0 240 133.5 391.5t368.5 151.5q179 0 290 -87.5t138 -234.5h-174q-54 170 -254 170q-84 0 -148.5 -31t-102.5 -86t-57 -123t-19 -147q0 -80 19 -149.5t57.5 -125.5t102.5 -88
t148 -32q217 0 260 182zM508 1192l-219 297h164l133 -176h37l131 176h161l-221 -297h-186z" />
    <glyph glyph-name="Dcaron" unicode="&#x10e;" horiz-adv-x="1521" 
d="M186 1462h547q220 0 373.5 -91.5t228 -254.5t74.5 -385t-74.5 -384.5t-228 -254.5t-373.5 -92h-547v1462zM371 168h362q129 0 225.5 44.5t153 123.5t84 178t27.5 217t-27.5 217t-84 178t-153 123.5t-225.5 44.5h-362v-1126zM598 1571l-219 264h172l125 -145h37l125 145
h168l-220 -264h-188z" />
    <glyph glyph-name="dcaron" unicode="&#x10f;" horiz-adv-x="1429" 
d="M1374 1284h-94v205h209v-240l-109 -151h-114l108 151v35zM918 1489h174v-1489h-168v113h-41q-111 -140 -320 -140q-140 0 -245.5 72.5t-159.5 195t-54 275.5q0 238 124 390.5t335 152.5q207 0 314 -139h41v569zM596 125q67 0 121.5 21.5t91.5 58t62.5 86.5t37 106.5
t11.5 118.5t-11.5 118.5t-37 106.5t-62.5 86.5t-91.5 58t-121.5 21.5q-151 0 -234 -107t-83 -284t83 -284t234 -107z" />
    <glyph glyph-name="Dcroat" unicode="&#x110;" horiz-adv-x="1533" 
d="M41 680v151h158v631h546q220 0 373.5 -91.5t228 -254.5t74.5 -385t-74.5 -384.5t-228 -254.5t-373.5 -92h-546v680h-158zM383 168h362q129 0 225.5 44.5t153 123.5t84 178t27.5 217t-27.5 217t-84 178t-153 123.5t-225.5 44.5h-362v-463h479v-151h-479v-512z" />
    <glyph glyph-name="dcroat" unicode="&#x111;" horiz-adv-x="1277" 
d="M1092 0h-168v113h-41q-111 -140 -320 -140q-140 0 -245.5 72.5t-159.5 195t-54 275.5q0 238 124 390.5t335 152.5q207 0 314 -139h41v264h-332v125h332v180h174v-180h161v-125h-161v-1184zM596 125q67 0 121.5 21.5t91.5 58t62.5 86.5t37 106.5t11.5 118.5t-11.5 118.5
t-37 106.5t-62.5 86.5t-91.5 58t-121.5 21.5q-151 0 -234 -107t-83 -284t83 -284t234 -107z" />
    <glyph glyph-name="Emacron" unicode="&#x112;" horiz-adv-x="1335" 
d="M371 168h866v-168h-1051v1462h1018v-168h-833v-452h671v-168h-671v-506zM999 1657h-577v131h577v-131z" />
    <glyph glyph-name="emacron" unicode="&#x113;" horiz-adv-x="1165" 
d="M1063 578v-60h-787q5 -187 89 -290t241 -103q106 0 172 42t90 118h176q-26 -139 -139.5 -225.5t-298.5 -86.5q-157 0 -272 72.5t-172.5 196.5t-57.5 284q0 241 133 387t365 146q111 0 200 -39t144 -106.5t85 -153t32 -182.5zM598 907q-132 0 -212 -69t-99 -174h596
q-8 103 -84 173t-201 70zM897 1268h-578v131h578v-131z" />
    <glyph glyph-name="Edotaccent" unicode="&#x116;" horiz-adv-x="1335" 
d="M371 168h866v-168h-1051v1462h1018v-168h-833v-452h671v-168h-671v-506zM811 1630h-201v205h201v-205z" />
    <glyph glyph-name="edotaccent" unicode="&#x117;" horiz-adv-x="1165" 
d="M1063 578v-60h-787q5 -187 89 -290t241 -103q106 0 172 42t90 118h176q-26 -139 -139.5 -225.5t-298.5 -86.5q-157 0 -272 72.5t-172.5 196.5t-57.5 284q0 241 133 387t365 146q111 0 200 -39t144 -106.5t85 -153t32 -182.5zM598 907q-132 0 -212 -69t-99 -174h596
q-8 103 -84 173t-201 70zM705 1284h-201v205h201v-205z" />
    <glyph glyph-name="Eogonek" unicode="&#x118;" horiz-adv-x="1335" 
d="M371 168h866v-168q-63 -32 -105 -82t-42 -102q0 -51 39.5 -79t111.5 -28v-119h-43q-119 0 -186.5 51t-67.5 144q0 64 43 123.5t107 91.5h-908v1462h1018v-168h-833v-452h671v-168h-671v-506z" />
    <glyph glyph-name="eogonek" unicode="&#x119;" horiz-adv-x="1165" 
d="M1063 571v-53h-787q5 -187 89 -290t241 -103q106 0 172 42t90 118h176q-32 -182 -229 -275q-156 -74 -156 -190q0 -51 40.5 -81t111.5 -30v-119h-43q-119 0 -186.5 51t-67.5 144q0 55 31.5 104.5t81.5 83.5h-21q-157 0 -272 72.5t-172.5 196.5t-57.5 284q0 241 133 387
t365 146q111 0 200.5 -40.5t145 -109t85.5 -155.5t30 -183zM598 907q-132 0 -212 -69t-99 -174h596q-8 103 -84 173t-201 70z" />
    <glyph glyph-name="Ecaron" unicode="&#x11a;" horiz-adv-x="1335" 
d="M371 168h866v-168h-1051v1462h1018v-168h-833v-452h671v-168h-671v-506zM618 1571l-219 264h172l125 -145h37l125 145h168l-219 -264h-189z" />
    <glyph glyph-name="ecaron" unicode="&#x11b;" horiz-adv-x="1165" 
d="M1063 578v-60h-787q5 -187 89 -290t241 -103q106 0 172 42t90 118h176q-26 -139 -139.5 -225.5t-298.5 -86.5q-157 0 -272 72.5t-172.5 196.5t-57.5 284q0 241 133 387t365 146q111 0 200 -39t144 -106.5t85 -153t32 -182.5zM598 907q-132 0 -212 -69t-99 -174h596
q-8 103 -84 173t-201 70zM492 1192l-220 297h164l133 -176h37l131 176h162l-221 -297h-186z" />
    <glyph glyph-name="uni0122" unicode="&#x122;" horiz-adv-x="1527" 
d="M764 776h641v-147q0 -104 -21 -197.5t-68.5 -178.5t-117 -146.5t-174 -97.5t-233.5 -36q-162 0 -292 58.5t-213.5 161t-128 240t-44.5 298.5q0 162 45 300t129.5 240t215 160t292.5 58q227 0 374.5 -105.5t190.5 -293.5h-193q-75 231 -372 231q-125 0 -222 -47.5
t-155.5 -130t-88.5 -187t-30 -225.5q0 -120 29 -224t87.5 -187t155.5 -131t222 -48q110 0 193.5 35.5t132.5 98t73.5 141t24.5 170.5v26h-453v164zM793 -451h-117l112 127v35h-90v170h205v-205z" />
    <glyph glyph-name="uni0123" unicode="&#x123;" horiz-adv-x="1261" 
d="M926 1032h168v-981q0 -218 -129 -346.5t-353 -128.5q-200 0 -322 81t-145 234h172q22 -88 95.5 -125.5t197.5 -37.5q156 0 233 86t77 245v84h-41q-106 -139 -308 -139q-210 0 -337.5 148t-127.5 378q0 231 127.5 380t337.5 149q208 0 314 -139h41v112zM598 156
q157 0 241.5 108t84.5 266q0 160 -84.5 268.5t-241.5 108.5q-150 0 -233.5 -102t-83.5 -275q0 -170 83.5 -272t233.5 -102zM629 1507h116l-112 -127v-34h90v-170h-205v204z" />
    <glyph glyph-name="Itilde" unicode="&#x128;" horiz-adv-x="581" 
d="M199 1462h184v-1462h-184v1462zM444 1704q78 0 78 137h111q0 -276 -191 -276q-52 0 -90.5 18.5t-83.5 54.5q-5 4 -23 18t-25 18.5t-21.5 13t-27 11.5t-26.5 3q-77 0 -77 -137h-111q0 276 190 276q37 0 73.5 -14t55.5 -26.5t54 -39.5q37 -30 61.5 -43.5t52.5 -13.5z" />
    <glyph glyph-name="itilde" unicode="&#x129;" horiz-adv-x="520" 
d="M346 1032v-1032h-174v1032h174zM410 1341q77 0 77 138h111q0 -277 -190 -277q-51 0 -90.5 19t-84.5 55q-4 3 -22.5 17.5t-25 19t-21 12.5t-27 11t-26.5 3q-78 0 -78 -137h-111q0 277 191 277q37 0 73.5 -14t54.5 -26t54 -40q37 -30 62 -44t53 -14z" />
    <glyph glyph-name="Imacron" unicode="&#x12a;" horiz-adv-x="581" 
d="M199 1462h184v-1462h-184v1462zM582 1657h-578v131h578v-131z" />
    <glyph glyph-name="imacron" unicode="&#x12b;" horiz-adv-x="520" 
d="M485 1268h-454v131h454v-131zM346 1032v-1032h-174v1032h174z" />
    <glyph glyph-name="Iogonek" unicode="&#x12e;" horiz-adv-x="581" 
d="M199 1462h184v-1462q-63 -32 -105 -82t-42 -102q0 -51 39.5 -79t111.5 -28v-119h-43q-119 0 -186.5 51t-67.5 144q0 64 43 123.5t107 91.5h-41v1462z" />
    <glyph glyph-name="iogonek" unicode="&#x12f;" horiz-adv-x="520" 
d="M346 1032v-1032q-63 -32 -105 -82t-42 -102q0 -51 39.5 -79t111.5 -28v-119h-43q-119 0 -186.5 51t-67.5 144q0 64 43 123.5t107 91.5h-31v1032h174zM360 1284h-200v205h200v-205z" />
    <glyph glyph-name="dotlessi" unicode="&#x131;" horiz-adv-x="520" 
d="M346 1032v-1032h-174v1032h174z" />
    <glyph glyph-name="uni0136" unicode="&#x136;" horiz-adv-x="1470" 
d="M1120 1462h238l-508 -489l553 -973h-207l-465 817h-41l-319 -313v-504h-185v1462h185v-729zM772 -451h-117l113 127v35h-90v170h205v-205z" />
    <glyph glyph-name="uni0137" unicode="&#x137;" horiz-adv-x="1132" 
d="M1106 0h-191l-301 539h-41l-231 -246v-293h-174v1489h174v-977l487 520h205l-315 -340zM618 -451h-116l112 127v35h-90v170h205v-205z" />
    <glyph glyph-name="kgreenlandic" unicode="&#x138;" horiz-adv-x="1132" 
d="M1106 0h-191l-301 541h-41l-231 -248v-293h-174v1032h174v-520l487 520h205l-315 -338z" />
    <glyph glyph-name="Lacute" unicode="&#x139;" horiz-adv-x="1275" 
d="M371 174h821v-174h-1006v1462h185v-1288zM582 1835l-224 -264h-159l174 264h209z" />
    <glyph glyph-name="lacute" unicode="&#x13a;" horiz-adv-x="509" 
d="M168 1489h174v-1489h-174v1489zM561 1835l-223 -264h-160l174 264h209z" />
    <glyph glyph-name="uni013B" unicode="&#x13b;" horiz-adv-x="1275" 
d="M371 174h821v-174h-1006v1462h185v-1288zM684 -451h-117l113 127v35h-90v170h205v-205z" />
    <glyph glyph-name="uni013C" unicode="&#x13c;" horiz-adv-x="509" 
d="M168 1489h174v-1489h-174v1489zM246 -451h-117l113 127v35h-90v170h204v-205z" />
    <glyph glyph-name="Lcaron" unicode="&#x13d;" horiz-adv-x="1275" 
d="M371 174h821v-174h-1006v1462h185v-1288zM850 1257h-94v205h209v-239l-109 -152h-115l109 152v34z" />
    <glyph glyph-name="lcaron" unicode="&#x13e;" horiz-adv-x="681" 
d="M168 1489h174v-1489h-174v1489zM627 1284h-95v205h209v-240l-108 -151h-115l109 151v35z" />
    <glyph glyph-name="Lslash" unicode="&#x141;" horiz-adv-x="1312" 
d="M408 174h821v-174h-1006v633l-182 -74v160l182 74v669h185v-596l356 144v-158l-356 -145v-533z" />
    <glyph glyph-name="lslash" unicode="&#x142;" horiz-adv-x="690" 
d="M55 547v166l203 92v684h174v-606l203 92v-166l-203 -92v-717h-174v639z" />
    <glyph glyph-name="Nacute" unicode="&#x143;" horiz-adv-x="1568" 
d="M1202 1462h180v-1462h-286l-688 1223h-41v-1223h-181v1462h287l688 -1222h41v1222zM1073 1835l-223 -264h-160l174 264h209z" />
    <glyph glyph-name="nacute" unicode="&#x144;" horiz-adv-x="1236" 
d="M680 1059q192 0 298.5 -110.5t106.5 -299.5v-649h-174v618q0 285 -264 285q-135 0 -220 -101t-85 -241v-561h-174v1032h168v-112h39q43 63 123 101t182 38zM920 1489l-224 -297h-157l176 297h205z" />
    <glyph glyph-name="uni0145" unicode="&#x145;" horiz-adv-x="1568" 
d="M1202 1462h180v-1462h-286l-688 1223h-41v-1223h-181v1462h287l688 -1222h41v1222zM764 -451h-117l113 127v35h-90v170h204v-205z" />
    <glyph glyph-name="uni0146" unicode="&#x146;" horiz-adv-x="1236" 
d="M680 1059q192 0 298.5 -110.5t106.5 -299.5v-649h-174v618q0 285 -264 285q-135 0 -220 -101t-85 -241v-561h-174v1032h168v-112h39q43 63 123 101t182 38zM618 -451h-116l112 127v35h-90v170h205v-205z" />
    <glyph glyph-name="Ncaron" unicode="&#x147;" horiz-adv-x="1568" 
d="M1202 1462h180v-1462h-286l-688 1223h-41v-1223h-181v1462h287l688 -1222h41v1222zM690 1571l-219 264h172l125 -145h37l125 145h168l-219 -264h-189z" />
    <glyph glyph-name="ncaron" unicode="&#x148;" horiz-adv-x="1236" 
d="M680 1059q192 0 298.5 -110.5t106.5 -299.5v-649h-174v618q0 285 -264 285q-135 0 -220 -101t-85 -241v-561h-174v1032h168v-112h39q43 63 123 101t182 38zM530 1192l-219 297h164l133 -176h37l131 176h162l-221 -297h-187z" />
    <glyph glyph-name="Eng" unicode="&#x14a;" horiz-adv-x="1568" 
d="M1382 1462v-1419q0 -213 -113.5 -333t-312.5 -120h-122v160h118q111 0 179.5 61.5t72.5 188.5h-108l-688 1223h-41v-1223h-181v1462h287l688 -1222h41v1222h180z" />
    <glyph glyph-name="eng" unicode="&#x14b;" horiz-adv-x="1236" 
d="M911 -78v696q0 285 -264 285q-135 0 -220 -101t-85 -241v-561h-174v1032h168v-112h39q43 63 123 101t182 38q192 0 298.5 -110.5t106.5 -299.5v-737q0 -171 -82 -246.5t-258 -75.5h-120v156h112q93 0 133.5 41t40.5 135z" />
    <glyph glyph-name="Omacron" unicode="&#x14c;" horiz-adv-x="1589" 
d="M795 1489q162 0 293 -59t215 -162.5t129 -240.5t45 -296t-45 -296t-129 -240.5t-215 -162.5t-293 -59q-131 0 -242 38.5t-191.5 107.5t-137 163.5t-84 208t-27.5 240.5t27.5 240.5t84 208t137 163.5t191.5 107.5t242 38.5zM795 141q101 0 184.5 32t140.5 87.5t96 131
t56.5 160.5t17.5 179t-17.5 179t-56.5 160.5t-96 131t-140.5 87.5t-184.5 32t-184.5 -32t-140.5 -87.5t-96 -131t-57 -160.5t-18 -179t18 -179t57 -160.5t96 -131t140.5 -87.5t184.5 -32zM1083 1657h-577v131h577v-131z" />
    <glyph glyph-name="omacron" unicode="&#x14d;" horiz-adv-x="1224" 
d="M612 1059q157 0 273.5 -72.5t175.5 -194.5t59 -276t-59 -276t-175.5 -194.5t-273.5 -72.5q-158 0 -274.5 72.5t-175 194.5t-58.5 276t58.5 276t175 194.5t274.5 72.5zM612 125q109 0 186.5 56.5t112.5 143t35 191.5t-35 191.5t-112.5 143t-186.5 56.5q-83 0 -148 -32
t-104.5 -87.5t-60 -124.5t-20.5 -147t20.5 -147t60 -124.5t104.5 -87.5t148 -32zM901 1268h-577v131h577v-131z" />
    <glyph glyph-name="Ohungarumlaut" unicode="&#x150;" horiz-adv-x="1589" 
d="M795 1489q162 0 293 -59t215 -162.5t129 -240.5t45 -296t-45 -296t-129 -240.5t-215 -162.5t-293 -59q-131 0 -242 38.5t-191.5 107.5t-137 163.5t-84 208t-27.5 240.5t27.5 240.5t84 208t137 163.5t191.5 107.5t242 38.5zM795 141q101 0 184.5 32t140.5 87.5t96 131
t56.5 160.5t17.5 179t-17.5 179t-56.5 160.5t-96 131t-140.5 87.5t-184.5 32t-184.5 -32t-140.5 -87.5t-96 -131t-57 -160.5t-18 -179t18 -179t57 -160.5t96 -131t140.5 -87.5t184.5 -32zM901 1835l-203 -264h-151l158 264h196zM1233 1835l-205 -264h-149l157 264h197z" />
    <glyph glyph-name="ohungarumlaut" unicode="&#x151;" horiz-adv-x="1224" 
d="M612 1059q157 0 273.5 -72.5t175.5 -194.5t59 -276t-59 -276t-175.5 -194.5t-273.5 -72.5q-158 0 -274.5 72.5t-175 194.5t-58.5 276t58.5 276t175 194.5t274.5 72.5zM612 125q109 0 186.5 56.5t112.5 143t35 191.5t-35 191.5t-112.5 143t-186.5 56.5q-83 0 -148 -32
t-104.5 -87.5t-60 -124.5t-20.5 -147t20.5 -147t60 -124.5t104.5 -87.5t148 -32zM709 1489l-201 -297h-148l156 297h193zM1032 1489l-203 -297h-145l156 297h192z" />
    <glyph glyph-name="OE" unicode="&#x152;" horiz-adv-x="2222" 
d="M1362 168h762v-168h-946v104h-41q-64 -64 -160.5 -97.5t-198.5 -33.5q-156 0 -283 57.5t-210 159t-127.5 240t-44.5 301.5t44.5 301.5t127.5 240t210 159t283 57.5q103 0 199.5 -33t159.5 -96h41v102h915v-168h-731v-452h567v-168h-567v-506zM791 141q148 0 247.5 64
t139.5 162v731q-40 96 -140 159.5t-247 63.5q-100 0 -183 -32t-139.5 -87.5t-95 -131t-56.5 -161t-18 -178.5t18 -178.5t56.5 -161t95 -131t139.5 -87.5t183 -32z" />
    <glyph glyph-name="oe" unicode="&#x153;" horiz-adv-x="1978" 
d="M1876 518h-770q2 -182 83.5 -287.5t235.5 -105.5q205 0 261 160h176q-26 -139 -139.5 -225.5t-297.5 -86.5q-127 0 -225 53t-160 148h-43q-62 -95 -162.5 -148t-230.5 -53q-154 0 -269 72.5t-173 194.5t-58 276t58 276t173 194.5t269 72.5q127 0 227 -51t164 -144h45
q129 195 387 195q141 0 245 -68t154 -175.5t50 -237.5v-60zM604 125q108 0 184 56.5t110 142.5t34 192t-34 192t-110 142.5t-184 56.5q-81 0 -144.5 -32t-102 -87.5t-58.5 -124.5t-20 -147t20 -147t58.5 -124.5t102 -87.5t144.5 -32zM1421 907q-130 0 -206.5 -67.5
t-100.5 -175.5h582q-8 104 -80.5 173.5t-194.5 69.5z" />
    <glyph glyph-name="Racute" unicode="&#x154;" horiz-adv-x="1452" 
d="M1315 1036q0 -141 -62.5 -239.5t-181.5 -145.5l254 -651h-195l-239 612q-18 -2 -57 -2h-463v-610h-185v1462h648q231 0 356 -112t125 -314zM1128 1036q0 129 -75 195.5t-246 66.5h-436v-524h436q171 0 246 66.5t75 195.5zM948 1835l-223 -264h-160l174 264h209z" />
    <glyph glyph-name="racute" unicode="&#x155;" horiz-adv-x="817" 
d="M748 1032v-164h-80q-155 0 -240.5 -91.5t-85.5 -260.5v-516h-174v1032h168v-125h41q43 54 119 89.5t180 35.5h72zM694 1489l-223 -297h-158l176 297h205z" />
    <glyph glyph-name="uni0156" unicode="&#x156;" horiz-adv-x="1452" 
d="M1315 1036q0 -141 -62.5 -239.5t-181.5 -145.5l254 -651h-195l-239 612q-18 -2 -57 -2h-463v-610h-185v1462h648q231 0 356 -112t125 -314zM1128 1036q0 129 -75 195.5t-246 66.5h-436v-524h436q171 0 246 66.5t75 195.5zM717 -451h-117l113 127v35h-90v170h204v-205z
" />
    <glyph glyph-name="uni0157" unicode="&#x157;" horiz-adv-x="817" 
d="M748 1032v-164h-80q-155 0 -240.5 -91.5t-85.5 -260.5v-516h-174v1032h168v-125h41q43 54 119 89.5t180 35.5h72zM254 -451h-117l113 127v35h-90v170h205v-205z" />
    <glyph glyph-name="Rcaron" unicode="&#x158;" horiz-adv-x="1452" 
d="M1315 1036q0 -141 -62.5 -239.5t-181.5 -145.5l254 -651h-195l-239 612q-18 -2 -57 -2h-463v-610h-185v1462h648q231 0 356 -112t125 -314zM1128 1036q0 129 -75 195.5t-246 66.5h-436v-524h436q171 0 246 66.5t75 195.5zM618 1571l-219 264h172l125 -145h37l125 145h168
l-219 -264h-189z" />
    <glyph glyph-name="rcaron" unicode="&#x159;" horiz-adv-x="817" 
d="M748 1032v-164h-80q-155 0 -240.5 -91.5t-85.5 -260.5v-516h-174v1032h168v-125h41q43 54 119 89.5t180 35.5h72zM358 1192l-219 297h164l133 -176h37l131 176h162l-221 -297h-187z" />
    <glyph glyph-name="Sacute" unicode="&#x15a;" horiz-adv-x="1359" 
d="M590 864l264 -49q181 -37 282 -132.5t101 -274.5q0 -85 -34.5 -161.5t-101 -138.5t-174 -98.5t-241.5 -36.5q-253 0 -411.5 120.5t-176.5 314.5h187q12 -72 49 -125t93 -83.5t122 -44.5t145 -14q156 0 256.5 70t100.5 192q0 196 -256 244l-258 47q-177 33 -277 126.5
t-100 256.5q0 84 34 158.5t97.5 131t162 89.5t220.5 33q224 0 364.5 -107.5t165.5 -287.5h-186q-27 114 -109.5 170.5t-238.5 56.5q-141 0 -232.5 -63.5t-91.5 -176.5q0 -172 244 -217zM938 1835l-223 -264h-160l174 264h209z" />
    <glyph glyph-name="sacute" unicode="&#x15b;" horiz-adv-x="1052" 
d="M463 627l199 -33q305 -50 305 -301q0 -132 -114 -226t-312 -94q-209 0 -323 85.5t-132 238.5h174q13 -85 86 -128.5t186 -43.5q122 0 191.5 41t69.5 123q0 122 -177 149l-202 33q-135 21 -212 91t-77 190q0 134 107 220.5t303 86.5q176 0 280.5 -79.5t122.5 -215.5h-172
q-10 70 -77.5 106.5t-164.5 36.5q-102 0 -163.5 -37.5t-61.5 -107.5q0 -108 164 -135zM793 1489l-224 -297h-157l176 297h205z" />
    <glyph glyph-name="Scedilla" unicode="&#x15e;" horiz-adv-x="1359" 
d="M592 858l254 -45q391 -68 391 -405q0 -84 -34.5 -160.5t-101 -138.5t-174 -99t-241.5 -37l-37 -96h27q24 17 63 17q58 0 99 -45t41 -115q0 -71 -49 -122.5t-146 -51.5q-82 0 -129.5 41.5t-52.5 99.5h110q13 -49 74 -49q35 0 55.5 21.5t20.5 56.5t-20.5 55t-53.5 20
q-41 0 -63 -22h-107l76 194q-214 20 -346 137.5t-150 293.5h187q12 -72 49 -125t93 -83.5t122 -44.5t145 -14q155 0 256 71.5t101 190.5q0 199 -260 242l-238 39q-183 31 -287 125.5t-104 261.5q0 176 137 297t377 121q224 0 364.5 -107.5t165.5 -287.5h-186
q-27 114 -109.5 170.5t-238.5 56.5q-139 0 -231.5 -66t-92.5 -178q0 -174 244 -219z" />
    <glyph glyph-name="scedilla" unicode="&#x15f;" horiz-adv-x="1050" 
d="M459 627l198 -33q306 -50 306 -301q0 -132 -114 -226t-312 -94h-21l-37 -96h27q24 17 63 17q58 0 99 -45t41 -115q0 -71 -49 -122.5t-146 -51.5q-82 0 -129.5 41.5t-52.5 99.5h110q13 -49 74 -49q35 0 55.5 21.5t20.5 56.5t-20.5 55t-53.5 20q-41 0 -63 -22h-107l76 199
q-157 23 -242.5 103.5t-99.5 211.5h174q13 -85 86 -128.5t186 -43.5q121 0 190.5 41t69.5 123q0 62 -41.5 97t-134.5 52l-202 33q-135 21 -212 91t-77 190q0 134 106.5 220.5t302.5 86.5q177 0 281.5 -79.5t122.5 -215.5h-172q-10 70 -77.5 106.5t-164.5 36.5
q-102 0 -163.5 -37.5t-61.5 -107.5q0 -108 164 -135z" />
    <glyph glyph-name="Scaron" unicode="&#x160;" horiz-adv-x="1359" 
d="M590 864l264 -49q181 -37 282 -132.5t101 -274.5q0 -85 -34.5 -161.5t-101 -138.5t-174 -98.5t-241.5 -36.5q-253 0 -411.5 120.5t-176.5 314.5h187q12 -72 49 -125t93 -83.5t122 -44.5t145 -14q156 0 256.5 70t100.5 192q0 196 -256 244l-258 47q-177 33 -277 126.5
t-100 256.5q0 84 34 158.5t97.5 131t162 89.5t220.5 33q224 0 364.5 -107.5t165.5 -287.5h-186q-27 114 -109.5 170.5t-238.5 56.5q-141 0 -232.5 -63.5t-91.5 -176.5q0 -172 244 -217zM580 1571l-220 264h172l125 -145h37l125 145h168l-219 -264h-188z" />
    <glyph glyph-name="scaron" unicode="&#x161;" horiz-adv-x="1052" 
d="M463 627l199 -33q305 -50 305 -301q0 -132 -114 -226t-312 -94q-209 0 -323 85.5t-132 238.5h174q13 -85 86 -128.5t186 -43.5q122 0 191.5 41t69.5 123q0 122 -177 149l-202 33q-135 21 -212 91t-77 190q0 134 107 220.5t303 86.5q176 0 280.5 -79.5t122.5 -215.5h-172
q-10 70 -77.5 106.5t-164.5 36.5q-102 0 -163.5 -37.5t-61.5 -107.5q0 -108 164 -135zM436 1192l-219 297h164l133 -176h37l131 176h162l-221 -297h-187z" />
    <glyph glyph-name="uni0162" unicode="&#x162;" horiz-adv-x="1222" 
d="M1184 1462v-164h-479v-1298h-185v1298h-483v164h1147zM604 -451h-117l113 127v35h-90v170h205v-205z" />
    <glyph glyph-name="uni0163" unicode="&#x163;" horiz-adv-x="835" 
d="M438 1032h279v-151h-279v-586q0 -76 39.5 -107.5t140.5 -31.5h99v-156h-115q-89 0 -148 11t-104 40t-65.5 82t-20.5 133v615h-209v151h209v311h174v-311zM471 -451h-117l113 127v35h-90v170h205v-205z" />
    <glyph glyph-name="Tcaron" unicode="&#x164;" horiz-adv-x="1222" 
d="M1184 1462v-164h-479v-1298h-185v1298h-483v164h1147zM516 1571l-219 264h172l125 -145h37l125 145h168l-219 -264h-189z" />
    <glyph glyph-name="tcaron" unicode="&#x165;" horiz-adv-x="886" 
d="M807 1321h-94v205h209v-240l-109 -151h-115l109 151v35zM438 1032h279v-151h-279v-572q0 -80 41 -116.5t142 -36.5h96v-156h-109q-178 0 -261 58.5t-83 215.5v607h-209v151h209v311h174v-311z" />
    <glyph glyph-name="Tbar" unicode="&#x166;" horiz-adv-x="1222" 
d="M1184 1462v-164h-479v-467h327v-151h-327v-680h-185v680h-332v151h332v467h-483v164h1147z" />
    <glyph glyph-name="tbar" unicode="&#x167;" horiz-adv-x="835" 
d="M438 1032h279v-151h-279v-217h279v-152h-279v-217q0 -76 39.5 -107.5t140.5 -31.5h99v-156h-115q-89 0 -148 11t-104 40t-65.5 82t-20.5 133v246h-209v152h209v217h-209v151h209v311h174v-311z" />
    <glyph glyph-name="Utilde" unicode="&#x168;" horiz-adv-x="1515" 
d="M1149 1462h184v-940q0 -262 -148 -405.5t-427 -143.5t-427.5 143.5t-148.5 405.5v940h185v-938q0 -176 101.5 -279.5t289.5 -103.5t289.5 103.5t101.5 279.5v938zM907 1704q78 0 78 137h111q0 -276 -191 -276q-52 0 -90.5 18.5t-83.5 54.5q-5 4 -23 18t-25 18.5t-21.5 13
t-27 11.5t-26.5 3q-78 0 -78 -137h-110q0 276 190 276q37 0 73.5 -14t55.5 -26.5t54 -39.5q37 -30 61.5 -43.5t52.5 -13.5z" />
    <glyph glyph-name="utilde" unicode="&#x169;" horiz-adv-x="1230" 
d="M553 -27q-192 0 -296.5 110.5t-104.5 299.5v649h174v-618q0 -285 260 -285q134 0 218.5 101t84.5 241v561h174v-1032h-168v113h-39q-43 -63 -122 -101.5t-181 -38.5zM754 1341q77 0 77 138h111q0 -277 -190 -277q-36 0 -69 11.5t-54 25t-51 37.5q-5 4 -19.5 15
t-20.5 15.5t-18 12.5t-20.5 11t-20.5 6t-24 3q-78 0 -78 -137h-111q0 277 191 277q37 0 73.5 -14t54.5 -26t54 -40q37 -30 62 -44t53 -14z" />
    <glyph glyph-name="Umacron" unicode="&#x16a;" horiz-adv-x="1515" 
d="M1149 1462h184v-940q0 -262 -148 -405.5t-427 -143.5t-427.5 143.5t-148.5 405.5v940h185v-938q0 -176 101.5 -279.5t289.5 -103.5t289.5 103.5t101.5 279.5v938zM1047 1657h-578v131h578v-131z" />
    <glyph glyph-name="umacron" unicode="&#x16b;" horiz-adv-x="1230" 
d="M553 -27q-192 0 -296.5 110.5t-104.5 299.5v649h174v-618q0 -285 260 -285q134 0 218.5 101t84.5 241v561h174v-1032h-168v113h-39q-43 -63 -122 -101.5t-181 -38.5zM895 1268h-578v131h578v-131z" />
    <glyph glyph-name="Uring" unicode="&#x16e;" horiz-adv-x="1515" 
d="M1149 1462h184v-940q0 -262 -148 -405.5t-427 -143.5t-427.5 143.5t-148.5 405.5v940h185v-938q0 -176 101.5 -279.5t289.5 -103.5t289.5 103.5t101.5 279.5v938zM758 1987q92 0 157.5 -65t65.5 -157q0 -91 -65.5 -156t-157.5 -65t-157.5 65t-65.5 156q0 92 65.5 157
t157.5 65zM758 1653q47 0 79.5 32.5t32.5 79.5t-32.5 80t-79.5 33t-80 -33t-33 -80t33 -79.5t80 -32.5z" />
    <glyph glyph-name="uring" unicode="&#x16f;" horiz-adv-x="1230" 
d="M553 -27q-192 0 -296.5 110.5t-104.5 299.5v649h174v-618q0 -285 260 -285q134 0 218.5 101t84.5 241v561h174v-1032h-168v113h-39q-43 -63 -122 -101.5t-181 -38.5zM385 1407q0 92 65.5 156.5t157.5 64.5t157.5 -64.5t65.5 -156.5t-65.5 -156.5t-157.5 -64.5
t-157.5 64.5t-65.5 156.5zM496 1407q0 -47 32.5 -80t79.5 -33t80 33t33 80t-33 80t-80 33t-79.5 -33t-32.5 -80z" />
    <glyph glyph-name="Uhungarumlaut" unicode="&#x170;" horiz-adv-x="1515" 
d="M1149 1462h184v-940q0 -262 -148 -405.5t-427 -143.5t-427.5 143.5t-148.5 405.5v940h185v-938q0 -176 101.5 -279.5t289.5 -103.5t289.5 103.5t101.5 279.5v938zM840 1835l-203 -264h-152l158 264h197zM1171 1835l-204 -264h-150l158 264h196z" />
    <glyph glyph-name="uhungarumlaut" unicode="&#x171;" horiz-adv-x="1230" 
d="M553 -27q-192 0 -296.5 110.5t-104.5 299.5v649h174v-618q0 -285 260 -285q134 0 218.5 101t84.5 241v561h174v-1032h-168v113h-39q-43 -63 -122 -101.5t-181 -38.5zM668 1489l-201 -297h-148l156 297h193zM991 1489l-203 -297h-145l156 297h192z" />
    <glyph glyph-name="Uogonek" unicode="&#x172;" horiz-adv-x="1515" 
d="M1149 1462h184v-940q0 -374 -309 -504q-110 -45 -156.5 -94.5t-46.5 -107.5q0 -51 40 -79t112 -28v-119h-43q-119 0 -186.5 51t-67.5 144q0 106 110 188h-28q-279 0 -427.5 143.5t-148.5 405.5v940h185v-938q0 -176 101.5 -279.5t289.5 -103.5t289.5 103.5t101.5 279.5
v938z" />
    <glyph glyph-name="uogonek" unicode="&#x173;" horiz-adv-x="1230" 
d="M895 0v113h-39q-43 -63 -122 -101.5t-181 -38.5q-192 0 -296.5 110.5t-104.5 299.5v649h174v-618q0 -285 260 -285q134 0 218.5 101t84.5 241v561h174v-1032q-63 -33 -105.5 -82.5t-42.5 -101.5q0 -51 40 -79t112 -28v-119h-43q-119 0 -186.5 51t-67.5 144q0 61 35 120
t90 95z" />
    <glyph glyph-name="Ydieresis" unicode="&#x178;" horiz-adv-x="1316" 
d="M690 797l391 665h195l-526 -903v-559h-185v559l-526 903h203l391 -665h57zM567 1630h-188v205h188v-205zM938 1630h-188v205h188v-205z" />
    <glyph glyph-name="Zacute" unicode="&#x179;" horiz-adv-x="1320" 
d="M1192 1462v-207l-866 -1046v-41h895v-168h-1123v209l869 1044v41h-813v168h1038zM950 1835l-223 -264h-160l174 264h209z" />
    <glyph glyph-name="zacute" unicode="&#x17a;" horiz-adv-x="1054" 
d="M956 0h-858v193l627 649v39h-592v151h817v-190l-624 -649v-41h630v-152zM801 1489l-223 -297h-158l176 297h205z" />
    <glyph glyph-name="Zdotaccent" unicode="&#x17b;" horiz-adv-x="1320" 
d="M1192 1462v-207l-866 -1046v-41h895v-168h-1123v209l869 1044v41h-813v168h1038zM762 1630h-201v205h201v-205z" />
    <glyph glyph-name="zdotaccent" unicode="&#x17c;" horiz-adv-x="1054" 
d="M956 0h-858v193l627 649v39h-592v151h817v-190l-624 -649v-41h630v-152zM629 1284h-201v205h201v-205z" />
    <glyph glyph-name="Zcaron" unicode="&#x17d;" horiz-adv-x="1320" 
d="M1192 1462v-207l-866 -1046v-41h895v-168h-1123v209l869 1044v41h-813v168h1038zM567 1571l-219 264h172l125 -145h37l125 145h168l-219 -264h-189z" />
    <glyph glyph-name="zcaron" unicode="&#x17e;" horiz-adv-x="1054" 
d="M956 0h-858v193l627 649v39h-592v151h817v-190l-624 -649v-41h630v-152zM455 1192l-219 297h163l133 -176h37l131 176h162l-221 -297h-186z" />
    <glyph glyph-name="florin" unicode="&#x192;" horiz-adv-x="884" 
d="M276 -410h-174l201 1137h-192v145h217l45 256q35 191 134.5 276t276.5 85h80v-152h-84q-105 0 -160 -60t-75 -173l-43 -232h248v-145h-273z" />
    <glyph glyph-name="circumflex" unicode="&#x2c6;" horiz-adv-x="774" 
d="M481 1489l219 -297h-163l-134 176h-36l-131 -176h-162l221 297h186z" />
    <glyph glyph-name="caron" unicode="&#x2c7;" horiz-adv-x="774" 
d="M293 1192l-219 297h164l133 -176h37l131 176h161l-221 -297h-186z" />
    <glyph glyph-name="breve" unicode="&#x2d8;" horiz-adv-x="731" 
d="M514 1489h135q0 -141 -74 -219t-208 -78q-135 0 -210 78t-75 219h133q0 -80 38.5 -126t111.5 -46t111 46t38 126z" />
    <glyph glyph-name="dotaccent" unicode="&#x2d9;" horiz-adv-x="348" 
d="M274 1284h-200v205h200v-205z" />
    <glyph glyph-name="ring" unicode="&#x2da;" horiz-adv-x="610" 
d="M82 1407q0 92 65.5 156.5t157.5 64.5t157.5 -64.5t65.5 -156.5t-65.5 -156.5t-157.5 -64.5t-157.5 64.5t-65.5 156.5zM193 1407q0 -47 32.5 -80t79.5 -33t80 33t33 80t-33 80t-80 33t-79.5 -33t-32.5 -80z" />
    <glyph glyph-name="ogonek" unicode="&#x2db;" horiz-adv-x="458" 
d="M236 14l110 -14q-63 -32 -105 -82t-42 -102q0 -51 39.5 -79t111.5 -28v-119h-43q-119 0 -186.5 51t-67.5 144q0 74 53.5 138.5t129.5 90.5z" />
    <glyph glyph-name="tilde" unicode="&#x2dc;" horiz-adv-x="833" 
d="M565 1341q78 0 78 138h111q0 -277 -191 -277q-36 0 -69 11.5t-54 25t-51 37.5q-5 4 -19.5 15t-20.5 15.5t-18 12.5t-20.5 11t-20.5 6t-24 3q-78 0 -78 -137h-110q0 277 190 277q37 0 73.5 -14t55.5 -26.5t54 -39.5q26 -21 40 -31t34.5 -18.5t39.5 -8.5z" />
    <glyph glyph-name="hungarumlaut" unicode="&#x2dd;" horiz-adv-x="831" 
d="M428 1489l-201 -297h-147l156 297h192zM752 1489l-203 -297h-146l156 297h193z" />
    <glyph glyph-name="uni03A9" unicode="&#x3a9;" horiz-adv-x="1552" 
d="M1165 201v-41h271v-160h-564v156q381 233 381 618q0 250 -131 398.5t-346 148.5q-216 0 -346.5 -148t-130.5 -399q0 -94 24 -179.5t60.5 -149.5t89 -121.5t101 -95.5t104.5 -72v-156h-563v160h272v41q-274 232 -274 592q0 205 79.5 362t230.5 245.5t353 88.5t353 -88.5
t231 -246t80 -361.5q0 -359 -275 -592z" />
    <glyph glyph-name="pi" unicode="&#x3c0;" horiz-adv-x="1259" 
d="M1157 0h-74q-158 0 -223 76.5t-65 218.5v586h-402v-881h-174v881h-164v151h1102v-151h-188v-582q0 -73 26.5 -110t89.5 -37h72v-152z" />
    <glyph glyph-name="uni0401" unicode="&#x401;" horiz-adv-x="1335" 
d="M371 168h866v-168h-1051v1462h1018v-168h-833v-452h671v-168h-671v-506zM594 1630h-188v205h188v-205zM965 1630h-189v205h189v-205z" />
    <glyph glyph-name="uni0402" unicode="&#x402;" horiz-adv-x="1636" 
d="M1530 418q0 -211 -124 -328t-355 -117q-65 0 -109 9v168q27 -9 88 -9q164 0 240 74.5t76 204.5q0 67 -19 116.5t-62.5 88t-120 58t-186.5 19.5q-173 0 -331 -38v-664h-185v1298h-405v164h1114v-164h-524v-469q182 37 362 37q144 0 251 -34.5t169 -97t91.5 -141
t29.5 -175.5z" />
    <glyph glyph-name="uni0403" unicode="&#x403;" horiz-adv-x="1275" 
d="M1186 1294h-815v-1294h-185v1462h1000v-168zM928 1835l-223 -264h-160l174 264h209z" />
    <glyph glyph-name="uni0404" unicode="&#x404;" horiz-adv-x="1468" 
d="M1171 397h195q-42 -193 -195.5 -308.5t-384.5 -115.5q-159 0 -287.5 58t-212.5 160.5t-128.5 240.5t-44.5 299q0 217 76.5 387t231 270.5t365.5 100.5q219 0 367.5 -105.5t196.5 -291.5h-195q-86 231 -371 231q-111 0 -199 -39t-144.5 -107.5t-90 -154.5t-43.5 -188h684
v-164h-686q4 -109 35 -203.5t89 -168.5t149.5 -116.5t207.5 -42.5q150 0 249.5 68.5t135.5 189.5z" />
    <glyph glyph-name="uni0405" unicode="&#x405;" horiz-adv-x="1359" 
d="M590 864l264 -49q181 -37 282 -132.5t101 -274.5q0 -85 -34.5 -161.5t-101 -138.5t-174 -98.5t-241.5 -36.5q-253 0 -411.5 120.5t-176.5 314.5h187q12 -72 49 -125t93 -83.5t122 -44.5t145 -14q156 0 256.5 70t100.5 192q0 196 -256 244l-258 47q-177 33 -277 126.5
t-100 256.5q0 84 34 158.5t97.5 131t162 89.5t220.5 33q224 0 364.5 -107.5t165.5 -287.5h-186q-27 114 -109.5 170.5t-238.5 56.5q-141 0 -232.5 -63.5t-91.5 -176.5q0 -172 244 -217z" />
    <glyph glyph-name="uni0406" unicode="&#x406;" horiz-adv-x="581" 
d="M199 1462h184v-1462h-184v1462z" />
    <glyph glyph-name="uni0407" unicode="&#x407;" horiz-adv-x="581" 
d="M199 1462h184v-1462h-184v1462zM203 1630h-189v205h189v-205zM573 1630h-188v205h188v-205z" />
    <glyph glyph-name="uni0408" unicode="&#x408;" horiz-adv-x="1191" 
d="M549 -27q-205 0 -331.5 121.5t-139.5 345.5h184q12 -150 86.5 -224.5t204.5 -74.5q127 0 199.5 81.5t72.5 242.5v997h185v-995q0 -233 -122 -363.5t-339 -130.5z" />
    <glyph glyph-name="uni0409" unicode="&#x409;" horiz-adv-x="2304" 
d="M1690 0h-607v1294h-569v-403q0 -180 -11 -315.5t-35.5 -235t-59 -165t-86 -104.5t-112.5 -55t-142 -16h-41v182h39q50 0 86 11t68.5 40t53.5 79.5t36.5 129.5t22.5 190t7 261v569h928v-559h422q243 0 375.5 -119t132.5 -331q0 -215 -132.5 -334t-375.5 -119zM1268 164
h389q187 0 270.5 74.5t83.5 214.5q0 138 -83 212t-271 74h-389v-575z" />
    <glyph glyph-name="uni040A" unicode="&#x40a;" horiz-adv-x="2369" 
d="M1767 0h-600v688h-796v-688h-185v1462h185v-602h796v602h185v-588h415q237 0 366.5 -114.5t129.5 -321.5q0 -205 -130 -321.5t-366 -116.5zM1352 164h389q179 0 257.5 70t78.5 204q0 132 -79 202.5t-257 70.5h-389v-547z" />
    <glyph glyph-name="uni040B" unicode="&#x40b;" horiz-adv-x="1648" 
d="M1530 0h-184v406q0 31 -0.5 47.5t-4 45.5t-9.5 46t-19 40.5t-31 37.5t-46 30t-64 24.5t-85.5 14.5t-109.5 6q-179 0 -350 -41v-657h-185v1298h-405v164h1114v-164h-524v-471q176 39 372 39q83 0 152.5 -8.5t120.5 -22.5t91.5 -38t67 -47.5t46 -58.5t29.5 -64t15.5 -71
t7 -72.5t1.5 -75.5v-408z" />
    <glyph glyph-name="uni040C" unicode="&#x40c;" horiz-adv-x="1411" 
d="M186 0v1462h185v-624h405l324 624h200l-368 -710l387 -752h-201l-346 670h-401v-670h-185zM975 1835l-223 -264h-160l174 264h209z" />
    <glyph glyph-name="uni040E" unicode="&#x40e;" horiz-adv-x="1304" 
d="M641 694h57l367 768h192l-698 -1462h-190l209 438l-541 1024h199zM848 1851h149q-4 -150 -102 -233.5t-256 -83.5q-153 0 -251.5 84t-102.5 233h149q1 -85 57 -134.5t148 -49.5q93 0 150.5 49.5t58.5 134.5z" />
    <glyph glyph-name="uni040F" unicode="&#x40f;" horiz-adv-x="1536" 
d="M676 -358v358h-490v1462h185v-1294h794v1294h185v-1462h-490v-358h-184z" />
    <glyph glyph-name="uni0410" unicode="&#x410;" horiz-adv-x="1406" 
d="M1174 0l-156 449h-635l-154 -449h-188l514 1462h295l516 -1462h-192zM668 1274l-228 -658h521l-228 658h-65z" />
    <glyph glyph-name="uni0411" unicode="&#x411;" horiz-adv-x="1406" 
d="M371 868h440q234 0 361.5 -114.5t127.5 -319.5t-127.5 -319.5t-361.5 -114.5h-625v1462h1002v-168h-817v-426zM371 164h409q179 0 257.5 69t78.5 203q0 131 -79 201t-257 70h-409v-543z" />
    <glyph glyph-name="uni0412" unicode="&#x412;" horiz-adv-x="1435" 
d="M1128 793v-41q93 -43 150 -135.5t57 -204.5q0 -183 -127 -297.5t-368 -114.5h-654v1462h637q222 0 344.5 -105.5t122.5 -264.5q0 -100 -42 -178.5t-120 -120.5zM371 1298v-456h448q285 0 285 233q0 60 -24 104.5t-66 69.5t-91.5 37t-107.5 12h-444zM371 164h456
q66 0 121 13t101.5 41.5t73 81.5t26.5 126q0 68 -25.5 118.5t-70.5 79.5t-101 42.5t-123 13.5h-458v-516z" />
    <glyph glyph-name="uni0413" unicode="&#x413;" horiz-adv-x="1275" 
d="M1186 1294h-815v-1294h-185v1462h1000v-168z" />
    <glyph glyph-name="uni0414" unicode="&#x414;" horiz-adv-x="1552" 
d="M1286 168h211v-526h-182v358h-1108v-358h-182v526h151q184 390 184 999v295h926v-1294zM1104 168v1126h-567v-157q0 -315 -46.5 -561.5t-117.5 -407.5h731z" />
    <glyph glyph-name="uni0415" unicode="&#x415;" horiz-adv-x="1335" 
d="M371 168h866v-168h-1051v1462h1018v-168h-833v-452h671v-168h-671v-506z" />
    <glyph glyph-name="uni0416" unicode="&#x416;" horiz-adv-x="2101" 
d="M1483 659h-340v-659h-182v659h-343l-309 -659h-194l346 741l-328 721h197l288 -635h343v635h182v-635h340l291 635h196l-330 -721l349 -741h-195z" />
    <glyph glyph-name="uni0417" unicode="&#x417;" horiz-adv-x="1349" 
d="M1008 1079q0 115 -89 178.5t-229 63.5q-290 0 -342 -229h-188q25 185 165 291t365 106q122 0 219 -31t158.5 -84.5t94 -123t32.5 -148.5q0 -211 -158 -299v-41q211 -88 211 -350q0 -88 -36 -166.5t-103.5 -139.5t-174 -97t-237.5 -36q-263 0 -416 113.5t-186 314.5h193
q35 -129 140 -194.5t271 -65.5q163 0 262 73.5t99 201.5q0 262 -332 262h-233v168h235q145 0 212 65.5t67 167.5z" />
    <glyph glyph-name="uni0418" unicode="&#x418;" horiz-adv-x="1566" 
d="M186 1462h181v-1239h41l688 1239h284v-1462h-180v1239h-41l-688 -1239h-285v1462z" />
    <glyph glyph-name="uni0419" unicode="&#x419;" horiz-adv-x="1566" 
d="M186 1462h181v-1239h41l688 1239h284v-1462h-180v1239h-41l-688 -1239h-285v1462zM991 1851h150q-4 -150 -102.5 -233.5t-256.5 -83.5q-153 0 -251.5 84t-102.5 233h150q1 -86 56.5 -135t147.5 -49q93 0 150.5 49.5t58.5 134.5z" />
    <glyph glyph-name="uni041A" unicode="&#x41a;" horiz-adv-x="1386" 
d="M186 0v1462h185v-624h405l324 624h200l-368 -710l387 -752h-201l-346 670h-401v-670h-185z" />
    <glyph glyph-name="uni041B" unicode="&#x41b;" horiz-adv-x="1486" 
d="M27 182h39q78 0 125.5 27.5t83 107.5t50.5 226.5t15 382.5v536h960v-1462h-184v1294h-602v-403q0 -180 -11 -315.5t-35.5 -235t-59 -165t-86 -104.5t-112.5 -55t-142 -16h-41v182z" />
    <glyph glyph-name="uni041C" unicode="&#x41c;" horiz-adv-x="1765" 
d="M186 0v1462h301l377 -723h41l371 723h303v-1462h-180v1253h-41l-381 -731h-189l-380 731h-41v-1253h-181z" />
    <glyph glyph-name="uni041D" unicode="&#x41d;" horiz-adv-x="1558" 
d="M1188 1462h184v-1462h-184v668h-817v-668h-185v1462h185v-622h817v622z" />
    <glyph glyph-name="uni041E" unicode="&#x41e;" horiz-adv-x="1589" 
d="M795 1489q162 0 293 -59t215 -162.5t129 -240.5t45 -296t-45 -296t-129 -240.5t-215 -162.5t-293 -59q-131 0 -242 38.5t-191.5 107.5t-137 163.5t-84 208t-27.5 240.5t27.5 240.5t84 208t137 163.5t191.5 107.5t242 38.5zM795 141q101 0 184.5 32t140.5 87.5t96 131
t56.5 160.5t17.5 179t-17.5 179t-56.5 160.5t-96 131t-140.5 87.5t-184.5 32t-184.5 -32t-140.5 -87.5t-96 -131t-57 -160.5t-18 -179t18 -179t57 -160.5t96 -131t140.5 -87.5t184.5 -32z" />
    <glyph glyph-name="uni041F" unicode="&#x41f;" horiz-adv-x="1544" 
d="M186 1462h1172v-1462h-184v1294h-803v-1294h-185v1462z" />
    <glyph glyph-name="uni0420" unicode="&#x420;" horiz-adv-x="1406" 
d="M186 1462h619q237 0 366 -115t129 -321q0 -208 -128.5 -324t-366.5 -116h-434v-586h-185v1462zM371 750h403q180 0 260 70t80 204t-80 204t-260 70h-403v-548z" />
    <glyph glyph-name="uni0421" unicode="&#x421;" horiz-adv-x="1470" 
d="M1174 416h194q-46 -202 -196 -322.5t-384 -120.5q-160 0 -289 57.5t-213 159t-128.5 240t-44.5 301.5q0 219 78 389t233 269.5t367 99.5q221 0 368.5 -109.5t192.5 -300.5h-195q-43 121 -130.5 181.5t-235.5 60.5q-99 0 -181.5 -32t-139 -87t-96 -130t-57.5 -161
t-18 -180q0 -120 29.5 -224t87 -187t153.5 -131t219 -48q151 0 250.5 72.5t135.5 202.5z" />
    <glyph glyph-name="uni0422" unicode="&#x422;" horiz-adv-x="1222" 
d="M1184 1462v-164h-479v-1298h-185v1298h-483v164h1147z" />
    <glyph glyph-name="uni0423" unicode="&#x423;" horiz-adv-x="1304" 
d="M641 694h57l367 768h192l-698 -1462h-190l209 438l-541 1024h199z" />
    <glyph glyph-name="uni0424" unicode="&#x424;" horiz-adv-x="1744" 
d="M963 1341h24q203 0 351.5 -64.5t232.5 -198t84 -326.5q0 -291 -179 -440.5t-489 -149.5h-24v-189h-181v189h-24q-153 0 -275 36.5t-210 108.5t-135.5 185t-47.5 260q0 193 84 326.5t232.5 198t351.5 64.5h24v168h181v-168zM758 326h24v852h-24q-229 0 -357.5 -107
t-128.5 -319q0 -213 128.5 -319.5t357.5 -106.5zM963 326h24q228 0 357 107t129 319t-128.5 319t-357.5 107h-24v-852z" />
    <glyph glyph-name="uni0425" unicode="&#x425;" horiz-adv-x="1325" 
d="M692 860l330 602h195l-388 -706l451 -756h-203l-389 651h-55l-389 -651h-199l451 756l-387 706h198l330 -602h55z" />
    <glyph glyph-name="uni0426" unicode="&#x426;" horiz-adv-x="1613" 
d="M1376 -358v358h-1190v1462h185v-1294h792v1294h185v-1294h211v-526h-183z" />
    <glyph glyph-name="uni0427" unicode="&#x427;" horiz-adv-x="1392" 
d="M119 1462h184v-418q0 -31 0.5 -48t4 -46t9.5 -45.5t19 -40.5t31 -38t46 -30t64 -24t85.5 -14t109.5 -6q179 0 350 41v669h184v-1462h-184v623q-176 -39 -373 -39q-83 0 -152.5 9t-120.5 23t-91 38t-67 47.5t-46 58.5t-29 64.5t-15.5 71.5t-7 72.5t-1.5 75.5v418z" />
    <glyph glyph-name="uni0428" unicode="&#x428;" horiz-adv-x="2064" 
d="M942 168v1294h180v-1294h576v1294h180v-1462h-1692v1462h181v-1294h575z" />
    <glyph glyph-name="uni0429" unicode="&#x429;" horiz-adv-x="2144" 
d="M1907 -358v358h-1721v1462h181v-1294h575v1294h180v-1294h576v1294h180v-1294h211v-526h-182z" />
    <glyph glyph-name="uni042A" unicode="&#x42a;" horiz-adv-x="1599" 
d="M985 0h-606v1294h-375v168h559v-559h422q243 0 375.5 -119t132.5 -331q0 -215 -132.5 -334t-375.5 -119zM563 164h389q188 0 271.5 74.5t83.5 214.5q0 138 -83.5 212t-271.5 74h-389v-575z" />
    <glyph glyph-name="uni042B" unicode="&#x42b;" horiz-adv-x="1841" 
d="M1470 1462h185v-1462h-185v1462zM371 164h362q187 0 270.5 74.5t83.5 214.5q0 138 -83 212t-271 74h-362v-575zM766 0h-580v1462h185v-559h395q243 0 375.5 -119t132.5 -331q0 -215 -132.5 -334t-375.5 -119z" />
    <glyph glyph-name="uni042C" unicode="&#x42c;" horiz-adv-x="1406" 
d="M371 164h389q187 0 270.5 74.5t83.5 214.5q0 138 -83 212t-271 74h-389v-575zM793 0h-607v1462h185v-559h422q243 0 375 -119t132 -331q0 -215 -132 -334t-375 -119z" />
    <glyph glyph-name="uni042D" unicode="&#x42d;" horiz-adv-x="1462" 
d="M96 397h195q36 -121 135.5 -189.5t249.5 -68.5q116 0 207.5 42.5t149.5 116.5t89 168.5t35 203.5h-686v164h684q-10 102 -43.5 188t-90 154.5t-144.5 107.5t-199 39q-285 0 -371 -231h-194q48 186 196.5 291.5t366.5 105.5q159 0 287.5 -58t212.5 -160t129 -240t45 -300
q0 -129 -28 -243.5t-84.5 -208.5t-136.5 -162.5t-188.5 -106t-236.5 -37.5q-231 0 -384.5 115.5t-195.5 308.5z" />
    <glyph glyph-name="uni042E" unicode="&#x42e;" horiz-adv-x="2115" 
d="M1337 1489q159 0 286.5 -59t210 -162.5t126 -240.5t43.5 -296t-43.5 -296t-126 -240.5t-210 -162.5t-286.5 -59q-151 0 -274 53.5t-204.5 148t-128.5 220t-56 273.5h-303v-668h-185v1462h185v-622h307q15 139 64.5 256.5t131 205.5t200 137.5t263.5 49.5zM1337 139
q122 0 216 49t150.5 132.5t85 187.5t28.5 223t-28.5 223t-85 187.5t-150.5 132.5t-216 49q-98 0 -178.5 -32t-135.5 -87.5t-93 -131.5t-55 -161.5t-17 -179.5t17 -179.5t55 -161.5t93 -131.5t135.5 -87.5t178.5 -32z" />
    <glyph glyph-name="uni042F" unicode="&#x42f;" horiz-adv-x="1460" 
d="M145 1036q0 202 125.5 314t356.5 112h647v-1462h-184v610h-500l-260 -610h-195l275 643q-126 45 -195.5 146t-69.5 247zM332 1036q0 -129 75 -195.5t246 -66.5h437v524h-437q-171 0 -246 -66.5t-75 -195.5z" />
    <glyph glyph-name="uni0430" unicode="&#x430;" horiz-adv-x="1140" 
d="M825 0v111h-41q-49 -63 -133 -100.5t-190 -37.5q-172 0 -272.5 98.5t-100.5 237.5q0 65 22 124t67 109t124 79.5t182 29.5h336v41q0 99 -61.5 157t-190.5 58q-113 0 -173 -37.5t-66 -105.5h-174q7 138 120 216.5t289 78.5q198 0 312 -93t114 -264v-702h-164zM502 125
q130 0 223.5 84t93.5 205v92h-309q-248 0 -248 -193q0 -88 62.5 -138t177.5 -50z" />
    <glyph glyph-name="uni0431" unicode="&#x431;" horiz-adv-x="1232" 
d="M643 1016q151 0 262 -69t167 -185.5t56 -265.5q0 -228 -138 -375.5t-372 -147.5q-243 0 -378.5 161t-135.5 460q0 82 3.5 149.5t14.5 143.5t29.5 136t50 119t73.5 101.5t103 74.5t136 46l145 22l132 21q58 8 79 24t25 58h162q-3 -41 -8.5 -69t-19 -58.5t-35 -50.5
t-58 -37t-86.5 -27q-42 -9 -175.5 -28t-142.5 -21q-69 -12 -118 -42t-78 -77.5t-44.5 -97.5t-25.5 -117h39q63 83 145 117.5t193 34.5zM616 125q110 0 188.5 53.5t114 135.5t35.5 182q0 99 -35.5 180t-114 134.5t-188.5 53.5q-83 0 -149 -30.5t-106 -82.5t-61 -117t-21 -138
q0 -74 21 -139.5t61 -118t106 -83t149 -30.5z" />
    <glyph glyph-name="uni0432" unicode="&#x432;" horiz-adv-x="1165" 
d="M897 563v-41q75 -20 120.5 -81.5t45.5 -157.5q0 -140 -93.5 -211.5t-271.5 -71.5h-530v1032h534q154 0 240 -70t86 -194q0 -73 -39.5 -129.5t-91.5 -75.5zM340 147h348q201 0 201 154q0 156 -201 156h-348v-310zM340 885v-281h346q88 0 128 39t40 100q0 142 -168 142
h-346z" />
    <glyph glyph-name="uni0433" unicode="&#x433;" horiz-adv-x="1005" 
d="M168 0v1032h774v-151h-600v-881h-174z" />
    <glyph glyph-name="uni0434" unicode="&#x434;" horiz-adv-x="1335" 
d="M1087 152h191v-445h-170v293h-893v-293h-170v445h137q131 276 131 598v282h774v-880zM913 152v729h-438v-131q0 -340 -117 -598h555z" />
    <glyph glyph-name="uni0435" unicode="&#x435;" horiz-adv-x="1165" 
d="M1063 578v-60h-787q5 -187 89 -290t241 -103q106 0 172 42t90 118h176q-26 -139 -139.5 -225.5t-298.5 -86.5q-157 0 -272 72.5t-172.5 196.5t-57.5 284q0 241 133 387t365 146q111 0 200 -39t144 -106.5t85 -153t32 -182.5zM598 907q-132 0 -212 -69t-99 -174h596
q-8 103 -84 173t-201 70z" />
    <glyph glyph-name="uni0436" unicode="&#x436;" horiz-adv-x="1619" 
d="M500 453l-238 -453h-182l276 530l-262 502h182l224 -428h225v428h168v-428h225l223 428h183l-262 -502l278 -530h-184l-238 453h-225v-453h-168v453h-225z" />
    <glyph glyph-name="uni0437" unicode="&#x437;" horiz-adv-x="1079" 
d="M760 750q0 76 -62.5 116.5t-165.5 40.5q-111 0 -170.5 -37.5t-78.5 -121.5h-166q13 147 126 229t294 82q185 0 290 -82t105 -205q0 -82 -32.5 -137t-80.5 -74v-41q64 -19 107 -78t43 -157q0 -134 -113.5 -223t-314.5 -89q-208 0 -324.5 84.5t-140.5 235.5h168
q51 -168 297 -168q115 0 184.5 42t69.5 124q0 79 -52.5 119.5t-175.5 40.5h-182v151h174q104 0 152.5 41t48.5 107z" />
    <glyph glyph-name="uni0438" unicode="&#x438;" horiz-adv-x="1257" 
d="M410 0h-242v1032h170v-799h41l461 799h250v-1032h-170v799h-41z" />
    <glyph glyph-name="uni0439" unicode="&#x439;" horiz-adv-x="1257" 
d="M410 0h-242v1032h170v-799h41l461 799h250v-1032h-170v799h-41zM803 1483h141q-5 -143 -88 -221t-231 -78q-146 0 -230 78.5t-88 220.5h142q2 -81 45 -127.5t131 -46.5q168 0 178 174z" />
    <glyph glyph-name="uni043A" unicode="&#x43a;" horiz-adv-x="1146" 
d="M870 0l-258 455h-270v-455h-174v1032h174v-426h276l248 426h187l-291 -497l305 -535h-197z" />
    <glyph glyph-name="uni043B" unicode="&#x43b;" horiz-adv-x="1245" 
d="M51 0v164h35q73 0 115.5 38t65 140t22.5 283v407h790v-1032h-176v881h-452v-260q0 -236 -39.5 -372.5t-117 -192.5t-208.5 -56h-35z" />
    <glyph glyph-name="uni043C" unicode="&#x43c;" horiz-adv-x="1437" 
d="M168 0v1032h272l260 -497h41l260 497h269v-1032h-170v829h-41l-246 -469h-188l-246 469h-41v-829h-170z" />
    <glyph glyph-name="uni043D" unicode="&#x43d;" horiz-adv-x="1255" 
d="M1087 0h-174v455h-571v-455h-174v1032h174v-426h571v426h174v-1032z" />
    <glyph glyph-name="uni043E" unicode="&#x43e;" horiz-adv-x="1224" 
d="M612 1059q157 0 273.5 -72.5t175.5 -194.5t59 -276t-59 -276t-175.5 -194.5t-273.5 -72.5q-158 0 -274.5 72.5t-175 194.5t-58.5 276t58.5 276t175 194.5t274.5 72.5zM612 125q109 0 186.5 56.5t112.5 143t35 191.5t-35 191.5t-112.5 143t-186.5 56.5q-83 0 -148 -32
t-104.5 -87.5t-60 -124.5t-20.5 -147t20.5 -147t60 -124.5t104.5 -87.5t148 -32z" />
    <glyph glyph-name="uni043F" unicode="&#x43f;" horiz-adv-x="1247" 
d="M1079 0h-174v881h-563v-881h-174v1032h911v-1032z" />
    <glyph glyph-name="uni0440" unicode="&#x440;" horiz-adv-x="1259" 
d="M342 -410h-174v1442h168v-112h41q110 139 319 139q140 0 245.5 -72.5t159.5 -195t54 -275.5q0 -238 -124 -390.5t-335 -152.5q-205 0 -313 140h-41v-523zM664 907q-67 0 -121.5 -21.5t-91.5 -58t-62.5 -86.5t-37 -106.5t-11.5 -118.5t11.5 -118.5t37 -106.5t62.5 -86.5
t91.5 -58t121.5 -21.5q151 0 234 107t83 284t-83 284t-234 107z" />
    <glyph glyph-name="uni0441" unicode="&#x441;" horiz-adv-x="1132" 
d="M866 307h174q-30 -155 -143.5 -244.5t-290.5 -89.5q-157 0 -272 72.5t-172.5 194.5t-57.5 276q0 240 133.5 391.5t368.5 151.5q179 0 290 -87.5t138 -234.5h-174q-54 170 -254 170q-84 0 -148.5 -31t-102.5 -86t-57 -123t-19 -147q0 -80 19 -149.5t57.5 -125.5t102.5 -88
t148 -32q217 0 260 182z" />
    <glyph glyph-name="uni0442" unicode="&#x442;" horiz-adv-x="1011" 
d="M61 881v151h889v-151h-356v-881h-174v881h-359z" />
    <glyph glyph-name="uni0443" unicode="&#x443;" horiz-adv-x="1101" 
d="M442 -410h-184l217 500l-430 942h188l308 -676h51l293 676h184z" />
    <glyph glyph-name="uni0444" unicode="&#x444;" horiz-adv-x="1464" 
d="M819 0v-410h-172v410h-33q-240 0 -375 143t-135 373q0 231 133.5 373.5t374.5 142.5h35v457h172v-457h33q239 0 373.5 -143t134.5 -373q0 -240 -141.5 -378t-399.5 -138zM276 516q0 -160 86.5 -264.5t251.5 -104.5h33v738h-33q-164 0 -251 -104.5t-87 -264.5zM819 147h29
q165 0 252.5 104.5t87.5 264.5t-87.5 264.5t-252.5 104.5h-29v-738z" />
    <glyph glyph-name="uni0445" unicode="&#x445;" horiz-adv-x="1128" 
d="M596 618l240 414h188l-293 -506l326 -526h-197l-268 434h-60l-268 -434h-192l325 526l-293 506h193l240 -414h59z" />
    <glyph glyph-name="uni0446" unicode="&#x446;" horiz-adv-x="1316" 
d="M897 1032h174v-880h189v-445h-168v293h-924v1032h174v-880h555v880z" />
    <glyph glyph-name="uni0447" unicode="&#x447;" horiz-adv-x="1144" 
d="M109 1032h174v-291q0 -32 2 -51t9 -46.5t24 -44t44.5 -33t73 -24t107.5 -7.5q135 0 258 26v471h176v-1032h-176v408q-142 -29 -295 -29q-78 0 -140 11t-103 28t-70.5 45t-45.5 55t-25 66t-11 69.5t-2 73.5v305z" />
    <glyph glyph-name="uni0448" unicode="&#x448;" horiz-adv-x="1656" 
d="M1319 1032h170v-1032h-1321v1032h170v-880h405v880h170v-880h406v880z" />
    <glyph glyph-name="uni0449" unicode="&#x449;" horiz-adv-x="1736" 
d="M1319 1032h170v-880h190v-445h-170v293h-1341v1032h170v-880h405v880h170v-880h406v880z" />
    <glyph glyph-name="uni044A" unicode="&#x44a;" horiz-adv-x="1296" 
d="M39 881v151h481v-344h305q188 0 290 -90.5t102 -251.5q0 -163 -102.5 -254.5t-289.5 -91.5h-479v881h-307zM520 152h283q128 0 182.5 49t54.5 145t-54.5 145.5t-182.5 49.5h-283v-389z" />
    <glyph glyph-name="uni044B" unicode="&#x44b;" horiz-adv-x="1523" 
d="M168 1032h174v-344h285q187 0 288 -90.5t101 -251.5q0 -163 -101 -254.5t-288 -91.5h-459v1032zM342 541v-389h260q129 0 184.5 49t55.5 145q0 97 -55 146t-185 49h-260zM1182 1032h174v-1032h-174v1032z" />
    <glyph glyph-name="uni044C" unicode="&#x44c;" horiz-adv-x="1116" 
d="M342 1032v-344h305q187 0 288 -90.5t101 -251.5q0 -163 -101 -254.5t-288 -91.5h-479v1032h174zM342 152h281q129 0 184 49t55 145q0 97 -54.5 146t-184.5 49h-281v-389z" />
    <glyph glyph-name="uni044D" unicode="&#x44d;" horiz-adv-x="1146" 
d="M102 299h170q21 -83 91.5 -128.5t185.5 -45.5q142 0 224.5 90.5t90.5 235.5h-465v147h463q-13 141 -91.5 225t-221.5 84q-220 0 -268 -162h-170q30 142 145.5 228t290.5 86q229 0 362 -150.5t133 -392.5q0 -243 -132.5 -393t-364.5 -150q-175 0 -294 89.5t-149 236.5z
" />
    <glyph glyph-name="uni044E" unicode="&#x44e;" horiz-adv-x="1675" 
d="M1071 1059q152 0 267 -73t174 -195.5t59 -274.5t-59 -274.5t-174 -195.5t-267 -73q-212 0 -345 135.5t-151 346.5h-235v-455h-172v1032h172v-426h242q25 202 155 327.5t334 125.5zM1071 125q80 0 143.5 32.5t102.5 87.5t59.5 124t20.5 147t-20.5 147t-59.5 124
t-102.5 87.5t-143.5 32.5q-81 0 -144.5 -32t-102.5 -87.5t-59 -124.5t-20 -147t20 -147t59 -124.5t102.5 -87.5t144.5 -32z" />
    <glyph glyph-name="uni044F" unicode="&#x44f;" horiz-adv-x="1181" 
d="M840 0v408h-326l-201 -408h-188l211 432q-197 66 -197 287q0 149 93.5 231t269.5 82h514v-1032h-176zM840 555v330h-320q-112 0 -159.5 -42t-47.5 -124t47.5 -123t159.5 -41h320z" />
    <glyph glyph-name="uni0451" unicode="&#x451;" horiz-adv-x="1165" 
d="M1063 578v-60h-787q5 -187 89 -290t241 -103q106 0 172 42t90 118h176q-26 -139 -139.5 -225.5t-298.5 -86.5q-157 0 -272 72.5t-172.5 196.5t-57.5 284q0 241 133 387t365 146q111 0 200 -39t144 -106.5t85 -153t32 -182.5zM598 907q-132 0 -212 -69t-99 -174h596
q-8 103 -84 173t-201 70zM504 1278h-189v205h189v-205zM874 1278h-188v205h188v-205z" />
    <glyph glyph-name="uni0452" unicode="&#x452;" horiz-adv-x="1292" 
d="M967 -78v627q0 285 -265 285q-135 0 -220 -101t-85 -241v-492h-174v1184h-168v125h168v180h174v-180h426v-125h-426v-334h39q40 62 118.5 100.5t180.5 38.5q193 0 299.5 -110t106.5 -299v-668q0 -171 -82 -246.5t-258 -75.5h-121v156h113q93 0 133.5 41t40.5 135z" />
    <glyph glyph-name="uni0453" unicode="&#x453;" horiz-adv-x="1005" 
d="M168 0v1032h774v-151h-600v-881h-174zM821 1489l-223 -297h-158l176 297h205z" />
    <glyph glyph-name="uni0454" unicode="&#x454;" horiz-adv-x="1136" 
d="M874 299h170q-30 -147 -148.5 -236.5t-293.5 -89.5q-232 0 -365 150t-133 393q0 242 133.5 392.5t362.5 150.5q175 0 290.5 -86t145.5 -228h-170q-48 162 -268 162q-143 0 -221.5 -84t-91.5 -225h463v-147h-465q8 -145 90.5 -235.5t224.5 -90.5q115 0 185 45.5t91 128.5z
" />
    <glyph glyph-name="uni0455" unicode="&#x455;" horiz-adv-x="1052" 
d="M463 627l199 -33q305 -50 305 -301q0 -132 -114 -226t-312 -94q-209 0 -323 85.5t-132 238.5h174q13 -85 86 -128.5t186 -43.5q122 0 191.5 41t69.5 123q0 122 -177 149l-202 33q-135 21 -212 91t-77 190q0 134 107 220.5t303 86.5q176 0 280.5 -79.5t122.5 -215.5h-172
q-10 70 -77.5 106.5t-164.5 36.5q-102 0 -163.5 -37.5t-61.5 -107.5q0 -108 164 -135z" />
    <glyph glyph-name="uni0456" unicode="&#x456;" horiz-adv-x="520" 
d="M360 1284h-200v205h200v-205zM346 1032v-1032h-174v1032h174z" />
    <glyph glyph-name="uni0457" unicode="&#x457;" horiz-adv-x="520" 
d="M346 1032v-1032h-174v1032h174zM170 1284h-188v205h188v-205zM541 1284h-189v205h189v-205z" />
    <glyph glyph-name="uni0458" unicode="&#x458;" horiz-adv-x="542" 
d="M383 1284h-201v205h201v-205zM197 -78v1110h174v-1120q0 -171 -82 -246.5t-258 -75.5h-121v156h113q93 0 133.5 41t40.5 135z" />
    <glyph glyph-name="uni0459" unicode="&#x459;" horiz-adv-x="1822" 
d="M1067 152h264q128 0 183 49t55 145t-55 145.5t-183 49.5h-264v-389zM289 1032h778v-344h285q187 0 289 -90.5t102 -251.5q0 -163 -102 -254.5t-289 -91.5h-459v881h-442v-260q0 -237 -39 -375t-117 -196t-209 -58h-35v164h35q72 0 115 40.5t65.5 144t22.5 284.5v407z" />
    <glyph glyph-name="uni045A" unicode="&#x45a;" horiz-adv-x="1794" 
d="M1325 0h-461v455h-522v-455h-174v1032h174v-426h522v426h174v-344h287q187 0 288 -90.5t101 -251.5q0 -163 -101 -254.5t-288 -91.5zM1038 152h262q129 0 184.5 49t55.5 145q0 97 -55 146t-185 49h-262v-389z" />
    <glyph glyph-name="uni045B" unicode="&#x45b;" horiz-adv-x="1292" 
d="M1141 0h-174v549q0 285 -265 285q-135 0 -220 -101t-85 -241v-492h-174v1184h-168v125h168v180h174v-180h426v-125h-426v-334h39q40 62 118.5 100.5t180.5 38.5q193 0 299.5 -110t106.5 -299v-580z" />
    <glyph glyph-name="uni045C" unicode="&#x45c;" horiz-adv-x="1146" 
d="M870 0l-258 455h-270v-455h-174v1032h174v-426h276l248 426h187l-291 -497l305 -535h-197zM854 1489l-223 -297h-158l176 297h205z" />
    <glyph glyph-name="uni045E" unicode="&#x45e;" horiz-adv-x="1101" 
d="M442 -410h-184l217 500l-430 942h188l308 -676h51l293 676h184zM723 1483h141q-5 -143 -88 -221t-231 -78q-146 0 -230 78.5t-88 220.5h142q2 -81 45 -127.5t131 -46.5q168 0 178 174z" />
    <glyph glyph-name="uni045F" unicode="&#x45f;" horiz-adv-x="1239" 
d="M897 1032h174v-1032h-366v-293h-170v293h-367v1032h174v-880h555v880z" />
    <glyph glyph-name="uni0490" unicode="&#x490;" horiz-adv-x="1275" 
d="M371 1294v-1294h-185v1462h822v307h178v-475h-815z" />
    <glyph glyph-name="uni0491" unicode="&#x491;" horiz-adv-x="985" 
d="M752 1280h170v-399h-580v-881h-174v1032h584v248z" />
    <glyph glyph-name="uni0492" unicode="&#x492;" horiz-adv-x="1341" 
d="M57 649v152h197v661h997v-168h-813v-493h502v-152h-502v-649h-184v649h-197z" />
    <glyph glyph-name="uni0493" unicode="&#x493;" horiz-adv-x="1058" 
d="M49 399v144h176v489h770v-151h-596v-338h392v-144h-392v-399h-174v399h-176z" />
    <glyph glyph-name="uni049A" unicode="&#x49a;" horiz-adv-x="1480" 
d="M186 0v1462h185v-624h409l324 624h196l-368 -710l301 -584h192v-526h-182v358h-121l-346 670h-405v-670h-185z" />
    <glyph glyph-name="uni049B" unicode="&#x49b;" horiz-adv-x="1214" 
d="M881 0l-267 455h-272v-455h-174v1032h174v-426h279l247 426h185l-291 -497l219 -383h176v-445h-168v293h-108z" />
    <glyph glyph-name="uni04A2" unicode="&#x4a2;" horiz-adv-x="1638" 
d="M1188 1462h184v-1294h211v-526h-182v358h-213v668h-817v-668h-185v1462h185v-622h817v622z" />
    <glyph glyph-name="uni04A3" unicode="&#x4a3;" horiz-adv-x="1333" 
d="M1087 1032v-880h189v-445h-168v293h-195v455h-571v-455h-174v1032h174v-426h571v426h174z" />
    <glyph glyph-name="uni04AE" unicode="&#x4ae;" horiz-adv-x="1316" 
d="M690 797l391 665h195l-526 -903v-559h-185v559l-526 903h203l391 -665h57z" />
    <glyph glyph-name="uni04AF" unicode="&#x4af;" horiz-adv-x="1103" 
d="M399 0l-354 1032h182l297 -868h60l297 868h178l-354 -1032h-64v-410h-174v410h-68z" />
    <glyph glyph-name="uni04B0" unicode="&#x4b0;" horiz-adv-x="1316" 
d="M690 797l391 665h195l-467 -800h319v-152h-378v-510h-185v510h-377v152h318l-467 800h203l391 -665h57z" />
    <glyph glyph-name="uni04B1" unicode="&#x4b1;" horiz-adv-x="1103" 
d="M158 -61v141h213l-326 952h182l297 -868h60l297 868h178l-328 -952h213v-141h-303v-349h-174v349h-309z" />
    <glyph glyph-name="uni04BA" unicode="&#x4ba;" horiz-adv-x="1392" 
d="M1274 0h-184v418q0 31 -0.5 48t-4 46t-9.5 46t-19 40.5t-31 37.5t-46 30t-64 24.5t-85.5 14.5t-109.5 6q-179 0 -350 -41v-670h-185v1462h185v-622q176 39 372 39q83 0 152.5 -9t120.5 -23t91.5 -38t67 -48t46 -59t29.5 -64t15.5 -71.5t7 -73t1.5 -75.5v-418z" />
    <glyph glyph-name="uni04BB" unicode="&#x4bb;" horiz-adv-x="1236" 
d="M680 1059q192 0 298.5 -110.5t106.5 -299.5v-649h-174v618q0 285 -264 285q-135 0 -220 -101t-85 -241v-561h-174v1489h174v-569h39q40 62 118.5 100.5t180.5 38.5z" />
    <glyph glyph-name="uni04D8" unicode="&#x4d8;" horiz-adv-x="1550" 
d="M760 141q119 0 211.5 41.5t149.5 115.5t88.5 167t37.5 203h-950q2 -108 31 -201t83.5 -167t144 -116.5t204.5 -42.5zM756 1489q162 0 292.5 -58.5t215 -161t129.5 -240t45 -298.5q0 -159 -44.5 -296t-128 -240.5t-213 -162.5t-290.5 -59q-155 0 -278.5 57t-204 160.5
t-123.5 247t-43 316.5q0 52 2 77h1130q-10 104 -45 191t-94 155t-149 106t-203 38q-304 0 -377 -229h-193q43 186 194.5 291.5t377.5 105.5z" />
    <glyph glyph-name="uni04D9" unicode="&#x4d9;" horiz-adv-x="1167" 
d="M104 506q0 44 2 67h781q-17 161 -102.5 247.5t-225.5 86.5q-212 0 -262 -159h-172q26 139 140 225t294 86q155 0 271 -74t174.5 -198.5t58.5 -280.5q0 -240 -133 -386.5t-363 -146.5q-220 0 -341.5 140.5t-121.5 392.5zM569 125q142 0 225 76.5t93 226.5h-613
q2 -142 79 -222.5t216 -80.5z" />
    <glyph glyph-name="uni04E8" unicode="&#x4e8;" horiz-adv-x="1589" 
d="M795 1489q162 0 293 -59t215 -162.5t129 -240.5t45 -296t-45 -296t-129 -240.5t-215 -162.5t-293 -59q-131 0 -242 38.5t-191.5 107.5t-137 163.5t-84 208t-27.5 240.5t27.5 240.5t84 208t137 163.5t191.5 107.5t242 38.5zM795 141q95 0 173.5 27.5t134 75.5t95.5 115.5
t61.5 144t28.5 164.5h-987q6 -109 39 -203t92.5 -167t152.5 -115t210 -42zM795 1321q-114 0 -203.5 -38.5t-148 -107t-93 -154.5t-47.5 -190h981q-10 103 -45 190t-93.5 155t-148.5 106.5t-202 38.5z" />
    <glyph glyph-name="uni04E9" unicode="&#x4e9;" horiz-adv-x="1224" 
d="M612 1059q157 0 273.5 -72.5t175.5 -194.5t59 -276t-59 -276t-175.5 -194.5t-273.5 -72.5q-158 0 -274.5 72.5t-175 194.5t-58.5 276t58.5 276t175 194.5t274.5 72.5zM612 125q144 0 227.5 91t102.5 233h-659q13 -141 98 -232.5t231 -91.5zM612 907q-141 0 -225 -87.5
t-102 -223.5h655q-18 136 -102.5 223.5t-225.5 87.5z" />
    <glyph glyph-name="endash" unicode="&#x2013;" horiz-adv-x="1263" 
d="M1163 494h-1065v147h1065v-147z" />
    <glyph glyph-name="emdash" unicode="&#x2014;" horiz-adv-x="1796" 
d="M1696 494h-1598v147h1598v-147z" />
    <glyph glyph-name="quoteleft" unicode="&#x2018;" horiz-adv-x="528" 
d="M272 1227h99v-238h-213v273l114 200h115l-115 -200v-35z" />
    <glyph glyph-name="quoteright" unicode="&#x2019;" horiz-adv-x="528" 
d="M256 1225h-98v237h213v-272l-115 -201h-115l115 201v35z" />
    <glyph glyph-name="quotesinglbase" unicode="&#x201a;" horiz-adv-x="528" 
d="M256 0h-98v238h213v-273l-115 -201h-115l115 201v35z" />
    <glyph glyph-name="quotedblleft" unicode="&#x201c;" horiz-adv-x="886" 
d="M272 1227h99v-238h-213v273l114 200h115l-115 -200v-35zM631 1227h98v-238h-213v273l115 200h114l-114 -200v-35z" />
    <glyph glyph-name="quotedblright" unicode="&#x201d;" horiz-adv-x="886" 
d="M256 1225h-98v237h213v-272l-115 -201h-115l115 201v35zM614 1225h-98v237h213v-272l-115 -201h-114l114 201v35z" />
    <glyph glyph-name="quotedblbase" unicode="&#x201e;" horiz-adv-x="886" 
d="M256 0h-98v238h213v-273l-115 -201h-115l115 201v35zM614 0h-98v238h213v-273l-115 -201h-114l114 201v35z" />
    <glyph glyph-name="dagger" unicode="&#x2020;" horiz-adv-x="1124" 
d="M479 889h-385v147h385v426h166v-426h385v-147h-385v-1200h-166v1200z" />
    <glyph glyph-name="daggerdbl" unicode="&#x2021;" horiz-adv-x="1124" 
d="M479 889h-385v147h385v426h166v-426h385v-147h-385v-625h385v-147h-385v-428h-166v428h-385v147h385v625z" />
    <glyph glyph-name="bullet" unicode="&#x2022;" horiz-adv-x="878" 
d="M137 729q0 125 88.5 213t212.5 88t212.5 -88t88.5 -213t-88.5 -213t-212.5 -88t-212.5 88t-88.5 213z" />
    <glyph glyph-name="ellipsis" unicode="&#x2026;" horiz-adv-x="1544" 
d="M371 0h-213v238h213v-238zM879 0h-213v238h213v-238zM1386 0h-212v238h212v-238z" />
    <glyph glyph-name="perthousand" unicode="&#x2030;" horiz-adv-x="2564" 
d="M549 0h-160l868 1434h158zM428 1462q158 0 244 -109.5t86 -277.5t-86 -277.5t-244 -109.5t-244 109.5t-86 277.5t86 277.5t244 109.5zM428 817q93 0 140.5 71t47.5 187t-47.5 187t-140.5 71t-140.5 -71t-47.5 -187t47.5 -187t140.5 -71zM1374 748q106 0 182 -53
t112 -139.5t36 -195.5q0 -168 -86 -277.5t-244 -109.5t-244 109.5t-86 277.5q0 109 36 195.5t112 139.5t182 53zM1374 102q93 0 141 71t48 187t-48 187t-141 71t-140.5 -71t-47.5 -187t47.5 -187t140.5 -71zM2136 748q106 0 182 -53t112 -139.5t36 -195.5q0 -168 -86 -277.5
t-244 -109.5t-244 109.5t-86 277.5q0 109 36 195.5t112 139.5t182 53zM2136 102q93 0 140.5 71t47.5 187t-47.5 187t-140.5 71t-140.5 -71t-47.5 -187t47.5 -187t140.5 -71z" />
    <glyph glyph-name="guilsinglleft" unicode="&#x2039;" horiz-adv-x="727" 
d="M276 602v-41l332 -354h-192l-297 309v129l297 311h192z" />
    <glyph glyph-name="guilsinglright" unicode="&#x203a;" horiz-adv-x="727" 
d="M451 561v41l-332 354h192l297 -311v-129l-297 -309h-192z" />
    <glyph glyph-name="fraction" unicode="&#x2044;" horiz-adv-x="483" 
d="M-117 0h-157l868 1434h156z" />
    <glyph glyph-name="Euro" unicode="&#x20ac;" horiz-adv-x="1380" 
d="M850 653l-39 -116h-395q29 -199 123 -301.5t247 -102.5q133 0 214 71.5t100 205.5h178q-26 -204 -158 -320.5t-336 -116.5q-221 0 -366 143t-182 421h-164l39 116h114q-4 99 2 150h-155l39 117h129q40 263 187 402.5t357 139.5q198 0 325.5 -108t156.5 -303h-181
q-39 252 -301 252q-143 0 -237.5 -99t-126.5 -284h522l-39 -117h-495q-7 -95 -5 -150h447z" />
    <glyph glyph-name="uni20B4" unicode="&#x20b4;" horiz-adv-x="1331" 
d="M78 535v116h1175v-116h-850q-32 -54 -32 -136q0 -126 88 -196t233 -70q133 0 220.5 59t113.5 179h180q-30 -185 -161 -291.5t-351 -106.5q-234 0 -369 118.5t-135 303.5q0 69 27 140h-139zM78 918h846q51 60 51 147q0 112 -77.5 175t-199.5 63q-248 0 -297 -207h-178
q25 166 152.5 266t322.5 100q105 0 192 -31.5t144 -85.5t88 -124t31 -148q0 -88 -37 -155h137v-117h-1175v117z" />
    <glyph glyph-name="uni20B8" unicode="&#x20b8;" horiz-adv-x="1077" 
d="M37 1051v116h1001v-116h-411v-1051h-178v1051h-412zM37 1317v117h1001v-117h-1001z" />
    <glyph glyph-name="uni20BD" unicode="&#x20bd;" horiz-adv-x="1400" 
d="M90 590v158h199v686h528q230 0 353.5 -110.5t123.5 -309.5q0 -200 -123.5 -312t-353.5 -112h-348v-150h483v-116h-483v-324h-180v324h-199v116h199v150h-199zM469 748h326q170 0 244.5 69t74.5 197t-74.5 195t-244.5 67h-326v-528z" />
    <glyph glyph-name="uni2116" unicode="&#x2116;" horiz-adv-x="2355" 
d="M1180 1434h176v-1434h-279l-676 1198h-39v-1198h-176v1434h279l676 -1198h39v1198zM2224 434h-661v123h661v-123zM1892 1462q158 0 244 -109.5t86 -277.5t-86 -277.5t-244 -109.5t-243.5 109.5t-85.5 277.5t85.5 277.5t243.5 109.5zM1892 817q93 0 141 71t48 187t-48 187
t-141 71t-140.5 -71t-47.5 -187t47.5 -187t140.5 -71z" />
    <glyph glyph-name="trademark" unicode="&#x2122;" horiz-adv-x="1744" 
d="M1038 1462l172 -352h25l170 352h207v-778h-123v641h-25l-176 -358h-133l-176 358h-25v-641h-125v778h209zM698 1462v-114h-260v-664h-127v664h-262v114h649z" />
    <glyph glyph-name="Omega" unicode="&#x2126;" horiz-adv-x="1552" 
d="M1165 201v-41h271v-160h-564v156q381 233 381 618q0 250 -131 398.5t-346 148.5q-216 0 -346.5 -148t-130.5 -399q0 -94 24 -179.5t60.5 -149.5t89 -121.5t101 -95.5t104.5 -72v-156h-563v160h272v41q-274 232 -274 592q0 205 79.5 362t230.5 245.5t353 88.5t353 -88.5
t231 -246t80 -361.5q0 -359 -275 -592z" />
    <glyph glyph-name="arrowleft" unicode="&#x2190;" horiz-adv-x="1675" 
d="M424 594h1132v-156h-1132v-41l395 -397h-211l-514 516l514 516h211l-395 -397v-41z" />
    <glyph glyph-name="arrowup" unicode="&#x2191;" horiz-adv-x="1388" 
d="M616 0v1133h-41l-397 -396v211l516 514l516 -514v-211l-397 396h-41v-1133h-156z" />
    <glyph glyph-name="arrowright" unicode="&#x2192;" horiz-adv-x="1675" 
d="M119 594h1132v41l-395 397h211l514 -516l-514 -516h-211l395 397v41h-1132v156z" />
    <glyph glyph-name="arrowdown" unicode="&#x2193;" horiz-adv-x="1388" 
d="M772 1462v-1132h41l397 395v-211l-516 -514l-516 514v211l397 -395h41v1132h156z" />
    <glyph glyph-name="uni2196" unicode="&#x2196;" horiz-adv-x="1443" 
d="M1157 375l-801 801l-30 -29v-561l-148 149v727h727l150 -147h-561l-29 -31l801 -801z" />
    <glyph glyph-name="uni2197" unicode="&#x2197;" horiz-adv-x="1443" 
d="M1087 1176l-800 -801l-109 108l801 801l-29 31h-561l150 147h727v-727l-148 -149v561z" />
    <glyph glyph-name="uni2198" unicode="&#x2198;" horiz-adv-x="1443" 
d="M356 287l801 800l109 -108l-801 -801l29 -31h561l-150 -147h-727v727l148 150v-562z" />
    <glyph glyph-name="uni2199" unicode="&#x2199;" horiz-adv-x="1443" 
d="M287 1087l800 -800l31 28v562l148 -150v-727h-727l-150 147h561l29 31l-801 801z" />
    <glyph glyph-name="partialdiff" unicode="&#x2202;" horiz-adv-x="1212" 
d="M606 125q84 0 148.5 28.5t103 78t57.5 112t19 135.5t-19 136t-57.5 112.5t-103 78t-148.5 28.5q-164 0 -248 -101t-84 -254t84 -253.5t248 -100.5zM334 1489h219q555 -401 555 -961q0 -118 -31.5 -218t-92.5 -176t-159 -118.5t-223 -42.5q-114 0 -208.5 40t-157.5 109.5
t-97.5 161.5t-34.5 197q0 141 56.5 255t164.5 181.5t248 67.5q79 0 146.5 -24t109.5 -66h48q-127 298 -543 594z" />
    <glyph glyph-name="Delta" unicode="&#x2206;" horiz-adv-x="1308" 
d="M762 1462l465 -1263v-199h-1145v199l467 1263h213zM1063 160v41l-387 1065h-41l-387 -1065v-41h815z" />
    <glyph glyph-name="product" unicode="&#x220f;" horiz-adv-x="1222" 
d="M965 -410h-168v1719h-371v-1719h-170v1719h-197v153h1104v-153h-198v-1719z" />
    <glyph glyph-name="summation" unicode="&#x2211;" horiz-adv-x="1132" 
d="M293 160h782v-160h-997v199l409 512v41l-391 514v196h944v-159h-731v-39l381 -504v-60l-397 -501v-39z" />
    <glyph glyph-name="minus" unicode="&#x2212;" horiz-adv-x="1398" 
d="M1221 508h-1043v149h1043v-149z" />
    <glyph glyph-name="uni2215" unicode="&#x2215;" horiz-adv-x="1024" 
d="M158 0h-158l868 1434h156z" />
    <glyph glyph-name="radical" unicode="&#x221a;" horiz-adv-x="1316" 
d="M74 1032h159l256 -844h39l408 1274h324v-141h-211l-426 -1321h-230z" />
    <glyph glyph-name="infinity" unicode="&#x221e;" horiz-adv-x="1896" 
d="M928 664h41q99 103 149 142q130 103 264 103q149 0 242.5 -90t93.5 -241t-93.5 -241.5t-242.5 -90.5q-53 0 -105 16t-92 38.5t-83 58.5t-70.5 64.5t-62.5 68.5h-41q-45 -51 -81.5 -86.5t-90.5 -76t-115.5 -62t-126.5 -21.5q-149 0 -242.5 90.5t-93.5 241.5t93.5 241
t242.5 90q39 0 77.5 -9.5t67 -19.5t66.5 -36t55.5 -38.5t55.5 -49t46 -45t46 -47.5zM864 578q-43 50 -72.5 81t-75.5 69.5t-95 57.5t-101 19q-98 0 -163.5 -60.5t-65.5 -166.5t65.5 -167t163.5 -61q52 0 101.5 19.5t94 56t77 70.5t71.5 82zM1032 578q39 -48 71.5 -82
t77 -70.5t94 -56t101.5 -19.5q98 0 164 61t66 167t-66 166.5t-164 60.5q-52 0 -101 -19t-95 -57.5t-75.5 -69.5t-72.5 -81z" />
    <glyph glyph-name="integral" unicode="&#x222b;" horiz-adv-x="976" 
d="M872 1489h80v-152h-84q-105 0 -160 -59t-75 -172l-205 -1155q-35 -192 -134 -276.5t-276 -84.5h-79v152h81q105 0 161.5 59.5t76.5 171.5l203 1155q35 191 134.5 276t276.5 85z" />
    <glyph glyph-name="approxequal" unicode="&#x2248;" horiz-adv-x="1372" 
d="M1051 989h143q0 -157 -75.5 -247.5t-194.5 -90.5q-16 0 -31 1.5t-32 6t-28 7t-31 12t-27.5 12t-30 15.5t-27 15t-30.5 17.5t-28 16.5q-8 5 -32.5 20t-34 20.5t-30 16.5t-34 15t-32 8t-35.5 4q-70 0 -106 -49.5t-36 -137.5h-141q0 158 74 248t194 90q27 0 55 -5.5
t48.5 -12t49 -21t42 -22t44 -26.5t40.5 -25q120 -74 184 -74q71 0 106.5 49t35.5 137zM1051 559h143q0 -157 -75.5 -247.5t-194.5 -90.5q-16 0 -31 1.5t-32 6t-28 7t-31 12t-27.5 12t-30 15.5t-27 15t-30.5 17.5t-28 16.5q-8 5 -32.5 20t-34 20.5t-30 16.5t-34 15t-32 8
t-35.5 4q-70 0 -106 -49.5t-36 -137.5h-141q0 158 74 248t194 90q32 0 62 -5.5t64 -21.5t49.5 -23.5t56.5 -33t47 -29.5q118 -73 184 -73q71 0 106.5 49t35.5 137z" />
    <glyph glyph-name="notequal" unicode="&#x2260;" horiz-adv-x="1398" 
d="M1221 860v-149h-363l-164 -258h527v-150h-625l-160 -254h-162l162 254h-258v150h357l165 258h-522v149h621l166 254h153l-164 -254h267z" />
    <glyph glyph-name="lessequal" unicode="&#x2264;" horiz-adv-x="1394" 
d="M178 0v152h1043v-152h-1043zM1221 244l-1043 350v168l1043 350v-158l-803 -256v-41l803 -256v-157z" />
    <glyph glyph-name="greaterequal" unicode="&#x2265;" horiz-adv-x="1398" 
d="M178 244v157l803 256v41l-803 256v158l1043 -350v-168zM1221 0h-1043v152h1043v-152z" />
    <glyph glyph-name="uni2460" unicode="&#x2460;" 
d="M877 1489q155 0 294.5 -60t240 -161.5t159.5 -241.5t59 -295t-59 -295t-159.5 -241.5t-240 -161.5t-294.5 -60t-294.5 60t-240.5 161t-160 241.5t-59 295.5t59 295.5t160 241.5t240.5 161t294.5 60zM877 88q131 0 248 50t200.5 136t132.5 205t49 252t-49 252t-132.5 205
t-200.5 136t-248 50q-175 0 -320 -85t-228 -233t-83 -325t83 -325t228 -233t320 -85zM975 459h190v-119h-518v119h193v504h-29l-164 -93v134l199 116h129v-661z" />
    <glyph glyph-name="uni2461" unicode="&#x2461;" 
d="M877 1489q155 0 294.5 -60t240 -161.5t159.5 -241.5t59 -295t-59 -295t-159.5 -241.5t-240 -161.5t-294.5 -60t-294.5 60t-240.5 161t-160 241.5t-59 295.5t59 295.5t160 241.5t240.5 161t294.5 60zM877 88q131 0 248 50t200.5 136t132.5 205t49 252t-49 252t-132.5 205
t-200.5 136t-248 50q-175 0 -320 -85t-228 -233t-83 -325t83 -325t228 -233t320 -85zM807 459h373v-119h-578v145l232 166q97 69 141.5 119t44.5 115q0 60 -36 94.5t-99 34.5q-149 0 -152 -142h-133q4 131 83 197t204 66q121 0 193.5 -63t72.5 -181q0 -82 -48 -150
t-147 -141l-151 -113v-28z" />
    <glyph glyph-name="uni2462" unicode="&#x2462;" 
d="M973 854v-29q89 -13 146 -75t57 -162q0 -122 -83 -192t-214 -70q-129 0 -211.5 72.5t-87.5 185.5h131q6 -64 53 -101t115 -37q73 0 118 38.5t45 105.5t-43.5 105t-117.5 38q-49 0 -74 -6v121l156 125v28h-326v119h506v-131zM877 1489q155 0 294.5 -60t240 -161.5
t159.5 -241.5t59 -295t-59 -295t-159.5 -241.5t-240 -161.5t-294.5 -60t-294.5 60t-240.5 161t-160 241.5t-59 295.5t59 295.5t160 241.5t240.5 161t294.5 60zM877 88q131 0 248 50t200.5 136t132.5 205t49 252t-49 252t-132.5 205t-200.5 136t-248 50q-175 0 -320 -85
t-228 -233t-83 -325t83 -325t228 -233t320 -85z" />
    <glyph glyph-name="uni2463" unicode="&#x2463;" 
d="M1063 635h106v-119h-106v-176h-133v176h-393v127l354 477h172v-485zM686 635h246v323h-29l-217 -294v-29zM877 1489q155 0 294.5 -60t240 -161.5t159.5 -241.5t59 -295t-59 -295t-159.5 -241.5t-240 -161.5t-294.5 -60t-294.5 60t-240.5 161t-160 241.5t-59 295.5
t59 295.5t160 241.5t240.5 161t294.5 60zM877 88q131 0 248 50t200.5 136t132.5 205t49 252t-49 252t-132.5 205t-200.5 136t-248 50q-175 0 -320 -85t-228 -233t-83 -325t83 -325t228 -233t320 -85z" />
    <glyph glyph-name="uni2464" unicode="&#x2464;" 
d="M877 1489q155 0 294.5 -60t240 -161.5t159.5 -241.5t59 -295t-59 -295t-159.5 -241.5t-240 -161.5t-294.5 -60t-294.5 60t-240.5 161t-160 241.5t-59 295.5t59 295.5t160 241.5t240.5 161t294.5 60zM877 88q131 0 248 50t200.5 136t132.5 205t49 252t-49 252t-132.5 205
t-200.5 136t-248 50q-175 0 -320 -85t-228 -233t-83 -325t83 -325t228 -233t320 -85zM905 874q121 0 193.5 -76.5t72.5 -189.5q0 -128 -79 -205t-209 -77q-137 0 -212 70t-83 186h133q7 -66 49 -101t109 -35q73 0 116 41.5t43 118.5q0 69 -41 111.5t-112 42.5
q-102 0 -154 -70h-125l41 430h483v-119h-378l-15 -172h29q51 45 139 45z" />
    <glyph glyph-name="uni2465" unicode="&#x2465;" 
d="M877 1489q155 0 294.5 -60t240 -161.5t159.5 -241.5t59 -295t-59 -295t-159.5 -241.5t-240 -161.5t-294.5 -60t-294.5 60t-240.5 161t-160 241.5t-59 295.5t59 295.5t160 241.5t240.5 161t294.5 60zM877 88q131 0 248 50t200.5 136t132.5 205t49 252t-49 252t-132.5 205
t-200.5 136t-248 50q-175 0 -320 -85t-228 -233t-83 -325t83 -325t228 -233t320 -85zM901 860q118 0 195.5 -73.5t77.5 -186.5q0 -119 -77.5 -196.5t-209.5 -77.5q-309 0 -309 383q0 91 19 166.5t56.5 134.5t100 92t143.5 33q102 0 170 -58t86 -151h-133q-27 90 -127 90
q-78 0 -126 -56t-58 -161h28q61 61 164 61zM883 446q69 0 113 39.5t44 110.5t-44 110t-113 39t-113.5 -39t-44.5 -110t44.5 -110.5t113.5 -39.5z" />
    <glyph glyph-name="uni2466" unicode="&#x2466;" 
d="M877 1489q155 0 294.5 -60t240 -161.5t159.5 -241.5t59 -295t-59 -295t-159.5 -241.5t-240 -161.5t-294.5 -60t-294.5 60t-240.5 161t-160 241.5t-59 295.5t59 295.5t160 241.5t240.5 161t294.5 60zM877 88q131 0 248 50t200.5 136t132.5 205t49 252t-49 252t-132.5 205
t-200.5 136t-248 50q-175 0 -320 -85t-228 -233t-83 -325t83 -325t228 -233t320 -85zM625 1120h540v-121l-346 -659h-141l334 633v28h-387v119z" />
    <glyph glyph-name="uni2467" unicode="&#x2467;" 
d="M877 1489q155 0 294.5 -60t240 -161.5t159.5 -241.5t59 -295t-59 -295t-159.5 -241.5t-240 -161.5t-294.5 -60t-294.5 60t-240.5 161t-160 241.5t-59 295.5t59 295.5t160 241.5t240.5 161t294.5 60zM877 88q131 0 248 50t200.5 136t132.5 205t49 252t-49 252t-132.5 205
t-200.5 136t-248 50q-175 0 -320 -85t-228 -233t-83 -325t83 -325t228 -233t320 -85zM879 1022q-64 0 -104 -29.5t-40 -81.5t40 -80t104 -28q63 0 102 28t39 80t-39.5 81.5t-101.5 29.5zM879 440q75 0 122.5 36t47.5 93q0 55 -47.5 90t-122.5 35q-78 0 -125 -34.5t-47 -90.5
q0 -57 47 -93t125 -36zM692 739v27q-88 52 -88 154q0 97 76 156t199 59t197.5 -59t74.5 -156q0 -55 -26 -94.5t-62 -59.5v-27q119 -58 119 -184q0 -100 -83 -164.5t-222 -64.5t-221.5 64.5t-82.5 164.5q0 126 119 184z" />
    <glyph glyph-name="uni2468" unicode="&#x2468;" 
d="M877 1489q155 0 294.5 -60t240 -161.5t159.5 -241.5t59 -295t-59 -295t-159.5 -241.5t-240 -161.5t-294.5 -60t-294.5 60t-240.5 161t-160 241.5t-59 295.5t59 295.5t160 241.5t240.5 161t294.5 60zM877 88q131 0 248 50t200.5 136t132.5 205t49 252t-49 252t-132.5 205
t-200.5 136t-248 50q-175 0 -320 -85t-228 -233t-83 -325t83 -325t228 -233t320 -85zM852 600q-118 0 -195 73.5t-77 186.5q0 119 77 197t209 78q310 0 310 -383q0 -122 -32.5 -215.5t-106 -152t-181.5 -58.5q-102 0 -170 58t-86 151h133q28 -91 127 -91q78 0 126 56t58 162
h-28q-62 -62 -164 -62zM870 1014q-69 0 -113 -39.5t-44 -110.5t44 -110t113 -39t113.5 39t44.5 110t-44.5 110.5t-113.5 39.5z" />
    <glyph glyph-name="lozenge" unicode="&#x25ca;" horiz-adv-x="1093" 
d="M635 1462l340 -731l-340 -731h-176l-340 731l340 731h176zM567 197l236 534l-236 535h-41l-235 -535l235 -534h41z" />
    <glyph glyph-name="circle" unicode="&#x25cb;" 
d="M877 1489q155 0 294.5 -60t240 -161.5t159.5 -241.5t59 -295t-59 -295t-159.5 -241.5t-240 -161.5t-294.5 -60t-294.5 60t-240.5 161t-160 241.5t-59 295.5t59 295.5t160 241.5t240.5 161t294.5 60zM877 88q131 0 248 50t200.5 136t132.5 205t49 252t-49 252t-132.5 205
t-200.5 136t-248 50q-175 0 -320 -85t-228 -233t-83 -325t83 -325t228 -233t320 -85z" />
    <glyph glyph-name="H18533" unicode="&#x25cf;" 
d="M877 1489q155 0 294.5 -60t240 -161.5t159.5 -241.5t59 -295t-59 -295t-159.5 -241.5t-240 -161.5t-294.5 -60t-294.5 60t-240.5 161t-160 241.5t-59 295.5t59 295.5t160 241.5t240.5 161t294.5 60z" />
    <glyph glyph-name="uni2776" unicode="&#x2776;" 
d="M877 1489q155 0 294.5 -60t240 -161.5t159.5 -241.5t59 -295t-59 -295t-159.5 -241.5t-240 -161.5t-294.5 -60t-294.5 60t-240.5 161t-160 241.5t-59 295.5t59 295.5t160 241.5t240.5 161t294.5 60zM1165 459h-190v661h-129l-199 -116v-134l164 93h29v-504h-193v-119h518
v119z" />
    <glyph glyph-name="uni2777" unicode="&#x2777;" 
d="M1180 459h-373v28l151 113q99 73 147 141t48 150q0 118 -72.5 181t-193.5 63q-125 0 -204 -66t-83 -197h133q3 142 152 142q63 0 99 -34.5t36 -94.5q0 -65 -44.5 -115t-141.5 -119l-232 -166v-145h578v119zM877 1489q155 0 294.5 -60t240 -161.5t159.5 -241.5t59 -295
t-59 -295t-159.5 -241.5t-240 -161.5t-294.5 -60t-294.5 60t-240.5 161t-160 241.5t-59 295.5t59 295.5t160 241.5t240.5 161t294.5 60z" />
    <glyph glyph-name="uni2778" unicode="&#x2778;" 
d="M877 1489q155 0 294.5 -60t240 -161.5t159.5 -241.5t59 -295t-59 -295t-159.5 -241.5t-240 -161.5t-294.5 -60t-294.5 60t-240.5 161t-160 241.5t-59 295.5t59 295.5t160 241.5t240.5 161t294.5 60zM973 825v29l170 135v131h-506v-119h326v-28l-156 -125v-121q25 6 74 6
q74 0 117.5 -38t43.5 -105t-45 -105.5t-118 -38.5q-68 0 -115 37t-53 101h-131q5 -113 87.5 -185.5t211.5 -72.5q131 0 214 70t83 192q0 100 -57 162t-146 75z" />
    <glyph glyph-name="uni2779" unicode="&#x2779;" 
d="M877 1489q155 0 294.5 -60t240 -161.5t159.5 -241.5t59 -295t-59 -295t-159.5 -241.5t-240 -161.5t-294.5 -60t-294.5 60t-240.5 161t-160 241.5t-59 295.5t59 295.5t160 241.5t240.5 161t294.5 60zM1169 635h-106v485h-172l-354 -477v-127h393v-176h133v176h106v119z
M932 635h-246v29l217 294h29v-323z" />
    <glyph glyph-name="uni277A" unicode="&#x277a;" 
d="M905 874q-88 0 -139 -45h-29l15 172h378v119h-483l-41 -430h125q52 70 154 70q71 0 112 -42.5t41 -111.5q0 -77 -43 -118.5t-116 -41.5q-67 0 -109 35t-49 101h-133q8 -116 83 -186t212 -70q130 0 209 77t79 205q0 113 -72.5 189.5t-193.5 76.5zM877 1489
q155 0 294.5 -60t240 -161.5t159.5 -241.5t59 -295t-59 -295t-159.5 -241.5t-240 -161.5t-294.5 -60t-294.5 60t-240.5 161t-160 241.5t-59 295.5t59 295.5t160 241.5t240.5 161t294.5 60z" />
    <glyph glyph-name="uni277B" unicode="&#x277b;" 
d="M901 860q-103 0 -164 -61h-28q10 106 58 162.5t126 56.5q100 0 127 -92h133q-18 93 -86 151t-170 58q-81 0 -143.5 -33t-100 -92t-56.5 -134.5t-19 -166.5q0 -383 309 -383q132 0 209.5 77.5t77.5 196.5q0 113 -77.5 186.5t-195.5 73.5zM883 442q-68 0 -113 41.5
t-45 114.5q0 71 43.5 109t112.5 38t114 -38t45 -109q0 -73 -44.5 -114.5t-112.5 -41.5zM877 1489q155 0 294.5 -60t240 -161.5t159.5 -241.5t59 -295t-59 -295t-159.5 -241.5t-240 -161.5t-294.5 -60t-294.5 60t-240.5 161t-160 241.5t-59 295.5t59 295.5t160 241.5
t240.5 161t294.5 60z" />
    <glyph glyph-name="uni277C" unicode="&#x277c;" 
d="M1165 1120h-540v-119h387v-28l-334 -633h141l346 659v121zM877 1489q155 0 294.5 -60t240 -161.5t159.5 -241.5t59 -295t-59 -295t-159.5 -241.5t-240 -161.5t-294.5 -60t-294.5 60t-240.5 161t-160 241.5t-59 295.5t59 295.5t160 241.5t240.5 161t294.5 60z" />
    <glyph glyph-name="uni277D" unicode="&#x277d;" 
d="M879 1022q62 0 101.5 -29.5t39.5 -81.5t-39 -80t-102 -28q-64 0 -104 28t-40 80t40 81.5t104 29.5zM879 440q-78 0 -125 36t-47 93q0 56 47 90.5t125 34.5q75 0 122.5 -35t47.5 -90q0 -57 -47.5 -93t-122.5 -36zM692 766v-27q-119 -58 -119 -184q0 -100 82.5 -164.5
t221.5 -64.5t222 64.5t83 164.5q0 126 -119 184v27q36 20 62 59.5t26 94.5q0 97 -74.5 156t-197.5 59t-199 -59t-76 -156q0 -102 88 -154zM877 1489q155 0 294.5 -60t240 -161.5t159.5 -241.5t59 -295t-59 -295t-159.5 -241.5t-240 -161.5t-294.5 -60t-294.5 60t-240.5 161
t-160 241.5t-59 295.5t59 295.5t160 241.5t240.5 161t294.5 60z" />
    <glyph glyph-name="uni277E" unicode="&#x277e;" 
d="M852 600q102 0 164 62h28q-11 -106 -58.5 -163t-125.5 -57q-100 0 -127 93h-133q18 -93 86 -151t170 -58q108 0 181.5 58.5t106 152t32.5 215.5q0 383 -310 383q-132 0 -209 -78t-77 -197q0 -113 77 -186.5t195 -73.5zM870 1018q68 0 113 -41.5t45 -114.5
q0 -71 -43.5 -109t-112.5 -38t-114 38t-45 109q0 73 44.5 114.5t112.5 41.5zM877 1489q155 0 294.5 -60t240 -161.5t159.5 -241.5t59 -295t-59 -295t-159.5 -241.5t-240 -161.5t-294.5 -60t-294.5 60t-240.5 161t-160 241.5t-59 295.5t59 295.5t160 241.5t240.5 161
t294.5 60z" />
    <glyph glyph-name="commaaccent" unicode="&#xf6c3;" horiz-adv-x="360" 
d="M184 -451h-116l112 127v35h-90v170h205v-205z" />
    <glyph glyph-name="zero.numr" horiz-adv-x="780" 
d="M700 1071q0 -199 -85 -301t-226 -102t-225 101.5t-84 301.5q0 203 84 304.5t225 101.5q142 0 226.5 -101.5t84.5 -304.5zM389 788q90 0 134 75t44 208q0 134 -44.5 209.5t-133.5 75.5t-132.5 -75.5t-43.5 -209.5t43.5 -208.5t132.5 -74.5z" />
    <glyph glyph-name="one.numr" horiz-adv-x="677" 
d="M408 801h190v-119h-518v119h192v504h-28l-164 -93v134l199 116h129v-661z" />
    <glyph glyph-name="two.numr" horiz-adv-x="741" 
d="M285 801h372v-119h-577v145l231 166q48 35 75 56.5t56.5 51.5t42.5 60.5t13 65.5q0 60 -36.5 94.5t-99.5 34.5q-148 0 -151 -142h-133q4 131 83 197t204 66q121 0 193.5 -63t72.5 -181q0 -82 -48 -150t-147 -141l-151 -113v-28z" />
    <glyph glyph-name="three.numr" horiz-adv-x="745" 
d="M467 1196v-29q89 -13 146 -75t57 -162q0 -122 -83 -192t-214 -70q-129 0 -211.5 72.5t-87.5 185.5h131q6 -64 53 -101t115 -37q73 0 118.5 39t45.5 105q0 67 -44 105t-118 38q-49 0 -74 -6v121l156 125v28h-326v119h506v-131z" />
    <glyph glyph-name="four.numr" horiz-adv-x="788" 
d="M602 977h107v-119h-107v-176h-133v176h-393v127l354 477h172v-485zM225 977h246v323h-29l-217 -294v-29z" />
    <glyph glyph-name="five.numr" horiz-adv-x="743" 
d="M397 1217q121 0 194 -77t73 -190q0 -128 -79.5 -205t-209.5 -77q-137 0 -212 70t-83 186h133q7 -66 49 -101t109 -35q73 0 116 41.5t43 118.5q0 69 -41 111.5t-112 42.5q-102 0 -154 -70h-125l41 430h484v-119h-379l-15 -172h29q52 46 139 46z" />
    <glyph glyph-name="six.numr" horiz-adv-x="755" 
d="M403 1202q118 0 195.5 -73.5t77.5 -186.5q0 -119 -77.5 -196.5t-209.5 -77.5q-309 0 -309 383q0 91 19 166.5t56.5 134.5t100 92t143.5 33q102 0 170 -58t86 -151h-133q-27 90 -127 90q-78 0 -126 -56t-58 -161h29q61 61 163 61zM385 788q69 0 113.5 39.5t44.5 110.5
t-44.5 110t-113.5 39t-113.5 -39t-44.5 -110t44.5 -110.5t113.5 -39.5z" />
    <glyph glyph-name="seven.numr" horiz-adv-x="700" 
d="M80 1462h541v-121l-347 -659h-141l334 633v28h-387v119z" />
    <glyph glyph-name="eight.numr" horiz-adv-x="768" 
d="M385 1364q-63 0 -103 -29t-40 -82q0 -52 39.5 -80t103.5 -28q63 0 102 28t39 80t-39.5 81.5t-101.5 29.5zM385 782q75 0 122.5 36t47.5 93q0 55 -47.5 90t-122.5 35q-78 0 -125 -34.5t-47 -90.5q0 -57 47 -93t125 -36zM199 1081v27q-88 52 -88 154q0 97 75.5 156
t198.5 59t197.5 -59t74.5 -156q0 -55 -26 -94.5t-62 -59.5v-27q119 -58 119 -184q0 -100 -83 -164.5t-222 -64.5q-138 0 -220.5 64.5t-82.5 164.5q0 126 119 184z" />
    <glyph glyph-name="nine.numr" horiz-adv-x="755" 
d="M352 942q-118 0 -195 73.5t-77 186.5q0 119 77.5 197t209.5 78q309 0 309 -383q0 -122 -32.5 -215.5t-106 -152t-181.5 -58.5q-102 0 -170 58t-86 151h133q28 -91 127 -91q78 0 126.5 56.5t58.5 161.5h-29q-62 -62 -164 -62zM371 1356q-69 0 -113.5 -39.5t-44.5 -110.5
t44.5 -110t113.5 -39t113 39t44 110t-44 110.5t-113 39.5z" />
    <glyph glyph-name="zero.dnom" horiz-adv-x="780" 
d="M700 389q0 -199 -85 -301t-226 -102t-225 101.5t-84 301.5q0 203 84 304.5t225 101.5q142 0 226.5 -101.5t84.5 -304.5zM389 106q90 0 134 75t44 208q0 134 -44.5 209.5t-133.5 75.5t-132.5 -75.5t-43.5 -209.5t43.5 -208.5t132.5 -74.5z" />
    <glyph glyph-name="one.dnom" horiz-adv-x="677" 
d="M408 119h190v-119h-518v119h192v504h-28l-164 -93v134l199 116h129v-661z" />
    <glyph glyph-name="two.dnom" horiz-adv-x="741" 
d="M285 119h372v-119h-577v145l231 166q48 35 75 56.5t56.5 51.5t42.5 60.5t13 65.5q0 60 -36.5 94.5t-99.5 34.5q-148 0 -151 -142h-133q4 131 83 197t204 66q121 0 193.5 -63t72.5 -181q0 -82 -48 -150t-147 -141l-151 -113v-28z" />
    <glyph glyph-name="three.dnom" horiz-adv-x="753" 
d="M469 514v-29q89 -13 146 -75t57 -162q0 -122 -83 -192t-214 -70q-129 0 -211.5 72.5t-87.5 185.5h131q6 -64 53 -101t115 -37q73 0 118.5 39t45.5 105q0 67 -44 105t-118 38q-49 0 -74 -6v121l156 125v29h-326v118h506v-131z" />
    <glyph glyph-name="four.dnom" horiz-adv-x="788" 
d="M602 295h107v-119h-107v-176h-133v176h-393v127l354 477h172v-485zM225 295h246v323h-29l-217 -294v-29z" />
    <glyph glyph-name="five.dnom" horiz-adv-x="743" 
d="M397 535q121 0 194 -77t73 -190q0 -128 -79.5 -205t-209.5 -77q-137 0 -212 70t-83 186h133q7 -66 49 -101t109 -35q73 0 116 41.5t43 118.5q0 69 -41 111.5t-112 42.5q-102 0 -154 -70h-125l41 430h484v-118h-379l-15 -173h29q52 46 139 46z" />
    <glyph glyph-name="six.dnom" horiz-adv-x="755" 
d="M403 520q118 0 195.5 -73.5t77.5 -186.5q0 -119 -77.5 -196.5t-209.5 -77.5q-309 0 -309 383q0 91 19 166.5t56.5 134.5t100 92t143.5 33q102 0 170 -58t86 -151h-133q-27 90 -127 90q-78 0 -126 -56t-58 -161h29q61 61 163 61zM385 106q69 0 113.5 39.5t44.5 110.5
t-44.5 110.5t-113.5 39.5t-113.5 -39.5t-44.5 -110.5t44.5 -110.5t113.5 -39.5z" />
    <glyph glyph-name="seven.dnom" horiz-adv-x="700" 
d="M80 780h541v-121l-347 -659h-141l334 633v29h-387v118z" />
    <glyph glyph-name="eight.dnom" horiz-adv-x="768" 
d="M385 682q-63 0 -103 -29t-40 -82q0 -52 39.5 -80t103.5 -28q63 0 102 28t39 80t-39.5 81.5t-101.5 29.5zM385 100q75 0 122.5 36t47.5 93q0 55 -47.5 90t-122.5 35q-78 0 -125 -34.5t-47 -90.5q0 -57 47 -93t125 -36zM199 399v27q-88 52 -88 154q0 97 75.5 156t198.5 59
t197.5 -59t74.5 -156q0 -55 -26 -94.5t-62 -59.5v-27q119 -58 119 -184q0 -100 -83 -164.5t-222 -64.5q-138 0 -220.5 64.5t-82.5 164.5q0 126 119 184z" />
    <glyph glyph-name="nine.dnom" horiz-adv-x="755" 
d="M352 260q-118 0 -195 73.5t-77 186.5q0 119 77.5 197t209.5 78q309 0 309 -383q0 -122 -32.5 -215.5t-106 -152t-181.5 -58.5q-102 0 -170 58t-86 151h133q28 -91 127 -91q78 0 126.5 56.5t58.5 161.5h-29q-62 -62 -164 -62zM371 674q-69 0 -113.5 -39.5t-44.5 -110.5
t44.5 -110t113.5 -39t113 39t44 110t-44 110.5t-113 39.5z" />
    <glyph glyph-name="zero.onum" horiz-adv-x="1243" 
d="M623 1059q226 0 372 -148.5t146 -394.5t-146 -394.5t-372 -148.5q-110 0 -205.5 38.5t-165.5 107.5t-110 171.5t-40 225.5t40 225.5t110 171.5t165.5 107.5t205.5 38.5zM623 129q162 0 252 105.5t90 281.5q0 177 -89.5 282t-252.5 105t-253.5 -105.5t-90.5 -281.5
q0 -175 90.5 -281t253.5 -106z" />
    <glyph glyph-name="one.onum" horiz-adv-x="942" 
d="M123 0v156h291v694h-39l-252 -164v184l252 162h215v-876h268v-156h-735z" />
    <glyph glyph-name="two.onum" horiz-adv-x="1120" 
d="M1022 156v-156h-918v197l400 192q80 39 128 67.5t90 65.5t60.5 80t18.5 98q0 93 -65.5 148t-186.5 55q-134 0 -205.5 -68.5t-71.5 -193.5h-174q0 179 120.5 298.5t332.5 119.5q104 0 187.5 -31t133.5 -82.5t76.5 -112.5t26.5 -126q0 -62 -18 -115t-47 -94t-76.5 -79
t-96.5 -67t-116 -61l-199 -94v-41h600z" />
    <glyph glyph-name="three.onum" horiz-adv-x="1163" 
d="M158 1032h839v-192l-352 -314v-39q183 -5 299.5 -119.5t116.5 -312.5q0 -219 -140 -345t-362 -126q-216 0 -354 121.5t-146 304.5h174q12 -122 102.5 -196t223.5 -74q148 0 238 84.5t90 230.5q0 143 -85.5 224t-242.5 81q-75 0 -121 -12v182l346 310v41h-626v151z" />
    <glyph glyph-name="four.onum" horiz-adv-x="1253" 
d="M963 156h198v-156h-198v-401h-175v401h-708v199l637 833h246v-876zM264 156h529v678h-41l-488 -637v-41z" />
    <glyph glyph-name="five.onum" horiz-adv-x="1218" 
d="M647 569q210 0 335.5 -135t125.5 -340q0 -231 -135.5 -370.5t-354.5 -139.5q-229 0 -356.5 118.5t-140.5 307.5h174q17 -132 100 -201t215 -69q144 0 234 94t90 252q0 148 -88 242t-230 94q-192 0 -286 -137h-176l63 747h817v-151h-676l-32 -412h41q112 100 280 100z" />
    <glyph glyph-name="six.onum" horiz-adv-x="1214" 
d="M664 932q198 0 327 -130.5t129 -334.5q0 -102 -33 -192t-93.5 -157t-152.5 -106t-204 -39q-118 0 -211 38.5t-164 120t-109 219.5t-38 327q0 133 20 249t62.5 215t105 169.5t152.5 110.5t200 40q177 0 289.5 -94.5t138.5 -247.5h-174q-54 187 -254 187
q-169 0 -265.5 -138t-104.5 -376h41q45 54 133 96.5t205 42.5zM635 129q138 0 224.5 86.5t86.5 243.5q0 154 -88 237.5t-227 83.5q-136 0 -225 -85t-89 -234q0 -154 90 -243t228 -89z" />
    <glyph glyph-name="seven.onum" horiz-adv-x="1122" 
d="M1014 838l-621 -1239h-184l618 1243v39h-727v151h914v-194z" />
    <glyph glyph-name="eight.onum" horiz-adv-x="1247" 
d="M913 776v-41q39 -13 77.5 -41.5t73 -71t56 -103t21.5 -128.5q0 -182 -141 -300t-375 -118t-375 118t-141 300q0 89 37.5 165t87 118.5t102.5 60.5v41q-69 29 -126.5 110.5t-57.5 192.5q0 170 132 276.5t341 106.5t341 -106.5t132 -276.5q0 -110 -58 -191.5t-127 -111.5z
M625 1311q-128 0 -214.5 -63.5t-86.5 -174.5t87 -176.5t214 -65.5t214 65.5t87 176.5t-86.5 174.5t-214.5 63.5zM625 129q158 0 250 73.5t92 198.5q0 127 -91.5 200t-250.5 73t-250.5 -73t-91.5 -200q0 -125 92 -198.5t250 -73.5z" />
    <glyph glyph-name="nine.onum" horiz-adv-x="1214" 
d="M547 100q-198 0 -327.5 130.5t-129.5 334.5q0 102 33 192t93.5 157t152.5 106t204 39q118 0 211 -38.5t164.5 -120t109.5 -219.5t38 -327q0 -167 -32.5 -305t-97 -243.5t-169.5 -164.5t-242 -59q-177 0 -289.5 94.5t-138.5 247.5h174q54 -186 254 -186q170 0 266.5 132.5
t104.5 369.5h-41q-45 -54 -133 -97t-205 -43zM575 903q-138 0 -224.5 -86.5t-86.5 -243.5q0 -154 88.5 -237.5t227.5 -83.5q135 0 224 85t89 234q0 154 -90 243t-228 89z" />
    <glyph glyph-name="zero.tnum" horiz-adv-x="1290" 
d="M645 1462q116 0 211 -44.5t167 -133.5t111.5 -233.5t39.5 -333.5t-39.5 -333t-111.5 -233t-167 -133.5t-211 -44.5t-210.5 44.5t-166 133.5t-110.5 233t-39 333t39 333.5t110.5 233.5t166 133.5t210.5 44.5zM299 717q0 -261 74 -406l454 930q-77 62 -182 62
q-117 0 -195 -73t-114.5 -202.5t-36.5 -310.5zM645 133q175 0 261.5 154.5t86.5 429.5q0 254 -73 403l-453 -930q72 -57 178 -57z" />
    <glyph glyph-name="one.tnum" horiz-adv-x="1290" 
d="M129 0v160h469v1085h-37l-334 -215v189l332 215h219v-1274h389v-160h-1038z" />
    <glyph glyph-name="two.tnum" horiz-adv-x="1290" 
d="M332 1038h-180q12 207 144.5 315.5t332.5 108.5q215 0 340 -116.5t125 -319.5q0 -68 -18.5 -131t-47 -114.5t-80 -109.5t-101 -103.5t-126.5 -110.5l-303 -256v-41h712v-160h-974v201l422 350q191 159 263 256.5t72 218.5q0 133 -77.5 205t-210.5 72q-125 0 -202.5 -66.5
t-90.5 -198.5z" />
    <glyph glyph-name="three.tnum" horiz-adv-x="1290" 
d="M219 1434h838v-197l-355 -315v-39q187 -5 304.5 -120.5t117.5 -316.5q0 -219 -141 -346t-365 -127q-215 0 -352 121t-149 307h180q12 -122 101 -195t220 -73q149 0 237.5 83.5t88.5 229.5q0 143 -83.5 224.5t-239.5 81.5q-71 0 -125 -13v187l346 311v41h-623v156z" />
    <glyph glyph-name="four.tnum" horiz-adv-x="1290" 
d="M991 496h197v-160h-197v-336h-176v336h-709v201l637 897h248v-938zM293 496h524v723h-41l-483 -682v-41z" />
    <glyph glyph-name="five.tnum" horiz-adv-x="1290" 
d="M684 965q141 0 247.5 -65t161 -173t54.5 -242q0 -232 -136 -372t-356 -140q-228 0 -357 119t-142 309h178q17 -132 98.5 -200t214.5 -68q144 0 232 93t88 251q0 149 -85.5 242.5t-228.5 93.5q-193 0 -284 -135h-181l64 756h819v-156h-674l-32 -416h41q55 50 120 76.5
t158 26.5z" />
    <glyph glyph-name="six.tnum" horiz-adv-x="1290" 
d="M694 934q198 0 329.5 -132t131.5 -335q0 -102 -33.5 -192t-95 -157t-154 -106t-204.5 -39q-94 0 -172 23.5t-145 76.5t-112.5 133.5t-71.5 200t-26 271.5q0 133 20.5 249t64 215t106.5 169.5t153.5 110.5t200.5 40q178 0 291 -94.5t139 -247.5h-178q-27 92 -88 137.5
t-164 45.5q-170 0 -266.5 -136t-104.5 -374h41q47 56 133.5 98.5t204.5 42.5zM666 133q136 0 222.5 85.5t86.5 240.5q0 153 -88 235t-225 82q-135 0 -223.5 -83.5t-88.5 -231.5q0 -152 90 -240t226 -88z" />
    <glyph glyph-name="seven.tnum" horiz-adv-x="1290" 
d="M1090 1237l-621 -1237h-188l622 1237v41h-727v156h914v-197z" />
    <glyph glyph-name="eight.tnum" horiz-adv-x="1290" 
d="M938 776v-41q38 -13 75.5 -41t72 -70t56 -103t21.5 -130q0 -181 -142.5 -299.5t-375.5 -118.5t-375.5 118.5t-142.5 299.5q0 130 70.5 222.5t154.5 121.5v41q-68 30 -125 110.5t-57 192.5q0 170 132.5 276.5t342.5 106.5t342.5 -106.5t132.5 -276.5q0 -111 -57 -191
t-125 -112zM645 1307q-129 0 -214 -62.5t-85 -173.5t85 -174t214 -63t214 63t85 174t-85 173.5t-214 62.5zM645 133q157 0 248.5 75t91.5 200q0 127 -90.5 198.5t-249.5 71.5t-249.5 -71.5t-90.5 -198.5q0 -125 91.5 -200t248.5 -75z" />
    <glyph glyph-name="nine.tnum" horiz-adv-x="1290" 
d="M596 502q-198 0 -329.5 132t-131.5 335q0 137 57.5 248t170 178t260.5 67q94 0 172 -23.5t144.5 -76t112.5 -133.5t71.5 -200t25.5 -271q0 -133 -20.5 -249.5t-64 -215t-106.5 -169.5t-153.5 -111t-200.5 -40q-178 0 -291 94.5t-139 247.5h178q27 -92 88 -137t164 -45
q170 0 266.5 136t104.5 374h-41q-47 -56 -133.5 -98.5t-204.5 -42.5zM625 1303q-136 0 -223 -85.5t-87 -240.5q0 -153 88.5 -235.5t225.5 -82.5q135 0 223 83.5t88 232.5q0 152 -90 240t-225 88z" />
    <glyph glyph-name="dollar.tnum" horiz-adv-x="1290" 
d="M582 1634h123v-174q184 -17 294 -119t131 -266h-174q-24 101 -83 156t-168 67v-483l102 -20q82 -18 144 -46.5t112.5 -74t77 -114.5t26.5 -159q0 -79 -29 -152t-84.5 -132.5t-145.5 -97.5t-203 -44v-176h-123v178q-201 20 -321 134t-138 290h176q33 -222 283 -262v525
l-45 8q-164 26 -263.5 123.5t-99.5 261.5q0 160 107 270.5t301 130.5v176zM758 635l-53 8v-508q125 8 205.5 81t80.5 181q0 101 -62.5 160.5t-170.5 77.5zM582 838v458q-107 -18 -171.5 -78t-64.5 -155t67 -151.5t169 -73.5z" />
    <glyph glyph-name="Euro.tnum" horiz-adv-x="1290" 
d="M791 653l-39 -116h-377q26 -198 117.5 -301t240.5 -103q128 0 204 72.5t97 204.5h178q-31 -207 -155 -322t-324 -115q-219 0 -359.5 143t-176.5 421h-150l39 116h100q-4 99 2 150h-141l39 117h115q40 264 181.5 403t350.5 139q195 0 313 -106.5t154 -304.5h-180
q-44 252 -287 252q-141 0 -233 -99t-121 -284h504l-39 -117h-479q-10 -80 0 -150h426z" />
    <glyph glyph-name="sterling.tnum" horiz-adv-x="1290" 
d="M408 160h782v-160h-1092v158h39q74 0 108 47t34 141v238h-181v151h181v285q0 209 114.5 325.5t313.5 116.5q192 0 300.5 -108t114.5 -303h-178q-5 121 -59.5 186.5t-175.5 65.5q-127 0 -188.5 -77t-61.5 -204v-287h440v-151h-440v-219q0 -61 -9 -96t-42 -68v-41z" />
    <glyph glyph-name="yen.tnum" horiz-adv-x="1290" 
d="M238 618v117h194l-360 699h188l354 -699h58l356 699h189l-361 -699h193v-117h-254l-62 -118v-31h316v-117h-316v-352h-180v352h-315v117h315v31l-61 118h-254z" />
    <glyph glyph-name="uni20BD.tnum" horiz-adv-x="1290" 
d="M88 590v158h176v686h486q227 0 350 -110.5t123 -309.5q0 -200 -123 -312t-350 -112h-306v-150h455v-116h-455v-324h-180v324h-176v116h176v150h-176zM444 748h279q169 0 244 70t75 200q0 126 -74 192t-245 66h-279v-528z" />
    <glyph glyph-name="uni20B4.tnum" horiz-adv-x="1290" 
d="M90 651h1110v-116h-811q-31 -60 -31 -136q0 -121 83 -193.5t214 -72.5q127 0 210 59t112 179h180q-32 -183 -161.5 -290.5t-338.5 -107.5q-111 0 -202.5 34t-151 92.5t-91.5 134.5t-32 161q0 73 25 140h-115v116zM90 918h793q53 53 53 147q0 108 -70 173t-186 65
q-123 0 -190 -52.5t-93 -154.5h-178q25 164 149 265t310 101q99 0 182.5 -32.5t138 -87.5t85 -126t30.5 -149q0 -84 -35 -149h121v-117h-1110v117z" />
    <glyph glyph-name="uni20B8.tnum" horiz-adv-x="1290" 
d="M143 1051v116h1002v-116h-412v-1051h-178v1051h-412zM143 1317v117h1002v-117h-1002z" />
    <glyph glyph-name="cent.tnum" horiz-adv-x="1290" 
d="M596 -164v141q-135 16 -233 90.5t-147.5 190t-49.5 258.5t49.5 258.5t147.5 190t233 90.5v141h125v-139q156 -13 253 -100t122 -224h-174q-52 151 -201 170v-776q167 23 207 184h174q-26 -142 -125 -230.5t-256 -105.5v-139h-125zM340 520q0 -96 25.5 -175.5t85 -138.5
t145.5 -75v770q-129 -23 -192.5 -128t-63.5 -253z" />
    <glyph glyph-name="circumflex.cap" horiz-adv-x="774" 
d="M481 1835l219 -264h-172l-125 145h-36l-125 -145h-168l219 264h188z" />
    <glyph glyph-name="dieresis.cap" horiz-adv-x="706" 
d="M262 1630h-188v205h188v-205zM633 1630h-189v205h189v-205z" />
    <glyph glyph-name="acute.cap" horiz-adv-x="544" 
d="M465 1835l-223 -264h-160l174 264h209z" />
    <glyph glyph-name="grave.cap" horiz-adv-x="544" 
d="M303 1571l-221 264h207l176 -264h-162z" />
    <glyph glyph-name="ring.cap" horiz-adv-x="610" 
d="M305 1980q92 0 157.5 -64.5t65.5 -156.5q0 -91 -65.5 -156t-157.5 -65t-157.5 65t-65.5 156q0 92 65.5 156.5t157.5 64.5zM305 1647q47 0 80 32.5t33 79.5t-33 80t-80 33t-79.5 -33t-32.5 -80t32.5 -79.5t79.5 -32.5z" />
    <glyph glyph-name="caron.cap" horiz-adv-x="774" 
d="M293 1571l-219 264h172l125 -145h37l124 145h168l-219 -264h-188z" />
    <glyph glyph-name="dotaccent.cap" horiz-adv-x="348" 
d="M274 1630h-200v205h200v-205z" />
    <glyph glyph-name="breve.cap" horiz-adv-x="731" 
d="M520 1835h131q0 -128 -75 -197t-211 -69q-134 0 -209 69t-76 197h131q0 -67 40 -105t114 -38q76 0 115.5 38t39.5 105z" />
    <glyph glyph-name="hungarumlaut.cap" horiz-adv-x="833" 
d="M430 1835l-203 -264h-151l157 264h197zM762 1835l-205 -264h-149l157 264h197z" />
    <glyph glyph-name="tilde.cap" horiz-adv-x="835" 
d="M567 1704q78 0 78 137h111q0 -276 -191 -276q-52 0 -90.5 18.5t-83.5 54.5q-5 4 -23 18t-25 18.5t-21.5 13t-27 11.5t-26.5 3q-78 0 -78 -137h-110q0 276 190 276q37 0 73.5 -14t55.5 -26.5t54 -39.5q37 -30 61.5 -43.5t52.5 -13.5z" />
    <glyph glyph-name="macron.cap" horiz-adv-x="741" 
d="M659 1657h-577v131h577v-131z" />
    <glyph glyph-name="cyrbreve" horiz-adv-x="862" 
d="M608 1483h142q-4 -142 -88 -220.5t-232 -78.5q-146 0 -229.5 78.5t-87.5 220.5h141q2 -81 45 -127.5t131 -46.5q168 0 178 174z" />
    <glyph glyph-name="cyrbreve.cap" horiz-adv-x="876" 
d="M645 1851h150q-4 -150 -102.5 -233.5t-256.5 -83.5q-153 0 -251.5 84t-102.5 233h149q1 -85 57 -134.5t148 -49.5q93 0 150.5 49.5t58.5 134.5z" />
    <glyph glyph-name="hyphen.case" horiz-adv-x="755" 
d="M659 666h-559v153h559v-153z" />
    <glyph glyph-name="endash.case" horiz-adv-x="1263" 
d="M1163 668h-1065v147h1065v-147z" />
    <glyph glyph-name="emdash.case" horiz-adv-x="1796" 
d="M1696 668h-1598v147h1598v-147z" />
    <glyph glyph-name="emdash.ss02.case" horiz-adv-x="2959" 
d="M2859 668h-2761v147h2761v-147z" />
    <glyph glyph-name="bracketleft.case" horiz-adv-x="663" 
d="M545 -190h-387v1843h387v-140h-223v-1564h223v-139z" />
    <glyph glyph-name="bracketright.case" horiz-adv-x="663" 
d="M506 -190h-387v139h223v1564h-223v140h387v-1843z" />
    <glyph glyph-name="braceleft.case" horiz-adv-x="798" 
d="M356 752v-41q113 -38 113 -215v-344q0 -107 46 -155t136 -48h68v-139h-80q-151 0 -242.5 84.5t-91.5 240.5v328q0 101 -27.5 148.5t-101.5 47.5h-29v144h29q74 0 101.5 47.5t27.5 148.5v328q0 156 91.5 241t242.5 85h80v-140h-68q-90 0 -136 -47.5t-46 -154.5v-344
q0 -177 -113 -215z" />
    <glyph glyph-name="braceright.case" horiz-adv-x="798" 
d="M442 711v41q-112 38 -112 215v344q0 107 -46.5 154.5t-136.5 47.5h-67v140h80q151 0 242.5 -85t91.5 -241v-328q0 -101 27.5 -148.5t101.5 -47.5h28v-144h-28q-74 0 -101.5 -47.5t-27.5 -148.5v-328q0 -156 -91.5 -240.5t-242.5 -84.5h-80v139h67q90 0 136.5 48t46.5 155
v344q0 177 112 215z" />
    <glyph glyph-name="parenleft.case" horiz-adv-x="602" 
d="M262 737q0 -148 27 -284.5t76.5 -252.5t103 -206.5t123.5 -183.5h-168q-147 174 -236.5 407t-89.5 520q0 520 312 916h168q-68 -92 -119.5 -182.5t-98.5 -204.5t-72.5 -248.5t-25.5 -280.5z" />
    <glyph glyph-name="parenright.case" horiz-adv-x="602" 
d="M340 737q0 146 -25 280.5t-72 248.5t-98.5 204.5t-119.5 182.5h168q311 -394 311 -916q0 -287 -89.5 -520t-236.5 -407h-168q70 93 123.5 183.5t103 206.5t76.5 252.5t27 284.5z" />
    <glyph glyph-name="guillemotright.case" horiz-adv-x="1155" 
d="M451 696v41l-332 355h192l297 -312v-129l-297 -309h-192zM877 696v41l-332 355h192l299 -312v-129l-299 -309h-192z" />
    <glyph glyph-name="guillemotleft.case" horiz-adv-x="1155" 
d="M276 737v-41l332 -354h-192l-297 309v129l297 312h192zM705 737v-41l331 -354h-192l-299 309v129l299 312h192z" />
    <glyph glyph-name="guilsinglright.case" horiz-adv-x="727" 
d="M451 696v41l-332 355h192l297 -312v-129l-297 -309h-192z" />
    <glyph glyph-name="guilsinglleft.case" horiz-adv-x="727" 
d="M276 737v-41l332 -354h-192l-297 309v129l297 312h192z" />
    <glyph glyph-name="exclamdown.case" horiz-adv-x="643" 
d="M414 0h-185v604l35 471h117l33 -471v-604zM215 1462h213v-237h-213v237z" />
    <glyph glyph-name="questiondown.case" horiz-adv-x="1120" 
d="M573 -27q-200 0 -320 108t-120 288q0 60 13.5 110.5t31.5 85t56 73.5t66 61.5t83 64.5q46 35 64 51t38 44t25.5 60t5.5 82v74h176v-74q0 -67 -10.5 -115t-37 -88.5t-59 -71t-89.5 -73.5q-99 -70 -143 -129.5t-44 -154.5q0 -100 70.5 -172t191.5 -72q131 0 201.5 65
t77.5 207h176q-7 -198 -128 -311t-325 -113zM498 1462h213v-237h-213v237z" />
    <glyph glyph-name="a.ss03" horiz-adv-x="1259" 
d="M1092 1032v-1032h-168v113h-41q-111 -140 -320 -140q-140 0 -245.5 72.5t-159.5 195t-54 275.5t54 275.5t159.5 195t245.5 72.5q210 0 320 -139h41v112h168zM920 516q0 62 -11.5 118.5t-37 106.5t-62.5 86.5t-91.5 58t-121.5 21.5q-151 0 -234 -107t-83 -284t83 -284
t234 -107q67 0 121.5 21.5t91.5 58t62.5 86.5t37 106.5t11.5 118.5z" />
    <glyph glyph-name="aacute.ss03" horiz-adv-x="1259" 
d="M1092 1032v-1032h-168v113h-41q-111 -140 -320 -140q-140 0 -245.5 72.5t-159.5 195t-54 275.5t54 275.5t159.5 195t245.5 72.5q210 0 320 -139h41v112h168zM920 516q0 62 -11.5 118.5t-37 106.5t-62.5 86.5t-91.5 58t-121.5 21.5q-151 0 -234 -107t-83 -284t83 -284
t234 -107q67 0 121.5 21.5t91.5 58t62.5 86.5t37 106.5t11.5 118.5zM893 1489l-223 -297h-158l176 297h205z" />
    <glyph glyph-name="agrave.ss03" horiz-adv-x="1259" 
d="M1092 1032v-1032h-168v113h-41q-111 -140 -320 -140q-140 0 -245.5 72.5t-159.5 195t-54 275.5t54 275.5t159.5 195t245.5 72.5q210 0 320 -139h41v112h168zM920 516q0 62 -11.5 118.5t-37 106.5t-62.5 86.5t-91.5 58t-121.5 21.5q-151 0 -234 -107t-83 -284t83 -284
t234 -107q67 0 121.5 21.5t91.5 58t62.5 86.5t37 106.5t11.5 118.5zM557 1192l-221 297h205l176 -297h-160z" />
    <glyph glyph-name="acircumflex.ss03" horiz-adv-x="1259" 
d="M1092 1032v-1032h-168v113h-41q-111 -140 -320 -140q-140 0 -245.5 72.5t-159.5 195t-54 275.5t54 275.5t159.5 195t245.5 72.5q210 0 320 -139h41v112h168zM920 516q0 62 -11.5 118.5t-37 106.5t-62.5 86.5t-91.5 58t-121.5 21.5q-151 0 -234 -107t-83 -284t83 -284
t234 -107q67 0 121.5 21.5t91.5 58t62.5 86.5t37 106.5t11.5 118.5zM709 1489l219 -297h-164l-133 176h-37l-131 -176h-162l221 297h187z" />
    <glyph glyph-name="adieresis.ss03" horiz-adv-x="1259" 
d="M1092 1032v-1032h-168v113h-41q-111 -140 -320 -140q-140 0 -245.5 72.5t-159.5 195t-54 275.5t54 275.5t159.5 195t245.5 72.5q210 0 320 -139h41v112h168zM920 516q0 62 -11.5 118.5t-37 106.5t-62.5 86.5t-91.5 58t-121.5 21.5q-151 0 -234 -107t-83 -284t83 -284
t234 -107q67 0 121.5 21.5t91.5 58t62.5 86.5t37 106.5t11.5 118.5zM520 1284h-188v205h188v-205zM891 1284h-189v205h189v-205z" />
    <glyph glyph-name="atilde.ss03" horiz-adv-x="1259" 
d="M1092 1032v-1032h-168v113h-41q-111 -140 -320 -140q-140 0 -245.5 72.5t-159.5 195t-54 275.5t54 275.5t159.5 195t245.5 72.5q210 0 320 -139h41v112h168zM920 516q0 62 -11.5 118.5t-37 106.5t-62.5 86.5t-91.5 58t-121.5 21.5q-151 0 -234 -107t-83 -284t83 -284
t234 -107q67 0 121.5 21.5t91.5 58t62.5 86.5t37 106.5t11.5 118.5zM760 1341q78 0 78 138h110q0 -277 -190 -277q-36 0 -69 11.5t-54 25t-51 37.5q-5 4 -19.5 15t-20.5 15.5t-18 12.5t-20.5 11t-20.5 6t-24 3q-78 0 -78 -137h-111q0 277 191 277q37 0 73.5 -14t54.5 -26
t54 -40q37 -30 62 -44t53 -14z" />
    <glyph glyph-name="aring.ss03" horiz-adv-x="1259" 
d="M1092 1032v-1032h-168v113h-41q-111 -140 -320 -140q-140 0 -245.5 72.5t-159.5 195t-54 275.5t54 275.5t159.5 195t245.5 72.5q210 0 320 -139h41v112h168zM920 516q0 62 -11.5 118.5t-37 106.5t-62.5 86.5t-91.5 58t-121.5 21.5q-151 0 -234 -107t-83 -284t83 -284
t234 -107q67 0 121.5 21.5t91.5 58t62.5 86.5t37 106.5t11.5 118.5zM377 1407q0 92 65.5 156.5t157.5 64.5t157.5 -64.5t65.5 -156.5t-65.5 -156.5t-157.5 -64.5t-157.5 64.5t-65.5 156.5zM487 1407q0 -47 33 -80t80 -33t80 33t33 80t-33 80t-80 33t-80 -33t-33 -80z" />
    <glyph glyph-name="amacron.ss03" horiz-adv-x="1259" 
d="M1092 1032v-1032h-168v113h-41q-111 -140 -320 -140q-140 0 -245.5 72.5t-159.5 195t-54 275.5t54 275.5t159.5 195t245.5 72.5q210 0 320 -139h41v112h168zM920 516q0 62 -11.5 118.5t-37 106.5t-62.5 86.5t-91.5 58t-121.5 21.5q-151 0 -234 -107t-83 -284t83 -284
t234 -107q67 0 121.5 21.5t91.5 58t62.5 86.5t37 106.5t11.5 118.5zM911 1268h-577v131h577v-131z" />
    <glyph glyph-name="abreve.ss03" horiz-adv-x="1259" 
d="M1092 1032v-1032h-168v113h-41q-111 -140 -320 -140q-140 0 -245.5 72.5t-159.5 195t-54 275.5t54 275.5t159.5 195t245.5 72.5q210 0 320 -139h41v112h168zM920 516q0 62 -11.5 118.5t-37 106.5t-62.5 86.5t-91.5 58t-121.5 21.5q-151 0 -234 -107t-83 -284t83 -284
t234 -107q67 0 121.5 21.5t91.5 58t62.5 86.5t37 106.5t11.5 118.5zM764 1489h135q0 -141 -74.5 -219t-208.5 -78q-135 0 -209.5 78t-74.5 219h133q0 -80 38 -126t111 -46t111.5 46t38.5 126z" />
    <glyph glyph-name="aogonek.ss03" horiz-adv-x="1259" 
d="M1092 1032v-1032q-63 -33 -105.5 -82.5t-42.5 -101.5q0 -51 40 -79t112 -28v-119h-43q-119 0 -186.5 51t-67.5 144q0 61 35 120t90 95v113h-41q-111 -140 -320 -140q-140 0 -245.5 72.5t-159.5 195t-54 275.5t54 275.5t159.5 195t245.5 72.5q210 0 320 -139h41v112h168z
M920 516q0 62 -11.5 118.5t-37 106.5t-62.5 86.5t-91.5 58t-121.5 21.5q-151 0 -234 -107t-83 -284t83 -284t234 -107q67 0 121.5 21.5t91.5 58t62.5 86.5t37 106.5t11.5 118.5z" />
    <glyph glyph-name="t.ss04" horiz-adv-x="774" 
d="M438 0h-174v881h-209v151h209v311h174v-311h279v-151h-279v-881z" />
    <glyph glyph-name="tcaron.ss04" horiz-adv-x="886" 
d="M438 0h-174v881h-209v151h209v311h174v-311h279v-151h-279v-881zM807 1321h-94v205h209v-240l-109 -151h-115l109 151v35z" />
    <glyph glyph-name="uni0163.ss04" horiz-adv-x="774" 
d="M438 0h-174v881h-209v151h209v311h174v-311h279v-151h-279v-881zM344 -451h-117l113 127v35h-90v170h205v-205z" />
    <glyph glyph-name="Y.ss05" horiz-adv-x="1304" 
d="M641 694h57l367 768h192l-698 -1462h-190l209 438l-541 1024h199z" />
    <glyph glyph-name="Yacute.ss05" horiz-adv-x="1304" 
d="M641 694h57l367 768h192l-698 -1462h-190l209 438l-541 1024h199zM928 1835l-223 -264h-160l174 264h209z" />
    <glyph glyph-name="Ydieresis.ss05" horiz-adv-x="1304" 
d="M641 694h57l367 768h192l-698 -1462h-190l209 438l-541 1024h199zM575 1630h-188v205h188v-205zM946 1630h-188v205h188v-205z" />
    <glyph glyph-name="ampersand.ss06" horiz-adv-x="1343" 
d="M1270 848v-156h-144v-252q0 -213 -142 -340t-370 -127t-373 122.5t-145 310.5q0 143 68.5 230.5t167.5 121.5v41q-79 32 -129.5 105.5t-50.5 187.5q0 113 60 198.5t159 128.5t221 43q188 0 301 -86.5t137 -242.5h-176q-46 174 -264 174q-121 0 -191.5 -61.5t-70.5 -160.5
q0 -109 71.5 -173t208.5 -64h88v-156h-88q-155 0 -244.5 -69.5t-89.5 -210.5q0 -129 95 -205t245 -76q165 0 250.5 80.5t85.5 228.5v408h320z" />
    <glyph glyph-name="zero.ss07" horiz-adv-x="1280" 
d="M641 1462q116 0 211 -44.5t166.5 -133.5t111 -233.5t39.5 -333.5t-39.5 -333t-111 -233t-166.5 -133.5t-211 -44.5t-210.5 44.5t-166 133.5t-110.5 233t-39 333t39 333.5t110.5 233.5t166 133.5t210.5 44.5zM295 717q0 -261 74 -406l454 930q-77 62 -182 62
q-117 0 -195 -73t-114.5 -202.5t-36.5 -310.5zM641 133q175 0 261.5 154.5t86.5 429.5q0 252 -74 403l-452 -930q72 -57 178 -57z" />
    <glyph glyph-name="emdash.ss02" horiz-adv-x="2959" 
d="M2859 494h-2761v147h2761v-147z" />
    <glyph glyph-name="uni0430.ss03" horiz-adv-x="1259" 
d="M1092 1032v-1032h-168v113h-41q-111 -140 -320 -140q-140 0 -245.5 72.5t-159.5 195t-54 275.5t54 275.5t159.5 195t245.5 72.5q210 0 320 -139h41v112h168zM920 516q0 62 -11.5 118.5t-37 106.5t-62.5 86.5t-91.5 58t-121.5 21.5q-151 0 -234 -107t-83 -284t83 -284
t234 -107q67 0 121.5 21.5t91.5 58t62.5 86.5t37 106.5t11.5 118.5z" />
    <glyph glyph-name="uni0423.ss08" horiz-adv-x="1310" 
d="M250 0v178h55q83 0 133.5 31.5t91.5 118.5l56 112l-539 1022h195l407 -768h58l366 768h191l-539 -1134q-59 -122 -113 -190t-127.5 -103t-177.5 -35h-57z" />
    <glyph glyph-name="uni040E.ss08" horiz-adv-x="1310" 
d="M250 0v178h55q83 0 133.5 31.5t91.5 118.5l56 112l-539 1022h195l407 -768h58l366 768h191l-539 -1134q-59 -122 -113 -190t-127.5 -103t-177.5 -35h-57zM877 1851h149q-4 -150 -102 -233.5t-256 -83.5q-153 0 -252 84t-103 233h150q1 -85 57 -134.5t148 -49.5
q93 0 150.5 49.5t58.5 134.5z" />
    <glyph glyph-name="quotedbl.ss01" horiz-adv-x="649" 
d="M164 969v493h69v-493h-69zM416 969v493h69v-493h-69z" />
    <glyph glyph-name="numbersign.ss01" horiz-adv-x="1136" 
d="M606 0l74 426h-326l-73 -426h-70l74 426h-213v63h227l76 455h-209v64h221l76 426h69l-77 -426h329l76 426h70l-76 -426h211v-64h-223l-78 -455h209v-63h-221l-74 -426h-72zM444 944l-77 -455h327l78 455h-328z" />
    <glyph glyph-name="quotesingle.ss01" horiz-adv-x="397" 
d="M164 969v493h69v-493h-69z" />
    <glyph glyph-name="parenleft.ss01" horiz-adv-x="487" 
d="M389 1554h86q-303 -385 -303 -921q0 -537 303 -922h-88q-285 387 -285 922q0 531 287 921z" />
    <glyph glyph-name="parenright.ss01" horiz-adv-x="491" 
d="M12 1554h86q287 -390 287 -921q0 -535 -285 -922h-88q303 385 303 922q0 536 -303 921z" />
    <glyph glyph-name="bracketleft.ss01" horiz-adv-x="528" 
d="M406 -289h-242v1843h242v-63h-173v-1716h173v-64z" />
    <glyph glyph-name="bracketright.ss01" horiz-adv-x="528" 
d="M365 -289h-242v64h172v1716h-172v63h242v-1843z" />
    <glyph glyph-name="braceleft.ss01" horiz-adv-x="690" 
d="M281 651v-37q37 -14 55 -56t18 -130v-440q0 -112 44.5 -162.5t148.5 -50.5h61v-64h-61q-129 0 -195.5 65t-66.5 214v418q0 104 -18 149t-77 45h-26v62h26q59 0 77 45t18 149v418q0 149 66.5 213.5t195.5 64.5h61v-63h-61q-104 0 -148.5 -50.5t-44.5 -162.5v-440
q0 -88 -18 -130.5t-55 -56.5z" />
    <glyph glyph-name="braceright.ss01" horiz-adv-x="690" 
d="M410 614v37q-37 14 -55.5 56.5t-18.5 130.5v440q0 112 -44.5 162.5t-148.5 50.5h-61v63h61q129 0 196 -64.5t67 -213.5v-418q0 -52 3 -84t12.5 -59t28.5 -39t50 -12h26v-62h-26q-31 0 -50 -12t-28.5 -39t-12.5 -59t-3 -84v-418q0 -149 -67 -214t-196 -65h-61v64h61
q104 0 148.5 50.5t44.5 162.5v440q0 88 18.5 130t55.5 56z" />
    <glyph glyph-name="asterisk.ss01" horiz-adv-x="925" 
d="M428 1462h70l-2 -368l348 123l20 -72l-348 -113l219 -289l-57 -47l-215 301l-215 -301l-58 47l222 291l-351 111l23 72l346 -123z" />
    <glyph glyph-name="plus.ss01" horiz-adv-x="1396" 
d="M666 614v488h67v-488h486v-63h-486v-488h-67v488h-488v63h488z" />
    <glyph glyph-name="minus.ss01" horiz-adv-x="1396" 
d="M1219 551h-1041v63h1041v-63z" />
    <glyph glyph-name="less.ss01" horiz-adv-x="1388" 
d="M1210 160v-68l-1032 443v90l1032 442v-68l-929 -401v-37z" />
    <glyph glyph-name="equal.ss01" horiz-adv-x="1392" 
d="M1214 416v-64h-1036v64h1036zM1214 809v-64h-1036v64h1036z" />
    <glyph glyph-name="greater.ss01" horiz-adv-x="1388" 
d="M178 92v68l930 401v37l-930 401v68l1032 -442v-90z" />
    <glyph glyph-name="hyphen.ss01" horiz-adv-x="759" 
d="M659 537h-559v63h559v-63z" />
    <glyph glyph-name="endash.ss01" horiz-adv-x="1263" 
d="M1163 537h-1065v63h1065v-63z" />
    <glyph glyph-name="emdash.ss01" horiz-adv-x="1796" 
d="M1696 537h-1598v63h1598v-63z" />
    <glyph glyph-name="emdash.ss01.ss02" horiz-adv-x="2959" 
d="M2859 537h-2761v63h2761v-63z" />
    <glyph glyph-name="underscore.ss01" horiz-adv-x="1034" 
d="M1036 -240h-1038v64h1038v-64z" />
    <glyph glyph-name="slash.ss01" horiz-adv-x="747" 
d="M74 -289h-74l618 1843h68z" />
    <glyph glyph-name="bar.ss01" horiz-adv-x="438" 
d="M184 -289v1843h70v-1843h-70z" />
    <glyph glyph-name="backslash.ss01" horiz-adv-x="747" 
d="M748 -289h-74l-613 1843h68z" />
    <glyph glyph-name="degree.ss01" horiz-adv-x="944" 
d="M82 1071q0 174 111.5 290t277.5 116t278.5 -116t112.5 -290q0 -173 -112.5 -288t-278.5 -115t-277.5 115t-111.5 288zM152 1071q0 -146 90 -243t229 -97q140 0 231 97t91 243q0 148 -90.5 245t-231.5 97q-139 0 -229 -97t-90 -245z" />
    <glyph glyph-name="guillemotleft.ss01" horiz-adv-x="991" 
d="M193 600v-37l339 -356h-86l-327 334v80l325 335h86zM532 600v-37l340 -356h-86l-327 334v80l325 335h86z" />
    <glyph glyph-name="guillemotright.ss01" horiz-adv-x="991" 
d="M799 563v37l-340 356h86l327 -333v-80l-325 -336h-86zM459 563v37l-340 356h86l327 -333v-80l-325 -336h-86z" />
    <glyph glyph-name="guilsinglleft.ss01" horiz-adv-x="651" 
d="M193 600v-37l339 -356h-86l-327 334v80l325 335h86z" />
    <glyph glyph-name="guilsinglright.ss01" horiz-adv-x="651" 
d="M459 563v37l-338 356h86l325 -335v-80l-327 -334h-86z" />
    <glyph glyph-name="quoteleft.ss01" horiz-adv-x="479" 
d="M217 1249h68v-209h-131v244l98 178h63l-98 -178v-35z" />
    <glyph glyph-name="quoteright.ss01" horiz-adv-x="479" 
d="M252 1253h-68v209h131v-243l-98 -179h-63l98 179v34z" />
    <glyph glyph-name="quotesinglbase.ss01" horiz-adv-x="479" 
d="M252 0h-68v209h131v-244l-98 -178h-63l98 178v35z" />
    <glyph glyph-name="quotedblleft.ss01" horiz-adv-x="759" 
d="M498 1249h67v-209h-131v244l98 178h64l-98 -178v-35zM217 1249h68v-209h-131v244l98 178h63l-98 -178v-35z" />
    <glyph glyph-name="quotedblright.ss01" horiz-adv-x="759" 
d="M252 1253h-68v209h131v-243l-98 -179h-63l98 179v34zM532 1253h-67v209h131v-243l-98 -179h-64l98 179v34z" />
    <glyph glyph-name="quotedblbase.ss01" horiz-adv-x="759" 
d="M252 0h-68v209h131v-244l-98 -178h-63l98 178v35zM532 0h-67v209h131v-244l-98 -178h-64l98 178v35z" />
    <glyph glyph-name="arrowleft.ss01" horiz-adv-x="1675" 
d="M608 1032h94l-438 -442v-41h1292v-64h-1292v-43l438 -442h-94l-514 516z" />
    <glyph glyph-name="arrowup.ss01" horiz-adv-x="1388" 
d="M1210 948v-94l-442 442h-39v-1296h-70v1296h-38l-443 -442v94l516 514z" />
    <glyph glyph-name="arrowright.ss01" horiz-adv-x="1675" 
d="M973 1032h94l514 -516l-514 -516h-94l438 442v43h-1292v64h1292v41z" />
    <glyph glyph-name="arrowdown.ss01" horiz-adv-x="1388" 
d="M1210 608v-94l-516 -514l-516 514v94l443 -442h38v1296h70v-1296h39z" />
    <glyph glyph-name="uni2196.ss01" horiz-adv-x="1413" 
d="M905 1462l66 -65h-621l-26 -29l911 -915l-47 -47l-916 913l-26 -29v-622l-68 67v727h727z" />
    <glyph glyph-name="uni2197.ss01" horiz-adv-x="1413" 
d="M442 1397l66 65h727v-727l-68 -67v622l-26 29l-916 -913l-47 47l912 915l-27 29h-621z" />
    <glyph glyph-name="uni2198.ss01" horiz-adv-x="1413" 
d="M971 66l-66 -66h-727v727l68 68v-623l26 -29l916 914l47 -47l-911 -916l26 -28h621z" />
    <glyph glyph-name="uni2199.ss01" horiz-adv-x="1413" 
d="M508 0l-66 66h621l27 28l-912 916l47 47l916 -914l26 29v623l68 -68v-727h-727z" />
    <glyph glyph-name="parenleft.ss01.case" horiz-adv-x="487" 
d="M389 1653h86q-303 -385 -303 -922q0 -536 303 -921h-88q-285 387 -285 921q0 532 287 922z" />
    <glyph glyph-name="parenright.ss01.case" horiz-adv-x="487" 
d="M12 1653h86q287 -390 287 -922q0 -534 -285 -921h-88q303 385 303 921q0 537 -303 922z" />
    <glyph glyph-name="bracketleft.ss01.case" horiz-adv-x="528" 
d="M406 -190h-242v1843h242v-64h-173v-1716h173v-63z" />
    <glyph glyph-name="bracketright.ss01.case" horiz-adv-x="528" 
d="M365 -190h-242v63h172v1716h-172v64h242v-1843z" />
    <glyph glyph-name="braceleft.ss01.case" horiz-adv-x="690" 
d="M281 750v-37q37 -14 55 -56.5t18 -130.5v-440q0 -112 44.5 -162.5t148.5 -50.5h61v-63h-61q-129 0 -195.5 64.5t-66.5 213.5v418q0 104 -18 149t-77 45h-26v62h26q59 0 77 45t18 149v418q0 149 66.5 214t195.5 65h61v-64h-61q-104 0 -148.5 -50.5t-44.5 -162.5v-440
q0 -88 -18 -130t-55 -56z" />
    <glyph glyph-name="braceright.ss01.case" horiz-adv-x="690" 
d="M410 713v37q-37 14 -55.5 56t-18.5 130v440q0 112 -44.5 162.5t-148.5 50.5h-61v64h61q129 0 196 -65t67 -214v-418q0 -52 3 -84t12.5 -59t28.5 -39t50 -12h26v-62h-26q-31 0 -50 -12t-28.5 -39t-12.5 -59t-3 -84v-418q0 -149 -67 -213.5t-196 -64.5h-61v63h61
q104 0 148.5 50.5t44.5 162.5v440q0 88 18.5 130.5t55.5 56.5z" />
    <glyph glyph-name="guillemotleft.ss01.case" horiz-adv-x="991" 
d="M193 735v-37l339 -356h-86l-327 334v80l325 336h86zM532 735v-37l340 -356h-86l-327 334v80l325 336h86z" />
    <glyph glyph-name="guillemotright.ss01.case" horiz-adv-x="991" 
d="M799 698v37l-340 357h86l327 -334v-80l-325 -336h-86zM459 698v37l-340 357h86l327 -334v-80l-325 -336h-86z" />
    <glyph glyph-name="guilsinglleft.ss01.case" horiz-adv-x="651" 
d="M193 735v-37l339 -356h-86l-327 334v80l325 336h86z" />
    <glyph glyph-name="guilsinglright.ss01.case" horiz-adv-x="651" 
d="M459 698v37l-338 357h86l325 -336v-80l-327 -334h-86z" />
    <glyph glyph-name="hyphen.ss01.case" horiz-adv-x="759" 
d="M659 711h-559v63h559v-63z" />
    <glyph glyph-name="endash.ss01.case" horiz-adv-x="1263" 
d="M1163 711h-1065v63h1065v-63z" />
    <glyph glyph-name="emdash.ss01.case" horiz-adv-x="1796" 
d="M1696 711h-1598v63h1598v-63z" />
    <glyph glyph-name="emdash.ss01.ss02.case" horiz-adv-x="2959" 
d="M2859 711h-2761v63h2761v-63z" />
    <glyph glyph-name="tbar.ss04" horiz-adv-x="774" 
d="M438 0h-174v512h-209v152h209v217h-209v151h209v311h174v-311h279v-151h-279v-217h279v-152h-279v-512z" />
    <glyph glyph-name="at.case" horiz-adv-x="2000" 
d="M1368 84l51 -107q-240 -151 -540 -151q-237 0 -410 98t-262.5 273.5t-89.5 408.5q0 216 73 405.5t203 327.5t320.5 217.5t414.5 79.5q156 0 294 -48t241 -135.5t163 -220.5t60 -294q0 -126 -34 -242t-95 -206.5t-153 -144.5t-201 -54q-82 0 -127.5 28.5t-69.5 88.5h-37
q-108 -117 -264 -117q-155 0 -242.5 96t-87.5 268q0 134 54 250t156.5 189t232.5 73q79 0 136.5 -30t80.5 -70h37l16 72h146l-86 -521q0 -2 -3 -21.5t-5.5 -44t-2.5 -38.5q0 -56 21 -81t74 -25q54 0 110 34.5t104 97t78.5 163.5t30.5 221q0 268 -172 431t-479 163
q-136 0 -264.5 -42t-235 -121t-186.5 -186t-125 -245.5t-45 -290.5q0 -111 21 -209t69.5 -187t121 -153t183.5 -101.5t250 -37.5q246 0 475 139zM934 424q122 0 201 105.5t79 269.5q0 235 -196 235q-81 0 -146.5 -56t-99 -140t-33.5 -176q0 -109 48.5 -173.5t146.5 -64.5z
" />
    <glyph glyph-name="y.ss08" horiz-adv-x="1087" 
d="M446 -45l33 82l-434 995h182l312 -719h51l287 719h178l-449 -1120q-28 -68 -46 -108t-42 -81.5t-46 -62.5t-53 -39t-67.5 -24.5t-85.5 -6.5h-102v156h94q69 0 102 40t75 142q7 18 11 27z" />
    <glyph glyph-name="W.ss10" horiz-adv-x="1794" 
d="M772 985h254l270 -778h41l158 1255h178l-186 -1462h-291l-276 803h-41l-279 -803h-291l-186 1462h180l158 -1255h41z" />
    <glyph glyph-name="w.ss10" horiz-adv-x="1415" 
d="M600 715h225l172 -531h41l121 848h168l-151 -1032h-267l-180 543h-39l-180 -543h-270l-150 1032h168l125 -848h41z" />
    <glyph glyph-name="uni0443.ss08" horiz-adv-x="1087" 
d="M446 -45l33 82l-434 995h182l312 -719h51l287 719h178l-449 -1120q-28 -68 -46 -108t-42 -81.5t-46 -62.5t-53 -39t-67.5 -24.5t-85.5 -6.5h-102v156h94q69 0 102 40t75 142q7 18 11 27z" />
    </font>
</defs>
</svg>
