<?xml version="1.0" standalone="no"?>
<!DOCTYPE svg PUBLIC "-//W3C//DTD SVG 1.1//EN" "http://www.w3.org/Graphics/SVG/1.1/DTD/svg11.dtd" >
<svg xmlns="http://www.w3.org/2000/svg" xmlns:xlink="http://www.w3.org/1999/xlink" version="1.1">
<metadata>
Created by FontForge 20170731 at Mon Apr 19 13:29:15 2021
 By Aleksey,,,
Copyright (c) 2014-2019 by Gayane Bagdasaryan, Vyacheslav Kirilenko. All rights reserved.
</metadata>
<defs>
<font id="Formular-Bold" horiz-adv-x="1740" >
  <font-face 
    font-family="Formular"
    font-weight="700"
    font-stretch="normal"
    units-per-em="2048"
    panose-1="2 0 0 0 0 0 0 0 0 0"
    ascent="1638"
    descent="-410"
    x-height="1053"
    cap-height="1462"
    bbox="-287 -475 2867 2003"
    underline-thickness="102"
    underline-position="-307"
    unicode-range="U+000D-FB02"
  />
<missing-glyph horiz-adv-x="1058" 
d="M106 0v1462h844v-1462h-844zM258 137h545v1188h-545v-1188z" />
    <glyph glyph-name="fi" unicode="fi" horiz-adv-x="1439" 
d="M786 813h-272v-813h-287v813h-178v240h178v102q0 180 101.5 257t294.5 77h180v-244h-160q-129 0 -129 -129v-63h272v-240zM1290 1229h-295v260h295v-260zM1286 1053v-1053h-287v1053h287z" />
    <glyph glyph-name="fl" unicode="fl" horiz-adv-x="1437" 
d="M786 813h-272v-813h-287v813h-178v240h178v102q0 180 101.5 257t294.5 77h180v-244h-160q-129 0 -129 -129v-63h272v-240zM999 1489h287v-1489h-287v1489z" />
    <glyph glyph-name=".notdef" horiz-adv-x="1058" 
d="M106 0v1462h844v-1462h-844zM258 137h545v1188h-545v-1188z" />
    <glyph glyph-name=".null" horiz-adv-x="0" 
 />
    <glyph glyph-name="nonmarkingreturn" horiz-adv-x="682" 
 />
    <glyph glyph-name="NULL" horiz-adv-x="0" 
 />
    <glyph glyph-name="NULL" horiz-adv-x="0" 
 />
    <glyph glyph-name="CR" unicode="&#xd;" horiz-adv-x="569" 
 />
    <glyph glyph-name="space" unicode=" " horiz-adv-x="569" 
 />
    <glyph glyph-name="exclam" unicode="!" horiz-adv-x="706" 
d="M209 1462h289v-594l-54 -428h-182l-53 428v594zM510 0h-313v311h313v-311z" />
    <glyph glyph-name="quotedbl" unicode="&#x22;" horiz-adv-x="960" 
d="M147 874v588h261v-588h-261zM553 874v588h260v-588h-260z" />
    <glyph glyph-name="numbersign" unicode="#" horiz-adv-x="1312" 
d="M129 1065h244l59 369h221l-57 -369h231l60 369h221l-57 -369h198v-217h-233l-41 -262h207v-217h-240l-59 -369h-226l60 369h-232l-57 -369h-225l57 369h-197v217h232l43 262h-209v217zM561 848l-41 -262h232l41 262h-232z" />
    <glyph glyph-name="dollar" unicode="$" horiz-adv-x="1339" 
d="M741 -201h-149v178q-221 20 -351.5 141.5t-150.5 325.5h291q26 -168 211 -206v376l-92 15q-160 26 -261.5 133t-101.5 270q0 82 29 154t84.5 129.5t143 95t198.5 47.5v176h149v-176q191 -19 312.5 -130.5t144.5 -289.5h-293q-12 62 -54.5 104.5t-109.5 55.5v-332l88 -14
q182 -34 291 -143.5t109 -284.5q0 -180 -130.5 -306t-357.5 -143v-176zM780 584l-39 6v-354q96 12 145.5 59t49.5 121q0 66 -39.5 111t-116.5 57zM582 895l10 -2v305q-82 -13 -122 -55.5t-40 -106.5q0 -111 152 -141z" />
    <glyph glyph-name="percent" unicode="%" horiz-adv-x="1802" 
d="M416 1462q166 0 254 -107.5t88 -279.5t-88 -279.5t-254 -107.5q-165 0 -251.5 107.5t-86.5 279.5t86.5 279.5t251.5 107.5zM416 856q76 0 113.5 58.5t37.5 160.5q0 99 -37.5 159t-113.5 60q-75 0 -112.5 -60t-37.5 -159q0 -101 37.5 -160t112.5 -59zM1384 748
q164 0 252 -108t88 -280t-88 -279.5t-252 -107.5q-166 0 -254 107.5t-88 279.5t88.5 280t253.5 108zM1384 141q75 0 113.5 59t38.5 160q0 99 -38.5 159.5t-113.5 60.5q-76 0 -113.5 -60.5t-37.5 -159.5q0 -102 37.5 -160.5t113.5 -58.5zM573 0h-208l868 1434h207z" />
    <glyph glyph-name="ampersand" unicode="&#x26;" horiz-adv-x="1570" 
d="M1094 725h276q-36 -235 -160 -412l310 -313h-346l-117 117h-41q-182 -144 -410 -144q-227 0 -363.5 113.5t-136.5 314.5q0 131 71 229t175 163v41q-65 75 -95 139t-30 149q0 150 104 245t279 95q176 0 292 -91.5t116 -246.5q0 -106 -62 -183t-196 -173l258 -268
q60 97 76 225zM623 219q136 0 237 94l-311 320l-47 -33q-111 -76 -111 -190q0 -88 63 -139.5t169 -51.5zM618 1247q-61 0 -99 -34.5t-38 -94.5q0 -22 6.5 -43.5t13.5 -36t24 -35.5t24.5 -29t29.5 -29.5t25 -24.5q12 10 39.5 31t39 30.5t30.5 28t27 33t15 35t7 42.5
q0 59 -40.5 93t-103.5 34z" />
    <glyph glyph-name="quotesingle" unicode="'" horiz-adv-x="555" 
d="M147 874v588h261v-588h-261z" />
    <glyph glyph-name="parenleft" unicode="(" horiz-adv-x="665" 
d="M338 637q0 -149 27 -288t76.5 -255.5t100 -204.5t115.5 -178h-249q-318 383 -318 926q0 529 311 917h250q-49 -69 -89.5 -135.5t-83.5 -158t-72.5 -183t-48.5 -206.5t-19 -234z" />
    <glyph glyph-name="parenright" unicode=")" horiz-adv-x="665" 
d="M328 637q0 147 -27 285t-76 253.5t-98.5 202.5t-112.5 176h250q311 -388 311 -917q0 -544 -317 -926h-250q65 90 115.5 178t100 204.5t77 255.5t27.5 288z" />
    <glyph glyph-name="asterisk" unicode="*" horiz-adv-x="1015" 
d="M410 1462h198l-14 -325l307 114l64 -190l-316 -90l203 -256l-162 -119l-184 270l-180 -270l-160 119l201 256l-314 90l62 190l305 -114z" />
    <glyph glyph-name="plus" unicode="+" horiz-adv-x="1380" 
d="M569 715v403h242v-403h406v-244h-406v-405h-242v405h-405v244h405z" />
    <glyph glyph-name="comma" unicode="," horiz-adv-x="600" 
d="M281 0h-140v311h316v-346l-158 -256h-174l156 256v35z" />
    <glyph glyph-name="hyphen" unicode="-" horiz-adv-x="813" 
d="M717 455h-621v247h621v-247z" />
    <glyph glyph-name="period" unicode="." horiz-adv-x="600" 
d="M457 0h-316v311h316v-311z" />
    <glyph glyph-name="slash" unicode="/" horiz-adv-x="899" 
d="M236 -289h-240l618 1843h234z" />
    <glyph glyph-name="zero" unicode="0" horiz-adv-x="1323" 
d="M662 1462q122 0 222 -44t177 -132t119.5 -233t42.5 -336q0 -190 -42.5 -335t-119.5 -233t-177 -132t-222 -44t-222 44t-177 132t-120 233t-43 335q0 153 28 277.5t78.5 210.5t121 144.5t154 85.5t180.5 27zM662 236q63 0 111 28.5t76.5 74t47 110.5t25 129.5t6.5 138.5
q0 75 -6.5 139.5t-25 129.5t-47 111t-76.5 74.5t-111 28.5q-62 0 -110 -28.5t-76.5 -74.5t-47 -111t-25 -129.5t-6.5 -139.5q0 -74 6.5 -138.5t25 -129t47 -110.5t76.5 -74.5t110 -28.5z" />
    <glyph glyph-name="one" unicode="1" horiz-adv-x="1089" 
d="M109 0v256h323v883h-41l-285 -189v293l285 191h336v-1178h295v-256h-913z" />
    <glyph glyph-name="two" unicode="2" horiz-adv-x="1228" 
d="M389 1001h-295q12 223 151 342t373 119q236 0 367 -124.5t131 -336.5q0 -102 -34 -185t-105.5 -162t-200.5 -179l-221 -178v-41h592v-256h-1045v295l410 313q176 134 241.5 213.5t65.5 173.5q0 101 -56.5 153t-152.5 52q-94 0 -152.5 -49t-68.5 -150z" />
    <glyph glyph-name="three" unicode="3" horiz-adv-x="1236" 
d="M150 1434h921v-289l-276 -230v-41q151 -13 252.5 -121t101.5 -290q0 -224 -152 -357t-395 -133q-238 0 -389 131.5t-156 331.5h295q12 -97 78.5 -148.5t171.5 -51.5q116 0 184 62t68 167q0 108 -65.5 171.5t-186.5 63.5q-82 0 -131 -14v232l277 227v41h-598v248z" />
    <glyph glyph-name="four" unicode="4" horiz-adv-x="1298" 
d="M1040 563h179v-256h-179v-307h-284v307h-682v301l635 826h331v-871zM356 563h410v518h-41l-369 -477v-41z" />
    <glyph glyph-name="five" unicode="5" horiz-adv-x="1277" 
d="M717 977q199 0 332 -134.5t133 -348.5q0 -231 -150 -376t-381 -145q-245 0 -389 129t-156 334h295q12 -98 73.5 -149t166.5 -51q115 0 180.5 68.5t65.5 184.5q0 124 -67 190t-177 66q-148 0 -227 -106h-275l64 795h885v-248h-656l-22 -295h41q50 41 110 63.5t154 22.5z
" />
    <glyph glyph-name="six" unicode="6" horiz-adv-x="1273" 
d="M729 952q199 0 334 -132.5t135 -338.5q0 -140 -63.5 -255t-184.5 -184t-278 -69q-127 0 -228.5 39t-180 121.5t-121 223.5t-42.5 333q0 170 35 309t104.5 243.5t182 162t258.5 57.5q192 0 326 -109t155 -270h-293q-39 136 -194 136q-126 0 -203.5 -97.5t-87.5 -285.5h41
q102 116 305 116zM666 219q107 0 171 66t64 186t-64.5 184t-172.5 64t-173 -63.5t-65 -182.5q0 -120 66.5 -187t173.5 -67z" />
    <glyph glyph-name="seven" unicode="7" horiz-adv-x="1173" 
d="M1075 1139l-573 -1139h-307l575 1139v39h-674v256h979v-295z" />
    <glyph glyph-name="eight" unicode="8" horiz-adv-x="1294" 
d="M983 780v-41q38 -16 74 -43.5t69.5 -68t53.5 -99t20 -125.5q0 -87 -36.5 -164.5t-104.5 -137t-174.5 -94t-237.5 -34.5t-237.5 34.5t-174.5 94t-104.5 137t-36.5 164.5q0 67 20 125.5t53.5 99t69.5 68t74 43.5v41q-68 34 -119 109t-51 188q0 166 137 275.5t369 109.5
t369 -109.5t137 -275.5q0 -110 -51.5 -185.5t-118.5 -111.5zM647 1235q-98 0 -159.5 -53.5t-61.5 -134.5q0 -85 61 -138t160 -53q102 0 161.5 52.5t59.5 138.5q0 81 -60 134.5t-161 53.5zM647 219q124 0 192 60.5t68 152.5q0 91 -68 152t-192 61q-125 0 -192.5 -61
t-67.5 -152q0 -93 67.5 -153t192.5 -60z" />
    <glyph glyph-name="nine" unicode="9" horiz-adv-x="1273" 
d="M545 483q-199 0 -334 132.5t-135 338.5q0 140 63.5 255t184.5 184t278 69q127 0 228.5 -39t180 -121.5t121 -223.5t42.5 -333q0 -170 -35 -309t-104.5 -243.5t-182 -162t-258.5 -57.5q-192 0 -326 109t-155 270h293q39 -135 194 -135q126 0 203.5 97.5t87.5 285.5h-41
q-103 -117 -305 -117zM608 1217q-107 0 -171 -66t-64 -186t64.5 -184t172.5 -64t173 63.5t65 182.5q0 120 -66.5 187t-173.5 67z" />
    <glyph glyph-name="colon" unicode=":" horiz-adv-x="600" 
d="M457 0h-316v311h316v-311zM457 741h-316v312h316v-312z" />
    <glyph glyph-name="semicolon" unicode=";" horiz-adv-x="600" 
d="M281 0h-140v311h316v-346l-158 -256h-174l156 256v35zM457 741h-316v312h316v-312z" />
    <glyph glyph-name="less" unicode="&#x3c;" horiz-adv-x="1380" 
d="M1217 279v-250l-1053 471v184l1053 471v-250l-658 -293v-41z" />
    <glyph glyph-name="equal" unicode="=" horiz-adv-x="1380" 
d="M1217 502v-244h-1053v244h1053zM1217 926v-244h-1053v244h1053z" />
    <glyph glyph-name="greater" unicode="&#x3e;" horiz-adv-x="1380" 
d="M164 279l657 292v41l-657 293v250l1053 -471v-184l-1053 -471v250z" />
    <glyph glyph-name="question" unicode="?" horiz-adv-x="1183" 
d="M573 1489q123 0 220.5 -33.5t158 -91.5t92 -133t31.5 -162q0 -58 -13.5 -107.5t-33 -84t-56 -70t-66 -57.5t-79.5 -56q-77 -53 -104 -89t-27 -99v-66h-293v66q0 117 44 187t157 153q14 11 46.5 33.5t44.5 32t32.5 29t28.5 35t15 39.5t7 52q0 71 -51.5 119.5t-144.5 48.5
q-103 0 -157 -51t-58 -164h-293q2 99 34.5 183t93 148.5t156 101t215.5 36.5zM707 0h-316v311h316v-311z" />
    <glyph glyph-name="at" unicode="@" horiz-adv-x="1998" 
d="M1378 -125l56 -108q-248 -156 -547 -156q-360 0 -574.5 215.5t-214.5 570.5q0 218 74.5 407.5t206.5 325.5t320.5 213.5t408.5 77.5q160 0 304 -50t251.5 -140.5t171 -226t63.5 -297.5q0 -177 -54.5 -320t-167 -231t-265.5 -88q-100 0 -156 32t-84 95h-36
q-95 -127 -261 -127q-155 0 -242 96.5t-87 269.5q0 134 54 251.5t155 192t227 74.5q76 0 129 -28t76 -68h37l16 68h231l-86 -521q-10 -80 -10 -92q0 -60 21 -84t75 -24q49 0 97.5 28t92.5 83.5t71.5 153.5t27.5 222q0 132 -45.5 243.5t-130 192.5t-212 126.5t-284.5 45.5
q-172 0 -327 -65t-270.5 -179t-183.5 -280t-68 -358q0 -109 22.5 -206.5t73 -185.5t126 -151.5t188.5 -101t253 -37.5q259 0 477 141zM942 252q98 0 160.5 93.5t62.5 227.5q0 197 -149 197q-99 0 -160 -95.5t-61 -225.5q0 -99 39 -148t108 -49z" />
    <glyph glyph-name="A" unicode="A" horiz-adv-x="1478" 
d="M1133 0l-123 395h-551l-121 -395h-301l467 1462h469l469 -1462h-309zM698 1169l-157 -507h385l-158 507h-70z" />
    <glyph glyph-name="B" unicode="B" horiz-adv-x="1482" 
d="M1184 780v-41q82 -35 138 -122t56 -193q0 -192 -127 -308t-377 -116h-704v1462h686q117 0 210.5 -31t151.5 -84.5t88.5 -122.5t30.5 -149q0 -101 -41 -180.5t-112 -114.5zM475 883h344q205 0 205 164q0 161 -207 161h-342v-325zM475 260h354q236 0 236 180
q0 187 -231 187h-359v-367z" />
    <glyph glyph-name="C" unicode="C" horiz-adv-x="1509" 
d="M1094 467h317q-33 -223 -195.5 -358.5t-414.5 -135.5q-219 0 -378.5 96t-241 266.5t-81.5 395.5t82 395.5t241.5 266.5t377.5 96q239 0 399 -124.5t197 -328.5h-320q-52 181 -276 181q-96 0 -170.5 -37.5t-121.5 -104.5t-71 -154t-24 -190q0 -139 41 -246t130 -173
t216 -66q118 0 194 58t99 163z" />
    <glyph glyph-name="D" unicode="D" horiz-adv-x="1558" 
d="M170 1462h610q329 0 503.5 -196.5t174.5 -534.5q0 -221 -75 -384t-229 -255t-374 -92h-610v1462zM475 272h266q107 0 187 35.5t126.5 99.5t68.5 144.5t22 179.5t-22 179.5t-68.5 144.5t-126.5 99.5t-187 35.5h-266v-918z" />
    <glyph glyph-name="E" unicode="E" horiz-adv-x="1363" 
d="M475 272h799v-272h-1104v1462h1081v-272h-776v-307h604v-267h-604v-344z" />
    <glyph glyph-name="F" unicode="F" horiz-adv-x="1331" 
d="M1249 1190h-774v-336h610v-266h-610v-588h-305v1462h1079v-272z" />
    <glyph glyph-name="G" unicode="G" horiz-adv-x="1558" 
d="M797 813h651v-172q0 -105 -22 -200.5t-72 -181.5t-123 -149t-181.5 -100t-242.5 -37q-224 0 -385.5 98t-241.5 267.5t-80 392.5q0 222 80.5 391.5t242.5 268t386 98.5q247 0 402.5 -117.5t197.5 -320.5h-317q-52 166 -285 166q-190 0 -291.5 -134t-101.5 -352t102 -352.5
t293 -134.5q162 0 245.5 86.5t88.5 232.5h-346v250z" />
    <glyph glyph-name="H" unicode="H" horiz-adv-x="1595" 
d="M1122 1462h305v-1462h-305v612h-647v-612h-305v1462h305v-569h647v569z" />
    <glyph glyph-name="I" unicode="I" horiz-adv-x="663" 
d="M180 1462h305v-1462h-305v1462z" />
    <glyph glyph-name="J" unicode="J" horiz-adv-x="1236" 
d="M573 -27q-149 0 -262.5 56t-180 168t-71.5 268h303q15 -219 209 -219q94 0 144.5 63t50.5 185v968h305v-970q0 -245 -132 -382t-366 -137z" />
    <glyph glyph-name="K" unicode="K" horiz-adv-x="1542" 
d="M475 846l594 616h363l-480 -495l547 -967h-344l-405 711h-41l-234 -242v-469h-305v1462h305v-616z" />
    <glyph glyph-name="L" unicode="L" horiz-adv-x="1333" 
d="M475 279h774v-279h-1079v1462h305v-1183z" />
    <glyph glyph-name="M" unicode="M" horiz-adv-x="1802" 
d="M170 0v1462h475l240 -620h41l239 620h467v-1462h-284v1141h-41l-267 -688h-278l-266 688h-41v-1141h-285z" />
    <glyph glyph-name="N" unicode="N" horiz-adv-x="1601" 
d="M1155 1462h279v-1462h-381l-564 1008h-40v-1008h-279v1462h381l563 -1007h41v1007z" />
    <glyph glyph-name="O" unicode="O" horiz-adv-x="1626" 
d="M813 1489q170 0 306.5 -58t225 -160t135 -240t46.5 -300t-46.5 -300t-135 -240t-225 -160t-306.5 -58t-306.5 58t-225 160t-135 240t-46.5 300t46.5 300t135 240t225 160t306.5 58zM813 246q100 0 177.5 37.5t125 104t72 153.5t24.5 190t-24.5 190t-72 154t-125 104.5
t-177.5 37.5q-131 0 -222.5 -66t-134 -173.5t-42.5 -246.5t42.5 -246t134 -173t222.5 -66z" />
    <glyph glyph-name="P" unicode="P" horiz-adv-x="1464" 
d="M170 1462h668q251 0 389.5 -122.5t138.5 -342.5q0 -223 -138.5 -348t-389.5 -125h-363v-524h-305v1462zM475 793h320q137 0 197.5 50t60.5 150q0 101 -60.5 151t-197.5 50h-320v-401z" />
    <glyph glyph-name="Q" unicode="Q" horiz-adv-x="1626" 
d="M813 1489q170 0 306.5 -58t225 -160t135 -240t46.5 -300q0 -361 -215 -573l186 -316h-276l-109 187q-141 -56 -299 -56q-170 0 -306.5 58t-225 160t-135 240t-46.5 300t46.5 300t135 240t225 160t306.5 58zM813 246q82 0 158 28l-232 402h267l141 -240q65 127 65 295
q0 103 -24.5 190t-72 154t-125 104.5t-177.5 37.5q-131 0 -222.5 -66t-134 -173.5t-42.5 -246.5t42.5 -246t134 -173t222.5 -66z" />
    <glyph glyph-name="R" unicode="R" horiz-adv-x="1486" 
d="M170 1462h688q244 0 379 -121t135 -337q0 -140 -60 -243t-171 -159l233 -602h-321l-211 545h-367v-545h-305v1462zM475 1194v-381h307q151 0 214 44t63 147t-62.5 146.5t-214.5 43.5h-307z" />
    <glyph glyph-name="S" unicode="S" horiz-adv-x="1415" 
d="M1270 1061h-312q-37 166 -253 166q-121 0 -186.5 -45t-65.5 -125q0 -119 172 -148l264 -45q192 -36 304 -143t112 -289q0 -95 -38.5 -177.5t-111 -145.5t-185.5 -99.5t-253 -36.5q-272 0 -437 127.5t-190 345.5h311q11 -74 58.5 -122.5t113 -68t148.5 -19.5
q130 0 203 49.5t73 136.5q0 71 -47 114.5t-135 57.5l-291 47q-175 30 -277 136.5t-102 273.5q0 91 36.5 170t105.5 139t177 94.5t243 34.5q235 0 386.5 -115.5t176.5 -312.5z" />
    <glyph glyph-name="T" unicode="T" horiz-adv-x="1280" 
d="M1247 1462v-268h-454v-1194h-306v1194h-454v268h1214z" />
    <glyph glyph-name="U" unicode="U" horiz-adv-x="1556" 
d="M1085 1462h306v-923q0 -272 -159.5 -419t-455.5 -147q-293 0 -451.5 147t-158.5 419v923h305v-917q0 -137 80.5 -218t226.5 -81q147 0 227 80.5t80 218.5v917z" />
    <glyph glyph-name="V" unicode="V" horiz-adv-x="1445" 
d="M467 0l-428 1462h309l342 -1167h70l342 1167h305l-428 -1462h-512z" />
    <glyph glyph-name="W" unicode="W" horiz-adv-x="1970" 
d="M768 1462h434l209 -1114h41l211 1114h287l-277 -1462h-467l-207 1114h-41l-206 -1114h-455l-277 1462h287l211 -1114h41z" />
    <glyph glyph-name="X" unicode="X" horiz-adv-x="1417" 
d="M741 924l275 538h309l-352 -694l407 -768h-325l-318 600h-63l-318 -600h-319l407 768l-352 694h316l274 -538h59z" />
    <glyph glyph-name="Y" unicode="Y" horiz-adv-x="1390" 
d="M670 870h57l320 592h311l-510 -942v-520h-307v520l-510 942h319z" />
    <glyph glyph-name="Z" unicode="Z" horiz-adv-x="1363" 
d="M1241 1462v-317l-764 -828v-45h797v-272h-1184v317l768 828v45h-713v272h1096z" />
    <glyph glyph-name="bracketleft" unicode="[" horiz-adv-x="780" 
d="M672 -289h-531v1843h531v-211h-283v-1421h283v-211z" />
    <glyph glyph-name="backslash" unicode="\" horiz-adv-x="899" 
d="M903 -289h-239l-613 1843h234z" />
    <glyph glyph-name="bracketright" unicode="]" horiz-adv-x="780" 
d="M639 -289h-530v211h282v1421h-282v211h530v-1843z" />
    <glyph glyph-name="asciicircum" unicode="^" horiz-adv-x="1204" 
d="M344 559h-266l442 860h166l440 -860h-264l-244 473h-32z" />
    <glyph glyph-name="underscore" unicode="_" horiz-adv-x="1050" 
d="M1053 -315h-1055v186h1055v-186z" />
    <glyph glyph-name="grave" unicode="`" horiz-adv-x="655" 
d="M319 1192l-237 297h301l190 -297h-254z" />
    <glyph glyph-name="a" unicode="a" horiz-adv-x="1200" 
d="M797 0v90h-41q-102 -117 -295 -117q-177 0 -280 100.5t-103 250.5q0 65 24 124.5t72.5 111.5t134 83t197.5 31h280v26q0 164 -186 164q-165 0 -178 -104h-285q4 144 130 231.5t319 87.5q225 0 351 -95.5t126 -299.5v-684h-266zM551 201q104 0 169.5 61.5t65.5 159.5v61
h-225q-94 0 -145 -34.5t-51 -102.5q0 -71 48.5 -108t137.5 -37z" />
    <glyph glyph-name="b" unicode="b" horiz-adv-x="1314" 
d="M758 1079q212 0 338.5 -154t126.5 -399t-125.5 -399t-339.5 -154q-188 0 -287 125h-41v-98h-278v1489h286v-535h41q93 125 279 125zM684 211q123 0 187.5 88.5t64.5 226.5t-64.5 226t-187.5 88q-126 0 -191 -89.5t-65 -224.5t65 -225t191 -90z" />
    <glyph glyph-name="c" unicode="c" horiz-adv-x="1193" 
d="M821 354h283q-20 -171 -152 -276t-329 -105q-244 0 -387.5 151t-143.5 402q0 250 144 401.5t387 151.5q196 0 324.5 -99.5t148.5 -262.5h-285q-35 123 -186 123q-126 0 -186 -87t-60 -225q0 -67 14 -122.5t42.5 -100t77 -69.5t112.5 -25q85 0 134.5 37t61.5 106z" />
    <glyph glyph-name="d" unicode="d" horiz-adv-x="1314" 
d="M557 1079q186 0 279 -125h41v535h286v-1489h-278v98h-41q-99 -125 -287 -125q-215 0 -340 153.5t-125 399.5q0 245 126.5 399t338.5 154zM631 211q126 0 191 90t65 225t-65 224.5t-191 89.5q-123 0 -187.5 -88t-64.5 -226t64.5 -226.5t187.5 -88.5z" />
    <glyph glyph-name="e" unicode="e" horiz-adv-x="1222" 
d="M1130 580v-86h-753q6 -137 70.5 -210t185.5 -73q154 0 196 106h291q-33 -161 -157.5 -252.5t-333.5 -91.5q-249 0 -393 151.5t-144 405.5q0 252 143.5 400.5t387.5 148.5q234 0 370.5 -139.5t136.5 -359.5zM621 864q-188 0 -234 -180h451q-13 83 -67.5 131.5t-149.5 48.5
z" />
    <glyph glyph-name="f" unicode="f" horiz-adv-x="866" 
d="M786 813h-272v-813h-287v813h-178v240h178v102q0 180 101.5 257t294.5 77h180v-244h-160q-129 0 -129 -129v-63h272v-240z" />
    <glyph glyph-name="g" unicode="g" horiz-adv-x="1316" 
d="M887 1053h278v-1002q0 -222 -146 -352.5t-382 -130.5q-220 0 -354.5 91.5t-151.5 262.5h285q21 -129 217 -129q128 0 187 77t59 206v63h-41q-88 -123 -271 -123q-214 0 -344.5 148t-130.5 383q0 234 132 383t345 149q102 0 172 -36t105 -89h41v99zM631 256
q123 0 190.5 82.5t67.5 208.5q0 128 -67.5 210.5t-190.5 82.5q-119 0 -185.5 -81t-66.5 -212t66.5 -211t185.5 -80z" />
    <glyph glyph-name="h" unicode="h" horiz-adv-x="1300" 
d="M756 1079q199 0 303 -118.5t104 -321.5v-639h-286v598q0 110 -53.5 168.5t-153.5 58.5q-103 0 -167.5 -77.5t-64.5 -186.5v-561h-286v1489h286v-535h41q82 125 277 125z" />
    <glyph glyph-name="i" unicode="i" horiz-adv-x="593" 
d="M444 1229h-294v260h294v-260zM440 1053v-1053h-286v1053h286z" />
    <glyph glyph-name="j" unicode="j" horiz-adv-x="616" 
d="M467 1229h-295v260h295v-260zM176 -37v1090h287v-1129q0 -180 -101 -257t-294 -77h-142v244h121q129 0 129 129z" />
    <glyph glyph-name="k" unicode="k" horiz-adv-x="1226" 
d="M1204 0h-319l-254 455h-41l-152 -160v-295h-286v1489h286v-850l389 414h324l-336 -359z" />
    <glyph glyph-name="l" unicode="l" horiz-adv-x="589" 
d="M152 1489h286v-1489h-286v1489z" />
    <glyph glyph-name="m" unicode="m" horiz-adv-x="1855" 
d="M1341 1079q194 0 286.5 -113.5t92.5 -314.5v-651h-286v623q0 202 -160 202q-96 0 -145.5 -68t-49.5 -179v-578h-286v621q0 204 -160 204q-95 0 -145 -75.5t-50 -188.5v-561h-286v1053h278v-99h41q38 60 108 92.5t162 32.5q184 0 273 -127h41q92 127 286 127z" />
    <glyph glyph-name="n" unicode="n" horiz-adv-x="1300" 
d="M756 1079q199 0 303 -118.5t104 -321.5v-639h-286v598q0 110 -53.5 168.5t-153.5 58.5q-103 0 -167.5 -77.5t-64.5 -186.5v-561h-286v1053h278v-99h41q37 57 111 91t174 34z" />
    <glyph glyph-name="o" unicode="o" horiz-adv-x="1273" 
d="M637 1079q250 0 397.5 -152t147.5 -401t-147.5 -401t-397.5 -152q-248 0 -396.5 152t-148.5 401t148.5 401t396.5 152zM637 211q128 0 193 89t65 226q0 87 -26 156t-86 113.5t-146 44.5q-127 0 -192.5 -89.5t-65.5 -224.5q0 -88 26.5 -157.5t86 -113.5t145.5 -44z" />
    <glyph glyph-name="p" unicode="p" horiz-adv-x="1314" 
d="M758 -27q-186 0 -279 125h-41v-508h-286v1463h278v-99h41q99 125 287 125q141 0 247.5 -72.5t162 -197t55.5 -283.5q0 -245 -126.5 -399t-338.5 -154zM684 842q-126 0 -191 -90.5t-65 -225.5q0 -134 65 -223.5t191 -89.5q123 0 187.5 87.5t64.5 225.5t-64.5 227
t-187.5 89z" />
    <glyph glyph-name="q" unicode="q" horiz-adv-x="1314" 
d="M557 -27q-212 0 -338.5 154t-126.5 399q0 243 125.5 398t339.5 155q188 0 287 -125h41v99h278v-1463h-286v508h-41q-93 -125 -279 -125zM631 842q-123 0 -187.5 -89t-64.5 -227t64.5 -225.5t187.5 -87.5q126 0 191 89.5t65 223.5q0 135 -65 225.5t-191 90.5z" />
    <glyph glyph-name="r" unicode="r" horiz-adv-x="907" 
d="M852 1053v-267h-92q-322 0 -322 -325v-461h-286v1053h276v-121h41q32 47 104.5 84t186.5 37h92z" />
    <glyph glyph-name="s" unicode="s" horiz-adv-x="1118" 
d="M510 674l186 -29q169 -25 255.5 -105.5t86.5 -224.5q0 -145 -126 -243.5t-341 -98.5q-226 0 -353.5 93.5t-141.5 265.5h284q20 -137 211 -137q86 0 133.5 31t47.5 83q0 45 -28 69t-93 34l-215 30q-136 20 -218.5 97.5t-82.5 205.5q0 149 115 241.5t333 92.5
q196 0 312 -87t133 -242h-283q-19 108 -168 108q-73 0 -114.5 -25.5t-41.5 -72.5q0 -70 109 -86z" />
    <glyph glyph-name="t" unicode="t" horiz-adv-x="894" 
d="M522 1053h264v-240h-264v-457q0 -56 30 -84t101 -28h133v-244h-151q-78 0 -134.5 6.5t-109 26t-85 53t-51.5 89t-19 132.5v506h-187v240h187v295h286v-295z" />
    <glyph glyph-name="u" unicode="u" horiz-adv-x="1294" 
d="M541 -27q-198 0 -301 119t-103 322v639h287v-598q0 -111 52 -169.5t151 -58.5q104 0 166.5 77.5t62.5 187.5v561h287v-1053h-279v98h-41q-37 -57 -109.5 -91t-172.5 -34z" />
    <glyph glyph-name="v" unicode="v" horiz-adv-x="1185" 
d="M360 0l-319 1053h293l225 -748h74l225 748h287l-320 -1053h-465z" />
    <glyph glyph-name="w" unicode="w" horiz-adv-x="1589" 
d="M944 1032l166 -688h41l147 709h271l-215 -1053h-377l-168 688h-41l-168 -688h-364l-216 1053h271l145 -709h41l168 688h299z" />
    <glyph glyph-name="x" unicode="x" horiz-adv-x="1234" 
d="M647 389h-63l-219 -389h-297l303 539l-273 514h297l193 -365h63l193 365h293l-273 -514l303 -539h-301z" />
    <glyph glyph-name="y" unicode="y" horiz-adv-x="1216" 
d="M543 -410h-287l223 508l-442 955h301l260 -561h53l244 561h287z" />
    <glyph glyph-name="z" unicode="z" horiz-adv-x="1134" 
d="M1032 0h-930v279l529 493v41h-496v240h881v-281l-529 -493v-41h545v-238z" />
    <glyph glyph-name="braceleft" unicode="{" horiz-adv-x="874" 
d="M412 653v-41q63 -20 100 -78t37 -153v-242q0 -112 43 -164.5t139 -52.5h72v-211h-115q-181 0 -284 101.5t-103 273.5v242q0 98 -33 146t-112 48h-50v221h50q79 0 112 48.5t33 146.5v242q0 172 103 273t284 101h115v-211h-72q-96 0 -139 -52.5t-43 -164.5v-241
q0 -95 -37 -153.5t-100 -78.5z" />
    <glyph glyph-name="bar" unicode="|" horiz-adv-x="552" 
d="M162 -289v1843h229v-1843h-229z" />
    <glyph glyph-name="braceright" unicode="}" horiz-adv-x="874" 
d="M463 612v41q-63 20 -100 78.5t-37 153.5v241q0 111 -43.5 164t-139.5 53h-71v211h114q181 0 284 -101t103 -273v-242q0 -98 33.5 -146.5t112.5 -48.5h49v-221h-49q-79 0 -112.5 -48t-33.5 -146v-242q0 -172 -103 -273.5t-284 -101.5h-114v211h71q96 0 139.5 53t43.5 164
v242q0 95 37 153t100 78z" />
    <glyph glyph-name="asciitilde" unicode="~" horiz-adv-x="1380" 
d="M1014 793h203q0 -189 -80.5 -294.5t-216.5 -105.5q-58 0 -123 27t-112 59t-103 59t-99 27q-116 0 -116 -172h-203q0 189 80.5 294.5t216.5 105.5q58 0 122.5 -26.5t111.5 -58.5t103 -58.5t99 -26.5q117 0 117 170z" />
    <glyph glyph-name="uni00A0" unicode="&#xa0;" horiz-adv-x="569" 
 />
    <glyph glyph-name="exclamdown" unicode="&#xa1;" horiz-adv-x="706" 
d="M498 -410h-289v594l53 428h182l54 -428v-594zM510 741h-313v312h313v-312z" />
    <glyph glyph-name="cent" unicode="&#xa2;" horiz-adv-x="1193" 
d="M541 -164v144q-209 25 -329 171t-120 375q0 228 120 375t329 172v144h149v-142q170 -17 278 -113t128 -245h-285q-30 97 -121 123v-629q108 26 131 143h283q-19 -158 -130.5 -259t-283.5 -118v-141h-149zM371 528q0 -116 42 -200t128 -113v619q-85 -26 -127.5 -111
t-42.5 -195z" />
    <glyph glyph-name="sterling" unicode="&#xa3;" horiz-adv-x="1325" 
d="M512 256h745v-256h-1163v256h35q77 0 109 45t32 131v127h-174v229h174v203q0 213 122 342t345 129q220 0 340.5 -121.5t128.5 -322.5h-295q-5 93 -45 137.5t-125 44.5q-176 0 -176 -209v-203h439v-229h-439v-108q0 -58 -11.5 -91.5t-41.5 -62.5v-41z" />
    <glyph glyph-name="currency" unicode="&#xa4;" horiz-adv-x="1478" 
d="M1190 0l-141 137q-137 -98 -308 -98q-174 0 -311 98l-139 -137l-129 127l137 139q-98 140 -98 314q0 172 98 309l-137 139l129 129l139 -139q137 98 311 98q171 0 308 -98l141 139l127 -129l-137 -141q98 -137 98 -307q0 -172 -98 -312l137 -141zM741 213
q147 0 246.5 105.5t99.5 261.5q0 153 -99.5 256.5t-246.5 103.5q-148 0 -250 -103.5t-102 -256.5q0 -156 102 -261.5t250 -105.5z" />
    <glyph glyph-name="yen" unicode="&#xa5;" horiz-adv-x="1341" 
d="M1174 524v-141h-357v-383h-295v383h-356v141h319l-59 125h-260v142h192l-307 643h293l297 -623h57l297 623h295l-307 -643h191v-142h-259l-59 -125h318z" />
    <glyph glyph-name="brokenbar" unicode="&#xa6;" horiz-adv-x="552" 
d="M162 834v720h229v-720h-229zM162 -289v721h229v-721h-229z" />
    <glyph glyph-name="section" unicode="&#xa7;" horiz-adv-x="1292" 
d="M485 750q-46 -15 -80 -55.5t-34 -96.5q0 -60 34 -97t107 -57q35 -11 152 -45t145 -43q44 21 77.5 60.5t33.5 91.5q0 59 -33 94.5t-107 59.5q-27 10 -82 26.5t-121.5 35t-91.5 26.5zM1182 551q0 -100 -60 -174t-129 -98v-41q101 -79 101 -234q0 -156 -127 -258t-338 -102
q-208 0 -334.5 108.5t-136.5 313.5h264q6 -94 61 -144.5t158 -50.5q93 0 140.5 40t47.5 101q0 99 -139 140l-268 73q-159 44 -236 121.5t-77 208.5q0 105 59.5 176.5t132.5 95.5v41q-100 80 -100 234q0 157 125 258.5t336 101.5q207 0 332.5 -107t135.5 -311h-262
q-6 93 -61 142t-158 49q-94 0 -140 -40t-46 -99q0 -102 137 -142q37 -11 105 -30q83 -23 122.5 -34.5t101.5 -33t91 -38.5t67 -44.5t54 -58t28.5 -72t12.5 -92.5z" />
    <glyph glyph-name="dieresis" unicode="&#xa8;" horiz-adv-x="806" 
d="M725 1233h-240v256h240v-256zM324 1233h-242v256h242v-256z" />
    <glyph glyph-name="copyright" unicode="&#xa9;" 
d="M1053 610h178q-21 -128 -111 -206t-233 -78q-179 0 -279 112.5t-100 290.5q0 179 100 292.5t279 113.5q140 0 229.5 -72.5t108.5 -192.5h-181q-24 107 -157 107q-100 0 -148.5 -66.5t-48.5 -181.5q0 -112 48.5 -179t148.5 -67q145 0 166 127zM1628 731q0 -160 -58.5 -301
t-159.5 -241t-241.5 -158t-298.5 -58t-298.5 58t-241 158t-159 241t-58.5 301t58.5 301t159 241t241 158t298.5 58t298.5 -58t241.5 -158t159.5 -241t58.5 -301zM248 731q0 -178 79.5 -322t222 -226.5t320.5 -82.5t321 82.5t222.5 226.5t79.5 322t-79.5 322t-222.5 226.5
t-321 82.5t-320.5 -82.5t-222 -226.5t-79.5 -322z" />
    <glyph glyph-name="ordfeminine" unicode="&#xaa;" horiz-adv-x="897" 
d="M598 686v68h-33q-79 -86 -221 -86q-127 0 -199.5 75t-72.5 181q0 48 17 92t52 81.5t96.5 60t141.5 22.5h211v24q0 119 -144 119q-122 0 -137 -88h-192q6 110 93.5 176t227.5 66q161 0 251.5 -70t90.5 -215v-506h-182zM406 825q79 0 131.5 47.5t52.5 120.5v56h-170
q-72 0 -114 -30t-42 -81q0 -54 38.5 -83.5t103.5 -29.5z" />
    <glyph glyph-name="guillemotleft" unicode="&#xab;" horiz-adv-x="1345" 
d="M371 612v-41l350 -381h-309l-306 324v156l306 321h309zM889 612v-41l350 -381h-309l-305 324v156l305 321h309z" />
    <glyph glyph-name="logicalnot" unicode="&#xac;" horiz-adv-x="1396" 
d="M993 205v393h-831v244h1073v-637h-242z" />
    <glyph glyph-name="uni00AD" unicode="&#xad;" horiz-adv-x="811" 
d="M717 455h-621v247h621v-247z" />
    <glyph glyph-name="registered" unicode="&#xae;" 
d="M1221 872q0 -154 -119 -215l123 -317h-187l-108 285h-180v-285h-177v780h373q130 0 202.5 -65.5t72.5 -182.5zM1040 872q0 95 -122 95h-168v-189h168q122 0 122 94zM1628 731q0 -160 -58.5 -301t-159.5 -241t-241.5 -158t-298.5 -58t-298.5 58t-241 158t-159 241
t-58.5 301t58.5 301t159 241t241 158t298.5 58t298.5 -58t241.5 -158t159.5 -241t58.5 -301zM248 731q0 -178 79.5 -322t222 -226.5t320.5 -82.5t321 82.5t222.5 226.5t79.5 322t-79.5 322t-222.5 226.5t-321 82.5t-320.5 -82.5t-222 -226.5t-79.5 -322z" />
    <glyph glyph-name="macron" unicode="&#xaf;" horiz-adv-x="782" 
d="M700 1243h-618v182h618v-182z" />
    <glyph glyph-name="degree" unicode="&#xb0;" horiz-adv-x="950" 
d="M879 1071q0 -173 -116 -288t-290 -115q-172 0 -286.5 115t-114.5 288t114.5 289.5t286.5 116.5q173 0 289.5 -116.5t116.5 -289.5zM473 840q96 0 158.5 66t62.5 165t-62.5 166.5t-158.5 67.5t-157.5 -67.5t-61.5 -166.5t61.5 -165t157.5 -66z" />
    <glyph glyph-name="plusminus" unicode="&#xb1;" horiz-adv-x="1380" 
d="M569 827v338h242v-338h406v-243h-406v-340h406v-244h-1053v244h405v340h-405v243h405z" />
    <glyph glyph-name="twosuperior" unicode="&#xb2;" horiz-adv-x="757" 
d="M365 842h307v-160h-600v186l207 133q103 68 146.5 112t43.5 97q0 50 -27.5 75.5t-76.5 25.5q-110 0 -113 -105h-186q4 132 85.5 201.5t219.5 69.5q128 0 205 -67t77 -189q0 -85 -45 -152.5t-139 -128.5l-104 -70v-28z" />
    <glyph glyph-name="threesuperior" unicode="&#xb3;" horiz-adv-x="755" 
d="M502 1182v-29q76 -12 129 -67.5t53 -149.5q0 -122 -85.5 -195t-223.5 -73q-140 0 -225.5 74.5t-90.5 193.5h185q4 -52 39 -77t92 -25q60 0 92.5 28t32.5 78q0 53 -33 81t-90 28q-43 0 -76 -11v142l121 94v29h-309v159h532v-184z" />
    <glyph glyph-name="acute" unicode="&#xb4;" horiz-adv-x="655" 
d="M573 1489l-239 -297h-252l188 297h303z" />
    <glyph glyph-name="mu" unicode="&#xb5;" horiz-adv-x="1308" 
d="M555 -27q-51 0 -117 15v-398h-286v1463h286v-598q0 -111 52 -169.5t151 -58.5q104 0 166.5 77.5t62.5 187.5v561h287v-1053h-278v98h-41q-37 -57 -110 -91t-173 -34z" />
    <glyph glyph-name="paragraph" unicode="&#xb6;" horiz-adv-x="1458" 
d="M762 -362h-242v1005q-95 0 -174.5 24t-142 72.5t-98 129t-35.5 184.5q0 208 120 308.5t330 100.5h848v-200h-164v-1624h-241v1624h-201v-1624z" />
    <glyph glyph-name="periodcentered" unicode="&#xb7;" horiz-adv-x="600" 
d="M457 541h-316v311h316v-311z" />
    <glyph glyph-name="cedilla" unicode="&#xb8;" horiz-adv-x="608" 
d="M215 45h115l-62 -164h27q27 21 78 21q65 0 110 -48.5t45 -127.5q0 -81 -58 -138t-173 -57q-98 0 -154 49t-61 117h147q5 -22 23.5 -36.5t48.5 -14.5q33 0 53.5 19.5t20.5 51.5t-20.5 51t-53.5 19q-38 0 -63 -25h-129z" />
    <glyph glyph-name="onesuperior" unicode="&#xb9;" horiz-adv-x="688" 
d="M442 842h172v-160h-542v160h184v426h-29l-155 -88v174l194 108h176v-620z" />
    <glyph glyph-name="ordmasculine" unicode="&#xba;" horiz-adv-x="931" 
d="M465 1477q177 0 285 -114.5t108 -289.5q0 -177 -107.5 -291t-285.5 -114t-285.5 114t-107.5 291q0 175 108 289.5t285 114.5zM465 838q98 0 149.5 67.5t51.5 167.5q0 99 -52 166.5t-149 67.5t-149 -67.5t-52 -166.5q0 -100 51.5 -167.5t149.5 -67.5z" />
    <glyph glyph-name="guillemotright" unicode="&#xbb;" horiz-adv-x="1345" 
d="M975 571v41l-350 379h309l305 -321v-156l-305 -324h-309zM457 571v41l-351 379h310l305 -321v-156l-305 -324h-310z" />
    <glyph glyph-name="onequarter" unicode="&#xbc;" horiz-adv-x="1794" 
d="M582 0h-209l868 1434h207zM442 842h172v-160h-542v160h184v426h-29l-155 -88v174l194 108h176v-620zM1626 315h94v-159h-94v-156h-180v156h-371v188l336 436h215v-465zM1249 315h203v252h-29l-174 -223v-29z" />
    <glyph glyph-name="onehalf" unicode="&#xbd;" horiz-adv-x="1839" 
d="M582 0h-209l868 1434h207zM442 842h172v-160h-542v160h184v426h-29l-155 -88v174l194 108h176v-620zM1446 160h307v-160h-600v186l207 133q103 68 146.5 112t43.5 97q0 50 -27.5 75.5t-76.5 25.5q-110 0 -113 -105h-186q4 132 85.5 201.5t219.5 69.5q128 0 205.5 -67
t77.5 -189q0 -85 -45.5 -152.5t-139.5 -128.5l-104 -70v-28z" />
    <glyph glyph-name="threequarters" unicode="&#xbe;" horiz-adv-x="1802" 
d="M592 0h-209l868 1434h207zM1636 315h95v-159h-95v-156h-180v156h-371v188l336 436h215v-465zM1260 315h202v252h-28l-174 -223v-29zM502 1182v-29q76 -12 129 -67.5t53 -149.5q0 -122 -85.5 -195t-223.5 -73q-140 0 -225.5 74.5t-90.5 193.5h185q4 -52 39 -77t92 -25
q60 0 92.5 28t32.5 78q0 53 -33 81t-90 28q-43 0 -76 -11v142l121 94v29h-309v159h532v-184z" />
    <glyph glyph-name="questiondown" unicode="&#xbf;" horiz-adv-x="1179" 
d="M471 1053h313v-312h-313v312zM602 -432q-123 0 -220.5 33.5t-158 91.5t-92 133t-31.5 162q0 72 17.5 128t57 101.5t74.5 73.5t99 71q77 53 104 89.5t27 99.5v61h293v-61q0 -61 -11.5 -107t-38.5 -86t-61 -72t-90 -75q-19 -15 -55 -41t-50.5 -38t-34.5 -34.5t-27 -48
t-7 -59.5q0 -70 51.5 -119t145.5 -49q103 0 157 51t58 164h293q-2 -99 -34.5 -183t-93.5 -148.5t-156.5 -101t-215.5 -36.5z" />
    <glyph glyph-name="Agrave" unicode="&#xc0;" horiz-adv-x="1478" 
d="M1133 0l-123 395h-551l-121 -395h-301l467 1462h469l469 -1462h-309zM698 1169l-157 -507h385l-158 507h-70zM610 1571l-237 264h311l188 -264h-262z" />
    <glyph glyph-name="Aacute" unicode="&#xc1;" horiz-adv-x="1478" 
d="M1133 0l-123 395h-551l-121 -395h-301l467 1462h469l469 -1462h-309zM698 1169l-157 -507h385l-158 507h-70zM1100 1835l-240 -264h-260l186 264h314z" />
    <glyph glyph-name="Acircumflex" unicode="&#xc2;" horiz-adv-x="1478" 
d="M1133 0l-123 395h-551l-121 -395h-301l467 1462h469l469 -1462h-309zM698 1169l-157 -507h385l-158 507h-70zM860 1835l230 -264h-236l-98 108h-41l-97 -108h-231l229 264h244z" />
    <glyph glyph-name="Atilde" unicode="&#xc3;" horiz-adv-x="1478" 
d="M1133 0l-123 395h-551l-121 -395h-301l467 1462h469l469 -1462h-309zM698 1169l-157 -507h385l-158 507h-70zM874 1743q72 0 72 94h131q0 -126 -51 -197t-154 -71q-34 0 -66 8.5t-49.5 16.5t-51.5 26q-10 5 -34.5 18.5t-42.5 20t-36 6.5q-35 0 -52.5 -26t-17.5 -70h-131
q0 126 50.5 197t152.5 71q80 0 180 -55q26 -15 37 -21t28.5 -12t34.5 -6z" />
    <glyph glyph-name="Adieresis" unicode="&#xc4;" horiz-adv-x="1478" 
d="M1133 0l-123 395h-551l-121 -395h-301l467 1462h469l469 -1462h-309zM698 1169l-157 -507h385l-158 507h-70zM1065 1602h-240v233h240v-233zM664 1602h-242v233h242v-233z" />
    <glyph glyph-name="Aring" unicode="&#xc5;" horiz-adv-x="1478" 
d="M1133 0l-119 395h-557l-119 -395h-301l465 1462h20q-24 46 -24 105q0 98 71 166.5t170 68.5q102 0 172 -68t70 -167q0 -50 -25 -105h19l467 -1462h-309zM688 1169l-153 -507h397l-154 507h-90zM739 1462q43 0 74 31t31 74t-31 73.5t-74 30.5q-41 0 -71.5 -30.5
t-30.5 -73.5t30.5 -74t71.5 -31z" />
    <glyph glyph-name="AE" unicode="&#xc6;" horiz-adv-x="2152" 
d="M1063 0v395h-508l-205 -395h-342l787 1462h1245v-272h-672v-307h500v-267h-500v-344h694v-272h-999zM963 1178l-271 -516h371v516h-100z" />
    <glyph glyph-name="Ccedilla" unicode="&#xc7;" horiz-adv-x="1509" 
d="M1094 467h317q-33 -219 -192 -354.5t-404 -139.5l-35 -92h27q27 21 78 21q65 0 110 -48.5t45 -127.5q0 -81 -58 -138t-173 -57q-98 0 -154 49t-61 117h147q5 -22 23.5 -36.5t48.5 -14.5q33 0 53.5 19.5t20.5 51.5t-20.5 51t-53.5 19q-38 0 -63 -25h-129l81 218
q-284 29 -443 232t-159 519q0 225 82 395.5t241.5 266.5t377.5 96q239 0 399 -124.5t197 -328.5h-320q-52 181 -276 181q-96 0 -170.5 -37.5t-121.5 -104.5t-71 -154t-24 -190q0 -139 41 -246t130 -173t216 -66q118 0 194 58t99 163z" />
    <glyph glyph-name="Egrave" unicode="&#xc8;" horiz-adv-x="1363" 
d="M475 272h799v-272h-1104v1462h1081v-272h-776v-307h604v-267h-604v-344zM629 1571l-238 264h311l189 -264h-262z" />
    <glyph glyph-name="Eacute" unicode="&#xc9;" horiz-adv-x="1363" 
d="M475 272h799v-272h-1104v1462h1081v-272h-776v-307h604v-267h-604v-344zM1004 1835l-240 -264h-260l186 264h314z" />
    <glyph glyph-name="Ecircumflex" unicode="&#xca;" horiz-adv-x="1363" 
d="M475 272h799v-272h-1104v1462h1081v-272h-776v-307h604v-267h-604v-344zM838 1835l229 -264h-236l-98 108h-41l-96 -108h-231l229 264h244z" />
    <glyph glyph-name="Edieresis" unicode="&#xcb;" horiz-adv-x="1363" 
d="M475 272h799v-272h-1104v1462h1081v-272h-776v-307h604v-267h-604v-344zM1032 1602h-239v233h239v-233zM631 1602h-242v233h242v-233z" />
    <glyph glyph-name="Igrave" unicode="&#xcc;" horiz-adv-x="665" 
d="M180 1462h305v-1462h-305v1462zM209 1571l-238 264h312l188 -264h-262z" />
    <glyph glyph-name="Iacute" unicode="&#xcd;" horiz-adv-x="665" 
d="M180 1462h305v-1462h-305v1462zM702 1835l-239 -264h-260l186 264h313z" />
    <glyph glyph-name="Icircumflex" unicode="&#xce;" horiz-adv-x="665" 
d="M180 1462h305v-1462h-305v1462zM459 1835l229 -264h-235l-99 108h-41l-96 -108h-231l229 264h244z" />
    <glyph glyph-name="Idieresis" unicode="&#xcf;" horiz-adv-x="665" 
d="M180 1462h305v-1462h-305v1462zM657 1602h-239v233h239v-233zM256 1602h-242v233h242v-233z" />
    <glyph glyph-name="Eth" unicode="&#xd0;" horiz-adv-x="1601" 
d="M41 625v233h172v604h610q329 0 503.5 -196.5t174.5 -534.5q0 -221 -75 -384t-229 -255t-374 -92h-610v625h-172zM518 272h266q107 0 187 35.5t126.5 99.5t68.5 144.5t22 179.5t-22 179.5t-68.5 144.5t-126.5 99.5t-187 35.5h-266v-332h361v-233h-361v-353z" />
    <glyph glyph-name="Ntilde" unicode="&#xd1;" horiz-adv-x="1601" 
d="M1155 1462h279v-1462h-381l-564 1008h-40v-1008h-279v1462h381l563 -1007h41v1007zM942 1743q72 0 72 94h131q0 -126 -51 -197t-154 -71q-34 0 -66 8t-50 16.5t-52 26.5q-10 5 -34.5 18.5t-42.5 20t-36 6.5q-69 0 -69 -96h-131q0 126 50.5 197t152.5 71q80 0 180 -55
q26 -15 37 -21t28.5 -12t34.5 -6z" />
    <glyph glyph-name="Ograve" unicode="&#xd2;" horiz-adv-x="1626" 
d="M813 1489q170 0 306.5 -58t225 -160t135 -240t46.5 -300t-46.5 -300t-135 -240t-225 -160t-306.5 -58t-306.5 58t-225 160t-135 240t-46.5 300t46.5 300t135 240t225 160t306.5 58zM813 246q100 0 177.5 37.5t125 104t72 153.5t24.5 190t-24.5 190t-72 154t-125 104.5
t-177.5 37.5q-131 0 -222.5 -66t-134 -173.5t-42.5 -246.5t42.5 -246t134 -173t222.5 -66zM694 1571l-237 264h311l188 -264h-262z" />
    <glyph glyph-name="Oacute" unicode="&#xd3;" horiz-adv-x="1626" 
d="M813 1489q170 0 306.5 -58t225 -160t135 -240t46.5 -300t-46.5 -300t-135 -240t-225 -160t-306.5 -58t-306.5 58t-225 160t-135 240t-46.5 300t46.5 300t135 240t225 160t306.5 58zM813 246q100 0 177.5 37.5t125 104t72 153.5t24.5 190t-24.5 190t-72 154t-125 104.5
t-177.5 37.5q-131 0 -222.5 -66t-134 -173.5t-42.5 -246.5t42.5 -246t134 -173t222.5 -66zM1180 1835l-240 -264h-260l186 264h314z" />
    <glyph glyph-name="Ocircumflex" unicode="&#xd4;" horiz-adv-x="1626" 
d="M813 1489q170 0 306.5 -58t225 -160t135 -240t46.5 -300t-46.5 -300t-135 -240t-225 -160t-306.5 -58t-306.5 58t-225 160t-135 240t-46.5 300t46.5 300t135 240t225 160t306.5 58zM813 246q100 0 177.5 37.5t125 104t72 153.5t24.5 190t-24.5 190t-72 154t-125 104.5
t-177.5 37.5q-131 0 -222.5 -66t-134 -173.5t-42.5 -246.5t42.5 -246t134 -173t222.5 -66zM938 1835l229 -264h-235l-98 108h-41l-97 -108h-231l229 264h244z" />
    <glyph glyph-name="Otilde" unicode="&#xd5;" horiz-adv-x="1626" 
d="M813 1489q170 0 306.5 -58t225 -160t135 -240t46.5 -300t-46.5 -300t-135 -240t-225 -160t-306.5 -58t-306.5 58t-225 160t-135 240t-46.5 300t46.5 300t135 240t225 160t306.5 58zM813 246q100 0 177.5 37.5t125 104t72 153.5t24.5 190t-24.5 190t-72 154t-125 104.5
t-177.5 37.5q-131 0 -222.5 -66t-134 -173.5t-42.5 -246.5t42.5 -246t134 -173t222.5 -66zM956 1743q72 0 72 94h131q0 -126 -51 -197t-154 -71q-34 0 -66 8t-50 16.5t-52 26.5q-10 5 -34.5 18.5t-42 20t-35.5 6.5q-35 0 -52.5 -26t-17.5 -70h-131q0 126 50.5 197t152.5 71
q80 0 180 -55q26 -15 37 -21t28.5 -12t34.5 -6z" />
    <glyph glyph-name="Odieresis" unicode="&#xd6;" horiz-adv-x="1626" 
d="M813 1489q170 0 306.5 -58t225 -160t135 -240t46.5 -300t-46.5 -300t-135 -240t-225 -160t-306.5 -58t-306.5 58t-225 160t-135 240t-46.5 300t46.5 300t135 240t225 160t306.5 58zM813 246q100 0 177.5 37.5t125 104t72 153.5t24.5 190t-24.5 190t-72 154t-125 104.5
t-177.5 37.5q-131 0 -222.5 -66t-134 -173.5t-42.5 -246.5t42.5 -246t134 -173t222.5 -66zM1137 1602h-240v233h240v-233zM735 1602h-241v233h241v-233z" />
    <glyph glyph-name="multiply" unicode="&#xd7;" horiz-adv-x="1347" 
d="M504 592l-342 344l170 170l342 -342l344 342l168 -170l-340 -342l340 -346l-168 -168l-344 342l-340 -340l-170 168z" />
    <glyph glyph-name="Oslash" unicode="&#xd8;" horiz-adv-x="1626" 
d="M813 1489q244 0 416 -117l76 90h227l-174 -209q168 -204 168 -522q0 -162 -46.5 -300t-135 -240t-225 -160t-306.5 -58q-237 0 -416 117l-73 -90h-230l172 209q-166 195 -166 522q0 162 46.5 300t135 240t225 160t306.5 58zM414 731q0 -160 55 -276l573 692
q-91 70 -229 70q-131 0 -222.5 -66t-134 -173.5t-42.5 -246.5zM813 246q100 0 177.5 37.5t125 104t72 153.5t24.5 190q0 160 -57 277l-571 -695q92 -67 229 -67z" />
    <glyph glyph-name="Ugrave" unicode="&#xd9;" horiz-adv-x="1556" 
d="M1085 1462h306v-923q0 -272 -159.5 -419t-455.5 -147q-293 0 -451.5 147t-158.5 419v923h305v-917q0 -137 80.5 -218t226.5 -81q147 0 227 80.5t80 218.5v917zM672 1571l-238 264h311l189 -264h-262z" />
    <glyph glyph-name="Uacute" unicode="&#xda;" horiz-adv-x="1556" 
d="M1085 1462h306v-923q0 -272 -159.5 -419t-455.5 -147q-293 0 -451.5 147t-158.5 419v923h305v-917q0 -137 80.5 -218t226.5 -81q147 0 227 80.5t80 218.5v917zM1108 1835l-240 -264h-260l187 264h313z" />
    <glyph glyph-name="Ucircumflex" unicode="&#xdb;" horiz-adv-x="1556" 
d="M1085 1462h306v-923q0 -272 -159.5 -419t-455.5 -147q-293 0 -451.5 147t-158.5 419v923h305v-917q0 -137 80.5 -218t226.5 -81q147 0 227 80.5t80 218.5v917zM901 1835l229 -264h-235l-98 108h-41l-97 -108h-231l229 264h244z" />
    <glyph glyph-name="Udieresis" unicode="&#xdc;" horiz-adv-x="1556" 
d="M1085 1462h306v-923q0 -272 -159.5 -419t-455.5 -147q-293 0 -451.5 147t-158.5 419v923h305v-917q0 -137 80.5 -218t226.5 -81q147 0 227 80.5t80 218.5v917zM1100 1602h-240v233h240v-233zM698 1602h-241v233h241v-233z" />
    <glyph glyph-name="Yacute" unicode="&#xdd;" horiz-adv-x="1390" 
d="M670 870h57l320 592h311l-510 -942v-520h-307v520l-510 942h319zM1042 1835l-239 -264h-260l186 264h313z" />
    <glyph glyph-name="Thorn" unicode="&#xde;" horiz-adv-x="1396" 
d="M475 1184h316q241 0 374 -119.5t133 -333.5q0 -212 -133.5 -332t-373.5 -120h-316v-279h-305v1462h305v-278zM475 547h275q125 0 180 47t55 139q0 91 -55 136.5t-180 45.5h-275v-368z" />
    <glyph glyph-name="germandbls" unicode="&#xdf;" horiz-adv-x="1259" 
d="M934 825v-39q111 -33 179.5 -130t68.5 -228q0 -202 -124.5 -315t-340.5 -113h-139v238h86q106 0 168.5 50.5t62.5 160.5t-65 167.5t-193 57.5h-27v237h27q87 0 131.5 49t44.5 123q0 79 -48 126.5t-132 47.5q-195 0 -195 -237v-1020h-286v1053q0 207 132.5 324.5
t354.5 117.5q203 0 330 -107t127 -284q0 -97 -44.5 -172.5t-117.5 -106.5z" />
    <glyph glyph-name="agrave" unicode="&#xe0;" horiz-adv-x="1200" 
d="M797 0v90h-41q-102 -117 -295 -117q-177 0 -280 100.5t-103 250.5q0 65 24 124.5t72.5 111.5t134 83t197.5 31h280v26q0 164 -186 164q-165 0 -178 -104h-285q4 144 130 231.5t319 87.5q225 0 351 -95.5t126 -299.5v-684h-266zM551 201q104 0 169.5 61.5t65.5 159.5v61
h-225q-94 0 -145 -34.5t-51 -102.5q0 -71 48.5 -108t137.5 -37zM514 1192l-238 297h302l190 -297h-254z" />
    <glyph glyph-name="aacute" unicode="&#xe1;" horiz-adv-x="1200" 
d="M797 0v90h-41q-102 -117 -295 -117q-177 0 -280 100.5t-103 250.5q0 65 24 124.5t72.5 111.5t134 83t197.5 31h280v26q0 164 -186 164q-165 0 -178 -104h-285q4 144 130 231.5t319 87.5q225 0 351 -95.5t126 -299.5v-684h-266zM551 201q104 0 169.5 61.5t65.5 159.5v61
h-225q-94 0 -145 -34.5t-51 -102.5q0 -71 48.5 -108t137.5 -37zM924 1489l-240 -297h-252l189 297h303z" />
    <glyph glyph-name="acircumflex" unicode="&#xe2;" horiz-adv-x="1200" 
d="M797 0v90h-41q-102 -117 -295 -117q-177 0 -280 100.5t-103 250.5q0 65 24 124.5t72.5 111.5t134 83t197.5 31h280v26q0 164 -186 164q-165 0 -178 -104h-285q4 144 130 231.5t319 87.5q225 0 351 -95.5t126 -299.5v-684h-266zM551 201q104 0 169.5 61.5t65.5 159.5v61
h-225q-94 0 -145 -34.5t-51 -102.5q0 -71 48.5 -108t137.5 -37zM727 1489l231 -297h-223l-110 131h-41l-107 -131h-221l231 297h240z" />
    <glyph glyph-name="atilde" unicode="&#xe3;" horiz-adv-x="1200" 
d="M797 0v90h-41q-102 -117 -295 -117q-177 0 -280 100.5t-103 250.5q0 65 24 124.5t72.5 111.5t134 83t197.5 31h280v26q0 164 -186 164q-165 0 -178 -104h-285q4 144 130 231.5t319 87.5q225 0 351 -95.5t126 -299.5v-684h-266zM551 201q104 0 169.5 61.5t65.5 159.5v61
h-225q-94 0 -145 -34.5t-51 -102.5q0 -71 48.5 -108t137.5 -37zM766 1376q72 0 72 109h131q0 -134 -51.5 -211.5t-153.5 -77.5q-34 0 -66.5 10t-50.5 20t-51 31q-5 3 -22 13.5t-24 14t-20 9.5t-24 8.5t-23 2.5q-69 0 -69 -109h-131q0 135 50 212t152 77q35 0 71 -12
t56 -23.5t52 -32.5q62 -41 102 -41z" />
    <glyph glyph-name="adieresis" unicode="&#xe4;" horiz-adv-x="1200" 
d="M797 0v90h-41q-102 -117 -295 -117q-177 0 -280 100.5t-103 250.5q0 65 24 124.5t72.5 111.5t134 83t197.5 31h280v26q0 164 -186 164q-165 0 -178 -104h-285q4 144 130 231.5t319 87.5q225 0 351 -95.5t126 -299.5v-684h-266zM551 201q104 0 169.5 61.5t65.5 159.5v61
h-225q-94 0 -145 -34.5t-51 -102.5q0 -71 48.5 -108t137.5 -37zM940 1233h-240v256h240v-256zM539 1233h-242v256h242v-256z" />
    <glyph glyph-name="aring" unicode="&#xe5;" horiz-adv-x="1200" 
d="M797 0v90h-41q-102 -117 -295 -117q-177 0 -280 100.5t-103 250.5q0 65 24 124.5t72.5 111.5t134 83t197.5 31h280v26q0 164 -186 164q-165 0 -178 -104h-285q4 144 130 231.5t319 87.5q225 0 351 -95.5t126 -299.5v-684h-266zM551 201q104 0 169.5 61.5t65.5 159.5v61
h-225q-94 0 -145 -34.5t-51 -102.5q0 -71 48.5 -108t137.5 -37zM606 1640q102 0 172 -68t70 -167t-70 -167.5t-172 -68.5q-99 0 -170 69t-71 167t71 166.5t170 68.5zM606 1303q43 0 74 30t31 72q0 43 -31 73.5t-74 30.5q-41 0 -71.5 -30.5t-30.5 -73.5q0 -42 30 -72t72 -30z
" />
    <glyph glyph-name="ae" unicode="&#xe6;" horiz-adv-x="1878" 
d="M1786 483h-744q8 -125 70 -198.5t180 -73.5q77 0 123.5 25.5t69.5 80.5h291q-76 -344 -484 -344q-124 0 -223 48t-164 133h-37q-63 -82 -168 -131.5t-227 -49.5q-188 0 -291.5 99t-103.5 247q0 162 113.5 258.5t322.5 96.5h256v26q0 164 -180 164q-73 0 -117 -26.5
t-51 -77.5h-285q8 142 129.5 230.5t311.5 88.5q230 0 344 -133h39q126 133 337 133q223 0 355.5 -141.5t132.5 -364.5v-90zM770 416v67h-211q-94 0 -144 -35t-50 -104q0 -70 48 -106.5t130 -36.5q104 0 165.5 59t61.5 156zM1284 864q-186 0 -227 -190h438q-12 90 -64.5 140
t-146.5 50z" />
    <glyph glyph-name="ccedilla" unicode="&#xe7;" horiz-adv-x="1193" 
d="M821 354h283q-20 -169 -149 -273t-324 -108l-35 -92h27q27 21 77 21q65 0 110.5 -48.5t45.5 -127.5q0 -81 -58 -138t-173 -57q-98 0 -154 49t-61 117h147q5 -22 23.5 -36.5t48.5 -14.5q32 0 52.5 19.5t20.5 51.5t-20 51t-53 19q-39 0 -64 -25h-129l82 220
q-196 29 -311 176.5t-115 367.5q0 250 144 401.5t387 151.5q196 0 324.5 -99.5t148.5 -262.5h-285q-35 123 -186 123q-126 0 -186 -87t-60 -225q0 -67 14 -122.5t42.5 -100t77 -69.5t112.5 -25q85 0 134.5 37t61.5 106z" />
    <glyph glyph-name="egrave" unicode="&#xe8;" horiz-adv-x="1222" 
d="M1130 580v-86h-753q6 -137 70.5 -210t185.5 -73q154 0 196 106h291q-33 -161 -157.5 -252.5t-333.5 -91.5q-249 0 -393 151.5t-144 405.5q0 252 143.5 400.5t387.5 148.5q234 0 370.5 -139.5t136.5 -359.5zM621 864q-188 0 -234 -180h451q-13 83 -67.5 131.5t-149.5 48.5
zM547 1192l-238 297h301l191 -297h-254z" />
    <glyph glyph-name="eacute" unicode="&#xe9;" horiz-adv-x="1222" 
d="M1130 580v-86h-753q6 -137 70.5 -210t185.5 -73q154 0 196 106h291q-33 -161 -157.5 -252.5t-333.5 -91.5q-249 0 -393 151.5t-144 405.5q0 252 143.5 400.5t387.5 148.5q234 0 370.5 -139.5t136.5 -359.5zM621 864q-188 0 -234 -180h451q-13 83 -67.5 131.5t-149.5 48.5
zM973 1489l-240 -297h-252l189 297h303z" />
    <glyph glyph-name="ecircumflex" unicode="&#xea;" horiz-adv-x="1222" 
d="M1130 580v-86h-753q6 -137 70.5 -210t185.5 -73q154 0 196 106h291q-33 -161 -157.5 -252.5t-333.5 -91.5q-249 0 -393 151.5t-144 405.5q0 252 143.5 400.5t387.5 148.5q234 0 370.5 -139.5t136.5 -359.5zM621 864q-188 0 -234 -180h451q-13 83 -67.5 131.5t-149.5 48.5
zM739 1489l232 -297h-223l-111 131h-41l-107 -131h-221l232 297h239z" />
    <glyph glyph-name="edieresis" unicode="&#xeb;" horiz-adv-x="1222" 
d="M1130 580v-86h-753q6 -137 70.5 -210t185.5 -73q154 0 196 106h291q-33 -161 -157.5 -252.5t-333.5 -91.5q-249 0 -393 151.5t-144 405.5q0 252 143.5 400.5t387.5 148.5q234 0 370.5 -139.5t136.5 -359.5zM621 864q-188 0 -234 -180h451q-13 83 -67.5 131.5t-149.5 48.5
zM946 1233h-239v256h239v-256zM545 1233h-242v256h242v-256z" />
    <glyph glyph-name="igrave" unicode="&#xec;" horiz-adv-x="595" 
d="M440 1053v-1053h-286v1053h286zM188 1192l-237 297h301l190 -297h-254z" />
    <glyph glyph-name="iacute" unicode="&#xed;" horiz-adv-x="593" 
d="M440 1053v-1053h-286v1053h286zM664 1489l-240 -297h-252l188 297h304z" />
    <glyph glyph-name="icircumflex" unicode="&#xee;" horiz-adv-x="593" 
d="M440 1053v-1053h-286v1053h286zM420 1489l231 -297h-223l-111 131h-41l-106 -131h-221l231 297h240z" />
    <glyph glyph-name="idieresis" unicode="&#xef;" horiz-adv-x="593" 
d="M440 1053v-1053h-286v1053h286zM621 1233h-240v256h240v-256zM219 1233h-242v256h242v-256z" />
    <glyph glyph-name="eth" unicode="&#xf0;" horiz-adv-x="1261" 
d="M281 1141v135h286q-90 88 -272 213h342q135 -90 244 -213h266v-135h-162q184 -276 184 -596q0 -167 -60.5 -294.5t-184.5 -202.5t-297 -75q-163 0 -286 71.5t-186 192.5t-63 273q0 113 36 210t97 163t143.5 103.5t174.5 37.5q151 0 231 -70h41q-40 93 -121 187h-413z
M631 211q125 0 187.5 81t62.5 212q0 130 -63 212.5t-187 82.5q-125 0 -189.5 -83t-64.5 -212q0 -130 64.5 -211.5t189.5 -81.5z" />
    <glyph glyph-name="ntilde" unicode="&#xf1;" horiz-adv-x="1300" 
d="M756 1079q199 0 303 -118.5t104 -321.5v-639h-286v598q0 110 -53.5 168.5t-153.5 58.5q-103 0 -167.5 -77.5t-64.5 -186.5v-561h-286v1053h278v-99h41q37 57 111 91t174 34zM799 1376q71 0 71 109h131q0 -134 -51 -211.5t-153 -77.5q-34 0 -66.5 10t-50.5 20t-51 31
q-5 3 -22 13.5t-24 14t-20 9.5t-24 8.5t-23 2.5q-35 0 -52.5 -29.5t-17.5 -79.5h-131q0 135 50.5 212t152.5 77q35 0 71 -12t55 -23t52 -33q62 -41 103 -41z" />
    <glyph glyph-name="ograve" unicode="&#xf2;" horiz-adv-x="1273" 
d="M637 1079q250 0 397.5 -152t147.5 -401t-147.5 -401t-397.5 -152q-248 0 -396.5 152t-148.5 401t148.5 401t396.5 152zM637 211q128 0 193 89t65 226q0 87 -26 156t-86 113.5t-146 44.5q-127 0 -192.5 -89.5t-65.5 -224.5q0 -88 26.5 -157.5t86 -113.5t145.5 -44z
M522 1192l-237 297h301l190 -297h-254z" />
    <glyph glyph-name="oacute" unicode="&#xf3;" horiz-adv-x="1273" 
d="M637 1079q250 0 397.5 -152t147.5 -401t-147.5 -401t-397.5 -152q-248 0 -396.5 152t-148.5 401t148.5 401t396.5 152zM637 211q128 0 193 89t65 226q0 87 -26 156t-86 113.5t-146 44.5q-127 0 -192.5 -89.5t-65.5 -224.5q0 -88 26.5 -157.5t86 -113.5t145.5 -44z
M991 1489l-239 -297h-252l188 297h303z" />
    <glyph glyph-name="ocircumflex" unicode="&#xf4;" horiz-adv-x="1273" 
d="M637 1079q250 0 397.5 -152t147.5 -401t-147.5 -401t-397.5 -152q-248 0 -396.5 152t-148.5 401t148.5 401t396.5 152zM637 211q128 0 193 89t65 226q0 87 -26 156t-86 113.5t-146 44.5q-127 0 -192.5 -89.5t-65.5 -224.5q0 -88 26.5 -157.5t86 -113.5t145.5 -44z
M758 1489l231 -297h-223l-111 131h-41l-106 -131h-221l231 297h240z" />
    <glyph glyph-name="otilde" unicode="&#xf5;" horiz-adv-x="1273" 
d="M637 1079q250 0 397.5 -152t147.5 -401t-147.5 -401t-397.5 -152q-248 0 -396.5 152t-148.5 401t148.5 401t396.5 152zM637 211q128 0 193 89t65 226q0 87 -26 156t-86 113.5t-146 44.5q-127 0 -192.5 -89.5t-65.5 -224.5q0 -88 26.5 -157.5t86 -113.5t145.5 -44z
M776 1376q72 0 72 109h131q0 -134 -51.5 -211.5t-153.5 -77.5q-34 0 -66.5 10t-50.5 20t-51 31q-6 4 -22 13.5t-23.5 13.5t-20 10t-23.5 8.5t-23 2.5q-35 0 -52.5 -29.5t-17.5 -79.5h-131q0 135 50.5 212t152.5 77q35 0 71 -12t55 -23t52 -33q62 -41 102 -41z" />
    <glyph glyph-name="odieresis" unicode="&#xf6;" horiz-adv-x="1273" 
d="M637 1079q250 0 397.5 -152t147.5 -401t-147.5 -401t-397.5 -152q-248 0 -396.5 152t-148.5 401t148.5 401t396.5 152zM637 211q128 0 193 89t65 226q0 87 -26 156t-86 113.5t-146 44.5q-127 0 -192.5 -89.5t-65.5 -224.5q0 -88 26.5 -157.5t86 -113.5t145.5 -44z
M958 1233h-239v256h239v-256zM557 1233h-242v256h242v-256z" />
    <glyph glyph-name="divide" unicode="&#xf7;" horiz-adv-x="1380" 
d="M852 18h-324v279h324v-279zM852 887h-324v278h324v-278zM1217 471h-1053v244h1053v-244z" />
    <glyph glyph-name="oslash" unicode="&#xf8;" horiz-adv-x="1273" 
d="M637 1079q172 0 303 -78l45 52h209l-133 -156q121 -145 121 -371q0 -249 -147.5 -401t-397.5 -152q-172 0 -303 78l-45 -51h-209l133 156q-121 145 -121 370q0 249 148.5 401t396.5 152zM637 205q131 0 197.5 90.5t66.5 230.5q0 75 -27 154l-376 -438q58 -37 139 -37z
M373 526q0 -88 24 -155l377 438q-58 37 -137 37q-130 0 -197 -91t-67 -229z" />
    <glyph glyph-name="ugrave" unicode="&#xf9;" horiz-adv-x="1294" 
d="M541 -27q-198 0 -301 119t-103 322v639h287v-598q0 -111 52 -169.5t151 -58.5q104 0 166.5 77.5t62.5 187.5v561h287v-1053h-279v98h-41q-37 -57 -109.5 -91t-172.5 -34zM545 1192l-238 297h301l191 -297h-254z" />
    <glyph glyph-name="uacute" unicode="&#xfa;" horiz-adv-x="1294" 
d="M541 -27q-198 0 -301 119t-103 322v639h287v-598q0 -111 52 -169.5t151 -58.5q104 0 166.5 77.5t62.5 187.5v561h287v-1053h-279v98h-41q-37 -57 -109.5 -91t-172.5 -34zM965 1489l-240 -297h-252l189 297h303z" />
    <glyph glyph-name="ucircumflex" unicode="&#xfb;" horiz-adv-x="1294" 
d="M541 -27q-198 0 -301 119t-103 322v639h287v-598q0 -111 52 -169.5t151 -58.5q104 0 166.5 77.5t62.5 187.5v561h287v-1053h-279v98h-41q-37 -57 -109.5 -91t-172.5 -34zM754 1489l231 -297h-223l-111 131h-41l-106 -131h-221l231 297h240z" />
    <glyph glyph-name="udieresis" unicode="&#xfc;" horiz-adv-x="1294" 
d="M541 -27q-198 0 -301 119t-103 322v639h287v-598q0 -111 52 -169.5t151 -58.5q104 0 166.5 77.5t62.5 187.5v561h287v-1053h-279v98h-41q-37 -57 -109.5 -91t-172.5 -34zM954 1233h-239v256h239v-256zM553 1233h-242v256h242v-256z" />
    <glyph glyph-name="yacute" unicode="&#xfd;" horiz-adv-x="1216" 
d="M543 -410h-287l223 508l-442 955h301l260 -561h53l244 561h287zM940 1489l-240 -297h-251l188 297h303z" />
    <glyph glyph-name="thorn" unicode="&#xfe;" horiz-adv-x="1314" 
d="M1223 526q0 -245 -126.5 -399t-338.5 -154q-186 0 -279 125h-41v-508h-286v1899h286v-535h41q93 125 279 125q212 0 338.5 -154t126.5 -399zM936 526q0 138 -64.5 226t-187.5 88q-126 0 -191 -89.5t-65 -224.5q0 -134 65 -223.5t191 -89.5q123 0 187.5 87.5t64.5 225.5z
" />
    <glyph glyph-name="ydieresis" unicode="&#xff;" horiz-adv-x="1216" 
d="M543 -410h-287l223 508l-442 955h301l260 -561h53l244 561h287zM938 1233h-240v256h240v-256zM537 1233h-242v256h242v-256z" />
    <glyph glyph-name="Amacron" unicode="&#x100;" horiz-adv-x="1478" 
d="M1133 0l-123 395h-551l-121 -395h-301l467 1462h469l469 -1462h-309zM698 1169l-157 -507h385l-158 507h-70zM1049 1628h-619v168h619v-168z" />
    <glyph glyph-name="amacron" unicode="&#x101;" horiz-adv-x="1200" 
d="M797 0v90h-41q-102 -117 -295 -117q-177 0 -280 100.5t-103 250.5q0 65 24 124.5t72.5 111.5t134 83t197.5 31h280v26q0 164 -186 164q-165 0 -178 -104h-285q4 144 130 231.5t319 87.5q225 0 351 -95.5t126 -299.5v-684h-266zM551 201q104 0 169.5 61.5t65.5 159.5v61
h-225q-94 0 -145 -34.5t-51 -102.5q0 -71 48.5 -108t137.5 -37zM920 1243h-619v182h619v-182z" />
    <glyph glyph-name="Abreve" unicode="&#x102;" horiz-adv-x="1478" 
d="M1133 0l-123 395h-551l-121 -395h-301l467 1462h469l469 -1462h-309zM698 1169l-157 -507h385l-158 507h-70zM862 1835h180q-5 -125 -82 -194.5t-221 -69.5q-140 0 -218 70t-83 194h183q1 -53 32 -81t86 -28t88.5 28t34.5 81z" />
    <glyph glyph-name="abreve" unicode="&#x103;" horiz-adv-x="1200" 
d="M797 0v90h-41q-102 -117 -295 -117q-177 0 -280 100.5t-103 250.5q0 65 24 124.5t72.5 111.5t134 83t197.5 31h280v26q0 164 -186 164q-165 0 -178 -104h-285q4 144 130 231.5t319 87.5q225 0 351 -95.5t126 -299.5v-684h-266zM551 201q104 0 169.5 61.5t65.5 159.5v61
h-225q-94 0 -145 -34.5t-51 -102.5q0 -71 48.5 -108t137.5 -37zM723 1489h180q0 -138 -78 -217.5t-223 -79.5t-224 80t-79 217h182q0 -64 31 -98.5t90 -34.5q57 0 89 35t32 98z" />
    <glyph glyph-name="Aogonek" unicode="&#x104;" horiz-adv-x="1482" 
d="M1133 0l-123 395h-551l-121 -395h-301l475 1462h453l477 -1462q-55 -30 -87 -69.5t-32 -80.5q0 -42 31.5 -67t91.5 -25v-168h-62q-141 0 -207.5 53.5t-66.5 143.5q0 62 43.5 120.5t120.5 92.5h-141zM698 1169l-157 -507h385l-158 507h-70z" />
    <glyph glyph-name="aogonek" unicode="&#x105;" horiz-adv-x="1200" 
d="M797 0v90h-41q-102 -117 -295 -117q-177 0 -280 100.5t-103 250.5q0 65 24 124.5t72.5 111.5t134 83t197.5 31h280v26q0 164 -186 164q-165 0 -178 -104h-285q4 144 130 231.5t319 87.5q225 0 351 -95.5t126 -299.5v-684q-55 -30 -87 -69.5t-32 -80.5q0 -42 31.5 -67
t91.5 -25v-168h-61q-141 0 -208 53.5t-67 143.5q0 62 43.5 120.5t120.5 92.5h-98zM551 201q104 0 169.5 61.5t65.5 159.5v61h-225q-94 0 -145 -34.5t-51 -102.5q0 -71 48.5 -108t137.5 -37z" />
    <glyph glyph-name="Cacute" unicode="&#x106;" horiz-adv-x="1509" 
d="M1094 467h317q-33 -223 -195.5 -358.5t-414.5 -135.5q-219 0 -378.5 96t-241 266.5t-81.5 395.5t82 395.5t241.5 266.5t377.5 96q239 0 399 -124.5t197 -328.5h-320q-52 181 -276 181q-96 0 -170.5 -37.5t-121.5 -104.5t-71 -154t-24 -190q0 -139 41 -246t130 -173
t216 -66q118 0 194 58t99 163zM1167 1835l-239 -264h-260l186 264h313z" />
    <glyph glyph-name="cacute" unicode="&#x107;" horiz-adv-x="1193" 
d="M821 354h283q-20 -171 -152 -276t-329 -105q-244 0 -387.5 151t-143.5 402q0 250 144 401.5t387 151.5q196 0 324.5 -99.5t148.5 -262.5h-285q-35 123 -186 123q-126 0 -186 -87t-60 -225q0 -67 14 -122.5t42.5 -100t77 -69.5t112.5 -25q85 0 134.5 37t61.5 106z
M958 1489l-239 -297h-252l188 297h303z" />
    <glyph glyph-name="Ccaron" unicode="&#x10c;" horiz-adv-x="1509" 
d="M1094 467h317q-33 -223 -195.5 -358.5t-414.5 -135.5q-219 0 -378.5 96t-241 266.5t-81.5 395.5t82 395.5t241.5 266.5t377.5 96q239 0 399 -124.5t197 -328.5h-320q-52 181 -276 181q-96 0 -170.5 -37.5t-121.5 -104.5t-71 -154t-24 -190q0 -139 41 -246t130 -173
t216 -66q118 0 194 58t99 163zM684 1571l-229 264h237l94 -109h43l97 109h231l-229 -264h-244z" />
    <glyph glyph-name="ccaron" unicode="&#x10d;" horiz-adv-x="1193" 
d="M821 354h283q-20 -171 -152 -276t-329 -105q-244 0 -387.5 151t-143.5 402q0 250 144 401.5t387 151.5q196 0 324.5 -99.5t148.5 -262.5h-285q-35 123 -186 123q-126 0 -186 -87t-60 -225q0 -67 14 -122.5t42.5 -100t77 -69.5t112.5 -25q85 0 134.5 37t61.5 106z
M500 1192l-232 297h226l106 -131h41l107 131h223l-232 -297h-239z" />
    <glyph glyph-name="Dcaron" unicode="&#x10e;" horiz-adv-x="1560" 
d="M170 1462h610q329 0 503.5 -196.5t174.5 -534.5q0 -221 -75 -384t-229 -255t-374 -92h-610v1462zM475 272h266q107 0 187 35.5t126.5 99.5t68.5 144.5t22 179.5t-22 179.5t-68.5 144.5t-126.5 99.5t-187 35.5h-266v-918zM596 1571l-229 264h237l94 -109h43l97 109h231
l-229 -264h-244z" />
    <glyph glyph-name="dcaron" unicode="&#x10f;" horiz-adv-x="1587" 
d="M1477 1241h-138v248h301v-283l-155 -184h-164l156 184v35zM557 1079q186 0 279 -125h41v535h286v-1489h-278v98h-41q-99 -125 -287 -125q-215 0 -340 153.5t-125 399.5q0 245 126.5 399t338.5 154zM631 211q126 0 191 90t65 225t-65 224.5t-191 89.5q-123 0 -187.5 -88
t-64.5 -226t64.5 -226.5t187.5 -88.5z" />
    <glyph glyph-name="Dcroat" unicode="&#x110;" horiz-adv-x="1601" 
d="M41 625v233h172v604h610q329 0 503.5 -196.5t174.5 -534.5q0 -221 -75 -384t-229 -255t-374 -92h-610v625h-172zM518 272h266q107 0 187 35.5t126.5 99.5t68.5 144.5t22 179.5t-22 179.5t-68.5 144.5t-126.5 99.5t-187 35.5h-266v-332h361v-233h-361v-353z" />
    <glyph glyph-name="dcroat" unicode="&#x111;" horiz-adv-x="1353" 
d="M557 1079q186 0 279 -125h41v226h-320v145h320v164h286v-164h158v-145h-158v-1180h-278v98h-41q-99 -125 -287 -125q-215 0 -340 153.5t-125 399.5q0 245 126.5 399t338.5 154zM631 211q126 0 191 90t65 225t-65 224.5t-191 89.5q-123 0 -187.5 -88t-64.5 -226
t64.5 -226.5t187.5 -88.5z" />
    <glyph glyph-name="Emacron" unicode="&#x112;" horiz-adv-x="1363" 
d="M475 272h799v-272h-1104v1462h1081v-272h-776v-307h604v-267h-604v-344zM1020 1628h-619v168h619v-168z" />
    <glyph glyph-name="emacron" unicode="&#x113;" horiz-adv-x="1222" 
d="M1130 580v-86h-753q6 -137 70.5 -210t185.5 -73q154 0 196 106h291q-33 -161 -157.5 -252.5t-333.5 -91.5q-249 0 -393 151.5t-144 405.5q0 252 143.5 400.5t387.5 148.5q234 0 370.5 -139.5t136.5 -359.5zM621 864q-188 0 -234 -180h451q-13 83 -67.5 131.5t-149.5 48.5
zM934 1243h-619v182h619v-182z" />
    <glyph glyph-name="Edotaccent" unicode="&#x116;" horiz-adv-x="1363" 
d="M475 272h799v-272h-1104v1462h1081v-272h-776v-307h604v-267h-604v-344zM866 1602h-291v233h291v-233z" />
    <glyph glyph-name="edotaccent" unicode="&#x117;" horiz-adv-x="1222" 
d="M1130 580v-86h-753q6 -137 70.5 -210t185.5 -73q154 0 196 106h291q-33 -161 -157.5 -252.5t-333.5 -91.5q-249 0 -393 151.5t-144 405.5q0 252 143.5 400.5t387.5 148.5q234 0 370.5 -139.5t136.5 -359.5zM621 864q-188 0 -234 -180h451q-13 83 -67.5 131.5t-149.5 48.5
zM770 1233h-291v256h291v-256z" />
    <glyph glyph-name="Eogonek" unicode="&#x118;" horiz-adv-x="1363" 
d="M475 272h799v-272q-55 -30 -87 -69.5t-32 -80.5q0 -42 31.5 -67t91.5 -25v-168h-61q-141 0 -208 53.5t-67 143.5q0 62 43.5 120.5t120.5 92.5h-936v1462h1081v-272h-776v-307h604v-267h-604v-344z" />
    <glyph glyph-name="eogonek" unicode="&#x119;" horiz-adv-x="1222" 
d="M1130 580v-86h-753q6 -137 70.5 -210t185.5 -73q153 0 196 106h291q-22 -105 -79 -174.5t-150 -119.5q-62 -34 -94.5 -70.5t-32.5 -93.5q0 -49 34.5 -75t96.5 -26v-168h-61q-141 0 -208 53.5t-67 143.5q0 115 125 190q-46 -4 -55 -4q-249 0 -393 151.5t-144 405.5
q0 252 143.5 400.5t387.5 148.5q234 0 370.5 -139.5t136.5 -359.5zM621 864q-188 0 -234 -180h451q-13 83 -67.5 131.5t-149.5 48.5z" />
    <glyph glyph-name="Ecaron" unicode="&#x11a;" horiz-adv-x="1363" 
d="M475 272h799v-272h-1104v1462h1081v-272h-776v-307h604v-267h-604v-344zM600 1571l-229 264h237l94 -109h43l97 109h231l-229 -264h-244z" />
    <glyph glyph-name="ecaron" unicode="&#x11b;" horiz-adv-x="1222" 
d="M1130 580v-86h-753q6 -137 70.5 -210t185.5 -73q154 0 196 106h291q-33 -161 -157.5 -252.5t-333.5 -91.5q-249 0 -393 151.5t-144 405.5q0 252 143.5 400.5t387.5 148.5q234 0 370.5 -139.5t136.5 -359.5zM621 864q-188 0 -234 -180h451q-13 83 -67.5 131.5t-149.5 48.5
zM504 1192l-232 297h226l106 -131h41l107 131h223l-232 -297h-239z" />
    <glyph glyph-name="uni0122" unicode="&#x122;" horiz-adv-x="1574" 
d="M797 813h651v-172q0 -105 -22 -200.5t-72 -181.5t-123 -149t-181.5 -100t-242.5 -37q-224 0 -385.5 98t-241.5 267.5t-80 392.5q0 222 80.5 391.5t242.5 268t386 98.5q247 0 402.5 -117.5t197.5 -320.5h-317q-52 166 -285 166q-190 0 -291.5 -134t-101.5 -352t102 -352.5
t293 -134.5q162 0 245.5 86.5t88.5 232.5h-346v250zM815 -475h-168l141 135v35h-120v194h286v-229z" />
    <glyph glyph-name="uni0123" unicode="&#x123;" horiz-adv-x="1316" 
d="M889 1053h278v-1002q0 -222 -146 -352.5t-382 -130.5q-220 0 -354.5 91.5t-151.5 262.5h285q21 -129 217 -129q128 0 187 77t59 206v63h-41q-88 -123 -271 -123q-214 0 -344.5 148t-130.5 383q0 234 132 383t345 149q102 0 172 -36t105 -89h41v99zM633 256
q123 0 190.5 82.5t67.5 208.5q0 128 -67.5 210.5t-190.5 82.5q-119 0 -185.5 -81t-66.5 -212t66.5 -211t185.5 -80zM631 1548h168l-142 -135v-35h121v-194h-286v229z" />
    <glyph glyph-name="Itilde" unicode="&#x128;" horiz-adv-x="665" 
d="M180 1462h305v-1462h-305v1462zM475 1743q72 0 72 94h131q0 -126 -51 -197t-154 -71q-34 0 -66 8t-50 16.5t-52 26.5q-10 5 -34.5 18.5t-42 20t-35.5 6.5q-35 0 -52.5 -26t-17.5 -70h-131q0 126 50.5 197t152.5 71q80 0 180 -55q26 -15 37 -21t28.5 -12t34.5 -6z" />
    <glyph glyph-name="itilde" unicode="&#x129;" horiz-adv-x="593" 
d="M440 1053v-1053h-286v1053h286zM440 1376q72 0 72 109h131q0 -134 -51.5 -211.5t-153.5 -77.5q-34 0 -66.5 10t-50.5 20t-51 31q-6 4 -22 13.5t-23.5 13.5t-20 10t-23.5 8.5t-23 2.5q-35 0 -52.5 -29.5t-17.5 -79.5h-131q0 135 50.5 212t152.5 77q35 0 71 -12t55 -23
t52 -33q62 -41 102 -41z" />
    <glyph glyph-name="Imacron" unicode="&#x12a;" horiz-adv-x="665" 
d="M180 1462h305v-1462h-305v1462zM643 1628h-618v168h618v-168z" />
    <glyph glyph-name="imacron" unicode="&#x12b;" horiz-adv-x="593" 
d="M440 1053v-1053h-286v1053h286zM559 1243h-524v182h524v-182z" />
    <glyph glyph-name="Iogonek" unicode="&#x12e;" horiz-adv-x="665" 
d="M180 1462h305v-1462q-55 -30 -86.5 -69.5t-31.5 -80.5q0 -43 31 -67.5t91 -24.5v-168h-61q-141 0 -207.5 53.5t-66.5 143.5q0 62 43 120.5t120 92.5h-137v1462z" />
    <glyph glyph-name="iogonek" unicode="&#x12f;" horiz-adv-x="593" 
d="M440 1053v-1053q-55 -30 -86.5 -69.5t-31.5 -80.5q0 -43 31 -67.5t91 -24.5v-168h-61q-141 0 -207.5 53.5t-66.5 143.5q0 62 43 120.5t120 92.5h-118v1053h286zM442 1233h-290v256h290v-256z" />
    <glyph glyph-name="dotlessi" unicode="&#x131;" horiz-adv-x="593" 
d="M440 1053v-1053h-286v1053h286z" />
    <glyph glyph-name="uni0136" unicode="&#x136;" horiz-adv-x="1542" 
d="M475 846l594 616h363l-480 -495l547 -967h-344l-405 711h-41l-234 -242v-469h-305v1462h305v-616zM823 -475h-168l142 135v35h-121v194h287v-229z" />
    <glyph glyph-name="uni0137" unicode="&#x137;" horiz-adv-x="1226" 
d="M1204 0h-319l-254 455h-41l-152 -160v-295h-286v1489h286v-850l389 414h324l-336 -359zM678 -475h-168l141 135v35h-121v194h287v-229z" />
    <glyph glyph-name="kgreenlandic" unicode="&#x138;" horiz-adv-x="1226" 
d="M1204 0h-319l-256 457h-41l-150 -160v-297h-286v1053h286v-418l391 418h318l-334 -357z" />
    <glyph glyph-name="Lacute" unicode="&#x139;" horiz-adv-x="1333" 
d="M475 279h774v-279h-1079v1462h305v-1183zM690 1835l-239 -264h-261l187 264h313z" />
    <glyph glyph-name="lacute" unicode="&#x13a;" horiz-adv-x="589" 
d="M152 1489h286v-1489h-286v1489zM666 1835l-240 -264h-260l186 264h314z" />
    <glyph glyph-name="uni013B" unicode="&#x13b;" horiz-adv-x="1333" 
d="M475 279h774v-279h-1079v1462h305v-1183zM713 -475h-168l141 135v35h-121v194h287v-229z" />
    <glyph glyph-name="uni013C" unicode="&#x13c;" horiz-adv-x="589" 
d="M152 1489h286v-1489h-286v1489zM299 -475h-168l141 135v35h-120v194h286v-229z" />
    <glyph glyph-name="Lcaron" unicode="&#x13d;" horiz-adv-x="1333" 
d="M475 279h774v-279h-1079v1462h305v-1183zM926 1214h-138v248h302v-282l-156 -185h-164l156 185v34z" />
    <glyph glyph-name="lcaron" unicode="&#x13e;" horiz-adv-x="862" 
d="M152 1489h286v-1489h-286v1489zM752 1241h-138v248h301v-283l-155 -184h-164l156 184v35z" />
    <glyph glyph-name="Lslash" unicode="&#x141;" horiz-adv-x="1388" 
d="M528 279h777v-279h-1082v545l-182 -72v252l182 72v665h305v-542l361 145v-252l-361 -145v-389z" />
    <glyph glyph-name="lslash" unicode="&#x142;" horiz-adv-x="761" 
d="M238 1489h286v-549l199 88v-254l-199 -88v-686h-286v557l-199 -88v254l199 88v678z" />
    <glyph glyph-name="Nacute" unicode="&#x143;" horiz-adv-x="1601" 
d="M1155 1462h279v-1462h-381l-564 1008h-40v-1008h-279v1462h381l563 -1007h41v1007zM1153 1835l-240 -264h-260l187 264h313z" />
    <glyph glyph-name="nacute" unicode="&#x144;" horiz-adv-x="1300" 
d="M756 1079q199 0 303 -118.5t104 -321.5v-639h-286v598q0 110 -53.5 168.5t-153.5 58.5q-103 0 -167.5 -77.5t-64.5 -186.5v-561h-286v1053h278v-99h41q37 57 111 91t174 34zM1016 1489l-240 -297h-252l189 297h303z" />
    <glyph glyph-name="uni0145" unicode="&#x145;" horiz-adv-x="1601" 
d="M1155 1462h279v-1462h-381l-564 1008h-40v-1008h-279v1462h381l563 -1007h41v1007zM809 -475h-168l141 135v35h-120v194h286v-229z" />
    <glyph glyph-name="uni0146" unicode="&#x146;" horiz-adv-x="1300" 
d="M756 1079q199 0 303 -118.5t104 -321.5v-639h-286v598q0 110 -53.5 168.5t-153.5 58.5q-103 0 -167.5 -77.5t-64.5 -186.5v-561h-286v1053h278v-99h41q37 57 111 91t174 34zM664 -475h-168l141 135v35h-121v194h287v-229z" />
    <glyph glyph-name="Ncaron" unicode="&#x147;" horiz-adv-x="1601" 
d="M1155 1462h279v-1462h-381l-564 1008h-40v-1008h-279v1462h381l563 -1007h41v1007zM680 1571l-229 264h237l94 -109h43l97 109h231l-229 -264h-244z" />
    <glyph glyph-name="ncaron" unicode="&#x148;" horiz-adv-x="1300" 
d="M756 1079q199 0 303 -118.5t104 -321.5v-639h-286v598q0 110 -53.5 168.5t-153.5 58.5q-103 0 -167.5 -77.5t-64.5 -186.5v-561h-286v1053h278v-99h41q37 57 111 91t174 34zM530 1192l-231 297h225l107 -131h41l106 131h223l-231 -297h-240z" />
    <glyph glyph-name="Eng" unicode="&#x14a;" horiz-adv-x="1601" 
d="M1155 1462h279v-1448q0 -209 -114 -316.5t-329 -107.5h-121v248h111q90 0 130 37.5t46 124.5h-104l-564 1008h-40v-1008h-279v1462h381l563 -1007h41v1007z" />
    <glyph glyph-name="eng" unicode="&#x14b;" horiz-adv-x="1300" 
d="M877 -37v635q0 110 -53.5 168.5t-153.5 58.5q-103 0 -167.5 -77.5t-64.5 -186.5v-561h-286v1053h278v-99h41q37 57 111 91t174 34q199 0 303 -118.5t104 -321.5v-715q0 -180 -101 -257t-294 -77h-141v244h121q129 0 129 129z" />
    <glyph glyph-name="Omacron" unicode="&#x14c;" horiz-adv-x="1630" 
d="M813 1489q170 0 306.5 -58t225 -160t135 -240t46.5 -300t-46.5 -300t-135 -240t-225 -160t-306.5 -58t-306.5 58t-225 160t-135 240t-46.5 300t46.5 300t135 240t225 160t306.5 58zM813 246q100 0 177.5 37.5t125 104t72 153.5t24.5 190t-24.5 190t-72 154t-125 104.5
t-177.5 37.5q-131 0 -222.5 -66t-134 -173.5t-42.5 -246.5t42.5 -246t134 -173t222.5 -66zM1124 1628h-618v168h618v-168z" />
    <glyph glyph-name="omacron" unicode="&#x14d;" horiz-adv-x="1273" 
d="M637 1079q250 0 397.5 -152t147.5 -401t-147.5 -401t-397.5 -152q-248 0 -396.5 152t-148.5 401t148.5 401t396.5 152zM637 211q128 0 193 89t65 226q0 87 -26 156t-86 113.5t-146 44.5q-127 0 -192.5 -89.5t-65.5 -224.5q0 -88 26.5 -157.5t86 -113.5t145.5 -44z
M946 1243h-618v182h618v-182z" />
    <glyph glyph-name="Ohungarumlaut" unicode="&#x150;" horiz-adv-x="1630" 
d="M813 1489q170 0 306.5 -58t225 -160t135 -240t46.5 -300t-46.5 -300t-135 -240t-225 -160t-306.5 -58t-306.5 58t-225 160t-135 240t-46.5 300t46.5 300t135 240t225 160t306.5 58zM813 246q100 0 177.5 37.5t125 104t72 153.5t24.5 190t-24.5 190t-72 154t-125 104.5
t-177.5 37.5q-131 0 -222.5 -66t-134 -173.5t-42.5 -246.5t42.5 -246t134 -173t222.5 -66zM909 1835l-207 -264h-217l158 264h266zM1296 1835l-209 -264h-215l160 264h264z" />
    <glyph glyph-name="ohungarumlaut" unicode="&#x151;" horiz-adv-x="1273" 
d="M637 1079q250 0 397.5 -152t147.5 -401t-147.5 -401t-397.5 -152q-248 0 -396.5 152t-148.5 401t148.5 401t396.5 152zM637 211q128 0 193 89t65 226q0 87 -26 156t-86 113.5t-146 44.5q-127 0 -192.5 -89.5t-65.5 -224.5q0 -88 26.5 -157.5t86 -113.5t145.5 -44z
M727 1489l-199 -297h-215l152 297h262zM1108 1489l-201 -297h-213l152 297h262z" />
    <glyph glyph-name="OE" unicode="&#x152;" horiz-adv-x="2234" 
d="M1450 272h694v-272h-999v88h-41q-131 -115 -346 -115q-296 0 -477 206t-181 552t181 552t477 206q102 0 192 -30.5t154 -84.5h41v88h977v-272h-672v-307h500v-267h-500v-344zM813 246q121 0 204.5 47.5t127.5 126.5v622q-44 79 -129 127t-203 48q-130 0 -221.5 -66
t-134.5 -174t-43 -246q0 -103 25 -190t73.5 -153.5t125.5 -104t175 -37.5z" />
    <glyph glyph-name="oe" unicode="&#x153;" horiz-adv-x="1994" 
d="M1903 494h-744q6 -134 66.5 -208.5t179.5 -74.5q149 0 197 106h290q-33 -163 -155 -253.5t-332 -90.5q-223 0 -365 162h-41q-63 -76 -158.5 -119t-211.5 -43q-242 0 -389.5 154.5t-147.5 398.5t147.5 398.5t389.5 154.5q233 0 375 -161h40q59 74 155 117.5t216 43.5
q219 0 353.5 -140.5t134.5 -358.5v-86zM631 211q125 0 188.5 89t63.5 226q0 136 -63.5 225t-188.5 89q-83 0 -141 -44t-84.5 -113.5t-26.5 -156.5q0 -136 64.5 -225.5t187.5 -89.5zM1401 864q-95 0 -152.5 -48.5t-77.5 -131.5h437q-11 85 -62 132.5t-145 47.5z" />
    <glyph glyph-name="Racute" unicode="&#x154;" horiz-adv-x="1486" 
d="M170 1462h688q244 0 379 -121t135 -337q0 -140 -60 -243t-171 -159l233 -602h-321l-211 545h-367v-545h-305v1462zM475 1194v-381h307q151 0 214 44t63 147t-62.5 146.5t-214.5 43.5h-307zM1057 1835l-240 -264h-260l186 264h314z" />
    <glyph glyph-name="racute" unicode="&#x155;" horiz-adv-x="917" 
d="M852 1053v-267h-92q-322 0 -322 -325v-461h-286v1053h276v-121h41q32 47 104.5 84t186.5 37h92zM801 1489l-240 -297h-252l189 297h303z" />
    <glyph glyph-name="uni0156" unicode="&#x156;" horiz-adv-x="1486" 
d="M170 1462h688q244 0 379 -121t135 -337q0 -140 -60 -243t-171 -159l233 -602h-321l-211 545h-367v-545h-305v1462zM475 1194v-381h307q151 0 214 44t63 147t-62.5 146.5t-214.5 43.5h-307zM758 -475h-168l141 135v35h-121v194h287v-229z" />
    <glyph glyph-name="uni0157" unicode="&#x157;" horiz-adv-x="917" 
d="M852 1053v-267h-92q-322 0 -322 -325v-461h-286v1053h276v-121h41q32 47 104.5 84t186.5 37h92zM299 -475h-168l141 135v35h-120v194h286v-229z" />
    <glyph glyph-name="Rcaron" unicode="&#x158;" horiz-adv-x="1486" 
d="M170 1462h688q244 0 379 -121t135 -337q0 -140 -60 -243t-171 -159l233 -602h-321l-211 545h-367v-545h-305v1462zM475 1194v-381h307q151 0 214 44t63 147t-62.5 146.5t-214.5 43.5h-307zM598 1571l-229 264h237l94 -109h43l97 109h231l-229 -264h-244z" />
    <glyph glyph-name="rcaron" unicode="&#x159;" horiz-adv-x="917" 
d="M852 1053v-267h-92q-322 0 -322 -325v-461h-286v1053h276v-121h41q32 47 104.5 84t186.5 37h92zM383 1192l-231 297h225l106 -131h41l107 131h223l-231 -297h-240z" />
    <glyph glyph-name="Sacute" unicode="&#x15a;" horiz-adv-x="1413" 
d="M1280 1061h-311q-37 166 -254 166q-121 0 -186.5 -45t-65.5 -125q0 -119 172 -148l264 -45q192 -36 304 -143t112 -289q0 -95 -38.5 -177.5t-111 -145.5t-185.5 -99.5t-253 -36.5q-272 0 -437 127.5t-190 345.5h312q11 -74 58.5 -122.5t112.5 -68t148 -19.5
q130 0 203.5 49.5t73.5 136.5q0 71 -47.5 114.5t-135.5 57.5l-290 47q-175 30 -277 136.5t-102 273.5q0 91 36.5 170t105 139t176.5 94.5t243 34.5q235 0 386.5 -115.5t176.5 -312.5zM1032 1835l-239 -264h-261l187 264h313z" />
    <glyph glyph-name="sacute" unicode="&#x15b;" horiz-adv-x="1118" 
d="M512 674l186 -29q169 -25 255.5 -105.5t86.5 -224.5q0 -145 -126 -243.5t-341 -98.5q-226 0 -353.5 93.5t-141.5 265.5h284q20 -137 211 -137q86 0 133.5 31t47.5 83q0 45 -28 69t-93 34l-215 30q-136 20 -218.5 97.5t-82.5 205.5q0 149 115 241.5t333 92.5
q196 0 312 -87t133 -242h-283q-19 108 -168 108q-73 0 -114.5 -25.5t-41.5 -72.5q0 -70 109 -86zM895 1489l-240 -297h-252l189 297h303z" />
    <glyph glyph-name="Scedilla" unicode="&#x15e;" horiz-adv-x="1415" 
d="M1270 1061h-312q-37 166 -253 166q-121 0 -186.5 -45t-65.5 -125q0 -119 172 -148l264 -45q192 -36 304 -143t112 -289q0 -95 -38.5 -177.5t-111 -145.5t-185.5 -99.5t-253 -36.5h-23l-35 -92h27q27 21 78 21q65 0 110.5 -48.5t45.5 -127.5q0 -81 -58.5 -138t-173.5 -57
q-98 0 -154 49t-61 117h148q5 -22 23 -36.5t48 -14.5q33 0 53.5 19.5t20.5 51.5t-20.5 51t-53.5 19q-38 0 -63 -25h-129l82 222q-215 29 -342 149.5t-150 312.5h311q11 -74 58.5 -122.5t113 -68t148.5 -19.5q130 0 203 49.5t73 136.5q0 71 -47 114.5t-135 57.5l-291 47
q-175 30 -277 136.5t-102 273.5q0 91 36.5 170t105.5 139t177 94.5t243 34.5q235 0 386.5 -115.5t176.5 -312.5z" />
    <glyph glyph-name="scedilla" unicode="&#x15f;" horiz-adv-x="1118" 
d="M510 674l186 -29q169 -25 255.5 -105.5t86.5 -224.5q0 -145 -126 -243.5t-341 -98.5h-14l-35 -92h27q27 21 78 21q65 0 110 -48.5t45 -127.5q0 -81 -58 -138t-173 -57q-98 0 -154 49t-61 117h147q5 -22 23.5 -36.5t48.5 -14.5q33 0 53.5 19.5t20.5 51.5t-20.5 51
t-53.5 19q-38 0 -63 -25h-130l82 222q-168 23 -263 112t-105 236h284q20 -137 211 -137q86 0 133.5 31t47.5 83q0 45 -28 69t-93 34l-215 30q-136 20 -218.5 97.5t-82.5 205.5q0 149 115 241.5t333 92.5q196 0 312 -87t133 -242h-283q-19 108 -168 108q-73 0 -114.5 -25.5
t-41.5 -72.5q0 -70 109 -86z" />
    <glyph glyph-name="Scaron" unicode="&#x160;" horiz-adv-x="1413" 
d="M1280 1061h-311q-37 166 -254 166q-121 0 -186.5 -45t-65.5 -125q0 -119 172 -148l264 -45q192 -36 304 -143t112 -289q0 -95 -38.5 -177.5t-111 -145.5t-185.5 -99.5t-253 -36.5q-272 0 -437 127.5t-190 345.5h312q11 -74 58.5 -122.5t112.5 -68t148 -19.5
q130 0 203.5 49.5t73.5 136.5q0 71 -47.5 114.5t-135.5 57.5l-290 47q-175 30 -277 136.5t-102 273.5q0 91 36.5 170t105 139t176.5 94.5t243 34.5q235 0 386.5 -115.5t176.5 -312.5zM578 1571l-230 264h238l94 -109h43l96 109h232l-230 -264h-243z" />
    <glyph glyph-name="scaron" unicode="&#x161;" horiz-adv-x="1118" 
d="M512 674l186 -29q169 -25 255.5 -105.5t86.5 -224.5q0 -145 -126 -243.5t-341 -98.5q-226 0 -353.5 93.5t-141.5 265.5h284q20 -137 211 -137q86 0 133.5 31t47.5 83q0 45 -28 69t-93 34l-215 30q-136 20 -218.5 97.5t-82.5 205.5q0 149 115 241.5t333 92.5
q196 0 312 -87t133 -242h-283q-19 108 -168 108q-73 0 -114.5 -25.5t-41.5 -72.5q0 -70 109 -86zM444 1192l-231 297h225l107 -131h41l106 131h223l-231 -297h-240z" />
    <glyph glyph-name="uni0162" unicode="&#x162;" horiz-adv-x="1280" 
d="M1247 1462v-268h-454v-1194h-306v1194h-454v268h1214zM643 -475h-168l141 135v35h-120v194h286v-229z" />
    <glyph glyph-name="uni0163" unicode="&#x163;" horiz-adv-x="894" 
d="M522 1053h264v-240h-264v-457q0 -56 30 -84t101 -28h133v-244h-151q-78 0 -134.5 6.5t-109 26t-85 53t-51.5 89t-19 132.5v506h-187v240h187v295h286v-295zM506 -475h-168l141 135v35h-121v194h287v-229z" />
    <glyph glyph-name="Tcaron" unicode="&#x164;" horiz-adv-x="1280" 
d="M1247 1462v-268h-454v-1194h-306v1194h-454v268h1214zM518 1571l-229 264h237l95 -109h43l96 109h231l-229 -264h-244z" />
    <glyph glyph-name="tcaron" unicode="&#x165;" horiz-adv-x="942" 
d="M842 1370h-137v248h301v-283l-156 -184h-164l156 184v35zM522 1053h264v-240h-264v-455q0 -56 31 -85t102 -29h131v-244h-145q-98 0 -166 12.5t-125 45.5t-85.5 96.5t-28.5 158.5v500h-187v240h187v295h286v-295z" />
    <glyph glyph-name="Tbar" unicode="&#x166;" horiz-adv-x="1280" 
d="M1247 1462v-268h-454v-336h297v-233h-297v-625h-306v625h-299v233h299v336h-454v268h1214z" />
    <glyph glyph-name="tbar" unicode="&#x167;" horiz-adv-x="888" 
d="M49 467v213h187v160h-187v213h187v295h286v-295h264v-213h-264v-160h264v-213h-264v-111q0 -56 30 -84t101 -28h133v-244h-151q-78 0 -134.5 6.5t-109 26t-85 53t-51.5 89t-19 132.5v160h-187z" />
    <glyph glyph-name="Utilde" unicode="&#x168;" horiz-adv-x="1556" 
d="M1085 1462h306v-923q0 -272 -159.5 -419t-455.5 -147q-293 0 -451.5 147t-158.5 419v923h305v-917q0 -137 80.5 -218t226.5 -81q147 0 227 80.5t80 218.5v917zM920 1743q71 0 71 94h131q0 -126 -50.5 -197t-153.5 -71q-34 0 -66 8t-50 16.5t-52 26.5q-10 5 -34.5 18.5
t-42.5 20t-36 6.5q-35 0 -52.5 -26t-17.5 -70h-131q0 126 50.5 197t152.5 71q80 0 180 -55q66 -39 101 -39z" />
    <glyph glyph-name="utilde" unicode="&#x169;" horiz-adv-x="1294" 
d="M541 -27q-198 0 -301 119t-103 322v639h287v-598q0 -111 52 -169.5t151 -58.5q104 0 166.5 77.5t62.5 187.5v561h287v-1053h-279v98h-41q-37 -57 -109.5 -91t-172.5 -34zM788 1376q72 0 72 109h131q0 -134 -51.5 -211.5t-153.5 -77.5q-34 0 -66.5 10t-50.5 20t-51 31
q-6 4 -22 13.5t-23.5 13.5t-20 10t-23.5 8.5t-23 2.5q-35 0 -52.5 -29.5t-17.5 -79.5h-131q0 135 50.5 212t152.5 77q35 0 71 -12t55 -23t52 -33q62 -41 102 -41z" />
    <glyph glyph-name="Umacron" unicode="&#x16a;" horiz-adv-x="1556" 
d="M1085 1462h306v-923q0 -272 -159.5 -419t-455.5 -147q-293 0 -451.5 147t-158.5 419v923h305v-917q0 -137 80.5 -218t226.5 -81q147 0 227 80.5t80 218.5v917zM1087 1628h-618v168h618v-168z" />
    <glyph glyph-name="umacron" unicode="&#x16b;" horiz-adv-x="1294" 
d="M541 -27q-198 0 -301 119t-103 322v639h287v-598q0 -111 52 -169.5t151 -58.5q104 0 166.5 77.5t62.5 187.5v561h287v-1053h-279v98h-41q-37 -57 -109.5 -91t-172.5 -34zM942 1243h-618v182h618v-182z" />
    <glyph glyph-name="Uring" unicode="&#x16e;" horiz-adv-x="1556" 
d="M1085 1462h306v-923q0 -272 -159.5 -419t-455.5 -147q-293 0 -451.5 147t-158.5 419v923h305v-917q0 -137 80.5 -218t226.5 -81q147 0 227 80.5t80 218.5v917zM776 2003q102 0 172 -68.5t70 -167.5t-70 -167t-172 -68q-99 0 -170 68.5t-71 166.5t71 167t170 69zM776 1663
q43 0 74 30.5t31 73.5t-31 74t-74 31q-41 0 -71.5 -31t-30.5 -74t30.5 -73.5t71.5 -30.5z" />
    <glyph glyph-name="uring" unicode="&#x16f;" horiz-adv-x="1294" 
d="M541 -27q-198 0 -301 119t-103 322v639h287v-598q0 -111 52 -169.5t151 -58.5q104 0 166.5 77.5t62.5 187.5v561h287v-1053h-279v98h-41q-37 -57 -109.5 -91t-172.5 -34zM633 1640q102 0 171.5 -68t69.5 -167t-69.5 -167.5t-171.5 -68.5q-99 0 -170.5 69t-71.5 167
t71.5 166.5t170.5 68.5zM633 1303q43 0 73.5 29.5t30.5 72.5t-30.5 73.5t-73.5 30.5q-41 0 -72 -30.5t-31 -73.5q0 -42 30.5 -72t72.5 -30z" />
    <glyph glyph-name="Uhungarumlaut" unicode="&#x170;" horiz-adv-x="1556" 
d="M1085 1462h306v-923q0 -272 -159.5 -419t-455.5 -147q-293 0 -451.5 147t-158.5 419v923h305v-917q0 -137 80.5 -218t226.5 -81q147 0 227 80.5t80 218.5v917zM893 1835l-207 -264h-217l158 264h266zM1280 1835l-209 -264h-215l160 264h264z" />
    <glyph glyph-name="uhungarumlaut" unicode="&#x171;" horiz-adv-x="1294" 
d="M541 -27q-198 0 -301 119t-103 322v639h287v-598q0 -111 52 -169.5t151 -58.5q104 0 166.5 77.5t62.5 187.5v561h287v-1053h-279v98h-41q-37 -57 -109.5 -91t-172.5 -34zM713 1489l-199 -297h-215l152 297h262zM1094 1489l-201 -297h-213l151 297h263z" />
    <glyph glyph-name="Uogonek" unicode="&#x172;" horiz-adv-x="1556" 
d="M1085 1462h306v-923q0 -386 -314 -514q-108 -43 -151 -83t-43 -92q0 -42 31.5 -67t91.5 -25v-168h-62q-141 0 -207.5 53.5t-66.5 143.5q0 107 116 186h-16q-288 0 -446 147.5t-158 418.5v923h305v-917q0 -137 80.5 -218t226.5 -81q147 0 227 80.5t80 218.5v917z" />
    <glyph glyph-name="uogonek" unicode="&#x173;" horiz-adv-x="1294" 
d="M541 -27q-198 0 -301 119t-103 322v639h287v-598q0 -111 52 -169.5t151 -58.5q104 0 166.5 77.5t62.5 187.5v561h287v-1053q-55 -30 -87 -69.5t-32 -80.5q0 -42 31.5 -67t91.5 -25v-168h-62q-141 0 -207.5 53.5t-66.5 143.5q0 62 43.5 120.5t120.5 92.5h-111v98h-41
q-37 -57 -109.5 -91t-172.5 -34z" />
    <glyph glyph-name="Ydieresis" unicode="&#x178;" horiz-adv-x="1390" 
d="M670 870h57l320 592h311l-510 -942v-520h-307v520l-510 942h319zM1016 1602h-240v233h240v-233zM614 1602h-241v233h241v-233z" />
    <glyph glyph-name="Zacute" unicode="&#x179;" horiz-adv-x="1363" 
d="M1241 1462v-317l-764 -828v-45h797v-272h-1184v317l768 828v45h-713v272h1096zM1008 1835l-240 -264h-260l186 264h314z" />
    <glyph glyph-name="zacute" unicode="&#x17a;" horiz-adv-x="1134" 
d="M1032 0h-930v279l529 493v41h-496v240h881v-281l-529 -493v-41h545v-238zM887 1489l-240 -297h-252l189 297h303z" />
    <glyph glyph-name="Zdotaccent" unicode="&#x17b;" horiz-adv-x="1363" 
d="M1241 1462v-317l-764 -828v-45h797v-272h-1184v317l768 828v45h-713v272h1096zM827 1602h-290v233h290v-233z" />
    <glyph glyph-name="zdotaccent" unicode="&#x17c;" horiz-adv-x="1134" 
d="M1032 0h-930v279l529 493v41h-496v240h881v-281l-529 -493v-41h545v-238zM709 1233h-291v256h291v-256z" />
    <glyph glyph-name="Zcaron" unicode="&#x17d;" horiz-adv-x="1363" 
d="M1241 1462v-317l-764 -828v-45h797v-272h-1184v317l768 828v45h-713v272h1096zM561 1571l-229 264h237l95 -109h43l96 109h231l-229 -264h-244z" />
    <glyph glyph-name="zcaron" unicode="&#x17e;" horiz-adv-x="1134" 
d="M1032 0h-930v279l529 493v41h-496v240h881v-281l-529 -493v-41h545v-238zM463 1192l-232 297h226l106 -131h41l107 131h223l-232 -297h-239z" />
    <glyph glyph-name="florin" unicode="&#x192;" horiz-adv-x="942" 
d="M367 -410h-285l188 1084h-182v239h225l25 142q40 234 158 334t325 100h101v-240h-86q-99 0 -146 -53.5t-72 -171.5l-20 -111h217v-239h-258z" />
    <glyph glyph-name="circumflex" unicode="&#x2c6;" horiz-adv-x="858" 
d="M549 1489l231 -297h-223l-111 131h-40l-107 -131h-221l231 297h240z" />
    <glyph glyph-name="caron" unicode="&#x2c7;" horiz-adv-x="858" 
d="M309 1192l-231 297h225l107 -131h41l106 131h223l-231 -297h-240z" />
    <glyph glyph-name="breve" unicode="&#x2d8;" horiz-adv-x="755" 
d="M500 1489h180q0 -138 -78 -217.5t-223 -79.5t-224 80t-79 217h182q0 -64 31 -98.5t90 -34.5q57 0 89 35t32 98z" />
    <glyph glyph-name="dotaccent" unicode="&#x2d9;" horiz-adv-x="454" 
d="M373 1233h-291v256h291v-256z" />
    <glyph glyph-name="ring" unicode="&#x2da;" horiz-adv-x="647" 
d="M324 1640q102 0 171.5 -68t69.5 -167t-69.5 -167.5t-171.5 -68.5q-99 0 -170.5 69t-71.5 167t71.5 166.5t170.5 68.5zM324 1303q43 0 73.5 29.5t30.5 72.5t-30.5 73.5t-73.5 30.5q-42 0 -72.5 -30.5t-30.5 -73.5q0 -42 30.5 -72t72.5 -30z" />
    <glyph glyph-name="ogonek" unicode="&#x2db;" horiz-adv-x="497" 
d="M279 18l122 -18q-55 -30 -86.5 -69.5t-31.5 -80.5q0 -42 31.5 -67t91.5 -25v-168h-62q-141 0 -207.5 53.5t-66.5 143.5q0 74 53.5 140t155.5 91z" />
    <glyph glyph-name="tilde" unicode="&#x2dc;" horiz-adv-x="845" 
d="M563 1376q72 0 72 109h131q0 -134 -51.5 -211.5t-153.5 -77.5q-34 0 -66.5 10t-50.5 20t-51 31q-6 4 -22 13.5t-23.5 13.5t-20 10t-23.5 8.5t-23 2.5q-35 0 -52.5 -29.5t-17.5 -79.5h-131q0 135 50.5 212t152.5 77q35 0 71 -12t55 -23t52 -33q62 -41 102 -41z" />
    <glyph glyph-name="hungarumlaut" unicode="&#x2dd;" horiz-adv-x="966" 
d="M500 1489l-199 -297h-215l152 297h262zM881 1489l-201 -297h-213l151 297h263z" />
    <glyph glyph-name="uni03A9" unicode="&#x3a9;" horiz-adv-x="1581" 
d="M1241 293v-53h236v-240h-603v250q291 197 291 524q0 207 -103 325t-271 118q-169 0 -273 -118t-104 -325q0 -329 288 -524v-250h-600v240h236v53q-103 79 -170.5 215t-67.5 309q0 144 47.5 267.5t134.5 213t218 140.5t291 51q212 0 369 -88t237 -239t80 -345
q0 -174 -66 -309t-170 -215z" />
    <glyph glyph-name="pi" unicode="&#x3c0;" horiz-adv-x="1323" 
d="M1231 0h-115q-189 0 -271.5 83t-82.5 273v457h-268v-813h-287v813h-158v240h1180v-240h-180v-442q0 -69 24.5 -101t85.5 -32h72v-238z" />
    <glyph glyph-name="uni0401" unicode="&#x401;" horiz-adv-x="1363" 
d="M475 272h799v-272h-1104v1462h1081v-272h-776v-307h604v-267h-604v-344zM1028 1602h-240v233h240v-233zM627 1602h-242v233h242v-233z" />
    <glyph glyph-name="uni0402" unicode="&#x402;" horiz-adv-x="1697" 
d="M1599 432q0 -101 -26 -180.5t-71 -131t-110 -85.5t-137.5 -48t-158.5 -14q-94 0 -109 9v272q32 -8 78 -8q221 0 221 182q0 91 -68.5 139.5t-226.5 48.5q-136 0 -260 -28v-588h-305v1194h-393v268h1202v-268h-504v-336q132 31 322 31q120 0 214.5 -25.5t156 -68
t101.5 -102t57 -124t17 -137.5z" />
    <glyph glyph-name="uni0403" unicode="&#x403;" horiz-adv-x="1306" 
d="M1225 1190h-750v-1190h-305v1462h1055v-272zM999 1835l-239 -264h-260l186 264h313z" />
    <glyph glyph-name="uni0404" unicode="&#x404;" horiz-adv-x="1505" 
d="M1087 432h320q-30 -205 -194.5 -332t-415.5 -127q-163 0 -295.5 56.5t-220 157t-134.5 239.5t-47 305q0 226 80 396t238 266t377 96q238 0 398.5 -120t197.5 -318h-318q-26 79 -99.5 122.5t-182.5 43.5q-156 0 -249 -92.5t-114 -250.5h541v-266h-543q18 -165 113 -263.5
t256 -98.5q116 0 192.5 49t99.5 137z" />
    <glyph glyph-name="uni0405" unicode="&#x405;" horiz-adv-x="1413" 
d="M1280 1061h-311q-37 166 -254 166q-121 0 -186.5 -45t-65.5 -125q0 -119 172 -148l264 -45q192 -36 304 -143t112 -289q0 -95 -38.5 -177.5t-111 -145.5t-185.5 -99.5t-253 -36.5q-272 0 -437 127.5t-190 345.5h312q11 -74 58.5 -122.5t112.5 -68t148 -19.5
q130 0 203.5 49.5t73.5 136.5q0 71 -47.5 114.5t-135.5 57.5l-290 47q-175 30 -277 136.5t-102 273.5q0 91 36.5 170t105 139t176.5 94.5t243 34.5q235 0 386.5 -115.5t176.5 -312.5z" />
    <glyph glyph-name="uni0406" unicode="&#x406;" horiz-adv-x="663" 
d="M180 1462h305v-1462h-305v1462z" />
    <glyph glyph-name="uni0407" unicode="&#x407;" horiz-adv-x="663" 
d="M180 1462h305v-1462h-305v1462zM655 1602h-239v233h239v-233zM254 1602h-242v233h242v-233z" />
    <glyph glyph-name="uni0408" unicode="&#x408;" horiz-adv-x="1236" 
d="M573 -27q-149 0 -262.5 56t-180 168t-71.5 268h303q15 -219 209 -219q94 0 144.5 63t50.5 185v968h305v-970q0 -245 -132 -382t-366 -137z" />
    <glyph glyph-name="uni0409" unicode="&#x409;" horiz-adv-x="2355" 
d="M1382 268h285q149 0 214 53.5t65 161.5q0 107 -65.5 161t-213.5 54h-285v-430zM324 1462h1058v-495h332q257 0 400 -127.5t143 -354.5q0 -229 -142.5 -357t-400.5 -128h-639v1190h-463v-395q0 -169 -13.5 -294.5t-43 -213t-69.5 -144t-101.5 -88t-128.5 -43.5t-160 -12
h-53v299h51q45 0 74 5.5t57.5 24t45 52.5t29.5 91.5t18.5 141.5t5.5 201v647z" />
    <glyph glyph-name="uni040A" unicode="&#x40a;" horiz-adv-x="2379" 
d="M1741 0h-639v612h-627v-612h-305v1462h305v-569h627v569h305v-495h334q257 0 398.5 -127.5t141.5 -354.5q0 -229 -141.5 -357t-398.5 -128zM1407 268h285q149 0 213.5 53.5t64.5 161.5t-64.5 161.5t-213.5 53.5h-285v-430z" />
    <glyph glyph-name="uni040B" unicode="&#x40b;" horiz-adv-x="1703" 
d="M1593 0h-305v373q0 26 -0.5 40.5t-3 38.5t-8 38t-16 33.5t-25.5 31t-38 25t-53 20.5t-70.5 11.5t-90.5 4.5q-141 0 -252 -32v-584h-305v1194h-393v268h1202v-268h-504v-340q149 35 326 35q84 0 154 -9t122 -23t92.5 -38.5t67.5 -48.5t46.5 -59.5t29.5 -65t15.5 -72.5
t7 -74t1.5 -77v-422z" />
    <glyph glyph-name="uni040C" unicode="&#x40c;" horiz-adv-x="1507" 
d="M170 0v1462h305v-571h285l307 571h338l-375 -710l393 -752h-338l-323 614h-287v-614h-305zM1090 1835l-240 -264h-260l186 264h314z" />
    <glyph glyph-name="uni040E" unicode="&#x40e;" horiz-adv-x="1396" 
d="M684 807h57l310 655h309l-701 -1462h-305l209 438l-540 1024h319zM864 1851h226q-12 -148 -114 -231.5t-274 -83.5t-273.5 83t-113.5 232h226q6 -57 47.5 -92t113.5 -35q71 0 112.5 35t49.5 92z" />
    <glyph glyph-name="uni040F" unicode="&#x40f;" horiz-adv-x="1572" 
d="M635 -358v358h-465v1462h305v-1190h625v1190h305v-1462h-465v-358h-305z" />
    <glyph glyph-name="uni0410" unicode="&#x410;" horiz-adv-x="1478" 
d="M1133 0l-123 395h-551l-121 -395h-301l467 1462h469l469 -1462h-309zM698 1169l-157 -507h385l-158 507h-70z" />
    <glyph glyph-name="uni0411" unicode="&#x411;" horiz-adv-x="1468" 
d="M475 911h385q243 0 376.5 -119.5t133.5 -334.5t-133.5 -336t-376.5 -121h-690v1462h1071v-272h-766v-279zM475 268h328q138 0 196 47t58 146q0 97 -58.5 145.5t-195.5 48.5h-328v-387z" />
    <glyph glyph-name="uni0412" unicode="&#x412;" horiz-adv-x="1482" 
d="M1184 780v-41q82 -35 138 -122t56 -193q0 -192 -127 -308t-377 -116h-704v1462h686q117 0 210.5 -31t151.5 -84.5t88.5 -122.5t30.5 -149q0 -101 -41 -180.5t-112 -114.5zM475 883h344q205 0 205 164q0 161 -207 161h-342v-325zM475 260h354q236 0 236 180
q0 187 -231 187h-359v-367z" />
    <glyph glyph-name="uni0413" unicode="&#x413;" horiz-adv-x="1306" 
d="M1225 1190h-750v-1190h-305v1462h1055v-272z" />
    <glyph glyph-name="uni0414" unicode="&#x414;" horiz-adv-x="1636" 
d="M1378 272h209v-630h-297v358h-960v-358h-297v630h151q174 309 174 869v321h1020v-1190zM1081 272v918h-440v-129q0 -513 -147 -789h587z" />
    <glyph glyph-name="uni0415" unicode="&#x415;" horiz-adv-x="1363" 
d="M475 272h799v-272h-1104v1462h1081v-272h-776v-307h604v-267h-604v-344z" />
    <glyph glyph-name="uni0416" unicode="&#x416;" horiz-adv-x="2205" 
d="M1501 604h-250v-604h-297v604h-249l-285 -604h-328l348 741l-329 721h325l269 -581h249v581h297v-581h250l268 581h326l-330 -721l349 -741h-328z" />
    <glyph glyph-name="uni0417" unicode="&#x417;" horiz-adv-x="1425" 
d="M954 1051q0 81 -66.5 123.5t-170.5 42.5q-233 0 -266 -168h-316q23 210 178 325t408 115q254 0 400.5 -113t146.5 -291q0 -110 -42.5 -181.5t-107.5 -106.5v-41q203 -75 203 -330q0 -95 -40.5 -178t-115.5 -144t-189 -96t-253 -35q-294 0 -455 123t-188 348h321
q52 -198 322 -198q129 0 203.5 51t74.5 139q0 182 -256 182h-215v267h215q111 0 160 45.5t49 120.5z" />
    <glyph glyph-name="uni0418" unicode="&#x418;" horiz-adv-x="1613" 
d="M170 1462h285v-1022h41l551 1022h399v-1462h-287v1044h-41l-563 -1044h-385v1462z" />
    <glyph glyph-name="uni0419" unicode="&#x419;" horiz-adv-x="1613" 
d="M170 1462h285v-1022h41l551 1022h399v-1462h-287v1044h-41l-563 -1044h-385v1462zM969 1851h225q-12 -149 -113.5 -232t-273.5 -83t-273.5 83t-113.5 232h225q6 -57 48 -92t114 -35q71 0 112.5 35t49.5 92z" />
    <glyph glyph-name="uni041A" unicode="&#x41a;" horiz-adv-x="1466" 
d="M170 0v1462h305v-571h285l307 571h338l-375 -710l393 -752h-338l-323 614h-287v-614h-305z" />
    <glyph glyph-name="uni041B" unicode="&#x41b;" horiz-adv-x="1562" 
d="M43 299h51q45 0 74 5.5t57.5 24t45 52.5t29.5 91.5t18.5 141.5t5.5 201v647h1071v-1462h-308v1190h-475v-395q0 -169 -13.5 -294.5t-43 -213t-69.5 -144t-101.5 -88t-128.5 -43.5t-160 -12h-53v299z" />
    <glyph glyph-name="uni041C" unicode="&#x41c;" horiz-adv-x="1800" 
d="M170 0v1462h475l240 -620h41l239 620h467v-1462h-284v1141h-41l-267 -688h-278l-266 688h-41v-1141h-285z" />
    <glyph glyph-name="uni041D" unicode="&#x41d;" horiz-adv-x="1595" 
d="M1122 1462h305v-1462h-305v612h-647v-612h-305v1462h305v-569h647v569z" />
    <glyph glyph-name="uni041E" unicode="&#x41e;" horiz-adv-x="1626" 
d="M813 1489q170 0 306.5 -58t225 -160t135 -240t46.5 -300t-46.5 -300t-135 -240t-225 -160t-306.5 -58t-306.5 58t-225 160t-135 240t-46.5 300t46.5 300t135 240t225 160t306.5 58zM813 246q100 0 177.5 37.5t125 104t72 153.5t24.5 190t-24.5 190t-72 154t-125 104.5
t-177.5 37.5q-131 0 -222.5 -66t-134 -173.5t-42.5 -246.5t42.5 -246t134 -173t222.5 -66z" />
    <glyph glyph-name="uni041F" unicode="&#x41f;" horiz-adv-x="1579" 
d="M170 1462h1241v-1462h-305v1190h-631v-1190h-305v1462z" />
    <glyph glyph-name="uni0420" unicode="&#x420;" horiz-adv-x="1464" 
d="M170 1462h668q251 0 389.5 -122.5t138.5 -342.5q0 -223 -138.5 -348t-389.5 -125h-363v-524h-305v1462zM475 793h320q137 0 197.5 50t60.5 150q0 101 -60.5 151t-197.5 50h-320v-401z" />
    <glyph glyph-name="uni0421" unicode="&#x421;" horiz-adv-x="1509" 
d="M1094 467h317q-33 -223 -195.5 -358.5t-414.5 -135.5q-219 0 -378.5 96t-241 266.5t-81.5 395.5t82 395.5t241.5 266.5t377.5 96q239 0 399 -124.5t197 -328.5h-320q-52 181 -276 181q-96 0 -170.5 -37.5t-121.5 -104.5t-71 -154t-24 -190q0 -139 41 -246t130 -173
t216 -66q118 0 194 58t99 163z" />
    <glyph glyph-name="uni0422" unicode="&#x422;" horiz-adv-x="1280" 
d="M1247 1462v-268h-454v-1194h-306v1194h-454v268h1214z" />
    <glyph glyph-name="uni0423" unicode="&#x423;" horiz-adv-x="1396" 
d="M684 807h57l310 655h309l-701 -1462h-305l209 438l-540 1024h319z" />
    <glyph glyph-name="uni0424" unicode="&#x424;" horiz-adv-x="1837" 
d="M1063 1337h20q199 0 347.5 -64.5t233.5 -198t85 -322.5q0 -193 -85.5 -326.5t-233 -196.5t-347.5 -63h-20v-193h-291v193h-18q-309 0 -488.5 149t-179.5 437q0 189 86 322.5t234.5 198t347.5 64.5h18v172h291v-172zM754 426h18v651h-18q-171 0 -267 -80t-96 -245
q0 -163 96 -244.5t267 -81.5zM1063 426h20q170 0 265.5 81.5t95.5 244.5q0 166 -95 245.5t-266 79.5h-20v-651z" />
    <glyph glyph-name="uni0425" unicode="&#x425;" horiz-adv-x="1421" 
d="M741 924l275 538h309l-352 -694l407 -768h-325l-318 600h-63l-318 -600h-319l407 768l-352 694h316l274 -538h59z" />
    <glyph glyph-name="uni0426" unicode="&#x426;" horiz-adv-x="1660" 
d="M1315 -358v358h-1145v1462h305v-1190h623v1190h305v-1190h209v-630h-297z" />
    <glyph glyph-name="uni0427" unicode="&#x427;" horiz-adv-x="1443" 
d="M109 1462h305v-418q0 -26 0.5 -40t3 -38t8 -38t16 -33.5t25.5 -30.5t38 -24.5t53 -20.5t71 -11.5t90 -4.5q137 0 252 33v626h305v-1462h-305v565q-146 -35 -326 -35q-84 0 -154 9t-122 23t-92.5 38t-67.5 48t-46.5 59.5t-29.5 65t-15.5 72.5t-7 74.5t-1.5 77.5v465z" />
    <glyph glyph-name="uni0428" unicode="&#x428;" horiz-adv-x="2154" 
d="M930 272v1190h297v-1190h463v1190h297v-1462h-1817v1462h297v-1190h463z" />
    <glyph glyph-name="uni0429" unicode="&#x429;" horiz-adv-x="2244" 
d="M1898 -358v358h-1728v1462h297v-1190h463v1190h297v-1190h463v1190h297v-1190h208v-630h-297z" />
    <glyph glyph-name="uni042A" unicode="&#x42a;" horiz-adv-x="1685" 
d="M1044 0h-657v1190h-373v272h678v-495h352q258 0 400.5 -127.5t142.5 -354.5q0 -229 -142 -357t-401 -128zM692 268h305q148 0 212.5 53.5t64.5 161.5q0 107 -65 161t-212 54h-305v-430z" />
    <glyph glyph-name="uni042B" unicode="&#x42b;" horiz-adv-x="1957" 
d="M1485 1462h305v-1462h-305v1462zM475 268h258q148 0 212.5 53.5t64.5 161.5q0 107 -65 161t-212 54h-258v-430zM780 0h-610v1462h305v-495h305q257 0 400 -127.5t143 -354.5q0 -229 -142.5 -357t-400.5 -128z" />
    <glyph glyph-name="uni042C" unicode="&#x42c;" horiz-adv-x="1468" 
d="M475 268h303q149 0 214 54.5t65 162.5t-65 160.5t-214 52.5h-303v-430zM829 0h-659v1462h305v-495h354q257 0 399 -127.5t142 -354.5q0 -229 -142 -357t-399 -128z" />
    <glyph glyph-name="uni042D" unicode="&#x42d;" horiz-adv-x="1486" 
d="M80 432h319q23 -88 99.5 -137t193.5 -49q161 0 256 98.5t113 263.5h-543v266h541q-21 158 -114 250.5t-249 92.5q-109 0 -182.5 -43.5t-99.5 -122.5h-318q37 198 197.5 318t398.5 120q219 0 377 -96.5t237.5 -266t79.5 -395.5q0 -222 -80.5 -392.5t-239.5 -268
t-376 -97.5q-251 0 -415.5 127t-194.5 332z" />
    <glyph glyph-name="uni042E" unicode="&#x42e;" horiz-adv-x="2220" 
d="M1417 1489q166 0 300.5 -58t221.5 -160t134 -240t47 -300t-47 -300t-134 -240t-221.5 -160t-300.5 -58q-151 0 -275.5 48t-211 133.5t-139.5 202t-68 255.5h-248v-612h-305v1462h305v-569h254q43 269 222 432.5t466 163.5zM1417 246q126 0 215.5 66t131.5 173.5t42 245.5
t-42 246t-131.5 174t-215.5 66q-127 0 -216.5 -66t-131 -174t-41.5 -246t41.5 -245.5t131 -173.5t216.5 -66z" />
    <glyph glyph-name="uni042F" unicode="&#x42f;" horiz-adv-x="1474" 
d="M618 1462h689v-1462h-306v545h-339l-238 -545h-322l260 596q-124 55 -191 159t-67 249q0 216 135 337t379 121zM1001 813v381h-307q-151 0 -213.5 -43.5t-62.5 -146.5t62.5 -147t213.5 -44h307z" />
    <glyph glyph-name="uni0430" unicode="&#x430;" horiz-adv-x="1200" 
d="M797 0v90h-41q-102 -117 -295 -117q-177 0 -280 100.5t-103 250.5q0 65 24 124.5t72.5 111.5t134 83t197.5 31h280v26q0 164 -186 164q-165 0 -178 -104h-285q4 144 130 231.5t319 87.5q225 0 351 -95.5t126 -299.5v-684h-266zM551 201q104 0 169.5 61.5t65.5 159.5v61
h-225q-94 0 -145 -34.5t-51 -102.5q0 -71 48.5 -108t137.5 -37z" />
    <glyph glyph-name="uni0431" unicode="&#x431;" horiz-adv-x="1280" 
d="M641 211q124 0 192 81.5t68 199.5q0 121 -66 202.5t-194 81.5t-195 -81.5t-67 -202.5q0 -119 68.5 -200t193.5 -81zM702 1001q216 0 351 -138t135 -369t-149.5 -376t-395.5 -145q-255 0 -403 163.5t-148 475.5q0 96 7 176.5t24 161.5t48 146t76 120t111 93t150 57
q77 16 154 27q33 6 96 14q64 11 91.5 28t31.5 54h247q0 -45 -3.5 -77t-16.5 -70.5t-36 -65.5t-65.5 -50.5t-101.5 -35.5q-39 -9 -175 -30t-157 -25q-213 -43 -241 -285h39q103 151 331 151z" />
    <glyph glyph-name="uni0432" unicode="&#x432;" horiz-adv-x="1239" 
d="M977 571v-41q74 -22 120 -81t46 -156q0 -145 -95.5 -219t-277.5 -74h-618v1053h624q157 0 244.5 -74.5t87.5 -200.5q0 -70 -39 -125.5t-92 -81.5zM432 207h273q81 0 115 30.5t34 86.5q0 118 -149 118h-273v-235zM432 846v-203h266q123 0 123 100q0 103 -123 103h-266z
" />
    <glyph glyph-name="uni0433" unicode="&#x433;" horiz-adv-x="1062" 
d="M152 0v1053h852v-240h-566v-813h-286z" />
    <glyph glyph-name="uni0434" unicode="&#x434;" horiz-adv-x="1419" 
d="M1174 238h186v-531h-270v293h-781v-293h-270v531h156q96 247 96 512v303h883v-815zM887 238v575h-338v-65q0 -281 -82 -510h420z" />
    <glyph glyph-name="uni0435" unicode="&#x435;" horiz-adv-x="1222" 
d="M1130 580v-86h-753q6 -137 70.5 -210t185.5 -73q154 0 196 106h291q-33 -161 -157.5 -252.5t-333.5 -91.5q-249 0 -393 151.5t-144 405.5q0 252 143.5 400.5t387.5 148.5q234 0 370.5 -139.5t136.5 -359.5zM621 864q-188 0 -234 -180h451q-13 83 -67.5 131.5t-149.5 48.5
z" />
    <glyph glyph-name="uni0436" unicode="&#x436;" horiz-adv-x="1773" 
d="M578 418l-216 -418h-292l278 541l-262 512h287l205 -396h176v396h266v-396h174l205 396h289l-265 -512l281 -541h-295l-215 418h-174v-418h-266v418h-176z" />
    <glyph glyph-name="uni0437" unicode="&#x437;" horiz-adv-x="1167" 
d="M752 743q0 50 -47.5 76.5t-133.5 26.5q-172 0 -196 -115h-262q17 171 146 259.5t333 88.5t324 -86t120 -219q0 -156 -108 -205v-41q139 -46 139 -221q0 -147 -130.5 -240.5t-344.5 -93.5q-241 0 -369 93t-147 264h264q35 -123 238 -123q202 0 202 112q0 56 -39.5 80.5
t-130.5 24.5h-172v219h162q152 0 152 100z" />
    <glyph glyph-name="uni0438" unicode="&#x438;" horiz-adv-x="1320" 
d="M446 0h-294v1053h278v-607h37l407 607h295v-1053h-278v604h-37z" />
    <glyph glyph-name="uni0439" unicode="&#x439;" horiz-adv-x="1320" 
d="M446 0h-294v1053h278v-607h37l407 607h295v-1053h-278v604h-37zM811 1470h221q-12 -145 -107.5 -226t-265.5 -81q-169 0 -263.5 81t-106.5 226h221q7 -55 43.5 -89.5t105.5 -34.5q137 0 152 124z" />
    <glyph glyph-name="uni043A" unicode="&#x43a;" horiz-adv-x="1251" 
d="M854 0l-238 420h-178v-420h-286v1053h286v-394h183l225 394h319l-288 -508l305 -545h-328z" />
    <glyph glyph-name="uni043B" unicode="&#x43b;" horiz-adv-x="1325" 
d="M45 0v274h37q69 0 109.5 28.5t61.5 102t21 203.5v445h900v-1053h-287v813h-348v-215q0 -221 -50.5 -353.5t-148.5 -188.5t-258 -56h-37z" />
    <glyph glyph-name="uni043C" unicode="&#x43c;" horiz-adv-x="1542" 
d="M152 0v1053h368l232 -478h41l231 478h367v-1053h-279v672h-41l-184 -375h-232l-184 375h-41v-672h-278z" />
    <glyph glyph-name="uni043D" unicode="&#x43d;" horiz-adv-x="1314" 
d="M1163 0h-286v420h-439v-420h-286v1053h286v-394h439v394h286v-1053z" />
    <glyph glyph-name="uni043E" unicode="&#x43e;" horiz-adv-x="1273" 
d="M637 1079q250 0 397.5 -152t147.5 -401t-147.5 -401t-397.5 -152q-248 0 -396.5 152t-148.5 401t148.5 401t396.5 152zM637 211q128 0 193 89t65 226q0 87 -26 156t-86 113.5t-146 44.5q-127 0 -192.5 -89.5t-65.5 -224.5q0 -88 26.5 -157.5t86 -113.5t145.5 -44z" />
    <glyph glyph-name="uni043F" unicode="&#x43f;" horiz-adv-x="1306" 
d="M1155 0h-287v813h-430v-813h-286v1053h1003v-1053z" />
    <glyph glyph-name="uni0440" unicode="&#x440;" horiz-adv-x="1314" 
d="M758 -27q-186 0 -279 125h-41v-508h-286v1463h278v-99h41q99 125 287 125q141 0 247.5 -72.5t162 -197t55.5 -283.5q0 -245 -126.5 -399t-338.5 -154zM684 842q-126 0 -191 -90.5t-65 -225.5q0 -134 65 -223.5t191 -89.5q123 0 187.5 87.5t64.5 225.5t-64.5 227
t-187.5 89z" />
    <glyph glyph-name="uni0441" unicode="&#x441;" horiz-adv-x="1193" 
d="M821 354h283q-20 -171 -152 -276t-329 -105q-244 0 -387.5 151t-143.5 402q0 250 144 401.5t387 151.5q196 0 324.5 -99.5t148.5 -262.5h-285q-35 123 -186 123q-126 0 -186 -87t-60 -225q0 -67 14 -122.5t42.5 -100t77 -69.5t112.5 -25q85 0 134.5 37t61.5 106z" />
    <glyph glyph-name="uni0442" unicode="&#x442;" horiz-adv-x="1099" 
d="M61 813v240h977v-240h-344v-813h-286v813h-347z" />
    <glyph glyph-name="uni0443" unicode="&#x443;" horiz-adv-x="1216" 
d="M543 -410h-287l223 508l-442 955h301l260 -561h53l244 561h287z" />
    <glyph glyph-name="uni0444" unicode="&#x444;" horiz-adv-x="1601" 
d="M940 0v-410h-278v410h-19q-259 0 -405 146t-146 380q0 152 62 269t185.5 186t293.5 72h29v436h278v-436h29q168 -3 291.5 -72t186 -186.5t62.5 -268.5q0 -238 -150 -382t-419 -144zM373 526q0 -131 68 -216t198 -89h23v610h-21q-131 -4 -199.5 -89.5t-68.5 -215.5z
M940 221h16q132 4 201.5 89t69.5 216q0 130 -69.5 215.5t-201.5 89.5h-16v-610z" />
    <glyph glyph-name="uni0445" unicode="&#x445;" horiz-adv-x="1236" 
d="M647 389h-63l-219 -389h-297l303 539l-273 514h297l193 -365h63l193 365h293l-273 -514l303 -539h-301z" />
    <glyph glyph-name="uni0446" unicode="&#x446;" horiz-adv-x="1392" 
d="M860 1053h287v-815h186v-531h-270v293h-911v1053h286v-815h422v815z" />
    <glyph glyph-name="uni0447" unicode="&#x447;" horiz-adv-x="1216" 
d="M92 1053h289v-308q0 -27 2.5 -46t14 -42t32 -37t58.5 -24t92 -10q105 0 198 22v445h287v-1053h-287v377q-142 -29 -293 -29q-74 0 -133 10.5t-99.5 27.5t-70.5 43.5t-47 54t-27 64.5t-13 69t-3 73v363z" />
    <glyph glyph-name="uni0448" unicode="&#x448;" horiz-adv-x="1761" 
d="M1333 1053h277v-1053h-1458v1053h278v-815h313v815h277v-815h313v815z" />
    <glyph glyph-name="uni0449" unicode="&#x449;" horiz-adv-x="1855" 
d="M1333 1053h277v-815h186v-531h-270v293h-1374v1053h278v-815h313v815h277v-815h313v815z" />
    <glyph glyph-name="uni044A" unicode="&#x44a;" horiz-adv-x="1378" 
d="M35 813v240h590v-308h258q203 0 312.5 -97t109.5 -271q0 -175 -110 -276t-312 -101h-545v813h-303zM625 238h215q98 0 138 35.5t40 105.5q0 71 -40 106t-138 35h-215v-282z" />
    <glyph glyph-name="uni044B" unicode="&#x44b;" horiz-adv-x="1693" 
d="M152 1053h286v-308h238q203 0 312.5 -97t109.5 -271q0 -175 -110 -276t-312 -101h-524v1053zM438 520v-282h197q98 0 137 35.5t39 105.5q0 72 -39 106.5t-137 34.5h-197zM1255 1053h287v-1053h-287v1053z" />
    <glyph glyph-name="uni044C" unicode="&#x44c;" horiz-adv-x="1191" 
d="M438 1053v-308h258q203 0 312.5 -97t109.5 -271q0 -175 -110 -276t-312 -101h-544v1053h286zM438 238h217q98 0 137 35.5t39 105.5q0 72 -39 106.5t-137 34.5h-217v-282z" />
    <glyph glyph-name="uni044D" unicode="&#x44d;" horiz-adv-x="1208" 
d="M92 336h268q19 -63 75 -96t143 -33q109 0 172 58.5t75 158.5h-370v219h366q-14 92 -75.5 147.5t-167.5 55.5q-162 0 -203 -111h-269q30 157 157 250.5t321 93.5q239 0 385.5 -153t146.5 -400q0 -248 -146.5 -400.5t-387.5 -152.5q-197 0 -331 101t-159 262z" />
    <glyph glyph-name="uni044E" unicode="&#x44e;" horiz-adv-x="1783" 
d="M1153 1079q239 0 389 -156.5t150 -396.5q0 -243 -149.5 -398t-389.5 -155q-214 0 -356.5 121.5t-171.5 325.5h-193v-420h-280v1053h280v-394h199q37 192 177 306t345 114zM1151 211q124 0 189 89.5t65 225.5q0 135 -65 224.5t-189 89.5q-126 0 -191 -89t-65 -225
q0 -88 26 -157.5t85 -113.5t145 -44z" />
    <glyph glyph-name="uni044F" unicode="&#x44f;" horiz-adv-x="1222" 
d="M786 0v352h-223l-174 -352h-283l195 395q-190 82 -190 301q0 166 111.5 261.5t316.5 95.5h534v-1053h-287zM786 823h-225q-93 0 -130.5 -31.5t-37.5 -95.5q0 -67 37 -100t131 -33h225v260z" />
    <glyph glyph-name="uni0451" unicode="&#x451;" horiz-adv-x="1222" 
d="M1130 580v-86h-753q6 -137 70.5 -210t185.5 -73q154 0 196 106h291q-33 -161 -157.5 -252.5t-333.5 -91.5q-249 0 -393 151.5t-144 405.5q0 252 143.5 400.5t387.5 148.5q234 0 370.5 -139.5t136.5 -359.5zM621 864q-188 0 -234 -180h451q-13 83 -67.5 131.5t-149.5 48.5
zM946 1210h-239v256h239v-256zM545 1210h-242v256h242v-256z" />
    <glyph glyph-name="uni0452" unicode="&#x452;" horiz-adv-x="1347" 
d="M924 -37v545q0 110 -53.5 168.5t-153.5 58.5q-103 0 -167.5 -77.5t-64.5 -186.5v-471h-286v1145h-150v180h150v164h286v-164h371v-180h-371v-281h41q82 125 277 125q199 0 303 -118.5t104 -321.5v-625q0 -180 -101 -257t-294 -77h-141v244h121q129 0 129 129z" />
    <glyph glyph-name="uni0453" unicode="&#x453;" horiz-adv-x="1062" 
d="M152 0v1053h852v-240h-566v-813h-286zM870 1489l-239 -297h-252l188 297h303z" />
    <glyph glyph-name="uni0454" unicode="&#x454;" horiz-adv-x="1206" 
d="M848 336h268q-25 -162 -158.5 -262.5t-330.5 -100.5q-241 0 -388 152.5t-147 400.5q0 247 147 400t386 153q194 0 320.5 -93.5t156.5 -250.5h-268q-40 111 -203 111q-106 0 -168 -55.5t-76 -147.5h367v-219h-371q12 -100 75.5 -158.5t172.5 -58.5q86 0 142 33t75 96z" />
    <glyph glyph-name="uni0455" unicode="&#x455;" horiz-adv-x="1118" 
d="M512 674l186 -29q169 -25 255.5 -105.5t86.5 -224.5q0 -145 -126 -243.5t-341 -98.5q-226 0 -353.5 93.5t-141.5 265.5h284q20 -137 211 -137q86 0 133.5 31t47.5 83q0 45 -28 69t-93 34l-215 30q-136 20 -218.5 97.5t-82.5 205.5q0 149 115 241.5t333 92.5
q196 0 312 -87t133 -242h-283q-19 108 -168 108q-73 0 -114.5 -25.5t-41.5 -72.5q0 -70 109 -86z" />
    <glyph glyph-name="uni0456" unicode="&#x456;" horiz-adv-x="593" 
d="M444 1229h-294v260h294v-260zM440 1053v-1053h-286v1053h286z" />
    <glyph glyph-name="uni0457" unicode="&#x457;" horiz-adv-x="593" 
d="M440 1053v-1053h-286v1053h286zM621 1233h-240v256h240v-256zM219 1233h-242v256h242v-256z" />
    <glyph glyph-name="uni0458" unicode="&#x458;" horiz-adv-x="616" 
d="M467 1229h-295v260h295v-260zM176 -37v1090h287v-1129q0 -180 -101 -257t-294 -77h-142v244h121q129 0 129 129z" />
    <glyph glyph-name="uni0459" unicode="&#x459;" horiz-adv-x="1908" 
d="M45 -8v274h37q69 0 109.5 29t61.5 103t21 204v451h889v-308h250q203 0 312.5 -97t109.5 -271q0 -175 -110 -276t-312 -101h-536v813h-338v-221q0 -223 -50.5 -355.5t-148.5 -188.5t-258 -56h-37zM1163 238h207q98 0 138 35.5t40 105.5q0 76 -43 108.5t-155 32.5h-187
v-282z" />
    <glyph glyph-name="uni045A" unicode="&#x45a;" horiz-adv-x="1890" 
d="M1145 1053v-308h250q203 0 312.5 -97t109.5 -271q0 -175 -110 -276t-312 -101h-537v420h-420v-420h-286v1053h286v-394h420v394h287zM1145 238h207q98 0 138 35.5t40 105.5q0 76 -42.5 108.5t-154.5 32.5h-188v-282z" />
    <glyph glyph-name="uni045B" unicode="&#x45b;" horiz-adv-x="1347" 
d="M1210 0h-286v508q0 110 -53.5 168.5t-153.5 58.5q-103 0 -167.5 -77.5t-64.5 -186.5v-471h-286v1145h-150v180h150v164h286v-164h371v-180h-371v-281h41q82 125 277 125q199 0 303 -118.5t104 -321.5v-549z" />
    <glyph glyph-name="uni045C" unicode="&#x45c;" horiz-adv-x="1243" 
d="M854 0l-238 420h-178v-420h-286v1053h286v-394h183l225 394h319l-288 -508l305 -545h-328zM967 1489l-240 -297h-252l189 297h303z" />
    <glyph glyph-name="uni045E" unicode="&#x45e;" horiz-adv-x="1216" 
d="M543 -410h-287l223 508l-442 955h301l260 -561h53l244 561h287zM758 1470h221q-12 -145 -107.5 -226t-265.5 -81q-169 0 -263.5 81t-106.5 226h221q7 -55 43.5 -89.5t105.5 -34.5q137 0 152 124z" />
    <glyph glyph-name="uni045F" unicode="&#x45f;" horiz-adv-x="1298" 
d="M860 1053h287v-1053h-363v-293h-270v293h-362v1053h286v-815h422v815z" />
    <glyph glyph-name="uni0490" unicode="&#x490;" horiz-adv-x="1306" 
d="M475 1190v-1190h-305v1462h758v307h297v-579h-750z" />
    <glyph glyph-name="uni0491" unicode="&#x491;" horiz-adv-x="1038" 
d="M711 1329h268v-516h-541v-813h-286v1053h559v276z" />
    <glyph glyph-name="uni0492" unicode="&#x492;" horiz-adv-x="1370" 
d="M45 608v234h188v620h1055v-272h-749v-348h419v-234h-419v-608h-306v608h-188z" />
    <glyph glyph-name="uni0493" unicode="&#x493;" horiz-adv-x="1087" 
d="M41 354v205h154v494h833v-240h-547v-254h348v-205h-348v-354h-286v354h-154z" />
    <glyph glyph-name="uni049A" unicode="&#x49a;" horiz-adv-x="1574" 
d="M170 0v1462h305v-571h305l307 571h318l-375 -710l250 -480h246v-630h-297v358h-123l-324 614h-307v-614h-305z" />
    <glyph glyph-name="uni049B" unicode="&#x49b;" horiz-adv-x="1316" 
d="M879 0l-238 420h-203v-420h-286v1053h286v-394h207l225 394h295l-288 -508l172 -307h208v-531h-270v293h-108z" />
    <glyph glyph-name="uni04A2" unicode="&#x4a2;" horiz-adv-x="1685" 
d="M1122 1462h305v-1190h209v-630h-297v358h-217v612h-647v-612h-305v1462h305v-569h647v569z" />
    <glyph glyph-name="uni04A3" unicode="&#x4a3;" horiz-adv-x="1409" 
d="M1163 1053v-815h187v-531h-271v293h-202v420h-439v-420h-286v1053h286v-394h439v394h286z" />
    <glyph glyph-name="uni04AE" unicode="&#x4ae;" horiz-adv-x="1390" 
d="M670 870h57l320 592h311l-510 -942v-520h-307v520l-510 942h319z" />
    <glyph glyph-name="uni04AF" unicode="&#x4af;" horiz-adv-x="1185" 
d="M360 0l-319 1053h293l225 -748h74l225 748h287l-320 -1053h-90v-410h-286v410h-89z" />
    <glyph glyph-name="uni04B0" unicode="&#x4b0;" horiz-adv-x="1390" 
d="M670 870h57l320 592h311l-422 -778h281v-233h-369v-451h-307v451h-369v233h279l-420 778h319z" />
    <glyph glyph-name="uni04B1" unicode="&#x4b1;" horiz-adv-x="1185" 
d="M1036 -74h-301v-336h-286v336h-310v176h191l-289 951h293l225 -748h74l225 748h287l-289 -951h180v-176z" />
    <glyph glyph-name="uni04BA" unicode="&#x4ba;" horiz-adv-x="1445" 
d="M1337 0h-305v418q0 26 -0.5 40t-3 38t-8 38t-16 33.5t-25.5 30.5t-38 24.5t-53 20.5t-71 11.5t-90 4.5q-141 0 -252 -32v-627h-305v1462h305v-565q146 35 326 35q84 0 154 -9t122 -23t92.5 -38t67.5 -48t46.5 -59.5t29.5 -65t15.5 -72.5t7 -74.5t1.5 -77.5v-465z" />
    <glyph glyph-name="uni04BB" unicode="&#x4bb;" horiz-adv-x="1300" 
d="M756 1079q199 0 303 -118.5t104 -321.5v-639h-286v598q0 110 -53.5 168.5t-153.5 58.5q-103 0 -167.5 -77.5t-64.5 -186.5v-561h-286v1489h286v-535h41q82 125 277 125z" />
    <glyph glyph-name="uni04D8" unicode="&#x4d8;" horiz-adv-x="1579" 
d="M774 242q174 0 271 101.5t110 268.5h-745q8 -165 100 -267.5t264 -102.5zM770 1489q170 0 305.5 -57t223 -159t134 -240t46.5 -302q0 -162 -45.5 -300t-131 -240t-219.5 -160t-301 -58q-324 0 -503 214t-179 595q0 30 4 80h1051q-21 163 -117.5 261t-263.5 98
q-232 0 -291 -170h-317q42 201 200 319.5t404 118.5z" />
    <glyph glyph-name="uni04D9" unicode="&#x4d9;" horiz-adv-x="1222" 
d="M602 -27q-125 0 -223.5 41.5t-160.5 116.5t-94 175.5t-32 221.5q0 45 2 72h748q-12 117 -76 179.5t-174 62.5q-160 0 -199 -111h-291q31 165 160 256.5t332 91.5q245 0 390.5 -152t145.5 -405t-143 -401t-385 -148zM604 188q109 0 171 56t69 166h-469q1 -105 62.5 -163.5
t166.5 -58.5z" />
    <glyph glyph-name="uni04E8" unicode="&#x4e8;" horiz-adv-x="1626" 
d="M813 1489q170 0 306.5 -58t225 -160t135 -240t46.5 -300t-46.5 -300t-135 -240t-225 -160t-306.5 -58t-306.5 58t-225 160t-135 240t-46.5 300t46.5 300t135 240t225 160t306.5 58zM813 246q172 0 273 101t122 269h-790q18 -168 119.5 -269t275.5 -101zM813 1217
q-171 0 -269 -93t-124 -258h786q-26 163 -124.5 257t-268.5 94z" />
    <glyph glyph-name="uni04E9" unicode="&#x4e9;" horiz-adv-x="1273" 
d="M637 1079q250 0 397.5 -152t147.5 -401t-147.5 -401t-397.5 -152q-248 0 -396.5 152t-148.5 401t148.5 401t396.5 152zM637 211q107 0 169.5 59.5t80.5 163.5h-500q18 -104 80.5 -163.5t169.5 -59.5zM637 840q-106 0 -168 -56.5t-80 -158.5h496q-18 102 -80 158.5
t-168 56.5z" />
    <glyph glyph-name="endash" unicode="&#x2013;" horiz-adv-x="1271" 
d="M1180 469h-1090v221h1090v-221z" />
    <glyph glyph-name="emdash" unicode="&#x2014;" horiz-adv-x="1800" 
d="M1708 469h-1618v221h1618v-221z" />
    <glyph glyph-name="quoteleft" unicode="&#x2018;" horiz-adv-x="600" 
d="M319 1171h140v-311h-316v346l158 256h174l-156 -256v-35z" />
    <glyph glyph-name="quoteright" unicode="&#x2019;" horiz-adv-x="600" 
d="M281 1151h-140v311h316v-346l-158 -256h-174l156 256v35z" />
    <glyph glyph-name="quotesinglbase" unicode="&#x201a;" horiz-adv-x="600" 
d="M281 0h-140v311h316v-346l-158 -256h-174l156 256v35z" />
    <glyph glyph-name="quotedblleft" unicode="&#x201c;" horiz-adv-x="1054" 
d="M319 1171h140v-311h-316v346l158 256h174l-156 -256v-35zM774 1171h139v-311h-315v346l158 256h174l-156 -256v-35z" />
    <glyph glyph-name="quotedblright" unicode="&#x201d;" horiz-adv-x="1054" 
d="M281 1151h-140v311h316v-346l-158 -256h-174l156 256v35zM735 1151h-139v311h315v-346l-157 -256h-174l155 256v35z" />
    <glyph glyph-name="quotedblbase" unicode="&#x201e;" horiz-adv-x="1054" 
d="M281 0h-140v311h316v-346l-158 -256h-174l156 256v35zM735 0h-139v311h315v-346l-157 -256h-174l155 256v35z" />
    <glyph glyph-name="dagger" unicode="&#x2020;" horiz-adv-x="1124" 
d="M434 827h-356v240h356v395h258v-395h357v-240h-357v-1138h-258v1138z" />
    <glyph glyph-name="daggerdbl" unicode="&#x2021;" horiz-adv-x="1124" 
d="M434 827h-356v240h356v395h258v-395h357v-240h-357v-495h357v-240h-357v-403h-258v403h-356v240h356v495z" />
    <glyph glyph-name="bullet" unicode="&#x2022;" horiz-adv-x="851" 
d="M125 729q0 125 88.5 213t212.5 88t212.5 -88t88.5 -213t-88.5 -213t-212.5 -88t-212.5 88t-88.5 213z" />
    <glyph glyph-name="ellipsis" unicode="&#x2026;" horiz-adv-x="1732" 
d="M457 0h-316v311h316v-311zM1022 0h-313v311h313v-311zM1589 0h-315v311h315v-311z" />
    <glyph glyph-name="perthousand" unicode="&#x2030;" horiz-adv-x="2584" 
d="M582 0h-209l868 1434h207zM426 1462q165 0 252.5 -107.5t87.5 -279.5t-87.5 -279.5t-252.5 -107.5q-164 0 -252 107.5t-88 279.5t88 279.5t252 107.5zM426 856q75 0 113.5 59t38.5 160q0 98 -38.5 158.5t-113.5 60.5t-112.5 -60t-37.5 -159q0 -101 37.5 -160t112.5 -59z
M1395 748q164 0 252 -108t88 -280t-88 -279.5t-252 -107.5q-166 0 -254 107.5t-88 279.5t88.5 280t253.5 108zM1395 141q75 0 113 59t38 160q0 99 -38 159.5t-113 60.5q-76 0 -114 -60.5t-38 -159.5q0 -101 37.5 -160t114.5 -59zM2157 748q164 0 253 -108.5t89 -279.5
t-89 -279t-253 -108t-252 107.5t-88 279.5t88 280t252 108zM2157 141q76 0 113.5 58.5t37.5 160.5q0 99 -37.5 159.5t-113.5 60.5t-114 -60.5t-38 -159.5q0 -101 37.5 -160t114.5 -59z" />
    <glyph glyph-name="guilsinglleft" unicode="&#x2039;" horiz-adv-x="827" 
d="M371 612v-41l350 -381h-309l-306 324v156l306 321h309z" />
    <glyph glyph-name="guilsinglright" unicode="&#x203a;" horiz-adv-x="827" 
d="M457 571v41l-351 379h310l305 -321v-156l-305 -324h-310z" />
    <glyph glyph-name="fraction" unicode="&#x2044;" horiz-adv-x="501" 
d="M-78 0h-209l869 1434h206z" />
    <glyph glyph-name="Euro" unicode="&#x20ac;" horiz-adv-x="1437" 
d="M862 653l-47 -141h-291q46 -276 285 -276q104 0 166 56.5t76 162.5h288q-30 -222 -170 -352t-362 -130q-233 0 -382.5 140.5t-193.5 398.5h-184l47 141h123q-6 44 -2 125h-168l47 142h137q43 258 192.5 400t383.5 142q214 0 351.5 -120t170.5 -324h-293q-35 182 -229 182
q-116 0 -187 -71.5t-96 -208.5h430l-49 -142h-397q-5 -87 0 -125h354z" />
    <glyph glyph-name="uni20B4" unicode="&#x20b4;" horiz-adv-x="1415" 
d="M66 518v141h1284v-141h-842q-12 -32 -12 -82q0 -101 65.5 -155t169.5 -54q200 0 242 166h299q-30 -198 -166 -309t-375 -111q-129 0 -231.5 36.5t-166 99.5t-97 143t-33.5 172q0 57 12 94h-149zM66 926h839q25 45 25 98q0 89 -56.5 136.5t-146.5 47.5q-184 0 -211 -153
h-293q17 184 156.5 295.5t349.5 111.5q116 0 211 -34.5t155.5 -93.5t93 -135.5t32.5 -162.5q0 -58 -19 -110h148v-142h-1284v142z" />
    <glyph glyph-name="uni20B8" unicode="&#x20b8;" horiz-adv-x="1126" 
d="M33 1026v141h1061v-141h-383v-1026h-295v1026h-383zM33 1292v142h1061v-142h-1061z" />
    <glyph glyph-name="uni20BD" unicode="&#x20bd;" horiz-adv-x="1447" 
d="M248 1434h588q246 0 380 -118.5t134 -334.5q0 -217 -134.5 -338t-379.5 -121h-293v-125h372v-141h-372v-256h-295v256h-189v141h189v125h-189v248h189v664zM543 1186v-416h250q264 0 264 211q0 101 -62.5 153t-201.5 52h-250z" />
    <glyph glyph-name="uni2116" unicode="&#x2116;" horiz-adv-x="2373" 
d="M1135 1434h272v-1434h-375l-551 993h-39v-993h-272v1434h375l549 -994h41v994zM2273 414h-682v164h682v-164zM1929 1462q166 0 254 -107.5t88 -279.5t-88 -279.5t-254 -107.5q-165 0 -251.5 107.5t-86.5 279.5t86.5 279.5t251.5 107.5zM1929 856q77 0 114.5 59t37.5 160
q0 99 -38 159t-114 60q-75 0 -112 -60t-37 -159q0 -101 37 -160t112 -59z" />
    <glyph glyph-name="trademark" unicode="&#x2122;" horiz-adv-x="1761" 
d="M1098 1462l131 -311h24l129 311h260v-776h-163v576h-25l-135 -318h-160l-131 318h-24v-576h-166v776h260zM707 1462v-157h-244v-619h-176v619h-242v157h662z" />
    <glyph glyph-name="Omega" unicode="&#x2126;" horiz-adv-x="1576" 
d="M1241 293v-53h236v-240h-603v250q291 197 291 524q0 207 -103 325t-271 118q-169 0 -273 -118t-104 -325q0 -329 288 -524v-250h-600v240h236v53q-103 79 -170.5 215t-67.5 309q0 144 47.5 267.5t134.5 213t218 140.5t291 51q212 0 369 -88t237 -239t80 -345
q0 -174 -66 -309t-170 -215z" />
    <glyph glyph-name="arrowleft" unicode="&#x2190;" horiz-adv-x="1654" 
d="M612 1053h340l-362 -363v-41h958v-243h-958v-41l362 -365h-340l-526 528z" />
    <glyph glyph-name="arrowup" unicode="&#x2191;" horiz-adv-x="1378" 
d="M1217 936v-340l-365 362h-41v-958h-244v958h-41l-364 -362v340l528 526z" />
    <glyph glyph-name="arrowright" unicode="&#x2192;" horiz-adv-x="1654" 
d="M702 1053h340l527 -525l-527 -528h-340l363 365v41h-959v243h959v41z" />
    <glyph glyph-name="arrowdown" unicode="&#x2193;" horiz-adv-x="1378" 
d="M162 526v340l364 -362h41v958h244v-958h41l365 362v-340l-529 -526z" />
    <glyph glyph-name="uni2196" unicode="&#x2196;" horiz-adv-x="1443" 
d="M907 1462l240 -241h-514l-29 -29l678 -678l-172 -174l-678 678l-29 -29v-514l-241 242v745h745z" />
    <glyph glyph-name="uni2197" unicode="&#x2197;" horiz-adv-x="1443" 
d="M297 1221l240 241h745v-745l-242 -242v514l-28 29l-678 -678l-172 174l678 678l-29 29h-514z" />
    <glyph glyph-name="uni2198" unicode="&#x2198;" horiz-adv-x="1443" 
d="M1147 242l-240 -242h-745v745l241 242v-514l29 -29l678 678l172 -174l-678 -678l29 -28h514z" />
    <glyph glyph-name="uni2199" unicode="&#x2199;" horiz-adv-x="1443" 
d="M537 0l-240 242h514l29 28l-678 678l172 174l678 -678l28 29v514l242 -242v-745h-745z" />
    <glyph glyph-name="partialdiff" unicode="&#x2202;" horiz-adv-x="1261" 
d="M631 211q125 0 187.5 81t62.5 212q0 130 -63 212.5t-187 82.5q-125 0 -189.5 -83t-64.5 -212q0 -130 64.5 -211.5t189.5 -81.5zM295 1489h342q71 -49 137.5 -108t141 -148.5t128.5 -188t89.5 -229.5t35.5 -270q0 -167 -60.5 -294.5t-184.5 -202.5t-297 -75
q-163 0 -286 71.5t-186 192.5t-63 273q0 228 127 371t320 143q75 0 137 -19t94 -51h45q-35 80 -96.5 159.5t-141 151t-142 120.5t-140.5 104z" />
    <glyph glyph-name="Delta" unicode="&#x2206;" horiz-adv-x="1337" 
d="M811 1462l442 -1186v-276h-1171v276l442 1186h287zM1004 236v40l-314 857h-43l-313 -857v-40h670z" />
    <glyph glyph-name="product" unicode="&#x220f;" horiz-adv-x="1275" 
d="M1028 -410h-244v1647h-292v-1647h-244v1647h-195v225h1170v-225h-195v-1647z" />
    <glyph glyph-name="summation" unicode="&#x2211;" horiz-adv-x="1169" 
d="M416 268h702v-268h-1048v307l362 404v41l-348 403v307h997v-268h-655v-39l313 -371v-108l-323 -369v-39z" />
    <glyph glyph-name="minus" unicode="&#x2212;" horiz-adv-x="1380" 
d="M1217 471h-1053v244h1053v-244z" />
    <glyph glyph-name="uni2215" unicode="&#x2215;" horiz-adv-x="1075" 
d="M209 0h-209l868 1434h207z" />
    <glyph glyph-name="radical" unicode="&#x221a;" horiz-adv-x="1366" 
d="M66 1053h239l221 -762h41l355 1171h391v-213h-217l-389 -1249h-324z" />
    <glyph glyph-name="infinity" unicode="&#x221e;" horiz-adv-x="1863" 
d="M911 664h41q100 104 153 145q129 100 261 100q149 0 242.5 -90t93.5 -241t-93.5 -241.5t-242.5 -90.5q-65 0 -126.5 21.5t-115.5 62t-90.5 76t-81.5 86.5h-41q-35 -40 -62.5 -68.5t-70.5 -64.5t-83 -58.5t-92 -38.5t-105 -16q-149 0 -242.5 90.5t-93.5 241.5t93.5 241
t242.5 90q63 0 120 -18.5t114 -62t83.5 -68.5t82.5 -83zM848 578q-43 50 -72.5 81t-75.5 69.5t-95 57.5t-101 19q-98 0 -164 -60.5t-66 -166.5t66 -167t164 -61q52 0 101.5 19.5t94 56t77 70.5t71.5 82zM1016 578q39 -48 71.5 -82t77 -70.5t94 -56t101.5 -19.5
q98 0 163.5 61t65.5 167t-65.5 166.5t-163.5 60.5q-52 0 -101 -19t-95 -57.5t-75.5 -69.5t-72.5 -81z" />
    <glyph glyph-name="integral" unicode="&#x222b;" horiz-adv-x="1056" 
d="M934 1489h100v-240h-84q-100 0 -148.5 -53.5t-68.5 -169.5l-176 -1001q-43 -236 -159 -335.5t-324 -99.5h-101v240h84q100 0 148.5 53.5t68.5 169.5l177 1002q40 234 158 334t325 100z" />
    <glyph glyph-name="approxequal" unicode="&#x2248;" horiz-adv-x="1374" 
d="M1012 1032h202q0 -189 -80 -294t-216 -105q-58 0 -123 27t-112 59t-103 59t-99 27q-116 0 -116 -172h-203q0 189 80.5 294t216.5 105q58 0 122.5 -26.5t111.5 -58.5t103 -58.5t99 -26.5q117 0 117 170zM1012 573h202q0 -189 -80 -294t-216 -105q-58 0 -123 27t-112 59
t-103 59t-99 27q-116 0 -116 -172h-203q0 189 80.5 294t216.5 105q58 0 122.5 -26.5t111.5 -58.5t103 -58.5t99 -26.5q117 0 117 170z" />
    <glyph glyph-name="notequal" unicode="&#x2260;" horiz-adv-x="1380" 
d="M1217 502v-244h-613l-151 -240h-254l151 240h-186v244h344l115 180h-459v244h614l154 239h250l-152 -239h187v-244h-343l-114 -180h457z" />
    <glyph glyph-name="lessequal" unicode="&#x2264;" horiz-adv-x="1380" 
d="M1217 309l-1053 326v233l1053 297v-245l-619 -162v-39l619 -162v-248zM164 0v244h1053v-244h-1053z" />
    <glyph glyph-name="greaterequal" unicode="&#x2265;" horiz-adv-x="1380" 
d="M164 309v248l618 162v39l-618 162v245l1053 -297v-233zM1217 0h-1053v244h1053v-244z" />
    <glyph glyph-name="uni2460" unicode="&#x2460;" 
d="M1628 731q0 -160 -58.5 -301t-159.5 -241t-241.5 -158t-298.5 -58t-298.5 58t-241 158t-159 241t-58.5 301t58.5 301t159 241t241 158t298.5 58t298.5 -58t241.5 -158t159.5 -241t58.5 -301zM248 731q0 -178 79.5 -322t222 -226.5t320.5 -82.5t321 82.5t222.5 226.5
t79.5 322t-79.5 322t-222.5 226.5t-321 82.5t-320.5 -82.5t-222 -226.5t-79.5 -322zM999 500h172v-160h-542v160h184v426h-29l-155 -88v174l194 108h176v-620z" />
    <glyph glyph-name="uni2461" unicode="&#x2461;" 
d="M1628 731q0 -160 -58.5 -301t-159.5 -241t-241.5 -158t-298.5 -58t-298.5 58t-241 158t-159 241t-58.5 301t58.5 301t159 241t241 158t298.5 58t298.5 -58t241.5 -158t159.5 -241t58.5 -301zM248 731q0 -178 79.5 -322t222 -226.5t320.5 -82.5t321 82.5t222.5 226.5
t79.5 322t-79.5 322t-222.5 226.5t-321 82.5t-320.5 -82.5t-222 -226.5t-79.5 -322zM874 500h308v-160h-600v186l206 133q103 68 147 112t44 97q0 50 -28 75.5t-77 25.5q-109 0 -112 -105h-187q4 132 86 201.5t220 69.5q128 0 205 -67t77 -189q0 -85 -45 -152.5t-139 -128.5
l-105 -70v-28z" />
    <glyph glyph-name="uni2462" unicode="&#x2462;" 
d="M1628 731q0 -160 -58.5 -301t-159.5 -241t-241.5 -158t-298.5 -58t-298.5 58t-241 158t-159 241t-58.5 301t58.5 301t159 241t241 158t298.5 58t298.5 -58t241.5 -158t159.5 -241t58.5 -301zM248 731q0 -178 79.5 -322t222 -226.5t320.5 -82.5t321 82.5t222.5 226.5
t79.5 322t-79.5 322t-222.5 226.5t-321 82.5t-320.5 -82.5t-222 -226.5t-79.5 -322zM1001 840v-29q76 -12 129.5 -68t53.5 -149q0 -122 -86 -195t-224 -73q-140 0 -225 74.5t-90 193.5h184q9 -102 131 -102q60 0 92.5 28t32.5 78q0 53 -32.5 81t-89.5 28q-43 0 -76 -11v142
l121 94v29h-310v159h533v-184z" />
    <glyph glyph-name="uni2463" unicode="&#x2463;" 
d="M1628 731q0 -160 -58.5 -301t-159.5 -241t-241.5 -158t-298.5 -58t-298.5 58t-241 158t-159 241t-58.5 301t58.5 301t159 241t241 158t298.5 58t298.5 -58t241.5 -158t159.5 -241t58.5 -301zM248 731q0 -178 79.5 -322t222 -226.5t320.5 -82.5t321 82.5t222.5 226.5
t79.5 322t-79.5 322t-222.5 226.5t-321 82.5t-320.5 -82.5t-222 -226.5t-79.5 -322zM1079 655h95v-159h-95v-156h-180v156h-371v188l336 436h215v-465zM702 655h203v252h-28l-175 -223v-29z" />
    <glyph glyph-name="uni2464" unicode="&#x2464;" 
d="M1628 731q0 -160 -58.5 -301t-159.5 -241t-241.5 -158t-298.5 -58t-298.5 58t-241 158t-159 241t-58.5 301t58.5 301t159 241t241 158t298.5 58t298.5 -58t241.5 -158t159.5 -241t58.5 -301zM248 731q0 -178 79.5 -322t222 -226.5t320.5 -82.5t321 82.5t222.5 226.5
t79.5 322t-79.5 322t-222.5 226.5t-321 82.5t-320.5 -82.5t-222 -226.5t-79.5 -322zM928 874q113 0 185.5 -73.5t72.5 -190.5q0 -127 -85 -205.5t-216 -78.5q-144 0 -226 73.5t-90 194.5h187q12 -107 123 -107q57 0 89.5 33t32.5 90q0 59 -32.5 90t-87.5 31q-78 0 -123 -57
h-168l39 446h508v-159h-369l-8 -136h28q49 49 140 49z" />
    <glyph glyph-name="uni2465" unicode="&#x2465;" 
d="M1628 731q0 -160 -58.5 -301t-159.5 -241t-241.5 -158t-298.5 -58t-298.5 58t-241 158t-159 241t-58.5 301t58.5 301t159 241t241 158t298.5 58t298.5 -58t241.5 -158t159.5 -241t58.5 -301zM248 731q0 -178 79.5 -322t222 -226.5t320.5 -82.5t321 82.5t222.5 226.5
t79.5 322t-79.5 322t-222.5 226.5t-321 82.5t-320.5 -82.5t-222 -226.5t-79.5 -322zM922 864q108 0 186 -73t78 -185q0 -119 -83 -199.5t-216 -80.5q-152 0 -241 93t-89 298q0 189 83.5 303.5t248.5 114.5q107 0 185.5 -64t90.5 -158h-180q-25 72 -100 72q-134 0 -154 -184
h29q72 63 162 63zM881 477q55 0 87.5 33t32.5 92q0 58 -33.5 88.5t-86.5 30.5q-56 0 -89.5 -30.5t-33.5 -88.5q0 -59 34 -92t89 -33z" />
    <glyph glyph-name="uni2466" unicode="&#x2466;" 
d="M1628 731q0 -160 -58.5 -301t-159.5 -241t-241.5 -158t-298.5 -58t-298.5 58t-241 158t-159 241t-58.5 301t58.5 301t159 241t241 158t298.5 58t298.5 -58t241.5 -158t159.5 -241t58.5 -301zM248 731q0 -178 79.5 -322t222 -226.5t320.5 -82.5t321 82.5t222.5 226.5
t79.5 322t-79.5 322t-222.5 226.5t-321 82.5t-320.5 -82.5t-222 -226.5t-79.5 -322zM606 1120h561v-188l-303 -592h-192l303 592v29h-369v159z" />
    <glyph glyph-name="uni2467" unicode="&#x2467;" 
d="M1628 731q0 -160 -58.5 -301t-159.5 -241t-241.5 -158t-298.5 -58t-298.5 58t-241 158t-159 241t-58.5 301t58.5 301t159 241t241 158t298.5 58t298.5 -58t241.5 -158t159.5 -241t58.5 -301zM248 731q0 -178 79.5 -322t222 -226.5t320.5 -82.5t321 82.5t222.5 226.5
t79.5 322t-79.5 322t-222.5 226.5t-321 82.5t-320.5 -82.5t-222 -226.5t-79.5 -322zM872 993q-52 0 -81 -25.5t-29 -64.5q0 -40 29 -66t81 -26q49 0 79 26.5t30 65.5q0 38 -30.5 64t-78.5 26zM872 475q63 0 96 30.5t33 74.5t-33 73t-96 29q-64 0 -97.5 -29t-33.5 -73
q0 -45 33.5 -75t97.5 -30zM672 741v29q-86 48 -86 150q0 91 77 153t209 62t208.5 -62t76.5 -153q0 -102 -86 -150v-29q115 -52 115 -182q0 -96 -84.5 -164.5t-231.5 -68.5t-230 68t-83 165q0 130 115 182z" />
    <glyph glyph-name="uni2468" unicode="&#x2468;" 
d="M1628 731q0 -160 -58.5 -301t-159.5 -241t-241.5 -158t-298.5 -58t-298.5 58t-241 158t-159 241t-58.5 301t58.5 301t159 241t241 158t298.5 58t298.5 -58t241.5 -158t159.5 -241t58.5 -301zM248 731q0 -178 79.5 -322t222 -226.5t320.5 -82.5t321 82.5t222.5 226.5
t79.5 322t-79.5 322t-222.5 226.5t-321 82.5t-320.5 -82.5t-222 -226.5t-79.5 -322zM821 596q-108 0 -186 73t-78 185q0 119 83 200t216 81q152 0 241 -93.5t89 -298.5q0 -189 -83.5 -303t-248.5 -114q-107 0 -185.5 64t-90.5 157h180q25 -72 100 -72q134 0 154 184h-29
q-72 -63 -162 -63zM862 983q-55 0 -88 -33t-33 -92q0 -58 33.5 -88.5t87.5 -30.5q56 0 89.5 30.5t33.5 88.5q0 59 -34 92t-89 33z" />
    <glyph glyph-name="lozenge" unicode="&#x25ca;" horiz-adv-x="1175" 
d="M707 1462l360 -731l-360 -731h-238l-363 731l363 731h238zM608 326l189 405l-189 406h-41l-188 -406l188 -405h41z" />
    <glyph glyph-name="circle" unicode="&#x25cb;" 
d="M1628 731q0 -160 -58.5 -301t-159.5 -241t-241.5 -158t-298.5 -58t-298.5 58t-241 158t-159 241t-58.5 301t58.5 301t159 241t241 158t298.5 58t298.5 -58t241.5 -158t159.5 -241t58.5 -301zM248 731q0 -178 79.5 -322t222 -226.5t320.5 -82.5t321 82.5t222.5 226.5
t79.5 322t-79.5 322t-222.5 226.5t-321 82.5t-320.5 -82.5t-222 -226.5t-79.5 -322z" />
    <glyph glyph-name="H18533" unicode="&#x25cf;" 
d="M1628 731q0 -160 -58.5 -301t-159.5 -241t-241.5 -158t-298.5 -58t-298.5 58t-241 158t-159 241t-58.5 301t58.5 301t159 241t241 158t298.5 58t298.5 -58t241.5 -158t159.5 -241t58.5 -301z" />
    <glyph glyph-name="uni2776" unicode="&#x2776;" 
d="M1171 500h-172v620h-176l-194 -108v-174l155 88h29v-426h-184v-160h542v160zM1628 731q0 -160 -58.5 -301t-159.5 -241t-241.5 -158t-298.5 -58t-298.5 58t-241 158t-159 241t-58.5 301t58.5 301t159 241t241 158t298.5 58t298.5 -58t241.5 -158t159.5 -241t58.5 -301z
" />
    <glyph glyph-name="uni2777" unicode="&#x2777;" 
d="M1182 500h-308v28l105 70q94 61 139 128.5t45 152.5q0 122 -77 189t-205 67q-138 0 -220 -69.5t-86 -201.5h187q3 105 112 105q49 0 77 -25.5t28 -75.5q0 -53 -44 -97t-147 -112l-206 -133v-186h600v160zM1628 731q0 -160 -58.5 -301t-159.5 -241t-241.5 -158t-298.5 -58
t-298.5 58t-241 158t-159 241t-58.5 301t58.5 301t159 241t241 158t298.5 58t298.5 -58t241.5 -158t159.5 -241t58.5 -301z" />
    <glyph glyph-name="uni2778" unicode="&#x2778;" 
d="M1001 811v29l144 96v184h-533v-159h310v-29l-121 -94v-142q33 11 76 11q57 0 89.5 -28t32.5 -81q0 -50 -32.5 -78t-92.5 -28q-122 0 -131 102h-184q5 -119 90 -193.5t225 -74.5q138 0 224 73t86 195q0 93 -53.5 149t-129.5 68zM1628 731q0 -160 -58.5 -301t-159.5 -241
t-241.5 -158t-298.5 -58t-298.5 58t-241 158t-159 241t-58.5 301t58.5 301t159 241t241 158t298.5 58t298.5 -58t241.5 -158t159.5 -241t58.5 -301z" />
    <glyph glyph-name="uni2779" unicode="&#x2779;" 
d="M1628 731q0 -160 -58.5 -301t-159.5 -241t-241.5 -158t-298.5 -58t-298.5 58t-241 158t-159 241t-58.5 301t58.5 301t159 241t241 158t298.5 58t298.5 -58t241.5 -158t159.5 -241t58.5 -301zM1174 655h-95v465h-215l-336 -436v-188h371v-156h180v156h95v159zM905 655
h-203v29l175 223h28v-252z" />
    <glyph glyph-name="uni277A" unicode="&#x277a;" 
d="M928 874q-91 0 -140 -49h-28l8 136h369v159h-508l-39 -446h168q45 57 123 57q55 0 87.5 -31t32.5 -90q0 -57 -32.5 -90t-89.5 -33q-111 0 -123 107h-187q8 -121 90 -194.5t226 -73.5q131 0 216 78.5t85 205.5q0 117 -72.5 190.5t-185.5 73.5zM1628 731q0 -160 -58.5 -301
t-159.5 -241t-241.5 -158t-298.5 -58t-298.5 58t-241 158t-159 241t-58.5 301t58.5 301t159 241t241 158t298.5 58t298.5 -58t241.5 -158t159.5 -241t58.5 -301z" />
    <glyph glyph-name="uni277B" unicode="&#x277b;" 
d="M922 864q-90 0 -162 -63h-29q20 184 154 184q75 0 100 -72h180q-12 94 -90.5 158t-185.5 64q-165 0 -248.5 -114.5t-83.5 -303.5q0 -205 89 -298t241 -93q133 0 216 80.5t83 199.5q0 112 -78 185t-186 73zM881 477q-55 0 -89 33t-34 92q0 58 33.5 88.5t89.5 30.5
q53 0 86.5 -30.5t33.5 -88.5q0 -59 -32.5 -92t-87.5 -33zM1628 731q0 -160 -58.5 -301t-159.5 -241t-241.5 -158t-298.5 -58t-298.5 58t-241 158t-159 241t-58.5 301t58.5 301t159 241t241 158t298.5 58t298.5 -58t241.5 -158t159.5 -241t58.5 -301z" />
    <glyph glyph-name="uni277C" unicode="&#x277c;" 
d="M1167 1120h-561v-159h369v-29l-303 -592h192l303 592v188zM1628 731q0 -160 -58.5 -301t-159.5 -241t-241.5 -158t-298.5 -58t-298.5 58t-241 158t-159 241t-58.5 301t58.5 301t159 241t241 158t298.5 58t298.5 -58t241.5 -158t159.5 -241t58.5 -301z" />
    <glyph glyph-name="uni277D" unicode="&#x277d;" 
d="M872 993q48 0 78.5 -26t30.5 -64q0 -39 -30 -65.5t-79 -26.5q-52 0 -81 26t-29 66q0 39 29 64.5t81 25.5zM872 475q-64 0 -97.5 30t-33.5 75q0 44 33.5 73t97.5 29q63 0 96 -29t33 -73t-33 -74.5t-96 -30.5zM672 770v-29q-115 -52 -115 -182q0 -97 83 -165t230 -68
t231.5 68.5t84.5 164.5q0 130 -115 182v29q86 48 86 150q0 91 -76.5 153t-208.5 62t-209 -62t-77 -153q0 -102 86 -150zM1628 731q0 -160 -58.5 -301t-159.5 -241t-241.5 -158t-298.5 -58t-298.5 58t-241 158t-159 241t-58.5 301t58.5 301t159 241t241 158t298.5 58
t298.5 -58t241.5 -158t159.5 -241t58.5 -301z" />
    <glyph glyph-name="uni277E" unicode="&#x277e;" 
d="M821 596q90 0 162 63h29q-20 -184 -154 -184q-75 0 -100 72h-180q12 -93 90.5 -157t185.5 -64q165 0 248.5 114t83.5 303q0 205 -89 298.5t-241 93.5q-133 0 -216 -81t-83 -200q0 -112 78 -185t186 -73zM862 983q55 0 89 -33t34 -92q0 -58 -33.5 -88.5t-89.5 -30.5
q-54 0 -87.5 30.5t-33.5 88.5q0 59 33 92t88 33zM1628 731q0 -160 -58.5 -301t-159.5 -241t-241.5 -158t-298.5 -58t-298.5 58t-241 158t-159 241t-58.5 301t58.5 301t159 241t241 158t298.5 58t298.5 -58t241.5 -158t159.5 -241t58.5 -301z" />
    <glyph glyph-name="commaaccent" unicode="&#xf6c3;" horiz-adv-x="460" 
d="M246 -475h-168l141 135v35h-121v194h287v-229z" />
    <glyph glyph-name="zero.numr" horiz-adv-x="794" 
d="M721 1071q0 -201 -89 -302t-237 -101q-147 0 -235 101t-88 302q0 205 88 305.5t235 100.5q149 0 237.5 -100.5t88.5 -305.5zM395 834q40 0 69.5 21t44.5 57t21.5 75t6.5 84t-6.5 84.5t-21.5 76t-44.5 58t-69.5 21.5t-69 -21t-43.5 -58t-20.5 -76t-6 -85q0 -45 6 -83.5
t20.5 -75t43.5 -57.5t69 -21z" />
    <glyph glyph-name="one.numr" horiz-adv-x="688" 
d="M442 842h172v-160h-542v160h184v426h-29l-155 -88v174l194 108h176v-620z" />
    <glyph glyph-name="two.numr" horiz-adv-x="757" 
d="M365 842h307v-160h-600v186l207 133q103 68 146.5 112t43.5 97q0 50 -27.5 75.5t-76.5 25.5q-110 0 -113 -105h-186q4 132 85.5 201.5t219.5 69.5q128 0 205 -67t77 -189q0 -85 -45 -152.5t-139 -128.5l-104 -70v-28z" />
    <glyph glyph-name="three.numr" horiz-adv-x="753" 
d="M502 1182v-29q76 -12 129 -67.5t53 -149.5q0 -122 -85.5 -195t-223.5 -73q-140 0 -225.5 74.5t-90.5 193.5h185q4 -52 39 -77t92 -25q60 0 92.5 28t32.5 78q0 53 -33 81t-90 28q-43 0 -76 -11v142l121 94v29h-309v159h532v-184z" />
    <glyph glyph-name="four.numr" horiz-adv-x="776" 
d="M610 997h95v-159h-95v-156h-180v156h-371v188l336 436h215v-465zM233 997h203v252h-28l-175 -223v-29z" />
    <glyph glyph-name="five.numr" horiz-adv-x="763" 
d="M430 1217q113 0 185.5 -74t72.5 -191q0 -127 -85 -205.5t-216 -78.5q-144 0 -225.5 73.5t-89.5 194.5h186q12 -107 123 -107q57 0 90 33t33 90q0 59 -33 90t-88 31q-78 0 -123 -57h-168l39 446h508v-159h-369l-8 -136h29q50 50 139 50z" />
    <glyph glyph-name="six.numr" horiz-adv-x="774" 
d="M436 1206q108 0 186 -73t78 -185q0 -119 -83 -199.5t-216 -80.5q-152 0 -240.5 93t-88.5 298q0 189 83 303.5t248 114.5q107 0 186 -64.5t91 -157.5h-180q-25 72 -101 72q-133 0 -153 -184h28q72 63 162 63zM395 819q55 0 88 33t33 92q0 58 -33.5 88.5t-87.5 30.5
q-56 0 -89.5 -30.5t-33.5 -88.5q0 -59 34 -92t89 -33z" />
    <glyph glyph-name="seven.numr" horiz-adv-x="706" 
d="M72 1462h561v-188l-303 -592h-193l303 592v29h-368v159z" />
    <glyph glyph-name="eight.numr" horiz-adv-x="778" 
d="M389 1335q-52 0 -81 -25.5t-29 -64.5q0 -40 29 -66t81 -26q49 0 79 26.5t30 65.5q0 38 -30.5 64t-78.5 26zM389 817q63 0 96 30.5t33 74.5t-33 73t-96 29q-64 0 -97.5 -29t-33.5 -73q0 -45 33.5 -75t97.5 -30zM188 1083v29q-86 48 -86 150q0 91 77.5 153t209.5 62
t208.5 -62t76.5 -153q0 -102 -86 -150v-29q114 -52 114 -182q0 -96 -84 -164.5t-231 -68.5t-230 68t-83 165q0 130 114 182z" />
    <glyph glyph-name="nine.numr" horiz-adv-x="774" 
d="M336 938q-108 0 -186 73t-78 185q0 119 83 200t216 81q152 0 240.5 -93.5t88.5 -298.5q0 -189 -83 -303t-248 -114q-108 0 -186.5 64t-90.5 157h180q25 -72 101 -72q133 0 153 184h-28q-72 -63 -162 -63zM377 1325q-55 0 -88 -33t-33 -92q0 -58 33.5 -88.5t87.5 -30.5
q56 0 89.5 30.5t33.5 88.5q0 59 -34 92t-89 33z" />
    <glyph glyph-name="zero.dnom" horiz-adv-x="794" 
d="M721 389q0 -201 -89 -302t-237 -101q-147 0 -235 101t-88 302q0 205 88 305.5t235 100.5q149 0 237.5 -100.5t88.5 -305.5zM395 152q40 0 69.5 21t44.5 57t21.5 75t6.5 84t-6.5 84.5t-21.5 76t-44.5 58t-69.5 21.5t-69 -21t-43.5 -58t-20.5 -76t-6 -85q0 -45 6 -83.5
t20.5 -75t43.5 -57.5t69 -21z" />
    <glyph glyph-name="one.dnom" horiz-adv-x="688" 
d="M442 160h172v-160h-542v160h184v426h-29l-155 -88v174l194 108h176v-620z" />
    <glyph glyph-name="two.dnom" horiz-adv-x="745" 
d="M365 160h307v-160h-600v186l207 133q103 68 146.5 112t43.5 97q0 50 -27.5 75.5t-76.5 25.5q-110 0 -113 -105h-186q4 132 85.5 201.5t219.5 69.5q128 0 205 -67t77 -189q0 -85 -45 -152.5t-139 -128.5l-104 -70v-28z" />
    <glyph glyph-name="three.dnom" horiz-adv-x="755" 
d="M502 500v-29q76 -12 129 -67.5t53 -149.5q0 -122 -85.5 -195t-223.5 -73q-140 0 -225.5 74.5t-90.5 193.5h185q4 -52 39 -77t92 -25q60 0 92.5 28t32.5 78q0 53 -33 81t-90 28q-43 0 -76 -11v142l121 94v29h-309v159h532v-184z" />
    <glyph glyph-name="four.dnom" horiz-adv-x="776" 
d="M610 315h95v-159h-95v-156h-180v156h-371v188l336 436h215v-465zM233 315h203v252h-28l-175 -223v-29z" />
    <glyph glyph-name="five.dnom" horiz-adv-x="763" 
d="M430 535q113 0 185.5 -74t72.5 -191q0 -127 -85 -205.5t-216 -78.5q-144 0 -225.5 73.5t-89.5 194.5h186q12 -107 123 -107q57 0 90 33t33 90q0 59 -33 90t-88 31q-78 0 -123 -57h-168l39 446h508v-159h-369l-8 -136h29q50 50 139 50z" />
    <glyph glyph-name="six.dnom" horiz-adv-x="774" 
d="M436 524q108 0 186 -73t78 -185q0 -119 -83 -199.5t-216 -80.5q-152 0 -240.5 93t-88.5 298q0 189 83 303.5t248 114.5q107 0 186 -64.5t91 -157.5h-180q-25 72 -101 72q-133 0 -153 -184h28q72 63 162 63zM395 137q55 0 88 33t33 92q0 58 -33.5 88.5t-87.5 30.5
q-56 0 -89.5 -30.5t-33.5 -88.5q0 -59 34 -92t89 -33z" />
    <glyph glyph-name="seven.dnom" horiz-adv-x="706" 
d="M72 780h561v-188l-303 -592h-193l303 592v29h-368v159z" />
    <glyph glyph-name="eight.dnom" horiz-adv-x="778" 
d="M389 653q-52 0 -81 -25.5t-29 -64.5q0 -40 29 -66t81 -26q49 0 79 26.5t30 65.5q0 38 -30.5 64t-78.5 26zM389 135q63 0 96 30.5t33 74.5t-33 73t-96 29q-64 0 -97.5 -29t-33.5 -73q0 -45 33.5 -75t97.5 -30zM188 401v29q-86 48 -86 150q0 91 77.5 153t209.5 62
t208.5 -62t76.5 -153q0 -102 -86 -150v-29q114 -52 114 -182q0 -96 -84 -164.5t-231 -68.5t-230 68t-83 165q0 130 114 182z" />
    <glyph glyph-name="nine.dnom" horiz-adv-x="774" 
d="M336 256q-108 0 -186 73t-78 185q0 119 83 200t216 81q152 0 240.5 -93.5t88.5 -298.5q0 -189 -83 -303t-248 -114q-108 0 -186.5 64t-90.5 157h180q25 -72 101 -72q133 0 153 184h-28q-72 -63 -162 -63zM377 643q-55 0 -88 -33t-33 -92q0 -58 33.5 -88.5t87.5 -30.5
q56 0 89.5 30.5t33.5 88.5q0 59 -34 92t-89 33z" />
    <glyph glyph-name="zero.onum" horiz-adv-x="1280" 
d="M641 1079q159 0 285 -68t198 -194.5t72 -290.5t-72 -290.5t-198 -194.5t-285 -68t-285 68t-198 194.5t-72 290.5t72 290.5t198 194.5t285 68zM641 225q131 0 199.5 81.5t68.5 219.5t-68.5 219.5t-199.5 81.5t-199.5 -81.5t-68.5 -219.5t68.5 -219.5t199.5 -81.5z" />
    <glyph glyph-name="one.onum" horiz-adv-x="1048" 
d="M123 0v246h291v524h-43l-248 -152v281l248 154h331v-807h261v-246h-840z" />
    <glyph glyph-name="two.onum" horiz-adv-x="1140" 
d="M1059 246v-246h-979v270l371 170q156 72 216 126.5t60 129.5q0 63 -45.5 99t-128.5 36q-191 0 -188 -178h-289q-5 185 126.5 305.5t356.5 120.5q216 0 335.5 -103.5t119.5 -252.5q0 -132 -67 -216t-224 -157l-141 -65v-39h477z" />
    <glyph glyph-name="three.onum" horiz-adv-x="1228" 
d="M141 1053h920v-285l-279 -231v-39q155 -13 255 -121.5t100 -290.5q0 -224 -150.5 -356.5t-392.5 -132.5q-240 0 -390 131t-155 331h287q12 -97 83 -154t175 -57q116 0 186 66.5t70 171.5q0 111 -67.5 176.5t-188.5 65.5q-58 0 -131 -15v228l276 227v39h-598v246z" />
    <glyph glyph-name="four.onum" horiz-adv-x="1298" 
d="M1038 246h181v-246h-181v-381h-280v381h-684v293l633 760h331v-807zM356 246h412v485h-41l-371 -444v-41z" />
    <glyph glyph-name="five.onum" horiz-adv-x="1277" 
d="M719 598q200 0 330.5 -133.5t130.5 -347.5q0 -232 -149.5 -376t-379.5 -144q-245 0 -387.5 128.5t-154.5 333.5h286q14 -99 78.5 -155t167.5 -56q116 0 184 72.5t68 190.5q0 123 -70 191.5t-180 68.5q-144 0 -225 -109h-275l64 791h883v-246h-658l-22 -297h41
q103 88 268 88z" />
    <glyph glyph-name="six.onum" horiz-adv-x="1271" 
d="M729 952q199 0 331 -132t132 -339q0 -140 -62 -255t-182 -184t-278 -69q-100 0 -184.5 23.5t-156 77.5t-121.5 136t-78 204t-28 276q0 170 34.5 309t103.5 243.5t180.5 162t257.5 57.5q190 0 323 -109t154 -270h-287q-40 140 -196 140q-126 0 -203.5 -98.5t-87.5 -290.5
h41q104 118 307 118zM664 215q107 0 174 67.5t67 188.5t-67.5 186.5t-175.5 65.5t-176 -65.5t-68 -184.5q0 -120 69.5 -189t176.5 -69z" />
    <glyph glyph-name="seven.onum" horiz-adv-x="1173" 
d="M1075 762l-573 -1143h-301l575 1143v41h-676v250h975v-291z" />
    <glyph glyph-name="eight.onum" horiz-adv-x="1292" 
d="M981 780v-41q84 -32 149.5 -120t65.5 -216q0 -88 -36 -165t-103.5 -136.5t-173.5 -94t-236 -34.5t-236.5 34.5t-174 94t-104 137t-36.5 164.5q0 67 20 125.5t53.5 99t69 68t72.5 43.5v41q-66 36 -117 111.5t-51 185.5q0 166 135.5 275.5t368.5 109.5q231 0 366.5 -109.5
t135.5 -275.5q0 -110 -51 -185.5t-117 -111.5zM647 1237q-99 0 -162 -54t-63 -136q0 -83 63 -138t162 -55q101 0 163 55t62 138t-62 136.5t-163 53.5zM647 215q124 0 193 61.5t69 153.5q0 91 -69 153t-193 62q-125 0 -194.5 -62t-69.5 -153q0 -92 69.5 -153.5t194.5 -61.5z
" />
    <glyph glyph-name="nine.onum" horiz-adv-x="1271" 
d="M539 100q-198 0 -329.5 131.5t-131.5 339.5q0 140 62 255t181.5 184t276.5 69q126 0 226.5 -39t178.5 -122t120 -224t42 -332q0 -170 -34 -308t-102.5 -241t-180 -159.5t-258.5 -56.5q-191 0 -321 108.5t-156 271.5h288q14 -65 63 -103t132 -38q128 0 205.5 96t87.5 287
h-41q-110 -119 -309 -119zM606 838q-107 0 -174 -67.5t-67 -188.5t67.5 -186.5t175.5 -65.5q107 0 174.5 65.5t67.5 184.5q0 120 -68.5 189t-175.5 69z" />
    <glyph glyph-name="zero.tnum" horiz-adv-x="1290" 
d="M643 1462q122 0 223 -44t178 -132t119.5 -233t42.5 -336q0 -153 -28 -277t-78 -210t-121 -144.5t-155 -85.5t-181 -27q-121 0 -221.5 44t-176.5 132t-118.5 233t-42.5 335q0 153 28 277.5t77.5 210.5t120 144.5t153.5 85.5t180 27zM381 717q0 -186 39 -297l358 737
q-52 43 -135 43q-62 0 -109 -28.5t-75.5 -74.5t-46.5 -111t-24.5 -129.5t-6.5 -139.5zM645 236q63 0 111 28.5t76.5 74t47 110.5t25 129.5t6.5 138.5q0 184 -39 295l-358 -736q52 -40 131 -40z" />
    <glyph glyph-name="one.tnum" horiz-adv-x="1290" 
d="M129 0v256h410v883h-39l-279 -176v292l279 179h334v-1178h333v-256h-1038z" />
    <glyph glyph-name="two.tnum" horiz-adv-x="1290" 
d="M399 1001h-295q12 222 151.5 341.5t373.5 119.5q236 0 366.5 -124.5t130.5 -336.5q0 -102 -34 -185t-105.5 -162t-200.5 -179l-221 -178v-41h592v-256h-1044v295l409 313q176 134 241.5 213.5t65.5 173.5q0 101 -56 153t-152 52q-95 0 -153.5 -49t-68.5 -150z" />
    <glyph glyph-name="three.tnum" horiz-adv-x="1290" 
d="M178 1434h922v-289l-277 -230v-41q151 -13 253 -121t102 -290q0 -224 -152 -357t-395 -133q-238 0 -389 131.5t-156 331.5h295q12 -97 78.5 -148.5t171.5 -51.5q116 0 184 62t68 167q0 108 -65.5 171.5t-186.5 63.5q-82 0 -131 -14v232l276 227v41h-598v248z" />
    <glyph glyph-name="four.tnum" horiz-adv-x="1290" 
d="M1044 563h179v-256h-179v-307h-284v307h-682v301l635 826h331v-871zM360 563h410v518h-41l-369 -477v-41z" />
    <glyph glyph-name="five.tnum" horiz-adv-x="1290" 
d="M725 977q199 0 332 -134.5t133 -348.5q0 -231 -150 -376t-381 -145q-245 0 -388.5 129t-155.5 334h295q12 -98 73 -149t166 -51q115 0 180.5 68.5t65.5 184.5q0 124 -67 190t-177 66q-148 0 -227 -106h-274l63 795h885v-248h-656l-22 -295h41q50 41 110 63.5t154 22.5z
" />
    <glyph glyph-name="six.tnum" horiz-adv-x="1290" 
d="M729 952q199 0 334 -132.5t135 -338.5q0 -140 -63.5 -255t-184.5 -184t-278 -69q-127 0 -228.5 39t-180 121.5t-121 223.5t-42.5 333q0 170 35 309t104.5 243.5t182 162t258.5 57.5q192 0 326 -109t155 -270h-293q-39 136 -194 136q-126 0 -203.5 -97.5t-87.5 -285.5h41
q102 116 305 116zM666 219q107 0 171 66t64 186t-64.5 184t-172.5 64t-173 -63.5t-65 -182.5q0 -120 66.5 -187t173.5 -67z" />
    <glyph glyph-name="seven.tnum" horiz-adv-x="1290" 
d="M1122 1139l-573 -1139h-307l575 1139v39h-674v256h979v-295z" />
    <glyph glyph-name="eight.tnum" horiz-adv-x="1290" 
d="M983 780v-41q38 -16 74 -43.5t69.5 -68t53.5 -99t20 -125.5q0 -87 -36.5 -164.5t-104.5 -137t-174.5 -94t-237.5 -34.5t-237.5 34.5t-174.5 94t-104.5 137t-36.5 164.5q0 67 20 125.5t53.5 99t69.5 68t74 43.5v41q-68 34 -119 109t-51 188q0 166 137 275.5t369 109.5
t369 -109.5t137 -275.5q0 -110 -51.5 -185.5t-118.5 -111.5zM647 1235q-98 0 -159.5 -53.5t-61.5 -134.5q0 -85 61 -138t160 -53q102 0 161.5 52.5t59.5 138.5q0 81 -60 134.5t-161 53.5zM647 219q124 0 192 60.5t68 152.5q0 91 -68 152t-192 61q-125 0 -192.5 -61
t-67.5 -152q0 -93 67.5 -153t192.5 -60z" />
    <glyph glyph-name="nine.tnum" horiz-adv-x="1290" 
d="M563 483q-199 0 -334 132.5t-135 338.5q0 140 63.5 255t185 184t278.5 69q101 0 185.5 -23.5t157 -77.5t122.5 -136t78 -204t28 -276q0 -170 -35 -309t-104.5 -243.5t-182 -162t-258.5 -57.5q-192 0 -326 109t-155 270h293q39 -135 194 -135q126 0 203.5 97.5t87.5 285.5
h-41q-103 -117 -305 -117zM627 1217q-107 0 -171.5 -66t-64.5 -186t65 -184t173 -64t172.5 63t64.5 183t-66 187t-173 67z" />
    <glyph glyph-name="dollar.tnum" horiz-adv-x="1290" 
d="M725 -201h-150v178q-215 20 -341 141.5t-146 325.5h285q13 -85 66 -136.5t136 -69.5v376l-90 15q-158 25 -256 132.5t-98 270.5q0 110 47.5 200t149.5 151.5t247 74.5v176h150v-176q184 -20 299 -132.5t139 -287.5h-284q-25 123 -154 158v-332l82 -14q180 -34 285.5 -141
t105.5 -285q0 -181 -126 -306.5t-347 -142.5v-176zM760 584l-35 6v-354q92 13 140 60t48 120q0 68 -38.5 112t-114.5 56zM565 893l10 -2v307q-79 -13 -118 -55.5t-39 -106.5q0 -116 147 -143z" />
    <glyph glyph-name="Euro.tnum" horiz-adv-x="1290" 
d="M768 653l-47 -141h-262q41 -276 266 -276q96 0 155 61t72 158h289q-33 -224 -165.5 -353t-350.5 -129q-228 0 -372 140.5t-185 398.5h-154l47 141h91q-3 47 0 125h-138l49 142h103q42 254 187.5 398t369.5 144q211 0 339.5 -118.5t166.5 -325.5h-293q-38 182 -211 182
q-110 0 -178 -71.5t-88 -208.5h401l-49 -142h-367q-6 -64 0 -125h324z" />
    <glyph glyph-name="sterling.tnum" horiz-adv-x="1290" 
d="M489 256h730v-256h-1133v256h35q69 0 98 45.5t29 130.5v127h-160v229h160v203q0 213 120.5 342t340.5 129q216 0 334 -121.5t126 -322.5h-292q-5 93 -43 137.5t-121 44.5q-170 0 -170 -196v-216h426v-229h-426v-108q0 -57 -11.5 -91t-42.5 -63v-41z" />
    <glyph glyph-name="yen.tnum" horiz-adv-x="1290" 
d="M166 649v142h174l-293 643h293l274 -643h58l276 643h295l-295 -643h174v-142h-235l-58 -125h293v-141h-329v-383h-295v383h-332v141h295l-58 125h-237z" />
    <glyph glyph-name="uni20BD.tnum" horiz-adv-x="1290" 
d="M219 1434h520q245 0 376.5 -118.5t131.5 -334.5q0 -218 -131.5 -338.5t-376.5 -120.5h-225v-125h358v-141h-358v-256h-295v256h-160v141h160v125h-160v248h160v664zM514 770h180q137 0 198.5 54.5t61.5 158.5q0 102 -61 152.5t-199 50.5h-180v-416z" />
    <glyph glyph-name="uni20B4.tnum" horiz-adv-x="1290" 
d="M66 659h1159v-141h-758q-12 -40 -12 -84q0 -100 58 -153.5t153 -53.5q87 0 140.5 40.5t76.5 125.5h299q-33 -198 -162.5 -309t-355.5 -111q-124 0 -222 36t-158 98t-91 141t-31 170q0 54 12 100h-108v141zM66 926h751q27 48 27 104q0 84 -47 131t-129 47
q-84 0 -128.5 -38.5t-62.5 -114.5h-291q17 183 150 295t334 112q111 0 201 -34t146.5 -92.5t87 -134.5t30.5 -161q0 -51 -19 -114h109v-142h-1159v142z" />
    <glyph glyph-name="uni20B8.tnum" horiz-adv-x="1290" 
d="M115 1026v141h1061v-141h-383v-1026h-295v1026h-383zM115 1292v142h1061v-142h-1061z" />
    <glyph glyph-name="cent.tnum" horiz-adv-x="1290" 
d="M590 -164v144q-209 25 -329 171t-120 375q0 228 120 375t329 172v144h149v-142q170 -17 278 -113t128 -245h-285q-30 97 -121 123v-629q108 26 131 143h283q-19 -158 -130.5 -259t-283.5 -118v-141h-149zM420 528q0 -116 42 -200t128 -113v619q-85 -26 -127.5 -111
t-42.5 -195z" />
    <glyph glyph-name="circumflex.cap" horiz-adv-x="858" 
d="M551 1835l229 -264h-235l-99 108h-40l-97 -108h-231l229 264h244z" />
    <glyph glyph-name="dieresis.cap" horiz-adv-x="806" 
d="M725 1602h-240v233h240v-233zM324 1602h-242v233h242v-233z" />
    <glyph glyph-name="acute.cap" horiz-adv-x="669" 
d="M588 1835l-240 -264h-260l186 264h314z" />
    <glyph glyph-name="grave.cap" horiz-adv-x="669" 
d="M326 1571l-238 264h311l189 -264h-262z" />
    <glyph glyph-name="ring.cap" horiz-adv-x="647" 
d="M324 1982q102 0 171.5 -68t69.5 -167t-69.5 -167.5t-171.5 -68.5q-99 0 -170.5 69t-71.5 167t71.5 166.5t170.5 68.5zM324 1642q43 0 73.5 31t30.5 74t-30.5 73.5t-73.5 30.5q-42 0 -72.5 -30.5t-30.5 -73.5t31 -74t72 -31z" />
    <glyph glyph-name="caron.cap" horiz-adv-x="858" 
d="M307 1571l-229 264h237l95 -109h43l96 109h231l-229 -264h-244z" />
    <glyph glyph-name="dotaccent.cap" horiz-adv-x="454" 
d="M373 1602h-291v233h291v-233z" />
    <glyph glyph-name="breve.cap" horiz-adv-x="755" 
d="M500 1835h180q-5 -125 -82 -194.5t-221 -69.5q-140 0 -218 70t-83 194h182q1 -53 32.5 -81t86.5 -28t88.5 28t34.5 81z" />
    <glyph glyph-name="hungarumlaut.cap" horiz-adv-x="974" 
d="M506 1835l-207 -264h-217l158 264h266zM893 1835l-209 -264h-215l160 264h264z" />
    <glyph glyph-name="tilde.cap" horiz-adv-x="847" 
d="M563 1743q72 0 72 94h131q0 -126 -51 -197t-154 -71q-34 0 -66 8t-50 16.5t-52 26.5q-10 5 -34.5 18.5t-42 20t-35.5 6.5q-35 0 -52.5 -26t-17.5 -70h-131q0 126 50.5 197t152.5 71q80 0 180 -55q26 -15 37 -21t28.5 -12t34.5 -6z" />
    <glyph glyph-name="macron.cap" horiz-adv-x="782" 
d="M700 1628h-618v168h618v-168z" />
    <glyph glyph-name="cyrbreve" horiz-adv-x="931" 
d="M616 1470h222q-12 -145 -107.5 -226t-265.5 -81q-169 0 -264 81t-107 226h221q7 -55 44 -89.5t106 -34.5q136 0 151 124z" />
    <glyph glyph-name="cyrbreve.cap" horiz-adv-x="937" 
d="M631 1851h225q-12 -149 -113.5 -232t-273.5 -83t-273.5 83t-113.5 232h225q6 -57 48 -92t114 -35q71 0 112.5 35t49.5 92z" />
    <glyph glyph-name="hyphen.case" horiz-adv-x="800" 
d="M713 629h-621v248h621v-248z" />
    <glyph glyph-name="endash.case" horiz-adv-x="1271" 
d="M1180 643h-1090v221h1090v-221z" />
    <glyph glyph-name="emdash.case" horiz-adv-x="1798" 
d="M1708 643h-1618v221h1618v-221z" />
    <glyph glyph-name="emdash.ss02.case" horiz-adv-x="2957" 
d="M2867 643h-2777v221h2777v-221z" />
    <glyph glyph-name="bracketleft.case" horiz-adv-x="780" 
d="M672 -190h-531v1843h531v-211h-283v-1422h283v-210z" />
    <glyph glyph-name="bracketright.case" horiz-adv-x="780" 
d="M639 -190h-530v210h282v1422h-282v211h530v-1843z" />
    <glyph glyph-name="braceleft.case" horiz-adv-x="874" 
d="M412 752v-41q63 -20 100 -78.5t37 -153.5v-241q0 -112 43 -165t139 -53h72v-210h-115q-181 0 -284 101t-103 273v242q0 98 -33 146.5t-112 48.5h-50v221h50q79 0 112 48t33 146v242q0 172 103 273.5t284 101.5h115v-211h-72q-96 0 -139 -52.5t-43 -164.5v-242
q0 -95 -37 -153t-100 -78z" />
    <glyph glyph-name="braceright.case" horiz-adv-x="874" 
d="M463 711v41q-63 20 -100 78t-37 153v242q0 111 -43.5 164t-139.5 53h-71v211h114q181 0 284 -101.5t103 -273.5v-242q0 -98 33.5 -146t112.5 -48h49v-221h-49q-79 0 -112.5 -48.5t-33.5 -146.5v-242q0 -172 -103 -273t-284 -101h-114v210h71q96 0 139.5 53t43.5 165v241
q0 95 37 153.5t100 78.5z" />
    <glyph glyph-name="parenleft.case" horiz-adv-x="665" 
d="M338 735q0 -149 27 -288t76.5 -255.5t100 -204t115.5 -177.5h-249q-318 383 -318 925q0 530 311 918h250q-63 -89 -112.5 -176t-98 -203t-75.5 -254t-27 -285z" />
    <glyph glyph-name="parenright.case" horiz-adv-x="665" 
d="M328 735q0 147 -27 285t-76 254t-98.5 203t-112.5 176h250q311 -388 311 -918q0 -543 -317 -925h-250q51 71 92 137.5t85.5 158.5t74 184t49 208t19.5 237z" />
    <glyph glyph-name="guillemotright.case" horiz-adv-x="1345" 
d="M975 707v41l-350 378h309l305 -321v-156l-305 -323h-309zM457 707v41l-351 378h310l305 -321v-156l-305 -323h-310z" />
    <glyph glyph-name="guillemotleft.case" horiz-adv-x="1345" 
d="M371 748v-41l350 -381h-309l-306 323v156l306 321h309zM889 748v-41l350 -381h-309l-305 323v156l305 321h309z" />
    <glyph glyph-name="guilsinglright.case" horiz-adv-x="827" 
d="M457 707v41l-351 378h310l305 -321v-156l-305 -323h-310z" />
    <glyph glyph-name="guilsinglleft.case" horiz-adv-x="827" 
d="M371 748v-41l350 -381h-309l-306 323v156l306 321h309z" />
    <glyph glyph-name="exclamdown.case" horiz-adv-x="706" 
d="M498 0h-289v594l53 428h182l54 -428v-594zM197 1462h313v-311h-313v311z" />
    <glyph glyph-name="questiondown.case" horiz-adv-x="1183" 
d="M610 -27q-123 0 -220 33.5t-157.5 91.5t-92 133t-31.5 162q0 58 13.5 107.5t33 84t55.5 70t65.5 57.5t79.5 56q77 53 104 89t27 99v66h293v-66q0 -81 -22 -139.5t-62 -101.5t-116 -99q-14 -11 -46.5 -33.5t-44.5 -32t-32.5 -29t-28.5 -35t-15 -39.5t-7 -52
q0 -71 51.5 -119.5t144.5 -48.5q103 0 157 51t58 164h293q-2 -99 -34.5 -183t-93.5 -148.5t-156.5 -101t-215.5 -36.5zM477 1462h316v-311h-316v311z" />
    <glyph glyph-name="a.ss03" horiz-adv-x="1314" 
d="M1163 0h-278v98h-41q-99 -125 -287 -125q-215 0 -340 153.5t-125 399.5q0 243 125.5 398t339.5 155q188 0 287 -125h41v99h278v-1053zM887 526q0 135 -65 225.5t-191 90.5q-123 0 -187.5 -89t-64.5 -227t64.5 -226.5t187.5 -88.5q126 0 191 90t65 225z" />
    <glyph glyph-name="aacute.ss03" horiz-adv-x="1314" 
d="M1163 0h-278v98h-41q-99 -125 -287 -125q-215 0 -340 153.5t-125 399.5q0 243 125.5 398t339.5 155q188 0 287 -125h41v99h278v-1053zM887 526q0 135 -65 225.5t-191 90.5q-123 0 -187.5 -89t-64.5 -227t64.5 -226.5t187.5 -88.5q126 0 191 90t65 225zM987 1489
l-239 -297h-252l188 297h303z" />
    <glyph glyph-name="agrave.ss03" horiz-adv-x="1314" 
d="M1163 0h-278v98h-41q-99 -125 -287 -125q-215 0 -340 153.5t-125 399.5q0 243 125.5 398t339.5 155q188 0 287 -125h41v99h278v-1053zM887 526q0 135 -65 225.5t-191 90.5q-123 0 -187.5 -89t-64.5 -227t64.5 -226.5t187.5 -88.5q126 0 191 90t65 225zM573 1192l-237 297
h301l190 -297h-254z" />
    <glyph glyph-name="acircumflex.ss03" horiz-adv-x="1314" 
d="M1163 0h-278v98h-41q-99 -125 -287 -125q-215 0 -340 153.5t-125 399.5q0 243 125.5 398t339.5 155q188 0 287 -125h41v99h278v-1053zM887 526q0 135 -65 225.5t-191 90.5q-123 0 -187.5 -89t-64.5 -227t64.5 -226.5t187.5 -88.5q126 0 191 90t65 225zM784 1489l232 -297
h-223l-111 131h-41l-106 -131h-222l232 297h239z" />
    <glyph glyph-name="adieresis.ss03" horiz-adv-x="1314" 
d="M1163 0h-278v98h-41q-99 -125 -287 -125q-215 0 -340 153.5t-125 399.5q0 243 125.5 398t339.5 155q188 0 287 -125h41v99h278v-1053zM887 526q0 135 -65 225.5t-191 90.5q-123 0 -187.5 -89t-64.5 -227t64.5 -226.5t187.5 -88.5q126 0 191 90t65 225zM979 1233h-240v256
h240v-256zM578 1233h-242v256h242v-256z" />
    <glyph glyph-name="atilde.ss03" horiz-adv-x="1314" 
d="M1163 0h-278v98h-41q-99 -125 -287 -125q-215 0 -340 153.5t-125 399.5q0 243 125.5 398t339.5 155q188 0 287 -125h41v99h278v-1053zM887 526q0 135 -65 225.5t-191 90.5q-123 0 -187.5 -89t-64.5 -227t64.5 -226.5t187.5 -88.5q126 0 191 90t65 225zM795 1376
q71 0 71 109h131q0 -134 -51 -211.5t-153 -77.5q-34 0 -66.5 10t-50.5 20t-51 31q-5 3 -22 13.5t-24 14t-20 9.5t-24 8.5t-23 2.5q-35 0 -52.5 -29.5t-17.5 -79.5h-131q0 135 50.5 212t152.5 77q35 0 71 -12t55 -23t52 -33q62 -41 103 -41z" />
    <glyph glyph-name="aring.ss03" horiz-adv-x="1314" 
d="M1163 0h-278v98h-41q-99 -125 -287 -125q-215 0 -340 153.5t-125 399.5q0 243 125.5 398t339.5 155q188 0 287 -125h41v99h278v-1053zM887 526q0 135 -65 225.5t-191 90.5q-123 0 -187.5 -89t-64.5 -227t64.5 -226.5t187.5 -88.5q126 0 191 90t65 225zM653 1640
q102 0 172 -68t70 -167t-70 -167.5t-172 -68.5q-99 0 -170 69t-71 167t71 166.5t170 68.5zM653 1303q43 0 74 30t31 72q0 43 -31 73.5t-74 30.5q-41 0 -71.5 -30.5t-30.5 -73.5q0 -42 30 -72t72 -30z" />
    <glyph glyph-name="amacron.ss03" horiz-adv-x="1314" 
d="M1163 0h-278v98h-41q-99 -125 -287 -125q-215 0 -340 153.5t-125 399.5q0 243 125.5 398t339.5 155q188 0 287 -125h41v99h278v-1053zM887 526q0 135 -65 225.5t-191 90.5q-123 0 -187.5 -89t-64.5 -227t64.5 -226.5t187.5 -88.5q126 0 191 90t65 225zM981 1243h-619v182
h619v-182z" />
    <glyph glyph-name="abreve.ss03" horiz-adv-x="1314" 
d="M1163 0h-278v98h-41q-99 -125 -287 -125q-215 0 -340 153.5t-125 399.5q0 243 125.5 398t339.5 155q188 0 287 -125h41v99h278v-1053zM887 526q0 135 -65 225.5t-191 90.5q-123 0 -187.5 -89t-64.5 -227t64.5 -226.5t187.5 -88.5q126 0 191 90t65 225zM780 1489h181
q0 -138 -78.5 -217.5t-223.5 -79.5t-224 80t-79 217h183q0 -64 30.5 -98.5t89.5 -34.5q57 0 89 35t32 98z" />
    <glyph glyph-name="aogonek.ss03" horiz-adv-x="1314" 
d="M1163 1053v-1053q-55 -30 -87 -69.5t-32 -80.5q0 -42 31.5 -67t91.5 -25v-168h-61q-141 0 -208 53.5t-67 143.5q0 62 43.5 120.5t120.5 92.5h-110v98h-41q-99 -125 -287 -125q-215 0 -340 153.5t-125 399.5q0 243 125.5 398t339.5 155q188 0 287 -125h41v99h278zM887 526
q0 135 -65 225.5t-191 90.5q-123 0 -187.5 -89t-64.5 -227t64.5 -226.5t187.5 -88.5q126 0 191 90t65 225z" />
    <glyph glyph-name="t.ss04" horiz-adv-x="843" 
d="M522 0h-286v813h-187v240h187v295h286v-295h264v-240h-264v-813z" />
    <glyph glyph-name="tcaron.ss04" horiz-adv-x="940" 
d="M840 1370h-138v248h302v-283l-156 -184h-164l156 184v35zM522 0h-286v813h-187v240h187v295h286v-295h264v-240h-264v-813z" />
    <glyph glyph-name="uni0163.ss04" horiz-adv-x="843" 
d="M522 0h-286v813h-187v240h187v295h286v-295h264v-240h-264v-813zM383 -475h-168l141 135v35h-120v194h286v-229z" />
    <glyph glyph-name="Y.ss05" horiz-adv-x="1396" 
d="M684 807h57l310 655h309l-701 -1462h-305l209 438l-540 1024h319z" />
    <glyph glyph-name="Yacute.ss05" horiz-adv-x="1396" 
d="M684 807h57l310 655h309l-701 -1462h-305l209 438l-540 1024h319zM1036 1835l-239 -264h-260l186 264h313z" />
    <glyph glyph-name="Ydieresis.ss05" horiz-adv-x="1396" 
d="M684 807h57l310 655h309l-701 -1462h-305l209 438l-540 1024h319zM1022 1602h-240v233h240v-233zM621 1602h-242v233h242v-233z" />
    <glyph glyph-name="ampersand.ss06" horiz-adv-x="1394" 
d="M1341 885v-242h-135v-178q0 -216 -154 -354t-403 -138q-256 0 -408.5 123t-152.5 324q0 132 61.5 216t147.5 118v41q-154 79 -154 278q0 175 137 282t349 107q209 0 331 -97.5t146 -268.5h-289q-35 125 -194 125q-88 0 -141.5 -45t-53.5 -119q0 -79 56 -125.5t153 -46.5
h94v-242h-94q-258 0 -258 -209q0 -99 71.5 -155t198.5 -56q128 0 198.5 63t70.5 179v420h423z" />
    <glyph glyph-name="zero.ss07" horiz-adv-x="1323" 
d="M659 1462q122 0 223 -44t178 -132t120 -233t43 -336q0 -190 -43 -335t-120 -233t-178 -132t-223 -44q-121 0 -221.5 44t-176.5 132t-118.5 233t-42.5 335q0 153 28 277.5t77.5 210.5t120 144.5t153.5 85.5t180 27zM397 717q0 -186 39 -297l359 737q-52 43 -136 43
q-62 0 -109 -28.5t-75.5 -74.5t-46.5 -111t-24.5 -129.5t-6.5 -139.5zM662 236q63 0 111 28.5t76.5 74t47 110.5t25 129.5t6.5 138.5q0 184 -39 295l-359 -736q52 -40 132 -40z" />
    <glyph glyph-name="emdash.ss02" horiz-adv-x="2957" 
d="M2867 469h-2777v221h2777v-221z" />
    <glyph glyph-name="uni0430.ss03" horiz-adv-x="1314" 
d="M1163 0h-278v98h-41q-99 -125 -287 -125q-215 0 -340 153.5t-125 399.5q0 243 125.5 398t339.5 155q188 0 287 -125h41v99h278v-1053zM887 526q0 135 -65 225.5t-191 90.5q-123 0 -187.5 -89t-64.5 -227t64.5 -226.5t187.5 -88.5q126 0 191 90t65 225z" />
    <glyph glyph-name="uni0423.ss08" horiz-adv-x="1400" 
d="M291 0v289h65q73 0 117.5 24.5t73.5 81.5l24 51l-536 1016h321l338 -649h58l305 649h309l-541 -1134q-82 -178 -186 -253t-274 -75h-74z" />
    <glyph glyph-name="uni040E.ss08" horiz-adv-x="1400" 
d="M291 0v289h65q73 0 117.5 24.5t73.5 81.5l24 51l-536 1016h321l338 -649h58l305 649h309l-541 -1134q-82 -178 -186 -253t-274 -75h-74zM881 1851h225q-12 -149 -113.5 -232t-273.5 -83t-273.5 83t-113.5 232h225q6 -57 48 -92t114 -35q71 0 112.5 35t49.5 92z" />
    <glyph glyph-name="quotedbl.ss01" horiz-adv-x="649" 
d="M164 969v493h69v-493h-69zM416 969v493h69v-493h-69z" />
    <glyph glyph-name="numbersign.ss01" horiz-adv-x="1136" 
d="M606 0l74 426h-326l-73 -426h-70l74 426h-213v63h227l76 455h-209v64h221l76 426h69l-77 -426h329l76 426h70l-76 -426h211v-64h-223l-78 -455h209v-63h-221l-74 -426h-72zM444 944l-77 -455h327l78 455h-328z" />
    <glyph glyph-name="quotesingle.ss01" horiz-adv-x="397" 
d="M164 969v493h69v-493h-69z" />
    <glyph glyph-name="parenleft.ss01" horiz-adv-x="487" 
d="M389 1554h86q-303 -385 -303 -921q0 -537 303 -922h-88q-285 387 -285 922q0 531 287 921z" />
    <glyph glyph-name="parenright.ss01" horiz-adv-x="491" 
d="M12 1554h86q287 -390 287 -921q0 -535 -285 -922h-88q303 385 303 922q0 536 -303 921z" />
    <glyph glyph-name="bracketleft.ss01" horiz-adv-x="528" 
d="M406 -289h-242v1843h242v-63h-173v-1716h173v-64z" />
    <glyph glyph-name="bracketright.ss01" horiz-adv-x="528" 
d="M365 -289h-242v64h172v1716h-172v63h242v-1843z" />
    <glyph glyph-name="braceleft.ss01" horiz-adv-x="690" 
d="M281 651v-37q37 -14 55 -56t18 -130v-440q0 -112 44.5 -162.5t148.5 -50.5h61v-64h-61q-129 0 -195.5 65t-66.5 214v418q0 104 -18 149t-77 45h-26v62h26q59 0 77 45t18 149v418q0 149 66.5 213.5t195.5 64.5h61v-63h-61q-104 0 -148.5 -50.5t-44.5 -162.5v-440
q0 -88 -18 -130.5t-55 -56.5z" />
    <glyph glyph-name="braceright.ss01" horiz-adv-x="690" 
d="M410 614v37q-37 14 -55.5 56.5t-18.5 130.5v440q0 112 -44.5 162.5t-148.5 50.5h-61v63h61q129 0 196 -64.5t67 -213.5v-418q0 -52 3 -84t12.5 -59t28.5 -39t50 -12h26v-62h-26q-31 0 -50 -12t-28.5 -39t-12.5 -59t-3 -84v-418q0 -149 -67 -214t-196 -65h-61v64h61
q104 0 148.5 50.5t44.5 162.5v440q0 88 18.5 130t55.5 56z" />
    <glyph glyph-name="asterisk.ss01" horiz-adv-x="925" 
d="M428 1462h70l-2 -368l348 123l20 -72l-348 -113l219 -289l-57 -47l-215 301l-215 -301l-58 47l222 291l-351 111l23 72l346 -123z" />
    <glyph glyph-name="plus.ss01" horiz-adv-x="1378" 
d="M655 625v493h68v-493h491v-64h-491v-495h-68v495h-491v64h491z" />
    <glyph glyph-name="minus.ss01" horiz-adv-x="1378" 
d="M1214 561h-1050v64h1050v-64z" />
    <glyph glyph-name="less.ss01" horiz-adv-x="1359" 
d="M1196 172v-68l-1032 443v90l1032 442v-67l-930 -402v-37z" />
    <glyph glyph-name="equal.ss01" horiz-adv-x="1378" 
d="M1214 426v-64h-1050v64h1050zM1214 819v-63h-1050v63h1050z" />
    <glyph glyph-name="greater.ss01" horiz-adv-x="1359" 
d="M164 172l930 401v37l-930 402v67l1032 -442v-90l-1032 -443v68z" />
    <glyph glyph-name="hyphen.ss01" horiz-adv-x="813" 
d="M717 545h-621v63h621v-63z" />
    <glyph glyph-name="endash.ss01" horiz-adv-x="1271" 
d="M1180 545h-1090v63h1090v-63z" />
    <glyph glyph-name="emdash.ss01" horiz-adv-x="1800" 
d="M1708 545h-1618v63h1618v-63z" />
    <glyph glyph-name="emdash.ss01.ss02" horiz-adv-x="2957" 
d="M2867 545h-2777v63h2777v-63z" />
    <glyph glyph-name="underscore.ss01" horiz-adv-x="1050" 
d="M1053 -254h-1055v64h1055v-64z" />
    <glyph glyph-name="slash.ss01" horiz-adv-x="747" 
d="M74 -289h-74l618 1843h68z" />
    <glyph glyph-name="bar.ss01" horiz-adv-x="438" 
d="M184 -289v1843h70v-1843h-70z" />
    <glyph glyph-name="backslash.ss01" horiz-adv-x="747" 
d="M748 -289h-74l-613 1843h68z" />
    <glyph glyph-name="degree.ss01" horiz-adv-x="944" 
d="M82 1071q0 174 111.5 290t277.5 116t278.5 -116t112.5 -290q0 -173 -112.5 -288t-278.5 -115t-277.5 115t-111.5 288zM152 1071q0 -146 90 -243t229 -97q140 0 231 97t91 243q0 148 -90.5 245t-231.5 97q-139 0 -229 -97t-90 -245z" />
    <glyph glyph-name="guillemotleft.ss01" horiz-adv-x="993" 
d="M180 610v-37l367 -383h-86l-355 361v80l349 360h86zM520 610v-37l367 -383h-86l-355 361v80l349 360h86z" />
    <glyph glyph-name="guillemotright.ss01" horiz-adv-x="989" 
d="M809 573v37l-363 381h86l351 -358v-80l-351 -363h-86zM469 573v37l-363 381h87l350 -358v-80l-350 -363h-87z" />
    <glyph glyph-name="guilsinglleft.ss01" horiz-adv-x="653" 
d="M180 610v-37l367 -383h-86l-355 361v80l349 360h86z" />
    <glyph glyph-name="guilsinglright.ss01" horiz-adv-x="653" 
d="M473 573v37l-360 381h86l348 -360v-80l-354 -361h-87z" />
    <glyph glyph-name="quoteleft.ss01" horiz-adv-x="479" 
d="M217 1249h68v-209h-131v244l98 178h63l-98 -178v-35z" />
    <glyph glyph-name="quoteright.ss01" horiz-adv-x="479" 
d="M252 1253h-68v209h131v-243l-98 -179h-63l98 179v34z" />
    <glyph glyph-name="quotesinglbase.ss01" horiz-adv-x="479" 
d="M252 0h-68v209h131v-244l-98 -178h-63l98 178v35z" />
    <glyph glyph-name="quotedblleft.ss01" horiz-adv-x="759" 
d="M498 1249h67v-209h-131v244l98 178h64l-98 -178v-35zM217 1249h68v-209h-131v244l98 178h63l-98 -178v-35z" />
    <glyph glyph-name="quotedblright.ss01" horiz-adv-x="759" 
d="M252 1253h-68v209h131v-243l-98 -179h-63l98 179v34zM532 1253h-67v209h131v-243l-98 -179h-64l98 179v34z" />
    <glyph glyph-name="quotedblbase.ss01" horiz-adv-x="759" 
d="M252 0h-68v209h131v-244l-98 -178h-63l98 178v35zM532 0h-67v209h131v-244l-98 -178h-64l98 178v35z" />
    <glyph glyph-name="arrowleft.ss01" horiz-adv-x="1654" 
d="M612 1053h95l-451 -451v-41h1292v-63h-1292v-43l451 -455h-95l-526 528z" />
    <glyph glyph-name="arrowup.ss01" horiz-adv-x="1378" 
d="M1217 936v-94l-453 454h-39v-1296h-70v1296h-39l-454 -454v94l528 526z" />
    <glyph glyph-name="arrowright.ss01" horiz-adv-x="1654" 
d="M948 1053h94l527 -525l-527 -528h-94l451 455v43h-1293v63h1293v41z" />
    <glyph glyph-name="arrowdown.ss01" horiz-adv-x="1378" 
d="M1217 621v-95l-527 -526l-528 526v95l454 -455h39v1296h70v-1296h39z" />
    <glyph glyph-name="uni2196.ss01" horiz-adv-x="1382" 
d="M907 1462l66 -65h-639l-27 -29l914 -917l-47 -48l-918 916l-27 -29v-641l-67 68v745h745z" />
    <glyph glyph-name="uni2197.ss01" horiz-adv-x="1382" 
d="M410 1397l65 65h746v-745l-68 -68v641l-27 29l-917 -916l-47 48l913 917l-26 29h-639z" />
    <glyph glyph-name="uni2198.ss01" horiz-adv-x="1382" 
d="M973 66l-66 -66h-745v745l67 68v-641l27 -29l918 916l47 -47l-914 -918l27 -28h639z" />
    <glyph glyph-name="uni2199.ss01" horiz-adv-x="1382" 
d="M475 0l-65 66h639l26 28l-913 918l47 47l917 -916l27 29v641l68 -68v-745h-746z" />
    <glyph glyph-name="parenleft.ss01.case" horiz-adv-x="487" 
d="M389 1653h86q-303 -385 -303 -922q0 -536 303 -921h-88q-285 387 -285 921q0 532 287 922z" />
    <glyph glyph-name="parenright.ss01.case" horiz-adv-x="487" 
d="M12 1653h86q287 -390 287 -922q0 -534 -285 -921h-88q303 385 303 921q0 537 -303 922z" />
    <glyph glyph-name="bracketleft.ss01.case" horiz-adv-x="528" 
d="M406 -190h-242v1843h242v-64h-173v-1716h173v-63z" />
    <glyph glyph-name="bracketright.ss01.case" horiz-adv-x="528" 
d="M365 -190h-242v63h172v1716h-172v64h242v-1843z" />
    <glyph glyph-name="braceleft.ss01.case" horiz-adv-x="690" 
d="M281 750v-37q37 -14 55 -56.5t18 -130.5v-440q0 -112 44.5 -162.5t148.5 -50.5h61v-63h-61q-129 0 -195.5 64.5t-66.5 213.5v418q0 104 -18 149t-77 45h-26v62h26q59 0 77 45t18 149v418q0 149 66.5 214t195.5 65h61v-64h-61q-104 0 -148.5 -50.5t-44.5 -162.5v-440
q0 -88 -18 -130t-55 -56z" />
    <glyph glyph-name="braceright.ss01.case" horiz-adv-x="690" 
d="M410 713v37q-37 14 -55.5 56t-18.5 130v440q0 112 -44.5 162.5t-148.5 50.5h-61v64h61q129 0 196 -65t67 -214v-418q0 -52 3 -84t12.5 -59t28.5 -39t50 -12h26v-62h-26q-31 0 -50 -12t-28.5 -39t-12.5 -59t-3 -84v-418q0 -149 -67 -213.5t-196 -64.5h-61v63h61
q104 0 148.5 50.5t44.5 162.5v440q0 88 18.5 130.5t55.5 56.5z" />
    <glyph glyph-name="guillemotleft.ss01.case" horiz-adv-x="993" 
d="M180 745v-36l367 -383h-86l-355 360v80l349 360h86zM520 745v-36l367 -383h-86l-355 360v80l349 360h86z" />
    <glyph glyph-name="guillemotright.ss01.case" horiz-adv-x="989" 
d="M809 709v36l-363 381h86l351 -358v-80l-351 -362h-86zM469 709v36l-363 381h87l350 -358v-80l-350 -362h-87z" />
    <glyph glyph-name="guilsinglleft.ss01.case" horiz-adv-x="653" 
d="M180 745v-36l367 -383h-86l-355 360v80l349 360h86z" />
    <glyph glyph-name="guilsinglright.ss01.case" horiz-adv-x="653" 
d="M473 709v36l-360 381h86l348 -360v-80l-354 -360h-87z" />
    <glyph glyph-name="endash.ss01.case" horiz-adv-x="1271" 
d="M1180 719h-1090v63h1090v-63z" />
    <glyph glyph-name="hyphen.ss01.case" horiz-adv-x="813" 
d="M717 719h-621v63h621v-63z" />
    <glyph glyph-name="emdash.ss01.case" horiz-adv-x="1800" 
d="M1708 719h-1618v63h1618v-63z" />
    <glyph glyph-name="emdash.ss01.ss02.case" horiz-adv-x="2957" 
d="M2867 719h-2777v63h2777v-63z" />
    <glyph glyph-name="tbar.ss04" horiz-adv-x="843" 
d="M522 0h-286v467h-187v213h187v160h-187v213h187v295h286v-295h264v-213h-264v-160h264v-213h-264v-467z" />
    <glyph glyph-name="at.case" horiz-adv-x="1998" 
d="M1378 90l56 -108q-248 -156 -547 -156q-360 0 -574.5 215.5t-214.5 570.5q0 218 74.5 407.5t206.5 325.5t320.5 213.5t408.5 77.5q160 0 304 -50t251.5 -140.5t171 -226t63.5 -297.5q0 -177 -54.5 -320t-167 -231t-265.5 -88q-100 0 -156 32t-84 95h-36
q-95 -127 -261 -127q-155 0 -242 96.5t-87 269.5q0 134 54 251.5t155 192t227 74.5q76 0 129 -28t76 -68h37l16 68h231l-86 -521q-10 -80 -10 -92q0 -60 21 -84t75 -24q49 0 97.5 28t92.5 83.5t71.5 153.5t27.5 222q0 132 -45.5 243.5t-130 192.5t-212 126.5t-284.5 45.5
q-172 0 -327 -65t-270.5 -179t-183.5 -280t-68 -358q0 -109 22.5 -206.5t73 -185.5t126 -151.5t188.5 -101t253 -37.5q259 0 477 141zM942 467q98 0 160.5 93.5t62.5 227.5q0 197 -149 197q-99 0 -160 -95.5t-61 -225.5q0 -99 39 -148t108 -49z" />
    <glyph glyph-name="y.ss08" horiz-adv-x="1191" 
d="M442 -45l37 104l-426 994h293l250 -580h53l232 580h276l-455 -1143q-73 -184 -162.5 -252t-256.5 -68h-107v244h100q69 0 105 24.5t61 96.5z" />
    <glyph glyph-name="W.ss10" horiz-adv-x="1890" 
d="M768 1044h356l199 -684h39l131 1102h289l-180 -1462h-428l-207 760h-41l-209 -760h-428l-180 1462h292l129 -1102h41z" />
    <glyph glyph-name="w.ss10" horiz-adv-x="1536" 
d="M633 764h276l144 -434h41l94 723h268l-151 -1053h-355l-162 494h-40l-162 -494h-357l-149 1053h272l97 -723h40z" />
    <glyph glyph-name="uni0443.ss08" horiz-adv-x="1191" 
d="M442 -45l37 104l-426 994h293l250 -580h53l232 580h276l-455 -1143q-73 -184 -162.5 -252t-256.5 -68h-107v244h100q69 0 105 24.5t61 96.5z" />
    </font>
</defs>
</svg>
