<svg width="175" height="76" viewBox="0 0 175 76" fill="none" xmlns="http://www.w3.org/2000/svg">
<path d="M143.678 6.89437C143.678 15.3094 143.678 23.6427 143.678 32.0192C141.471 32.0192 139.305 32.0192 137.092 32.0192C137.077 31.8031 137.057 31.611 137.057 31.4189C137.057 26.928 137.041 22.4371 137.067 17.9414C137.072 16.8079 137.199 15.6696 137.266 14.5361C137.276 14.368 137.266 14.1998 137.266 13.9069C137.159 14.0702 137.113 14.1326 137.082 14.1998C136.526 15.4582 135.762 16.611 134.997 17.7589C132.28 21.8319 129.573 25.9097 126.856 29.9827C126.612 30.3526 126.331 30.7128 126.015 31.0298C125.317 31.7263 124.46 32.0961 123.41 32.0673C122.095 32.0385 120.785 32.0577 119.47 32.0577C119.261 32.0577 119.052 32.0577 118.858 32.0577C118.715 31.563 118.659 8.30167 118.782 7.00964C119.21 6.86555 124.618 6.83193 125.424 6.98082C125.312 12.9558 125.592 18.9501 125.225 24.9395C125.256 24.9155 125.307 24.9011 125.317 24.8723C125.954 23.4073 126.866 22.0817 127.759 20.7464C130.374 16.8271 132.978 12.8982 135.594 8.9789C135.828 8.62347 136.088 8.27766 136.389 7.97506C137.092 7.2546 137.954 6.85594 139.034 6.88476C140.37 6.91838 141.706 6.89437 143.041 6.89437C143.215 6.89437 143.403 6.89437 143.678 6.89437Z" fill="#363636"/>
<path d="M155.943 32.0287C153.7 32.0287 151.544 32.0287 149.393 32.0287C149.255 31.606 149.22 7.66268 149.362 6.93262C157.33 6.93262 165.303 6.93262 173.321 6.93262C173.321 15.2948 173.321 23.6281 173.321 31.9566C172.847 32.0767 167.525 32.1055 166.735 31.9855C166.735 25.0978 166.735 18.2006 166.735 11.3226C166.225 11.1785 156.856 11.1401 155.943 11.2746C155.943 18.1718 155.943 25.0834 155.943 32.0287Z" fill="#363636"/>
<path d="M135.716 57.5285C135.558 57.5477 135.456 57.5669 135.349 57.5669C135.227 57.5669 135.099 57.5477 134.911 57.5333C134.911 56.0347 134.911 54.5506 134.911 53.0616C134.875 53.0472 134.834 53.0376 134.798 53.0232C134.702 53.1385 134.6 53.249 134.513 53.369C133.621 54.6082 132.719 55.8378 131.847 57.0914C131.561 57.4997 131.235 57.6534 130.705 57.5141C130.705 55.5881 130.705 53.6812 130.705 51.712C130.94 51.712 131.179 51.712 131.505 51.712C131.536 52.4468 131.516 53.2009 131.521 53.9502C131.526 54.6851 131.521 55.4151 131.628 56.1836C131.709 56.0828 131.796 55.9867 131.872 55.8858C132.775 54.6322 133.677 53.3738 134.584 52.1154C134.951 51.6111 135.018 51.5919 135.716 51.7408C135.716 53.6524 135.716 55.564 135.716 57.5285Z" fill="#363636"/>
<path d="M125.164 47.663C124.894 47.663 124.665 47.663 124.379 47.663C124.379 46.1645 124.379 44.6948 124.379 43.0809C124.19 43.2779 124.094 43.3643 124.017 43.4652C123.11 44.7188 122.197 45.9676 121.315 47.2356C121.025 47.6535 120.694 47.7927 120.168 47.6246C120.168 45.7178 120.168 43.811 120.168 41.8513C120.418 41.8513 120.658 41.8513 120.959 41.8513C120.959 43.3355 120.959 44.8244 120.959 46.4623C121.147 46.2557 121.239 46.1693 121.31 46.0732C122.218 44.8196 123.13 43.5708 124.012 42.3028C124.292 41.8994 124.609 41.6976 125.164 41.8513C125.164 43.7533 125.164 45.6794 125.164 47.663Z" fill="#363636"/>
<path d="M151.886 66.0731C152.86 64.7187 153.849 63.369 154.802 62.0001C155.092 61.5822 155.419 61.4381 155.939 61.6063C155.939 63.5323 155.939 65.4583 155.939 67.4084C155.673 67.4084 155.444 67.4084 155.123 67.4084C155.113 65.9098 155.123 64.4209 155.118 62.8166C154.96 62.9944 154.868 63.0808 154.797 63.1817C153.889 64.4353 152.972 65.6841 152.095 66.9521C151.809 67.3651 151.488 67.5381 150.943 67.3844C150.943 65.4727 150.943 63.5467 150.943 61.5822C151.203 61.5822 151.442 61.5822 151.753 61.5822C151.753 63.0952 151.753 64.5794 151.753 66.0683C151.799 66.0635 151.84 66.0683 151.886 66.0731Z" fill="#363636"/>
<path d="M94.2113 51.7261C94.2113 53.6714 94.2113 55.5782 94.2113 57.5426C93.9615 57.5522 93.7372 57.5667 93.4721 57.5763C93.3192 57.0719 93.4161 56.5724 93.3957 56.0873C93.3804 55.5686 93.3906 55.0498 93.3906 54.5311C93.3906 54.0412 93.3906 53.5513 93.3906 52.9125C93.2071 53.1286 93.1204 53.2247 93.0439 53.3303C92.1417 54.584 91.2292 55.8327 90.3422 57.1008C90.072 57.485 89.7662 57.6675 89.2819 57.5426C89.1392 57.1296 89.1086 52.3553 89.2564 51.7021C89.3482 51.6925 89.4501 51.6685 89.5521 51.6685C89.6744 51.6685 89.7968 51.6829 90.0058 51.6973C90.0058 52.4706 90.0058 53.2199 90.0058 53.974C90.0058 54.7232 90.0058 55.4725 90.0058 56.3659C90.1689 56.1593 90.2454 56.0729 90.3116 55.9816C91.2241 54.7088 92.1519 53.4408 93.0439 52.1584C93.3294 51.7549 93.6506 51.5628 94.2113 51.7261Z" fill="#363636"/>
<path d="M162.581 61.6014C162.581 63.5082 162.581 65.4151 162.581 67.3795C162.346 67.3795 162.107 67.3795 161.806 67.3795C161.806 65.8954 161.806 64.4064 161.806 62.9223C161.77 62.9079 161.734 62.8934 161.699 62.879C161.617 62.9703 161.52 63.0567 161.449 63.1528C160.531 64.4256 159.604 65.6888 158.711 66.9713C158.421 67.3891 158.09 67.5236 157.575 67.3651C157.575 65.4343 157.575 63.513 157.575 61.5774C157.717 61.563 157.824 61.539 157.926 61.539C158.054 61.539 158.176 61.5582 158.38 61.5726C158.38 63.0808 158.38 64.5793 158.38 66.0779C158.416 66.0827 158.457 66.0923 158.492 66.0971C158.63 65.905 158.773 65.7177 158.91 65.5255C159.751 64.3536 160.608 63.1864 161.434 62.0001C161.724 61.5918 162.056 61.4333 162.581 61.6014Z" fill="#363636"/>
<path d="M140.477 46.3516C141.451 44.9971 142.435 43.6523 143.388 42.2882C143.668 41.8895 143.979 41.6878 144.53 41.8559C144.53 43.7675 144.53 45.6888 144.53 47.6532C144.29 47.6532 144.066 47.6532 143.75 47.6532C143.745 46.9135 143.734 46.1643 143.734 45.415C143.729 44.6657 143.734 43.9116 143.734 43.0279C143.561 43.2344 143.474 43.3353 143.398 43.4361C142.496 44.6897 141.583 45.9385 140.696 47.2065C140.416 47.61 140.1 47.8069 139.549 47.6292C139.549 45.7176 139.549 43.7963 139.549 41.8367C139.794 41.8367 140.013 41.8367 140.329 41.8367C140.365 43.3256 140.329 44.829 140.35 46.3276C140.396 46.3324 140.436 46.342 140.477 46.3516Z" fill="#363636"/>
<path d="M118.313 49.0655C118.313 48.6477 118.313 48.2154 118.313 47.7159C116.625 47.7159 115.004 47.7159 113.404 47.7159C113.256 47.2164 113.23 42.543 113.358 41.8369C113.587 41.8369 113.827 41.8369 114.138 41.8369C114.138 42.7207 114.138 43.5756 114.138 44.4306C114.138 45.2855 114.138 46.1405 114.138 47.0338C115.183 47.0338 116.167 47.0338 117.237 47.0338C117.324 45.3191 117.222 43.5948 117.293 41.8417C117.563 41.8417 117.788 41.8417 118.083 41.8417C118.16 43.5612 118.078 45.2855 118.129 47.0387C118.45 47.0627 118.715 47.0867 119.072 47.1155C119.072 47.6919 119.093 48.2634 119.062 48.8302C119.052 49.1088 118.94 49.1376 118.313 49.0655Z" fill="#363636"/>
<path d="M132.708 41.8223C132.999 41.8223 133.203 41.8223 133.478 41.8223C133.478 43.5514 133.478 45.2565 133.478 46.9423C133.973 47.0912 135.721 47.1249 136.634 47.0096C136.634 45.2997 136.634 43.5754 136.634 41.8271C136.945 41.8271 137.169 41.8271 137.485 41.8271C137.515 43.5562 137.48 45.2805 137.505 47.0384C137.832 47.0576 138.097 47.0768 138.433 47.1009C138.433 47.7012 138.453 48.2728 138.423 48.8396C138.408 49.1181 138.275 49.147 137.663 49.0509C137.663 48.633 137.663 48.2008 137.663 47.7012C135.981 47.7012 134.36 47.7012 132.698 47.7012C132.708 45.708 132.708 43.7867 132.708 41.8223Z" fill="#363636"/>
<path d="M159.231 51.6924C159.522 51.6924 159.746 51.6924 160.016 51.6924C160.016 53.6376 160.016 55.5588 160.016 57.5233C159.772 57.5233 159.537 57.5233 159.221 57.5233C159.221 56.654 159.221 55.8038 159.221 54.9152C158.079 54.9152 157.014 54.9152 155.882 54.9152C155.785 55.7654 155.892 56.6155 155.816 57.5329C155.571 57.5425 155.332 57.5521 155.102 57.5617C154.97 57.1006 154.929 52.605 155.046 51.7068C155.281 51.7068 155.52 51.7068 155.831 51.7068C155.831 52.5425 155.831 53.3686 155.831 54.238C156.968 54.238 158.038 54.238 159.185 54.238C159.257 53.4263 159.175 52.5954 159.231 51.6924Z" fill="#363636"/>
<path d="M100.863 57.5429C100.578 57.5429 100.354 57.5429 100.063 57.5429C100.063 56.6784 100.063 55.8282 100.063 55.0021C99.5432 54.8532 97.3614 54.834 96.6681 54.9685C96.6681 55.7994 96.6681 56.6496 96.6681 57.5333C96.3725 57.5333 96.1482 57.5333 95.9239 57.5333C95.7913 57.1155 95.7455 52.9512 95.8627 51.7168C96.0972 51.7168 96.3368 51.7168 96.6528 51.7168C96.6528 52.5429 96.6528 53.3691 96.6528 54.2864C97.7947 54.2961 98.8601 54.2961 100.017 54.2864C100.078 53.4315 100.017 52.6006 100.058 51.7216C100.328 51.7216 100.583 51.7216 100.869 51.7216C100.863 53.6572 100.863 55.5593 100.863 57.5429Z" fill="#363636"/>
<path d="M144.387 51.6924C145.646 51.6924 146.824 51.6924 148.042 51.6924C148.042 53.6472 148.042 55.5637 148.042 57.5281C147.782 57.5281 147.542 57.5281 147.237 57.5281C147.237 55.799 147.237 54.0939 147.237 52.3456C146.528 52.3456 145.886 52.3456 145.182 52.3456C145.136 52.8451 145.111 53.335 145.04 53.8249C144.932 54.555 144.82 55.2851 144.652 56.0007C144.565 56.361 144.377 56.7116 144.178 57.0334C143.938 57.4224 143.541 57.6002 143.062 57.6098C142.577 57.6146 142.532 57.5713 142.547 57.0142C142.633 56.995 142.725 56.9565 142.822 56.9517C143.26 56.9229 143.526 56.6828 143.663 56.3225C143.806 55.9479 143.959 55.5685 144.015 55.1794C144.147 54.2716 144.224 53.3591 144.321 52.4465C144.346 52.2159 144.362 51.9806 144.387 51.6924Z" fill="#363636"/>
<path d="M93.9663 61.5871C93.9663 63.5276 93.9663 65.4344 93.9663 67.3893C93.7063 67.3893 93.4667 67.3893 93.1609 67.3893C93.1609 65.6746 93.1609 63.9647 93.1609 62.2115C92.0955 62.2115 91.0912 62.2115 90.0207 62.2115C90.0207 63.9406 90.0207 65.6457 90.0207 67.3941C89.7302 67.3941 89.5059 67.3941 89.2816 67.3941C89.149 66.9906 89.098 62.5814 89.2204 61.6304C89.669 61.5151 92.9366 61.4815 93.9663 61.5871Z" fill="#363636"/>
<path d="M107.526 67.4034C107.215 67.4034 106.991 67.4034 106.731 67.4034C106.731 65.4486 106.731 63.5225 106.731 61.5677C106.996 61.5677 107.225 61.5677 107.516 61.5677C107.516 62.389 107.516 63.2007 107.516 63.9884C108.332 64.2094 108.536 64.1517 108.979 63.5994C109.412 63.0566 109.835 62.5091 110.269 61.9711C110.651 61.4908 110.692 61.4812 111.456 61.6301C110.722 62.5619 110.009 63.4649 109.331 64.3246C110.08 65.3093 110.845 66.3035 111.614 67.3121C110.911 67.5283 110.794 67.4995 110.417 67.0096C109.978 66.4476 109.509 65.9 109.127 65.3045C108.745 64.7137 108.23 64.6608 107.526 64.8001C107.526 65.6695 107.526 66.5389 107.526 67.4034Z" fill="#363636"/>
<path d="M171.542 54.9731C171.012 55.7224 170.507 56.3852 170.059 57.0816C169.788 57.5043 169.457 57.6676 168.922 57.5235C169.003 57.1249 169.325 56.8511 169.534 56.5245C169.743 56.2027 169.977 55.8953 170.201 55.5783C170.436 55.2469 170.67 54.9154 170.941 54.5312C170.283 53.6138 169.625 52.6964 168.958 51.7694C169.727 51.5629 169.809 51.5869 170.191 52.1393C170.63 52.7685 171.068 53.4025 171.547 54.0989C172.057 53.3881 172.516 52.7493 172.974 52.1105C173.347 51.5965 173.362 51.5917 174.137 51.755C173.469 52.6724 172.816 53.5658 172.138 54.4976C172.827 55.487 173.505 56.462 174.193 57.4515C173.469 57.6724 173.352 57.6388 173.005 57.1345C172.541 56.4476 172.077 55.7608 171.542 54.9731Z" fill="#363636"/>
<path d="M119.225 52.3459C119.072 52.5284 118.96 52.6629 118.822 52.831C118.634 52.735 118.471 52.6581 118.308 52.5765C116.834 51.832 115.259 52.5524 115.004 54.1086C114.953 54.4208 114.948 54.7474 114.994 55.0596C115.249 56.7839 117.033 57.5092 118.562 56.5294C118.649 56.4766 118.736 56.4237 118.848 56.3565C118.94 56.4189 119.026 56.467 119.103 56.5294C119.164 56.5822 119.205 56.6495 119.256 56.7167C119.225 56.7839 119.215 56.8464 119.174 56.8848C118.287 57.6917 117.222 57.7926 116.105 57.49C114.974 57.1874 114.362 56.3901 114.168 55.3334C114.087 54.8915 114.087 54.4112 114.163 53.9693C114.342 52.9031 114.969 52.1202 116.075 51.7791C117.176 51.4237 118.231 51.5534 119.225 52.3459Z" fill="#363636"/>
<path d="M99.2934 46.4622C99.4412 46.5966 99.5738 46.7119 99.7267 46.8512C99.6247 46.9665 99.5585 47.0722 99.4667 47.1394C98.5186 47.8502 97.4531 47.9367 96.3521 47.5621C95.2968 47.2018 94.7463 46.4141 94.5832 45.4007C94.5118 44.9732 94.5118 44.5169 94.5883 44.0942C94.7769 43.0328 95.3988 42.2643 96.4999 41.8992C97.601 41.5342 98.7429 41.7455 99.6247 42.4948C99.5126 42.6389 99.4004 42.7926 99.2628 42.9703C99.0538 42.8647 98.8856 42.783 98.7225 42.7014C97.2492 41.9617 95.6639 42.7013 95.4345 44.2527C95.3784 44.6418 95.3886 45.0549 95.4702 45.4391C95.7913 46.8992 97.5194 47.5621 98.855 46.7552C98.9875 46.6687 99.1201 46.5726 99.2934 46.4622Z" fill="#363636"/>
<path d="M149.49 66.1933C149.643 66.3421 149.765 66.467 149.888 66.5919C149.832 66.6736 149.806 66.7312 149.765 66.7696C148.328 68.0905 145.738 67.6054 144.974 65.8618C144.586 64.9781 144.576 64.0703 144.958 63.1769C145.728 61.3806 148.333 60.8618 149.791 62.2451C149.694 62.3796 149.592 62.5141 149.454 62.7014C149.261 62.6101 149.098 62.5333 148.94 62.4517C147.456 61.7024 145.906 62.394 145.616 63.955C145.56 64.2624 145.55 64.5938 145.596 64.906C145.845 66.6495 147.67 67.3796 149.21 66.371C149.276 66.3229 149.347 66.2797 149.49 66.1933Z" fill="#363636"/>
<path d="M143.765 66.1883C143.918 66.3468 144.041 66.4717 144.194 66.6254C143.312 67.4948 142.262 67.6485 141.135 67.3987C140.024 67.1537 139.371 66.4237 139.086 65.4006C138.928 64.8339 138.928 64.2575 139.06 63.6811C139.534 61.6542 142.129 60.7609 143.878 62.0337C143.944 62.0817 143.99 62.1489 144.041 62.197C143.75 62.7253 143.75 62.7253 143.256 62.4755C141.635 61.6494 140.003 62.4708 139.85 64.1951C139.825 64.4688 139.835 64.757 139.891 65.026C140.207 66.6686 141.976 67.3459 143.439 66.3997C143.526 66.3468 143.612 66.2892 143.765 66.1883Z" fill="#363636"/>
<path d="M105.462 46.8989C104.529 47.7731 103.463 47.9316 102.311 47.6434C101.174 47.3552 100.532 46.5867 100.323 45.5253C100.231 45.045 100.226 44.5214 100.313 44.0411C100.502 43.0036 101.123 42.24 102.209 41.9085C103.326 41.5675 104.376 41.6876 105.349 42.4705C105.227 42.6386 105.115 42.7875 104.977 42.97C104.768 42.8644 104.605 42.7875 104.442 42.7058C102.969 41.9662 101.378 42.701 101.149 44.2524C101.093 44.6415 101.098 45.0545 101.185 45.4388C101.501 46.9037 103.229 47.5666 104.564 46.7644C104.707 46.678 104.835 46.5819 104.982 46.4859C105.074 46.5387 105.151 46.5723 105.212 46.6252C105.288 46.6828 105.344 46.7644 105.462 46.8989Z" fill="#363636"/>
<path d="M111.334 54.9922C111.829 53.9932 112.267 53.0902 112.716 52.192C113.001 51.6205 113.026 51.6109 113.781 51.7358C113.755 51.827 113.74 51.9231 113.699 52.0047C112.914 53.5945 112.134 55.1892 111.334 56.7742C110.952 57.5331 110.513 57.7156 109.596 57.5139C109.586 57.3602 109.575 57.192 109.56 56.9759C110.437 57.0143 110.712 56.4668 110.921 55.8088C110.126 54.4831 109.315 53.1334 108.505 51.779C109.264 51.5628 109.377 51.6013 109.708 52.1776C110.233 53.0854 110.758 53.998 111.334 54.9922Z" fill="#363636"/>
<path d="M122.508 57.5379C122.197 57.5379 121.973 57.5379 121.672 57.5379C121.672 55.8232 121.672 54.1229 121.672 52.341C120.959 52.341 120.316 52.341 119.648 52.341C119.648 52.0864 119.648 51.9135 119.648 51.7021C121.264 51.7021 122.86 51.7021 124.496 51.7021C124.512 51.8991 124.522 52.0672 124.537 52.3073C123.874 52.3073 123.252 52.3073 122.539 52.3073C122.478 53.2103 122.518 54.0605 122.508 54.901C122.503 55.7559 122.508 56.6109 122.508 57.5379Z" fill="#363636"/>
<path d="M167.082 51.6973C167.367 51.6973 167.592 51.6973 167.857 51.6973C167.857 53.6473 167.857 55.5637 167.857 57.5282C167.602 57.5282 167.362 57.5282 167.082 57.5282C167.082 55.5926 167.082 53.6713 167.082 51.6973Z" fill="#363636"/>
<path d="M78.2913 42.8501C77.1851 42.3458 76.0789 41.8415 74.9778 41.3324C74.4171 41.073 74.4171 41.0682 74.4579 40.463C74.463 40.4246 74.463 40.3814 74.4681 40.3429C74.6312 38.6475 74.6312 36.952 74.4681 35.2613C74.4069 34.6225 74.412 34.6225 75.0084 34.3487C76.7059 33.5754 78.4034 32.8021 80.1009 32.0288C80.3049 31.9328 80.5088 31.8319 80.7432 31.7166C80.3201 29.1566 79.632 26.7022 78.643 24.2959C77.9497 24.3439 77.3227 24.3871 76.6906 24.4304C75.2123 24.5312 73.734 24.6225 72.2557 24.7281C71.6542 24.7714 71.6491 24.7858 71.3891 24.2671C70.5735 22.6388 69.6253 21.0826 68.5395 19.6033C68.4426 19.4736 68.3611 19.3343 68.2387 19.1566C69.5386 17.3458 70.8436 15.5303 72.1741 13.6811C70.446 11.683 68.5446 9.87704 66.4189 8.2392C66.1997 8.37368 66.006 8.49376 65.8123 8.61384C64.2677 9.59846 62.7282 10.5879 61.1836 11.5677C60.5056 12 60.6382 11.976 59.9806 11.5485C58.4972 10.5831 56.9373 9.73295 55.3112 9.00288C54.6179 8.69068 54.674 8.80115 54.7249 8.07109C54.8473 6.31796 54.99 4.56964 55.1174 2.81652C55.1327 2.58117 55.1174 2.34582 55.1174 2.08165C52.5737 1.15946 49.9943 0.511046 47.3079 0.107588C47.1804 0.338136 47.0734 0.530263 46.9714 0.727189C46.1303 2.36023 45.2892 3.99327 44.4583 5.63592C44.3003 5.94332 44.1321 6.0634 43.7293 6.03458C42.144 5.92891 40.5586 5.83766 38.9681 5.96254C38.4431 6.00576 37.918 5.96734 37.3267 5.96734C36.3378 4.0413 35.3233 2.07205 34.3038 0.0883789C31.5613 0.520656 28.9513 1.14505 26.4433 2.08165C26.4433 2.25456 26.4382 2.35543 26.4433 2.45149C26.5911 4.30067 26.7338 6.15466 26.8868 8.00384C26.9428 8.68108 26.953 8.68588 26.326 8.96446C24.654 9.70893 23.0635 10.5735 21.5444 11.5677C21.3711 11.6782 21.1927 11.7839 20.9837 11.9087C19.0415 10.6696 17.1197 9.43996 15.1979 8.21037C15.0144 8.34005 14.8717 8.42651 14.7442 8.52738C12.9549 9.93948 11.3033 11.4909 9.7995 13.1768C9.40189 13.6234 9.40189 13.6282 9.77402 14.1422C10.819 15.5975 11.864 17.0528 12.9091 18.5082C13.0518 18.7051 13.1792 18.9068 13.3169 19.1085C13.2353 19.243 13.1792 19.3487 13.1079 19.4448C11.9762 20.9673 10.9771 22.5668 10.1614 24.2622C9.98812 24.6177 9.75362 24.7137 9.3713 24.6801C7.89299 24.5648 6.41468 24.4688 4.93637 24.3679C4.26348 24.3247 3.59569 24.2863 2.89731 24.2478C1.93386 26.6878 1.19471 29.1278 0.812383 31.6638C1.09275 31.7983 1.29665 31.8991 1.50566 31.9952C3.16239 32.7541 4.81912 33.513 6.47585 34.2718C7.11815 34.5648 7.12835 34.5696 7.06717 35.2133C6.90405 36.9472 6.90405 38.6811 7.06208 40.415C7.11815 41.0154 7.11305 41.0202 6.54212 41.2843C4.84461 42.0624 3.1471 42.8309 1.44959 43.609C1.24568 43.7051 1.04687 43.8108 0.791992 43.9356C1.18961 46.4861 1.90837 48.9356 2.86163 51.3228C3.01966 51.3276 3.12671 51.3468 3.22866 51.3372C5.19125 51.2027 7.15894 51.073 9.12152 50.9241C9.87088 50.8665 9.87087 50.8473 10.1869 51.4669C10.9822 53.0375 11.8946 54.5456 12.9447 55.9769C13.3067 56.4717 13.3067 56.4765 12.96 56.9664C11.8895 58.4553 10.819 59.9395 9.75362 61.4284C9.62618 61.6061 9.50894 61.7887 9.3713 61.9856C11.1147 63.9933 13.011 65.7992 15.1214 67.4083C15.3763 67.2498 15.57 67.1345 15.7637 67.0096C17.344 66.001 18.9192 64.9923 20.4994 63.9837C20.9429 63.7003 20.948 63.7051 21.3864 63.9885C22.9769 65.0259 24.6387 65.9385 26.3872 66.707C26.8664 66.9183 26.8664 66.9231 26.8256 67.4323C26.7033 69.0653 26.5656 70.6984 26.4484 72.3314C26.4178 72.7253 26.4433 73.1239 26.4433 73.5178C27.3557 74.0797 32.6726 75.4438 34.2375 75.4966C34.3344 75.3237 34.4415 75.1364 34.5434 74.9443C35.3845 73.3112 36.2256 71.6734 37.0667 70.0452C37.3216 69.5552 37.3267 69.5744 37.8925 69.6225C39.7736 69.7762 41.6597 69.7618 43.5458 69.6369C44.1423 69.5985 44.1473 69.5744 44.4124 70.0884C45.2331 71.6878 46.0488 73.2872 46.8695 74.8866C46.9765 75.098 47.0938 75.3093 47.2263 75.5543C49.9281 75.146 52.5329 74.5024 55.0614 73.5802C55.0716 73.4361 55.0869 73.3353 55.0818 73.2392C54.9339 71.3708 54.7912 69.4976 54.6332 67.6292C54.5771 66.9664 54.5618 66.9712 55.2092 66.6782C56.8404 65.9481 58.3952 65.1028 59.8888 64.147C60.6025 63.6859 60.4496 63.6859 61.1479 64.1278C62.6925 65.1124 64.232 66.1018 65.7715 67.0913C65.9601 67.2113 66.1538 67.3218 66.3628 67.4467C68.4987 65.7944 70.4103 64.0077 72.118 62.0192C70.7825 60.1508 69.4928 58.3497 68.198 56.5485C68.3305 56.3564 68.4223 56.2027 68.5293 56.0586C69.5947 54.6129 70.5276 53.0951 71.3228 51.5005C71.6593 50.8281 71.6338 50.9529 72.22 50.9913C74.1418 51.1114 76.0636 51.2507 77.9905 51.366C78.643 51.4044 78.643 51.39 78.8571 50.8377C79.4943 49.1854 80.0041 47.4947 80.3915 45.7752C80.524 45.194 80.6158 44.6081 80.7279 44.0029C80.4884 43.8828 80.3049 43.7868 80.1162 43.6955C79.5096 43.4073 78.903 43.1287 78.2913 42.8501ZM64.5787 40.6455C65.2464 40.9529 65.9142 41.2555 66.5769 41.5629C67.0969 41.8031 67.0969 41.8079 67.0051 42.3314C66.7604 43.6907 66.373 45.0211 65.8734 46.3132C65.6695 46.8463 65.6492 46.8463 65.0425 46.8031C63.8191 46.7166 62.5906 46.6302 61.3671 46.5485C61.2856 46.5437 61.1989 46.5485 61.0919 46.5485C61.0154 46.6734 60.944 46.7887 60.8727 46.9087C60.3017 47.8405 59.7512 48.7868 59.1497 49.6993C58.9458 50.0067 58.9407 50.2084 59.1599 50.4966C59.8073 51.3612 60.4241 52.245 61.0562 53.1191C61.1836 53.2968 61.306 53.4841 61.4334 53.6811C61.3162 53.8348 61.2397 53.9789 61.1225 54.0845C60.0774 55.074 59.0375 56.073 57.9772 57.0432C57.5898 57.3938 57.5592 57.3746 57.1106 57.0864C56.0044 56.3804 54.9033 55.6744 53.8074 54.9683C52.538 55.66 51.2942 56.3324 49.9739 57.0528C50.0249 57.7589 50.0759 58.5322 50.132 59.3007C50.1727 59.8578 50.2033 60.415 50.2594 60.9721C50.2849 61.2315 50.1931 61.3756 49.9281 61.4669C48.4294 61.9808 46.895 62.3554 45.33 62.6292C45.0088 62.6868 44.8712 62.5283 44.754 62.293C44.2442 61.2844 43.7089 60.2853 43.2145 59.2719C43.0412 58.9116 42.8373 58.7771 42.3989 58.7915C41.2774 58.83 40.1559 58.8156 39.0293 58.7915C38.6827 58.7819 38.4941 58.8732 38.3462 59.1758C37.8467 60.1892 37.3216 61.1931 36.8017 62.1969C36.5519 62.6772 36.5468 62.6724 35.9758 62.5764C34.5332 62.341 33.1263 61.9808 31.7499 61.5053C31.2096 61.318 31.2096 61.2987 31.2554 60.7656C31.3574 59.6129 31.4389 58.4553 31.546 57.3026C31.5664 57.0624 31.4695 56.9424 31.2605 56.8319C30.1951 56.2603 29.1246 55.6936 28.0745 55.0932C27.7941 54.9347 27.6106 55.0115 27.3863 55.1556C26.4586 55.7512 25.5308 56.3468 24.5979 56.9376C24.4042 57.0576 24.2105 57.1777 23.9862 57.317C23.818 57.2065 23.6498 57.1249 23.5223 57.0048C22.4875 56.0346 21.4476 55.0692 20.4332 54.0797C20.0355 53.6907 20.061 53.6619 20.3822 53.2152C21.0347 52.3026 21.677 51.39 22.3499 50.4918C22.5742 50.1892 22.5895 49.9683 22.3703 49.6417C21.6923 48.633 21.0704 47.5908 20.3873 46.5005C19.7195 46.5389 18.9803 46.5821 18.2463 46.6254C17.6142 46.6638 16.977 46.6926 16.3449 46.7598C15.9829 46.7983 15.7892 46.7022 15.6924 46.366C15.3661 45.2517 15.0144 44.147 14.6932 43.0279C14.5811 42.6436 14.5352 42.2498 14.4434 41.7887C15.7892 41.0874 17.2166 40.5351 18.547 39.8674C18.547 38.4842 18.547 37.1489 18.547 35.732C18.4094 35.6599 18.2157 35.5543 18.0118 35.4582C17.0025 34.9923 15.9931 34.5312 14.9838 34.0749C14.367 33.7964 14.4689 33.7339 14.5454 33.3112C14.8054 31.9328 15.1928 30.5879 15.6975 29.2719C15.8759 28.806 15.8912 28.7964 16.4417 28.83C17.5836 28.902 18.7255 28.9885 19.8622 29.0653C20.0712 29.0797 20.2802 29.0653 20.4332 29.0653C21.1723 27.8597 21.8809 26.707 22.6302 25.487C21.8146 24.3487 20.9633 23.1623 20.0967 21.9424C21.259 20.5687 22.5436 19.3679 23.9964 18.2632C25.2708 19.0749 26.5146 19.8674 27.7585 20.6599C29.0329 19.9683 30.292 19.2815 31.5919 18.5754C31.5409 17.8309 31.4848 17.0576 31.4288 16.2843C31.3931 15.7464 31.3676 15.2085 31.3115 14.6705C31.2809 14.3727 31.4084 14.243 31.6887 14.147C33.1467 13.6475 34.6403 13.2872 36.1594 13.0086C36.5315 12.9414 36.6946 13.0999 36.8373 13.3833C37.3318 14.3775 37.862 15.3573 38.3462 16.3564C38.5196 16.7118 38.7184 16.8607 39.1568 16.8415C40.2579 16.8031 41.3589 16.8319 42.46 16.8319C42.6283 16.8319 42.7965 16.8319 43.0106 16.8319C43.6682 15.5591 44.3258 14.2911 45.0088 12.975C45.3453 13.0231 45.6562 13.0423 45.957 13.1191C47.2467 13.4409 48.5313 13.7675 49.8108 14.123C50.3512 14.2719 50.3563 14.3295 50.3155 14.8578C50.2237 15.9914 50.1371 17.1249 50.0453 18.2632C50.03 18.4697 50.0198 18.6427 50.2594 18.7675C51.4472 19.3775 52.6247 20.0019 53.8736 20.6599C55.0716 19.8962 56.3307 19.0989 57.6204 18.2776C57.967 18.5562 58.2882 18.7867 58.5685 19.0509C59.4351 19.8722 60.2966 20.6984 61.1377 21.5389C61.5354 21.9376 61.515 21.9568 61.1989 22.4035C60.5464 23.316 59.9041 24.2286 59.2312 25.1268C59.0069 25.4246 58.9764 25.6455 59.2006 25.9769C59.8786 26.9856 60.5056 28.0279 61.1887 29.123C61.831 29.0845 62.5447 29.0461 63.2584 28.9981C63.9364 28.9549 64.6092 28.9068 65.2872 28.8444C65.588 28.8204 65.7613 28.9164 65.8633 29.1854C66.4036 30.5975 66.8063 32.0432 67.0918 33.5178C67.153 33.8348 66.9694 33.9404 66.7248 34.0557C65.7103 34.512 64.701 34.9779 63.6917 35.439C63.4827 35.5351 63.2788 35.6359 63.0392 35.7464C63.0392 37.1201 63.0392 38.489 63.0392 39.9107C63.5234 40.1556 64.0485 40.4006 64.5787 40.6455Z" fill="#363636"/>
<path d="M105.467 6.91846C103.183 6.91846 100.94 6.91846 98.6919 6.91846C98.6307 7.01932 98.5746 7.10577 98.5338 7.19223C94.9247 15.3959 91.3207 23.5995 87.7167 31.8032C87.7014 31.8368 87.7014 31.88 87.6963 31.9184C87.6963 31.9377 87.7116 31.9569 87.7167 31.9713C87.7269 31.9857 87.7371 32.0049 87.7728 32.0529C89.3785 32.0529 91.0047 32.0577 92.6359 32.0529C93.8848 32.0481 94.6138 31.5582 95.0369 30.4583C95.4804 29.3152 95.9137 28.1672 96.3572 27.0241C96.4336 26.8224 96.5305 26.6255 96.6069 26.4429C100.272 26.4429 103.886 26.4429 107.511 26.4429C107.608 26.6783 107.689 26.88 107.771 27.0866C108.204 28.2105 108.632 29.3392 109.066 30.4631C109.499 31.5822 110.187 32.0433 111.467 32.0529C112.97 32.0625 114.474 32.0577 115.978 32.0529C116.116 32.0529 116.253 32.0289 116.493 32.0097C112.807 23.6043 109.142 15.2662 105.467 6.91846ZM97.8406 22.3555C99.0895 18.9886 100.338 15.636 101.613 12.2114C102.892 15.6264 104.146 18.979 105.4 22.3315C104.88 22.4852 98.5389 22.5044 97.8406 22.3555Z" fill="#363636"/>
<path d="M108.352 56.9711C107.99 56.9423 107.72 56.9231 107.337 56.8943C107.337 55.1363 107.337 53.4361 107.337 51.7021C106.073 51.7021 104.875 51.7021 103.642 51.7021C103.621 51.9327 103.611 52.1248 103.591 52.3217C103.504 53.2151 103.443 54.1133 103.31 54.9971C103.234 55.4822 103.055 55.9625 102.877 56.4284C102.755 56.7406 102.51 56.9615 102.107 56.9423C102.01 56.9375 101.909 56.9807 101.781 57.0096C101.776 57.6772 101.74 58.3256 101.801 58.9692C102.515 59.0076 102.541 58.9884 102.551 58.4361C102.556 58.1671 102.551 57.8933 102.551 57.5715C104.279 57.5763 105.915 57.5523 107.618 57.5907C107.618 58.0998 107.618 58.5321 107.618 58.95C108.23 59.0076 108.332 58.9932 108.347 58.7435C108.393 58.1527 108.388 57.5619 108.352 56.9711ZM106.451 56.8943C105.467 56.8943 104.513 56.8943 103.489 56.8943C104.233 55.4341 104.279 53.8972 104.442 52.3458C105.12 52.3458 105.762 52.3458 106.451 52.3458C106.451 53.8587 106.451 55.3573 106.451 56.8943Z" fill="#363636"/>
<path d="M122.814 64.5456C122.717 64.512 122.625 64.464 122.437 64.3775C122.931 64.1422 123.273 63.8828 123.41 63.4457C123.655 62.6532 123.232 61.9087 122.355 61.6782C121.361 61.414 120.347 61.5725 119.307 61.5437C119.307 63.5322 119.307 65.4534 119.307 67.4035C120.234 67.4035 121.121 67.4419 122.003 67.3842C122.36 67.3602 122.742 67.1921 123.048 66.9952C123.879 66.4668 124.002 64.9683 122.814 64.5456ZM120.143 62.1873C120.724 62.1585 121.305 62.1057 121.881 62.2401C122.37 62.3506 122.595 62.6292 122.625 63.0807C122.656 63.5418 122.437 63.9452 121.963 64.0413C121.397 64.1566 120.805 64.1662 120.143 64.2286C120.143 63.489 120.143 62.879 120.143 62.1873ZM122.064 66.7118C121.443 66.8655 120.816 66.8127 120.148 66.7646C120.148 66.1018 120.148 65.4774 120.148 64.781C120.795 64.7233 121.443 64.6897 122.085 64.8242C122.574 64.9251 122.834 65.2805 122.834 65.7416C122.839 66.2363 122.579 66.5869 122.064 66.7118Z" fill="#363636"/>
<path d="M115.025 61.4619C113.23 61.4331 111.93 62.6387 111.879 64.3822C111.828 66.1737 113.052 67.4418 114.882 67.4898C116.722 67.5378 118.027 66.3322 118.063 64.5503C118.093 62.7732 116.839 61.4956 115.025 61.4619ZM117.094 65.1507C116.896 66.2122 116.07 66.8174 114.948 66.8078C113.852 66.7981 113.072 66.2026 112.833 65.1795C112.777 64.949 112.761 64.7088 112.726 64.459C112.766 64.2093 112.792 63.9547 112.858 63.705C113.123 62.7251 113.908 62.1632 114.989 62.168C116.065 62.1728 116.865 62.7395 117.079 63.7386C117.166 64.1901 117.176 64.6896 117.094 65.1507Z" fill="#363636"/>
<path d="M135.104 61.4619C133.31 61.4331 132.01 62.6387 131.959 64.3822C131.908 66.1737 133.137 67.4418 134.962 67.485C136.802 67.533 138.102 66.3274 138.142 64.5455C138.183 62.778 136.919 61.4956 135.104 61.4619ZM135.879 66.6685C134.549 67.0959 132.815 66.5484 132.831 64.4398C132.851 62.7732 134.182 61.7933 135.777 62.264C136.7 62.5378 137.24 63.3111 137.266 64.4062C137.296 65.5205 136.781 66.3803 135.879 66.6685Z" fill="#363636"/>
<path d="M108.566 41.7646C107.134 41.9327 106.119 42.951 105.977 44.3727C105.824 45.9241 106.604 47.1777 107.98 47.6052C108.041 47.6244 108.102 47.6388 108.163 47.6532C110.33 48.1719 112.134 46.8415 112.124 44.7281C112.114 42.7829 110.61 41.5293 108.566 41.7646ZM111.166 45.4774C110.916 46.5101 110.09 47.096 108.954 47.0624C107.863 47.0336 107.073 46.4092 106.894 45.3813C106.828 44.9971 106.823 44.584 106.879 44.195C107.047 43.0807 107.888 42.413 109.05 42.4227C110.208 42.4323 111.033 43.1191 111.202 44.2286C111.227 44.4063 111.232 44.584 111.253 44.8098C111.232 45.0019 111.222 45.2469 111.166 45.4774Z" fill="#363636"/>
<path d="M149.505 41.7934C148.975 41.7982 148.445 41.7741 147.92 41.8222C147.589 41.851 147.252 41.9471 146.951 42.0864C146.345 42.3697 146.07 42.8789 146.08 43.5081C146.09 44.118 146.38 44.5743 146.972 44.8529C147.115 44.9202 147.252 44.9874 147.405 45.0595C146.712 45.7607 145.626 47.2449 145.509 47.6531C146.029 47.7924 146.396 47.6291 146.681 47.1968C147.007 46.7069 147.38 46.2458 147.736 45.7751C148.226 45.1267 148.618 45.0162 149.536 45.2852C149.536 46.0585 149.536 46.851 149.536 47.6531C149.837 47.6531 150.076 47.6531 150.336 47.6531C150.336 45.7031 150.336 43.7962 150.336 41.803C150.01 41.7934 149.755 41.7934 149.505 41.7934ZM149.48 44.5119C148.924 44.5119 148.44 44.5455 147.961 44.5023C147.252 44.4399 146.916 44.0796 146.926 43.46C146.936 42.8741 147.257 42.5282 147.945 42.4658C148.44 42.4226 148.945 42.4562 149.475 42.4562C149.48 43.1526 149.48 43.801 149.48 44.5119Z" fill="#363636"/>
<path d="M142.063 56.7839C141.395 55.2133 140.722 53.6427 140.07 52.0625C139.942 51.7503 139.754 51.6542 139.407 51.6494C139.04 51.6494 138.948 51.8511 138.841 52.1009C138.138 53.7676 137.429 55.4294 136.731 57.0961C136.68 57.221 136.644 57.3507 136.598 57.4851C137.312 57.6292 137.358 57.61 137.592 57.0769C137.75 56.7118 137.908 56.342 138.066 55.9674C139.004 55.9674 139.907 55.9674 140.85 55.9674C141.002 56.318 141.15 56.6686 141.298 57.0144C141.553 57.61 141.563 57.6196 142.348 57.4947C142.251 57.2546 142.16 57.0144 142.063 56.7839ZM138.316 55.3286C138.693 54.4064 139.04 53.5466 139.392 52.6869C139.432 52.6821 139.473 52.6773 139.514 52.6773C139.871 53.5466 140.223 54.416 140.6 55.3334C139.805 55.3286 139.101 55.3286 138.316 55.3286Z" fill="#363636"/>
<path d="M98.157 61.5771C97.795 61.5771 97.53 61.5771 97.2598 61.5771C96.434 63.5272 95.6235 65.4388 94.8027 67.3745C95.6184 67.4705 95.6133 67.4705 95.8681 66.8749C96.016 66.5291 96.1689 66.1833 96.3116 65.8519C97.2751 65.8519 98.1774 65.8519 99.0593 65.8519C99.1102 65.9095 99.1459 65.9383 99.1612 65.972C99.2886 66.2649 99.4161 66.5627 99.5384 66.8605C99.8035 67.4849 99.8392 67.5089 100.604 67.3408C99.7831 65.4196 98.9726 63.4984 98.157 61.5771ZM96.5614 65.2083C96.9386 64.2813 97.2955 63.4023 97.7084 62.3937C98.1111 63.3831 98.4679 64.2621 98.8553 65.2083C98.0499 65.2083 97.3464 65.2083 96.5614 65.2083Z" fill="#363636"/>
<path d="M129.375 41.8271C129.054 41.8271 128.789 41.8271 128.493 41.8271C127.672 43.7628 126.857 45.6792 126.041 47.6101C126.831 47.7493 126.846 47.7397 127.101 47.1345C127.249 46.7887 127.397 46.4429 127.535 46.1211C128.503 46.1211 129.405 46.1211 130.287 46.1211C130.338 46.1835 130.374 46.2076 130.389 46.2412C130.517 46.5342 130.644 46.832 130.767 47.1297C131.021 47.7301 131.021 47.7301 131.837 47.6293C131.001 45.66 130.185 43.7388 129.375 41.8271ZM127.805 45.4631C128.136 44.5553 128.524 43.6907 128.993 42.807C129.344 43.6715 129.696 44.5361 130.078 45.4631C129.298 45.4631 128.6 45.4631 127.805 45.4631Z" fill="#363636"/>
<path d="M91.7592 41.8271C91.5961 41.8127 91.4738 41.7935 91.3463 41.7935C91.1985 41.7935 91.0558 41.8127 90.9232 41.8223C90.3574 42.8357 88.5528 47.2257 88.5273 47.6436C89.2359 47.7109 89.2308 47.7108 89.4704 47.1537C89.6182 46.8079 89.7661 46.4573 89.9088 46.1258C90.8773 46.1258 91.8 46.1258 92.6972 46.1258C92.7431 46.1979 92.7686 46.2315 92.7839 46.2699C92.9113 46.5677 93.0336 46.8607 93.156 47.1585C93.3905 47.7157 93.3905 47.7156 94.2163 47.634C93.3905 45.6695 92.5749 43.7483 91.7592 41.8271ZM90.1688 45.4822C90.5511 44.5504 90.9079 43.6715 91.3157 42.6676C91.7236 43.6571 92.0804 44.5264 92.4729 45.4822C91.6522 45.4822 90.964 45.4822 90.1688 45.4822Z" fill="#363636"/>
<path d="M131.307 63.1767C131.251 62.413 130.812 61.8798 130.002 61.6685C129.074 61.4332 128.131 61.5484 127.178 61.5628C127.178 63.5513 127.178 65.4677 127.178 67.3842C127.463 67.3842 127.703 67.3842 127.988 67.3842C127.988 66.6637 127.988 65.9913 127.988 65.2324C128.371 65.2324 128.671 65.2612 128.957 65.2276C129.39 65.1747 129.849 65.1315 130.247 64.9826C131.016 64.6848 131.373 64.0124 131.307 63.1767ZM129.421 64.5455C129.319 64.5647 129.212 64.5744 129.105 64.5744C128.768 64.5792 128.432 64.5744 128.019 64.5744C128.019 63.753 128.019 63.0086 128.019 62.2305C128.498 62.1104 128.982 62.1296 129.451 62.2064C130.129 62.3169 130.481 62.7444 130.471 63.3784C130.461 63.9932 130.073 64.4255 129.421 64.5455Z" fill="#363636"/>
<path d="M153.925 55.6166C153.859 54.9441 153.446 54.5119 152.763 54.3486C152.36 54.2525 151.927 54.2381 151.509 54.2093C151.198 54.1901 150.887 54.2045 150.499 54.2045C150.499 53.3207 150.499 52.5138 150.499 51.6973C150.199 51.6973 149.974 51.6973 149.714 51.6973C149.714 53.6857 149.714 55.5926 149.714 57.5762C150.678 57.5426 151.6 57.6579 152.523 57.4754C152.727 57.4369 152.931 57.3553 153.109 57.2544C153.762 56.8798 153.991 56.3034 153.925 55.6166ZM152.263 56.8702C152.141 56.899 152.013 56.9134 151.886 56.9134C151.468 56.9182 151.045 56.9134 150.55 56.9134C150.55 56.2074 150.55 55.5782 150.55 54.8673C151.126 54.8193 151.708 54.7856 152.278 54.8961C152.839 55.0018 153.089 55.338 153.084 55.8808C153.079 56.4091 152.804 56.7453 152.263 56.8702Z" fill="#363636"/>
<path d="M165.889 55.6312C165.823 54.9732 165.425 54.5169 164.681 54.3344C164.299 54.2431 163.886 54.2335 163.488 54.2095C163.177 54.1903 162.866 54.2047 162.474 54.2047C162.474 53.3306 162.474 52.5236 162.474 51.7119C162.158 51.7119 161.918 51.7119 161.673 51.7119C161.673 53.6716 161.673 55.5784 161.673 57.5477C162.509 57.5477 163.274 57.5717 164.034 57.538C164.339 57.5236 164.661 57.4324 164.946 57.3075C165.619 57.0193 165.96 56.3757 165.889 55.6312ZM164.202 56.8608C163.667 56.9232 163.116 56.8752 162.504 56.8752C162.504 56.2028 162.504 55.5736 162.504 54.9012C163.075 54.7955 163.636 54.8099 164.192 54.8916C164.763 54.978 165.033 55.3094 165.043 55.8426C165.053 56.3949 164.778 56.7936 164.202 56.8608Z" fill="#363636"/>
<path d="M105.645 63.1143C105.574 62.3794 105.145 61.8943 104.406 61.6878C103.463 61.4236 102.5 61.5677 101.531 61.5533C101.531 63.5562 101.531 65.4774 101.531 67.4083C101.801 67.4083 102.026 67.4083 102.321 67.4083C102.321 66.6926 102.321 66.0058 102.321 65.2325C102.744 65.2325 103.066 65.2709 103.377 65.2228C103.83 65.1556 104.309 65.1028 104.712 64.9203C105.487 64.56 105.722 63.8924 105.645 63.1143ZM104.819 63.4793C104.763 64.0365 104.391 64.4255 103.79 64.5408C103.626 64.5696 103.453 64.5792 103.285 64.5792C102.994 64.584 102.704 64.5792 102.352 64.5792C102.352 63.7387 102.352 63.0086 102.352 62.2786C102.872 62.1105 103.723 62.1201 104.146 62.2978C104.615 62.5043 104.87 62.951 104.819 63.4793Z" fill="#363636"/>
<path d="M129.569 53.3494C129.518 52.5425 129.079 51.9998 128.243 51.7884C127.331 51.5579 126.403 51.6876 125.404 51.6588C125.404 53.6616 125.404 55.5877 125.404 57.5329C125.72 57.5329 125.939 57.5329 126.23 57.5329C126.23 56.8125 126.23 56.1208 126.23 55.3475C126.678 55.3475 127.02 55.3763 127.351 55.3427C127.728 55.3043 128.116 55.2611 128.462 55.1314C129.247 54.8384 129.62 54.19 129.569 53.3494ZM127.963 54.5838C127.443 54.7135 126.887 54.7135 126.275 54.7808C126.275 53.8922 126.275 53.1429 126.275 52.3552C126.801 52.3552 127.305 52.3072 127.795 52.3696C128.376 52.4417 128.702 52.8595 128.738 53.4167C128.773 53.9546 128.503 54.4493 127.963 54.5838Z" fill="#363636"/>
<path d="M55.2804 36.4334C56.1673 36.0203 57.0543 35.6072 57.9566 35.1846C57.7527 34.0751 57.4978 33.0328 57.0492 32.0482C56.8504 32.0482 56.7077 32.0386 56.5599 32.0482C55.8615 32.0914 55.1631 32.1442 54.4698 32.1923C54.2608 32.2067 54.062 32.2211 53.9295 31.9905C53.5115 31.2556 53.068 30.5304 52.6092 29.7523C53.1444 29.003 53.695 28.2345 54.2608 27.442C53.5115 26.5582 52.6959 25.7946 51.7987 25.1077C50.927 25.6601 50.1215 26.1692 49.3059 26.6831C49.0052 26.5006 48.7401 26.3421 48.4699 26.1836C48.1997 26.0299 47.9245 25.8762 47.6441 25.7321C46.7265 25.2662 46.7316 25.271 46.8132 24.296C46.8642 23.686 46.8948 23.076 46.9304 22.4564C45.8039 22.0626 44.7232 21.7552 43.566 21.6303C43.1123 22.4997 42.6841 23.3162 42.2559 24.1327C42.0265 24.1327 41.8379 24.1327 41.6493 24.1327C41.058 24.1327 40.4666 24.1135 39.8753 24.1327C39.3095 24.1519 39.3044 24.1711 39.0546 23.6908C38.7029 23.0136 38.3511 22.3315 37.9841 21.6255C36.8116 21.7456 35.7309 22.0434 34.6451 22.442C34.6451 22.6678 34.6349 22.8647 34.6451 23.0568C34.6859 23.6764 34.7471 24.2912 34.7726 24.9108C34.7777 25.0645 34.7114 25.2998 34.5942 25.3671C33.8193 25.809 33.019 26.2124 32.1932 26.6447C31.3827 26.1308 30.567 25.6072 29.7463 25.0837C28.8033 25.809 28.0029 26.5678 27.274 27.4132C27.8551 28.2249 28.4056 28.9982 28.9307 29.7283C28.4974 30.4439 28.0998 31.0779 27.7277 31.7215C27.4575 32.1874 27.4677 32.1874 26.9018 32.1442C26.1015 32.0866 25.3063 32.0386 24.4856 31.9809C24.0472 33.0184 23.7515 34.051 23.5884 35.1605C24.4958 35.5832 25.3776 35.9963 26.2391 36.3949C26.2391 37.3652 26.2391 38.2777 26.2391 39.2047C25.3522 39.6178 24.4805 40.0213 23.5884 40.4343C23.7413 41.5342 24.037 42.5621 24.4805 43.6044C25.4949 43.5467 26.4838 43.4939 27.4422 43.4411C27.952 44.2768 28.4362 45.0693 28.9256 45.8714C28.3751 46.6447 27.8347 47.4036 27.2689 48.1961C28.008 49.0606 28.8236 49.8291 29.7361 50.5256C30.5976 49.978 31.4183 49.4593 32.1932 48.9646C33.0904 49.4545 33.9111 49.9012 34.7777 50.3767C34.7165 51.2845 34.6502 52.2115 34.584 53.1769C35.6902 53.5611 36.7759 53.8733 37.9484 54.0078C38.397 53.1529 38.8354 52.3171 39.2636 51.5054C40.0639 51.5054 40.8031 51.515 41.5422 51.5006C42.2814 51.4862 42.1692 51.3853 42.5312 52.0722C42.8676 52.711 43.1939 53.3546 43.5405 54.027C44.7181 53.8493 45.8141 53.5995 46.8947 53.1721C46.8336 52.2019 46.7775 51.2701 46.7214 50.3815C47.6084 49.9012 48.4291 49.4545 49.3008 48.979C50.1012 49.4881 50.9219 50.0117 51.8089 50.5784C52.6347 49.8003 53.4401 49.0414 54.2659 48.2633C53.6491 47.3988 53.1037 46.6399 52.5786 45.8954C52.9915 45.2134 53.3891 44.5794 53.7664 43.9358C54.0569 43.4363 54.0416 43.4314 54.6381 43.4747C55.418 43.5323 56.1979 43.5851 57.0339 43.6428C57.4468 42.6005 57.7782 41.563 57.9209 40.4583C57.0135 40.0357 56.1419 39.6322 55.2651 39.2239C55.2804 38.2921 55.2804 37.3796 55.2804 36.4334ZM40.7623 43.7484C37.2653 43.7484 34.4769 41.102 34.4871 37.7974C34.4973 34.5314 37.2806 31.8945 40.7419 31.8752C44.2134 31.856 47.0477 34.5169 47.0528 37.807C47.0579 41.1068 44.2593 43.7532 40.7623 43.7484Z" fill="#363636"/>
</svg>
